<svg xmlns="http://www.w3.org/2000/svg" width="65.5" height="65.5" style="overflow:visible;enable-background:new 0 0 65.5 65.5" xml:space="preserve">
    <style>
        .st0{fill:#fff}.st1{fill:#d54830}
    </style>
    <circle class="st0" cx="32.8" cy="32.8" r="32.3"/>
    <path class="st1" d="M32.8 65.5C14.7 65.5 0 50.8 0 32.8 0 14.7 14.7 0 32.8 0c18.1 0 32.8 14.7 32.8 32.8-.1 18-14.8 32.7-32.8 32.7zm0-64.5C15.2 1 1 15.2 1 32.8s14.2 31.8 31.8 31.8 31.8-14.2 31.8-31.8S50.3 1 32.8 1z"/>
    <circle class="st0" cx="32.6" cy="32.9" r="32.4"/>
    <path class="st1" d="M33.1 65.3h-1C32.1 49.5 16 33.4.2 33.4v-1C16 32.4 32.1 16.3 32.1.5h1c0 15.8 16.1 31.9 31.9 31.9v1c-15.8 0-31.9 16.1-31.9 31.9zM5.2 32.9C18.1 35.5 30 47.4 32.6 60.3 35.2 47.4 47.2 35.5 60 32.9 47.2 30.4 35.2 18.4 32.6 5.5 30.1 18.4 18.1 30.4 5.2 32.9z"/>
</svg>
