<svg xmlns="http://www.w3.org/2000/svg" width="288.4" height="405.8" style="overflow:visible;enable-background:new 0 0 288.4 405.8" xml:space="preserve">
    <style>
        .st0{fill:#fff}.st1{fill:#080502}
    </style>
    <path class="st0" d="M230.6 312.3s47.6-6.1 54.8-15.1c0 0-7.2 39.7-41.5 37.9l-13.3-22.8z"/>
    <path class="st1" d="M246.1 338.1c-.8 0-1.6 0-2.4-.1-1-.1-1.9-.6-2.4-1.5L228 313.8c-.5-.9-.5-1.9-.1-2.8.4-.9 1.3-1.5 2.3-1.7 33.8-4.3 50.4-10.9 52.9-14 .9-1.1 2.3-1.4 3.6-.9 1.3.6 2 1.9 1.7 3.3-.1.4-7.8 40.4-42.3 40.4zm-.5-6c21.3.2 30.9-17.7 34.7-28.1-12.3 5.5-34.4 9.2-44.9 10.7l10.2 17.4z"/>
    <path class="st0" d="M265.9 374.9c13.9-18.9-15.3-68.2-24.7-82.1-18.7-27.5-16.6-57.6-26.5-88.2-3.9-12.1-9.1-23.9-15.2-35-.5-.9-2.5-5.3-4.5-8.8l1.2-.9c20.1-15.3 12.2-32 16.3-52.1 1.4-6.9 5.2-13.3 8-19.9 7.1-16.8.7-37.2-10.6-51.4-3.4-4.3-7.5-8.2-12.1-11.2-16.1-10.6-37.2-13.2-56.7-13.5h-1.7c-25.5.2-55.3 4.6-70.6 24.7C61 46.8 55.9 59 55.3 71.5c-.6 12.8 7.1 22.1 10.4 34 5.5 19.8-2.7 39.5 17.2 54 .2.1.3.2.5.4-2.1 3.5-4.5 8.7-5 9.7-6.1 11.1-11.3 22.8-15.2 35-9.9 30.7-7.8 60.8-26.5 88.2C27.2 306.7-1.9 356 12 374.9c-7.2 5-13.2 12.5-4.4 18.7 13.3 9.3 43.3 8.7 58.5 4.8 3.6-.9 7.3-2.4 9.9-5 3.7-3.8 4.8-2.3 4.1-5.8l59-5.3 59 5.3c-.7 3.5.4 2 4.1 5.8 2.6 2.7 6.2 4.1 9.9 5 15.2 3.9 45.2 4.5 58.5-4.8 8.5-6.2 2.4-13.6-4.7-18.7z"/>
    <path class="st1" d="M236.4 404.1c-9.1 0-18.4-1-25.4-2.8-5.1-1.3-8.6-3.2-11.3-5.9-1.1-1.2-1.9-1.7-2.6-2.2-1.4-.9-2.1-1.8-2.4-3l-55.9-5-55.9 5c-.3 1.2-1 2.1-2.4 3-.6.4-1.4 1-2.6 2.2-2.6 2.7-6.2 4.5-11.3 5.9-8.4 2.1-20.2 3.2-30.8 2.7-9.2-.4-21.9-2.2-30.1-7.9-3.8-2.6-5.7-5.8-5.7-9.3 0-4.9 3.8-9.3 7.8-12.5-4.8-9.2-3.2-23.8 4.8-43.3 6.3-15.3 15.5-31 21.4-39.8 11.6-17.1 15-35.2 18.5-54.4 2-10.8 4-21.9 7.7-33.1 3.9-12.1 9.1-24.1 15.4-35.5.1-.3.4-.8.8-1.5.7-1.5 1.8-3.7 3-5.9-13-10.5-13.7-23.4-14.3-36-.3-6.1-.6-12.3-2.3-18.4-1.1-4.1-2.9-8-4.6-11.8-3.1-7-6.3-14.3-5.9-23.2.6-12.6 5.4-25.3 14.1-36.7 13-17.1 36.8-25.6 72.9-25.9h1.8c16.3.3 40.2 2 58.3 14 4.8 3.1 9.1 7.1 12.8 11.9 10.2 12.9 19.3 34.9 11 54.5-.8 2-1.8 4-2.7 5.9-2.2 4.6-4.2 8.9-5.1 13.5-1.2 5.8-1.4 11.3-1.5 16.7-.4 12.9-.7 25.1-15.1 36.5 1 1.8 1.8 3.6 2.5 4.9.4.7.6 1.3.8 1.5 6.3 11.4 11.5 23.4 15.4 35.5 3.6 11.2 5.7 22.3 7.7 33.1 3.5 19.2 6.9 37.3 18.5 54.4 6 8.8 15.1 24.4 21.4 39.8 8 19.5 9.6 34.1 4.8 43.3 4 3.2 7.8 7.6 7.8 12.5 0 3.6-1.9 6.7-5.7 9.3-8.2 5.8-20.9 7.5-30.1 7.9-1.8 0-3.7.1-5.5.1zm-35.7-15.7c.8.5 1.9 1.3 3.3 2.8 1.8 1.9 4.5 3.2 8.5 4.2 15.2 3.9 43.9 4.2 56-4.3 2.1-1.4 3.1-2.9 3.1-4.4 0-2.6-2.7-5.9-7.5-9.3-.7-.5-1.1-1.2-1.2-2-.1-.8.1-1.6.5-2.3 10.8-14.8-9.5-56.1-24.8-78.7-12.3-18.1-15.8-36.9-19.4-56.7-1.9-10.6-4-21.5-7.5-32.3-3.8-11.8-8.8-23.3-15-34.4-.2-.3-.5-.9-.9-1.8-.9-1.8-2.3-4.6-3.6-6.9-.8-1.3-.4-3 .8-3.9l.5-.3c.2-.2.4-.3.7-.5 13-9.9 13.2-19.9 13.6-32.6.2-5.6.3-11.4 1.6-17.7 1.1-5.3 3.4-10.1 5.6-14.8.9-1.9 1.8-3.8 2.6-5.7 7.2-17.2-.9-36.8-10.2-48.4-3.4-4.2-7.2-7.8-11.4-10.6-16.8-11.1-39.5-12.7-55.1-13h-1.7c-34.1.3-56.4 8-68.1 23.5-7.8 10.3-12.3 22.1-12.9 33.3-.3 7.5 2.5 13.8 5.4 20.4 1.8 4 3.6 8.1 4.9 12.6 1.9 6.7 2.2 13.3 2.5 19.7.7 12.7 1.2 23.7 13.5 32.7l.2.1c.1.1.2.1.3.2 1.3.9 1.6 2.7.8 4-1.5 2.4-3.1 5.7-4.1 7.7-.4.9-.7 1.5-.9 1.8-6.1 11.1-11.2 22.7-15 34.4-3.5 10.8-5.5 21.8-7.5 32.3-3.7 19.8-7.1 38.5-19.4 56.7-15.3 22.6-35.6 63.9-24.8 78.7.5.6.7 1.5.5 2.3-.1.8-.6 1.5-1.2 2-4.8 3.4-7.5 6.8-7.5 9.3 0 1.5 1.1 3 3.1 4.4 12.1 8.5 40.8 8.3 56 4.3 4-1 6.6-2.4 8.5-4.2 1.5-1.5 2.6-2.3 3.3-2.8 0-.1 0-.2-.1-.3-.2-.8 0-1.7.5-2.4s1.3-1.1 2.1-1.2l59-5.3h.5l59 5.3c.8.1 1.6.5 2.1 1.2s.7 1.5.5 2.4c.3.3.3.4.3.5z"/>
    <path class="st0" d="M64.4 278.1c1.3 29.4 8.5 66.5 31.9 97.3-1.7-2.2-6.5-1.2-8.9-.9-6.4.8-11.6 4.7-12.9 11.3-1.1 5.7 1.3 11.6 7 13.7 13.3 4.8 28.6 4.6 41.5-1.5 6.3-3 3.6-19.1 3.6-25.2 0-22.5-1.7-44.9-3.3-67.3-.8-11.4-1.6-22.7-2.1-34.1-.3-7.9.3-18.2 7.2-23.4"/>
    <path class="st1" d="M100.8 405.8c-6.8 0-13.7-1.2-20.3-3.5-6.7-2.4-10.4-9.4-9-17 1.4-7.5 7.3-12.7 15.4-13.7.3 0 .6-.1.9-.1.5-.1 1-.1 1.6-.2-21.1-31.2-27-67.4-28.1-92.9-.1-1.7 1.2-3.1 2.9-3.1 1.6-.1 3.1 1.2 3.1 2.9 1.2 26.4 7.6 64.4 31.2 95.6 1 1.3.7 3.2-.6 4.2-1.3 1-3.2.7-4.2-.6-.7-.5-4 0-5.1.1-.4.1-.7.1-1 .1-5.5.7-9.3 4-10.3 8.9-.7 3.9.5 8.6 5.1 10.3 13.1 4.7 27.4 4.2 39.2-1.4 3.2-1.5 2.5-12.3 2.1-17.6-.1-1.9-.2-3.6-.2-4.9 0-20.9-1.5-42.2-3-62.8l-.3-4.8c-.8-11-1.6-22.5-2.1-33.7-.3-8.2.1-19.7 8.4-25.9 1.3-1 3.2-.7 4.2.6 1 1.3.7 3.2-.6 4.2-5.9 4.5-6.3 14-6 20.8.5 11.2 1.3 22.6 2.1 33.6l.3 4.8c1.5 20.7 3 42.1 3 63.2 0 1.1.1 2.7.2 4.5.6 8.5 1.4 20.1-5.6 23.4-7.1 3.3-15.1 5-23.3 5z"/>
    <path class="st0" d="M213.3 277.4c-1.2 29.5-8.3 67-31.9 98 1.7-2.2 6.5-1.2 8.9-.9 6.4.8 11.6 4.7 12.9 11.3 1.1 5.7-1.3 11.6-7 13.7-13.3 4.8-28.6 4.6-41.5-1.5-6.3-3-3.6-19.1-3.6-25.2 0-22.5 1.7-44.9 3.3-67.3.8-11.4 1.6-22.7 2.1-34.1.3-7.9-.3-18.2-7.2-23.4"/>
    <path class="st1" d="M176.8 405.8c-8.2 0-16.2-1.7-23.5-5.1-6.9-3.3-6.1-14.9-5.6-23.4.1-1.8.2-3.4.2-4.5 0-21.1 1.5-42.5 3-63.2l.3-4.8c.8-11 1.6-22.3 2.1-33.5.3-6.8 0-16.4-6-20.8-1.3-1-1.6-2.9-.6-4.2s2.9-1.6 4.2-.6c8.2 6.2 8.7 17.7 8.4 25.9-.5 11.3-1.3 22.7-2.1 33.7l-.3 4.8c-1.5 20.6-3 41.9-3 62.8 0 1.3-.1 3-.2 4.9-.4 5.2-1.1 16 2.1 17.6 11.8 5.5 26.1 6 39.2 1.4 4.6-1.6 5.8-6.3 5.1-10.3-.9-4.9-4.8-8.2-10.3-8.9-.3 0-.6-.1-1-.1-1.1-.2-4.4-.6-5.1-.1-1 1.3-2.9 1.5-4.2.5-1.3-1-1.5-2.9-.5-4.2 23.8-31.4 30.2-69.7 31.3-96.3.1-1.7 1.5-2.9 3.1-2.9 1.7.1 2.9 1.5 2.9 3.1-1.1 25.8-6.9 62.3-28.2 93.7.6.1 1.1.1 1.6.2.3 0 .6.1.9.1 8.1 1 14 6.2 15.4 13.7 1.5 7.6-2.2 14.6-9 17-6.5 2.3-13.4 3.5-20.2 3.5z"/>
    <path class="st0" d="M105.8 26.7s-31.1 11-40.4 44.1c0 0-4.2 15.6-20.6 13.3-2.1-.5-4.5-11.2-6-13.4-5.8-8.2-13.7-12.1-14.7-22.9-1.7-18.2 17.7-35.6 35.6-41.4 20-6.5 43.1-3.2 61.2 6.5"/>
    <path class="st1" d="M47.9 87.3c-1.1 0-2.3-.1-3.6-.3-.1 0-.2 0-.3-.1-2.7-.7-3.9-3.8-6-9.9-.6-1.6-1.4-4.1-1.8-4.7-1.7-2.3-3.6-4.4-5.5-6.4-4.4-4.7-9-9.5-9.8-17.9C19.3 28.8 39.2 9.9 58.7 3.6c19.9-6.5 43.6-4 63.5 6.7 1.5.8 2 2.6 1.2 4.1-.8 1.5-2.6 2-4.1 1.2-18.4-10-40.4-12.3-58.7-6.3-17.4 5.7-35 22.4-33.5 38.3.6 6.4 3.9 9.9 8.1 14.3 2 2.1 4.1 4.3 6 7 .8 1.2 1.5 3.1 2.6 6.2.6 1.7 1.6 4.8 2.3 6.1C58.8 82.4 62.3 70.5 62.5 70c9.6-34.2 40.9-45.6 42.3-46.1 1.6-.6 3.3.3 3.8 1.8.6 1.6-.3 3.3-1.8 3.8-.5.2-29.8 11.1-38.5 42.1-1.6 5.7-7.8 15.7-20.4 15.7zm-1.5-5.7z"/>
    <path class="st0" d="M172.8 26.7s31.1 11 40.4 44.1c0 0 4.2 15.6 20.6 13.3 2.1-.5 4.5-11.2 6-13.4 5.8-8.1 13.7-12.1 14.7-22.8 1.7-18.2-17.7-35.6-35.6-41.4-20-6.5-43.1-3.2-61.2 6.5"/>
    <path class="st1" d="M230.6 87.3c-12.6 0-18.8-10-20.3-15.7-8.7-31.1-38.2-41.9-38.5-42-1.6-.6-2.4-2.3-1.8-3.8.6-1.6 2.3-2.4 3.8-1.8 1.3.5 32.7 11.9 42.3 46.1.1.5 3.6 12.4 16.4 11.2.7-1.3 1.7-4.3 2.3-6.1 1.1-3.1 1.7-5.1 2.6-6.2 1.9-2.7 4-4.9 6-7 4.2-4.5 7.6-8 8.1-14.3 1.5-16-16.2-32.8-33.5-38.4-18.3-6-40.3-3.6-58.8 6.3-1.5.8-3.3.2-4.1-1.2-.8-1.5-.2-3.3 1.2-4.1C176.2-.4 200-2.9 219.8 3.6c19.5 6.4 39.4 25.2 37.6 44.6-.8 8.5-5.3 13.3-9.8 17.9-1.9 2-3.8 4-5.5 6.4-.4.6-1.2 3-1.8 4.6-2.1 6-3.3 9.2-6 9.9-.1 0-.2 0-.3.1-1.1.1-2.2.2-3.4.2zm1.6-5.7z"/>
    <ellipse class="st1" cx="174.2" cy="110.1" rx="6.7" ry="10.5"/>
    <ellipse class="st1" cx="104.3" cy="110.1" rx="6.7" ry="10.5"/>
    <path class="st1" d="M124.9 136.4v-.2c.4-3.1 4.5-4 7-4.5 5-1 19.5-1.8 21.6 4.7 1.4 4.3-4.8 7.9-7.6 9.6-4.2 2.5-9 2.1-13.1-.4-2.6-1.5-8.2-5.7-7.9-9.2zM130.5 156.8s7.1 4.6 17.7 0"/>
</svg>
