<svg xmlns="http://www.w3.org/2000/svg" width="330.4" height="400.6" style="overflow:visible;enable-background:new 0 0 330.4 400.6" xml:space="preserve">
    <style>
        .st0{fill:#080502}.st1{fill:#fff}
    </style>
    <path class="st0" d="M234.7 42.7c-.2-.1 9.2-13.7 10-14.8 5.9-8.7 16.5-14.9 24.8-21.4 1.9-1.5 3.8-3 6.2-3.4 3.9-.7 6.3 2.4 7.3 5.7 5.2 16.5-2.6 37.2-8.5 52.4l-39.8-18.5z"/>
    <path class="st0" d="M274.5 64.2c-.4 0-.9-.1-1.3-.3-39.8-18.5-39.8-18.5-39.9-18.5-.1 0-.2-.1-.3-.2-.7-.4-1.2-1.1-1.3-1.9-.3-1.5-.3-1.5 9.4-15.5.5-.8.9-1.3 1.1-1.5 4.7-6.9 11.9-12.2 18.9-17.2 2.3-1.7 4.5-3.3 6.6-4.9 1.9-1.5 4.4-3.4 7.5-4 4.8-.9 8.9 2.1 10.7 7.8 5.6 17.9-2.9 39.8-8.5 54.4-.3.8-.9 1.4-1.7 1.7-.5 0-.8.1-1.2.1zM239 41.4c7.5 3.5 26.5 12.3 33.8 15.7 5.3-13.6 11.9-32.6 7.3-47.4-.5-1.6-1.6-4.1-3.9-3.7-1.7.3-3.4 1.6-4.9 2.8-2.2 1.7-4.5 3.4-6.8 5-6.5 4.7-13.3 9.6-17.4 15.7-.1.2-.5.8-1.1 1.6-3.2 4.8-5.5 8.2-7 10.3z"/>
    <path class="st0" d="M250.8 50.4c-.4-.2 19.4-36.2 27.3-36.6 15.5-.9-6.1 46.8-4.8 47.4-.1 0-22.5-10.8-22.5-10.8z"/>
    <path class="st0" d="M273.3 64.2c-.4 0-.9-.1-1.3-.3l-11.5-5.5c-5.5-2.6-10.8-5.2-10.9-5.2-1.2-.6-1.9-2-1.6-3.3.3-1.7 6.8-12.8 11.3-19.7 11-16.8 15.8-19.1 18.8-19.3 3.6-.2 5.6 1.5 6.7 2.9 5.1 6.9-.3 24.2-6.4 41.3-.8 2.3-1.8 5-2 6 0 .5-.1 1-.3 1.5-.7.9-1.7 1.6-2.8 1.6zm1.3-5.7zm0 0zm-.1 0c.1 0 .1 0 0 0 .1 0 .1 0 0 0 .1 0 .1 0 0 0zM254.8 49l8.2 3.9c3 1.4 6 2.9 8.2 3.9.4-1.1.8-2.4 1.4-3.9 3-8.4 10.9-30.8 7.2-35.7-.2-.2-.4-.6-1.6-.5-.1 0-3.6.6-13.8 16.2-4.1 6.4-7.8 12.7-9.6 16.1zM159.1 42.7c.2-.1-9.2-13.7-10-14.8-5.9-8.7-16.5-14.9-24.8-21.4-1.9-1.5-3.8-3-6.2-3.4-3.9-.7-6.3 2.4-7.3 5.7-5.2 16.5 2.6 37.2 8.5 52.4l39.8-18.5z"/>
    <path class="st0" d="M119.3 64.2c-.4 0-.8-.1-1.1-.2-.8-.3-1.4-.9-1.7-1.7-5.6-14.5-14.2-36.4-8.5-54.4 1.8-5.7 5.9-8.7 10.7-7.8 3.1.6 5.5 2.5 7.5 4 2.1 1.6 4.3 3.2 6.6 4.9 7 5 14.1 10.2 18.9 17.2.1.2.5.8 1.1 1.5 9.7 14 9.7 14 9.4 15.5-.2.8-.6 1.5-1.3 1.9-.1.1-.2.1-.4.2-.1.1-39.8 18.5-39.8 18.5-.6.3-1 .4-1.4.4zM117.1 6c-2 0-3 2.3-3.4 3.7-4.7 14.8 2 33.8 7.3 47.4 20.7-9.6 29.8-13.9 33.8-15.7-1.4-2.1-3.8-5.6-7-10.2-.6-.8-1-1.4-1.1-1.6-4.1-6.1-10.9-11-17.4-15.7-2.3-1.6-4.6-3.3-6.8-5-1.5-1.2-3.2-2.5-4.9-2.8-.2-.1-.4-.1-.5-.1zm42 36.7z"/>
    <path class="st0" d="M143 50.4c.4-.2-19.4-36.2-27.3-36.6-15.5-.9 6.1 46.8 4.8 47.4 0 0 22.4-10.8 22.5-10.8z"/>
    <path class="st0" d="M120.5 64.2c-1.1 0-2.2-.6-2.7-1.7-.2-.5-.3-1-.3-1.5-.3-1-1.2-3.6-2-6-6-17.1-11.5-34.4-6.4-41.3 1.1-1.4 3.1-3.1 6.7-2.9 3 .2 7.8 2.5 18.8 19.3 4.5 6.9 10.9 17.9 11.3 19.7.3 1.3-.4 2.7-1.6 3.3-.1 0-22.3 10.7-22.5 10.7-.4.3-.9.4-1.3.4zm-1.3-5.7zm0 0zm0 0zm-4-41.7c-.9 0-1.2.3-1.3.5-3.7 4.9 4.3 27.2 7.2 35.7.5 1.5 1 2.8 1.4 3.9C127 54.7 134.8 51 139 49c-1.8-3.4-5.5-9.8-9.6-16-10.2-15.5-13.7-16.2-13.9-16.2h-.3zM143 50.4z"/>
    <path class="st0" d="M290.5 95.1c9 52-33.5 79.5-93.7 79.4-83.1-.2-99.5-35.6-93.7-79.4 3.5-26.3 20.6-49 45.3-61.8 13.9-7.2 30.4-11.4 48.4-11.4 49.7 0 86.6 32.3 93.7 73.2z"/>
    <path class="st0" d="M197.2 177.5h-.4c-41.3-.1-68.8-8.6-84-26.1-11.8-13.5-15.9-32.1-12.6-56.7 3.6-26.7 21.1-50.7 46.9-64.1 14.8-7.7 32-11.7 49.8-11.7 24.6 0 47 7.6 64.7 21.9 17 13.7 28.3 32.8 31.9 53.8 3.6 20.7-.7 39-12.5 53-16.4 19.2-46.1 29.9-83.8 29.9zm-.4-152.6c-16.8 0-33.1 3.8-47 11.1-24 12.5-40.4 34.7-43.7 59.5-3 22.9.6 39.9 11.2 52 13.8 15.8 40.6 23.9 79.5 24h.4c35.9 0 64-9.9 79.1-27.8 10.7-12.7 14.5-28.9 11.2-48.1-3.4-19.5-14-37.3-29.8-50.1C241.1 32 220 24.9 196.8 24.9z"/>
    <circle class="st1" cx="233.7" cy="105.2" r="17.1"/>
    <path class="st0" d="M233.7 125.3c-11.1 0-20.1-9-20.1-20.1s9-20.1 20.1-20.1 20.1 9 20.1 20.1-8.9 20.1-20.1 20.1zm0-34.3c-7.8 0-14.1 6.3-14.1 14.1s6.3 14.1 14.1 14.1 14.1-6.3 14.1-14.1S241.5 91 233.7 91z"/>
    <circle class="st0" cx="233.7" cy="105.2" r="11.4"/>
    <circle class="st1" cx="160" cy="105.2" r="17.1"/>
    <path class="st0" d="M160 125.3c-11.1 0-20.1-9-20.1-20.1S148.9 85 160 85s20.1 9 20.1 20.1-9 20.2-20.1 20.2zm0-34.3c-7.8 0-14.1 6.3-14.1 14.1s6.3 14.1 14.1 14.1 14.1-6.3 14.1-14.1S167.8 91 160 91z"/>
    <circle class="st0" cx="160" cy="105.2" r="11.4"/>
    <path class="st0" d="M84.5 128.8c-.9 0-1.8-.4-2.4-1.2-1-1.3-.7-3.2.6-4.2 29.8-22.5 54.2-10 55.2-9.5 1.5.8 2 2.6 1.2 4.1-.8 1.5-2.6 2-4 1.3-.9-.5-22.2-11.1-48.8 9-.5.3-1.1.5-1.8.5z"/>
    <path class="st0" d="M92.1 141c-.7 0-1.5-.3-2.1-.8-1.2-1.1-1.2-3-.1-4.2 21.7-22.5 46.2-14.6 47.2-14.2 1.6.5 2.4 2.2 1.9 3.8-.5 1.6-2.2 2.4-3.8 1.9-.9-.3-22.1-7-41 12.7-.5.5-1.3.8-2.1.8z"/>
    <path class="st0" d="M99 152.1c-.6 0-1.3-.2-1.8-.6-1.3-1-1.5-2.9-.5-4.2 15.9-20.3 39.6-16.8 40.6-16.7 1.6.3 2.8 1.8 2.5 3.4-.3 1.6-1.8 2.8-3.4 2.5-.9-.1-21.3-3-35 14.4-.7.8-1.5 1.2-2.4 1.2zM309.2 128.8c-.6 0-1.3-.2-1.8-.6-26.6-20.1-47.9-9.5-48.8-9-1.5.8-3.3.2-4-1.3-.8-1.5-.2-3.3 1.2-4 1-.5 25.4-13 55.2 9.5 1.3 1 1.6 2.9.6 4.2-.6.8-1.5 1.2-2.4 1.2z"/>
    <path class="st0" d="M301.6 141c-.8 0-1.6-.3-2.2-.9-19-19.7-40.1-13-41-12.7-1.6.5-3.3-.3-3.8-1.9-.5-1.6.3-3.3 1.9-3.8 1-.3 25.6-8.3 47.2 14.2 1.1 1.2 1.1 3.1-.1 4.2-.5.7-1.2.9-2 .9z"/>
    <path class="st0" d="M294.8 152.1c-.9 0-1.8-.4-2.4-1.1-13.8-17.6-34.8-14.5-35-14.4-1.6.3-3.2-.9-3.4-2.5-.3-1.6.9-3.2 2.5-3.4 1-.2 24.7-3.7 40.6 16.7 1 1.3.8 3.2-.5 4.2-.5.3-1.2.5-1.8.5zM196.8 376.1v-220l-50.7 3c-1.9.1-6.8 10.9-7.5 12.4-5.9 10.7-10.9 22-14.6 33.6-9.5 29.5-7.5 58.5-25.5 84.9-11.1 16.3-50.1 82.8-8.9 86.1h107.2z"/>
    <path class="st0" d="M196.8 379.1H89.2c-9.3-.8-15.7-4.5-18.9-11.3-11.6-24.3 24-77.3 25.6-79.5 11.2-16.4 14.4-33.8 17.8-52.3 1.9-10.4 3.9-21.1 7.4-31.9 3.8-11.7 8.8-23.2 14.9-34.2.1-.2.4-.8.7-1.5 4.8-9.7 6.7-12.3 9.3-12.4 0 0 .7 0 50.7-3 .8 0 1.6.2 2.2.8.6.6.9 1.4.9 2.2v219.9c0 1.8-1.4 3.2-3 3.2zm-107.2-6h104.2V159.3c-10.1.6-41.3 2.4-46.7 2.7-.9 1.1-2.6 4.2-5 9.1-.4.8-.7 1.5-.9 1.7-5.9 10.7-10.7 21.8-14.4 33.1-3.4 10.4-5.3 20.9-7.2 31.1-3.5 19.1-6.8 37.1-18.7 54.6-5.2 7.7-13.4 21.5-19.2 35.2-7.5 17.5-9.5 30.8-5.9 38.4 2.2 4.7 6.7 7.3 13.8 7.9zm56.6-211z"/>
    <path class="st0" d="M77.7 367c-7.9 4.7-17.1 13.1-7.4 20 12.8 9 41.6 8.4 56.3 4.6 3.5-.9 7-2.3 9.5-4.8 11.3-11.6-3.2-22.9-14.5-25.7-12.7-3.2-26.5-1.7-38.5 3.2-1.5.5-3.4 1.5-5.4 2.7z"/>
    <path class="st0" d="M103.2 397.1c-13 0-26.6-2.1-34.6-7.7-4.7-3.3-5.6-7-5.5-9.4.3-7 8.3-12.7 13.1-15.6 2-1.2 4-2.2 5.8-3 13.1-5.4 27.5-6.6 40.4-3.4 8.1 2 18 8 20.3 16.3 1 3.5 1 8.8-4.5 14.4-2.5 2.6-6 4.4-10.9 5.7-6.3 1.7-15 2.7-24.1 2.7zm-24-27.6c-6.1 3.6-10 7.7-10.1 10.6 0 .5-.1 2.2 2.9 4.3 11.6 8.2 39.2 7.9 53.8 4.2 3.8-1 6.4-2.3 8.1-4 2.8-2.9 3.8-5.7 3-8.6-1.6-5.5-9.4-10.5-16-12.1-11.7-2.9-24.7-1.8-36.6 3.1-1.5.6-3.3 1.5-5.1 2.5zM196.8 376.1v-220l50.7 3c1.9.1 6.8 10.9 7.5 12.4 5.9 10.7 10.9 22 14.6 33.6 9.5 29.5 7.5 58.5 25.5 84.9 11.1 16.3 50.1 82.8 8.9 86.1H196.8z"/>
    <path class="st0" d="M304.1 379.1H196.8c-1.7 0-3-1.3-3-3v-220c0-.8.3-1.6.9-2.2.6-.6 1.4-.9 2.2-.8 50.7 3 50.7 3 50.8 3 2.6.1 4.5 2.7 9.2 12.4.3.7.6 1.2.7 1.5 6.1 11 11.1 22.5 14.9 34.2 3.5 10.8 5.5 21.5 7.4 31.9 3.4 18.4 6.6 35.8 17.8 52.3 1.5 2.2 37.2 55.2 25.6 79.5-3.2 6.7-9.6 10.5-18.9 11.3-.1-.1-.2-.1-.3-.1zm-104.3-6H304c7.1-.6 11.6-3.2 13.8-7.9 3.6-7.6 1.6-20.8-5.9-38.4-5.8-13.7-14-27.5-19.2-35.2-11.9-17.5-15.2-35.5-18.7-54.6-1.9-10.2-3.8-20.7-7.2-31.1-3.7-11.3-8.5-22.4-14.4-33.1-.2-.3-.5-.9-.9-1.7-2.4-4.9-4.1-8-5-9.1-5.4-.3-36.6-2.1-46.7-2.7v213.8z"/>
    <path class="st0" d="M315.8 367c7.9 4.7 17.1 13.1 7.4 20-12.8 9-41.6 8.4-56.3 4.6-3.5-.9-7-2.3-9.5-4.8-11.3-11.6 3.2-22.9 14.5-25.7 12.7-3.2 26.5-1.7 38.5 3.2 1.5.5 3.4 1.5 5.4 2.7z"/>
    <path class="st0" d="M290.3 397.1c-9.1 0-17.8-1-24.2-2.7-4.9-1.3-8.4-3.1-10.9-5.7-5.5-5.6-5.4-10.9-4.5-14.4 2.4-8.3 12.2-14.3 20.3-16.3 12.9-3.2 27.2-2 40.4 3.4 1.8.7 3.9 1.8 5.8 3 4.8 2.8 12.8 8.6 13.1 15.6.1 2.5-.8 6.1-5.5 9.4-7.9 5.6-21.5 7.7-34.5 7.7zm-4.4-34.8c-4.5 0-9 .5-13.3 1.6-6.7 1.7-14.5 6.7-16 12.1-.8 2.9.2 5.7 3 8.6 1.7 1.8 4.3 3.1 8.1 4 14.6 3.8 42.2 4 53.8-4.2 3-2.1 3-3.8 2.9-4.3-.1-2.9-4-7-10.1-10.6-1.7-1-3.5-1.9-5.1-2.6-7.5-3-15.5-4.6-23.3-4.6z"/>
    <path class="st0" d="M258.9 228.5S278 317 228.8 376.3c1.4-1.7 10.6-.9 12.4-.5 11.7 2.1 15.4 14.5 3 18.6-14 4.6-30.1 4.4-43.6-1.4-6.7-2.9-3.8-18.4-3.8-24.2V228.7"/>
    <path class="st0" d="M223.9 400.6c-8.6 0-17-1.6-24.5-4.9-7.3-3.1-6.5-14.4-5.8-22.7.1-1.7.2-3.2.2-4.3V228.5c0-1.7 1.3-3 3-3s3 1.3 3 3v140.2c0 1.3-.1 2.9-.3 4.7-.4 5-1.1 15.3 2.2 16.7 12.5 5.4 27.6 5.8 41.5 1.3 3.7-1.2 5.8-3.4 5.6-5.9-.2-2.7-3.1-6-8.2-6.9-2.2-.4-8.3-.7-10-.2-1.1.9-2.7 1-3.9 0-1.3-1.1-1.5-2.9-.4-4.2 24.8-29.9 31.6-67.7 32.8-94.2 1.4-28.8-3.3-50.8-3.3-51.1-.3-1.6.7-3.2 2.3-3.6 1.6-.3 3.2.7 3.6 2.3.2.9 4.8 22.8 3.4 52.4-1.2 25.7-7.4 61.8-29.6 91.9 3.2.1 6 .6 6 .6 7.3 1.3 12.7 6.4 13.1 12.4.4 5.4-3.3 9.9-9.7 12-6.7 2.5-13.9 3.7-21 3.7z"/>
    <path d="M196.8 368.7V228.6"/>
    <path d="M196.8 371.7c-1.7 0-3-1.3-3-3V228.5c0-1.7 1.3-3 3-3s3 1.3 3 3v140.2c0 1.7-1.3 3-3 3z" style="fill:#211f20"/>
    <path class="st1" d="M262.4 283.3c-.3 25.3-5.5 50.9-16.9 73.7-4 7.6-9.2 14.5-15.2 20.6l-3-2.5c.7-.7 1.6-1.1 2.5-1.2 3.9-.4 7.8.5 11.5 1.6.3.1.2.6-.1.6-2.1.1-4.2.3-6.3.5-1.6.3-3.5.3-4.8 1.1.1 0 .1-.1.2-.1l-3-2.5c4.7-6.8 8.8-13.9 12.8-21 4.1-7.1 7.9-14.5 10.6-22.2 5.8-15.6 9.3-32 11.1-48.5 0-.2.2-.3.3-.3.2-.1.3 0 .3.2z"/>
    <path class="st0" d="M134.7 228.5s-19.1 88.5 30.1 147.8c-1.4-1.7-10.6-.9-12.4-.5-11.7 2.1-15.4 14.5-3 18.6 14 4.6 30.1 4.4 43.6-1.4 6.7-2.9 3.8-18.4 3.8-24.2V228.7"/>
    <path class="st0" d="M169.7 400.6c-7.1 0-14.3-1.1-21.2-3.4-6.5-2.1-10.1-6.6-9.7-12 .4-6 5.8-11.1 13.1-12.4.1 0 2.8-.5 6-.6-22.1-30.2-28.4-66.2-29.6-91.9-1.4-29.6 3.2-51.5 3.4-52.4.3-1.6 1.9-2.6 3.6-2.3 1.6.3 2.7 1.9 2.3 3.6 0 .2-4.7 22.2-3.3 51.1 1.3 26.4 8 64.2 32.8 94.2 1.1 1.3.9 3.2-.4 4.2-1.1.9-2.8.9-3.9 0-1.6-.5-7.7-.2-10 .2-5.1.9-8 4.2-8.2 6.9-.2 2.5 1.9 4.6 5.6 5.9 13.9 4.5 29 4.1 41.5-1.3 3.4-1.5 2.6-11.8 2.2-16.7-.1-1.8-.3-3.4-.3-4.7V228.5c0-1.7 1.3-3 3-3s3 1.3 3 3v140.2c0 1.1.1 2.5.2 4.3.6 8.2 1.5 19.5-5.8 22.7-7.4 3.2-15.8 4.9-24.3 4.9z"/>
    <path class="st1" d="M196.5 368.7c-.9-20.5-1.6-42.9-2.1-63.4-.1-5.3-.4-10.6-.6-15.9-.4-10.6 0-21.2.9-31.7.4-5.3 1-10.6 1.8-15.9 0-.2.2-.3.3-.3.1 0 .2.1.3.3.9 5.3 1.4 10.6 1.8 15.9.8 10.6 1.3 21.1.9 31.7l-.6 15.9c-.2 7.9-.6 23.8-.9 31.7-.4 10.6-.7 21.1-1.2 31.7 0 .2-.1.3-.3.3-.2 0-.3-.1-.3-.3zM131.9 285.8c2.2 18.1 6.5 36 13.6 52.7 2.3 5.5 5.2 10.8 8.3 16 4 6.9 8 13.8 12.5 20.4l-3.1 2.6c0 .1.1.1.2.1-.4-.3-1.1-.5-1.8-.6-3-.6-6.2-.8-9.3-1-.2 0-.3-.1-.3-.3 0-.1.1-.2.2-.3 2.1-.7 4.2-1.1 6.3-1.5 2.5-.2 5.6-.9 7.7 1l-3.1 2.6c-5.8-5.9-11-12.6-14.9-20-7.4-14.8-12.3-30.9-14.9-47.2-1.2-8.1-2-16.3-2.2-24.5 0-.2.1-.3.3-.3.4 0 .5.1.5.3z"/>
    <path class="st0" d="M92 330c-6.4-6.8-12.3-14.2-17.5-22-13.3-19.6-14.9-43.1-24.9-64.1-4.6-9.6-9.4-19.3-16.4-27.4-3.2-3.8-6.7-7.5-11.2-9.6-4.6-2.2-9.9-2.3-14-5.5-3.4-2.6-5.3-7.1-4.9-11.4.5-4.3 3.3-8.2 7.3-10 7-3.2 15.1.5 21.2 5.1 20.3 15.3 30.4 39.7 38.4 63 9 26.3 19.7 51.7 36.5 74.1"/>
    <path class="st0" d="M92 333c-.8 0-1.6-.3-2.2-1-6.4-6.8-12.4-14.3-17.8-22.4-8-11.8-11.9-25-15.7-37.8-2.6-8.9-5.4-18.1-9.4-26.7-4.6-9.7-9.4-19.1-16-26.8-3-3.4-6.2-7-10.2-8.9-1.6-.8-3.4-1.3-5.3-1.8-3.1-.9-6.4-1.8-9.3-4-4.3-3.3-6.6-8.8-6-14.1.6-5.3 4.1-10.2 9-12.4 9.3-4.2 19.2 1.6 24.3 5.5 20.6 15.5 31.1 40.2 39.4 64.5 7.9 22.9 18.3 49.5 36 73.2 1 1.3.7 3.2-.6 4.2-1.3 1-3.2.7-4.2-.6-18.3-24.4-28.9-51.5-36.9-74.9-13.6-39.6-26-53.1-37.4-61.7-4-3.1-11.8-7.7-18.2-4.8-2.9 1.3-5.2 4.4-5.5 7.6-.4 3.2 1.1 6.7 3.7 8.7 2 1.5 4.6 2.2 7.3 3 2 .6 4.2 1.2 6.2 2.1 5.1 2.4 8.8 6.5 12.2 10.4 7.1 8.3 12 18 16.8 28.1 4.3 9 7.1 18.4 9.8 27.5 3.8 12.9 7.4 25.2 14.9 36.2 5.3 7.8 11.1 15 17.2 21.6 1.1 1.2 1.1 3.1-.1 4.2-.5.8-1.2 1.1-2 1.1z"/>
    <path class="st1" d="M188.9 127.7c0-.1 0-.1 0 0 .2-1.8 2.5-2.3 3.9-2.6 2.8-.5 10.8-1 12 2.6.8 2.4-2.7 4.4-4.2 5.3-2.3 1.4-5 1.1-7.3-.2-1.5-.8-4.6-3.2-4.4-5.1zM188 150s7.1 4.6 17.7 0"/>
</svg>
