<svg xmlns="http://www.w3.org/2000/svg" width="524.1" height="5" style="overflow:visible;enable-background:new 0 0 524.1 5" xml:space="preserve">
    <style>
        .st0{fill:#d54830}
    </style>
    <path class="st0" d="M2.5 5c-.7 0-1.3-.3-1.8-.7C.3 3.8 0 3.2 0 2.5c0-.2 0-.3.1-.5 0-.2.1-.3.1-.5.1-.1.1-.3.2-.4C.5 1 .6.9.7.7c.9-.9 2.6-.9 3.5 0l.4.4c.1.1.2.3.2.4.1.2.1.4.1.5.1.2.1.3.1.5 0 .7-.3 1.3-.7 1.8-.5.4-1.1.7-1.8.7zM505 2.5c0-1.4 1.1-2.5 2.5-2.5s2.5 1.1 2.5 2.5-1.1 2.5-2.5 2.5-2.5-1.1-2.5-2.5zm-14 0c0-1.4 1.1-2.5 2.5-2.5s2.5 1.1 2.5 2.5-1.1 2.5-2.5 2.5-2.5-1.1-2.5-2.5zm-14 0c0-1.4 1.1-2.5 2.5-2.5s2.5 1.1 2.5 2.5-1.1 2.5-2.5 2.5-2.5-1.1-2.5-2.5zm-14.1 0c0-1.4 1.1-2.5 2.5-2.5s2.5 1.1 2.5 2.5-1.1 2.5-2.5 2.5c-1.3 0-2.5-1.1-2.5-2.5zm-14 0c0-1.4 1.1-2.5 2.5-2.5s2.5 1.1 2.5 2.5-1.1 2.5-2.5 2.5-2.5-1.1-2.5-2.5zm-14 0c0-1.4 1.1-2.5 2.5-2.5s2.5 1.1 2.5 2.5-1.1 2.5-2.5 2.5-2.5-1.1-2.5-2.5zm-14.1 0c0-1.4 1.1-2.5 2.5-2.5s2.5 1.1 2.5 2.5-1.1 2.5-2.5 2.5c-1.3 0-2.5-1.1-2.5-2.5zm-14 0c0-1.4 1.1-2.5 2.5-2.5s2.5 1.1 2.5 2.5-1.1 2.5-2.5 2.5-2.5-1.1-2.5-2.5zm-14 0c0-1.4 1.1-2.5 2.5-2.5s2.5 1.1 2.5 2.5-1.1 2.5-2.5 2.5-2.5-1.1-2.5-2.5zm-14 0c0-1.4 1.1-2.5 2.5-2.5s2.5 1.1 2.5 2.5-1.1 2.5-2.5 2.5-2.5-1.1-2.5-2.5zm-14.1 0c0-1.4 1.1-2.5 2.5-2.5s2.5 1.1 2.5 2.5-1.1 2.5-2.5 2.5c-1.3 0-2.5-1.1-2.5-2.5zm-14 0c0-1.4 1.1-2.5 2.5-2.5s2.5 1.1 2.5 2.5-1.1 2.5-2.5 2.5-2.5-1.1-2.5-2.5zm-14 0c0-1.4 1.1-2.5 2.5-2.5s2.5 1.1 2.5 2.5-1.1 2.5-2.5 2.5-2.5-1.1-2.5-2.5zm-14 0c0-1.4 1.1-2.5 2.5-2.5s2.5 1.1 2.5 2.5-1.1 2.5-2.5 2.5-2.5-1.1-2.5-2.5zm-14.1 0c0-1.4 1.1-2.5 2.5-2.5s2.5 1.1 2.5 2.5-1.1 2.5-2.5 2.5c-1.3 0-2.5-1.1-2.5-2.5zm-14 0c0-1.4 1.1-2.5 2.5-2.5s2.5 1.1 2.5 2.5-1.1 2.5-2.5 2.5-2.5-1.1-2.5-2.5zm-14 0c0-1.4 1.1-2.5 2.5-2.5s2.5 1.1 2.5 2.5-1.1 2.5-2.5 2.5-2.5-1.1-2.5-2.5zm-14.1 0c0-1.4 1.1-2.5 2.5-2.5s2.5 1.1 2.5 2.5S270.4 5 269 5c-1.3 0-2.5-1.1-2.5-2.5zm-14 0c0-1.4 1.1-2.5 2.5-2.5s2.5 1.1 2.5 2.5S256.4 5 255 5s-2.5-1.1-2.5-2.5zm-14 0c0-1.4 1.1-2.5 2.5-2.5s2.5 1.1 2.5 2.5S242.4 5 241 5s-2.5-1.1-2.5-2.5zm-14 0c0-1.4 1.1-2.5 2.5-2.5s2.5 1.1 2.5 2.5S228.4 5 227 5s-2.5-1.1-2.5-2.5zm-14.1 0c0-1.4 1.1-2.5 2.5-2.5s2.5 1.1 2.5 2.5-1.1 2.5-2.5 2.5c-1.3 0-2.5-1.1-2.5-2.5zm-14 0c0-1.4 1.1-2.5 2.5-2.5s2.5 1.1 2.5 2.5-1.1 2.5-2.5 2.5-2.5-1.1-2.5-2.5zm-14 0c0-1.4 1.1-2.5 2.5-2.5s2.5 1.1 2.5 2.5-1.1 2.5-2.5 2.5-2.5-1.1-2.5-2.5zm-14.1 0c0-1.4 1.1-2.5 2.5-2.5s2.5 1.1 2.5 2.5-1.1 2.5-2.5 2.5c-1.3 0-2.5-1.1-2.5-2.5zm-14 0c0-1.4 1.1-2.5 2.5-2.5s2.5 1.1 2.5 2.5-1.1 2.5-2.5 2.5-2.5-1.1-2.5-2.5zm-14 0c0-1.4 1.1-2.5 2.5-2.5s2.5 1.1 2.5 2.5-1.1 2.5-2.5 2.5-2.5-1.1-2.5-2.5zm-14 0c0-1.4 1.1-2.5 2.5-2.5s2.5 1.1 2.5 2.5-1.1 2.5-2.5 2.5-2.5-1.1-2.5-2.5zm-14.1 0c0-1.4 1.1-2.5 2.5-2.5s2.5 1.1 2.5 2.5-1.1 2.5-2.5 2.5-2.5-1.1-2.5-2.5zm-14 0c0-1.4 1.1-2.5 2.5-2.5s2.5 1.1 2.5 2.5-1.1 2.5-2.5 2.5-2.5-1.1-2.5-2.5zm-14 0c0-1.4 1.1-2.5 2.5-2.5s2.5 1.1 2.5 2.5S88.1 5 86.7 5s-2.5-1.1-2.5-2.5zm-14.1 0c0-1.4 1.1-2.5 2.5-2.5s2.5 1.1 2.5 2.5S74 5 72.6 5c-1.3 0-2.5-1.1-2.5-2.5zm-14 0c0-1.4 1.1-2.5 2.5-2.5s2.5 1.1 2.5 2.5S60 5 58.6 5s-2.5-1.1-2.5-2.5zm-14 0c0-1.4 1.1-2.5 2.5-2.5s2.5 1.1 2.5 2.5S46 5 44.6 5s-2.5-1.1-2.5-2.5zm-14 0c0-1.4 1.1-2.5 2.5-2.5s2.5 1.1 2.5 2.5S32 5 30.6 5s-2.5-1.1-2.5-2.5zM14 2.5C14 1.1 15.1 0 16.5 0S19 1.1 19 2.5 17.9 5 16.5 5 14 3.9 14 2.5zM521.6 5c-.7 0-1.3-.3-1.8-.7-.5-.5-.7-1.1-.7-1.8V2c0-.2.1-.3.1-.5.1-.1.1-.3.2-.4.1-.1.2-.3.3-.4.9-.9 2.6-.9 3.5 0 .1.1.2.2.3.4.1.1.2.3.2.4.1.1.1.3.1.5s.1.3.1.5c0 .7-.3 1.3-.7 1.8-.4.4-1 .7-1.6.7z"/>
</svg>
