<svg xmlns="http://www.w3.org/2000/svg" width="604.9" height="160.3" style="overflow:visible;enable-background:new 0 0 604.9 160.3" xml:space="preserve">
    <style>
        .st0{fill:none}.st1{fill:#fff}.st2{fill:#d54830}
    </style>
    <path class="st0" d="M320.7 116.6c.2-.4.5-.8.7-1.3l2.4-4.5c-1.2.4-2.4.8-3.6 1.3-1.3.5-2.6 1.1-3.9 1.7 1.1.7 2.1 1.4 3.2 2.1.5.2.9.4 1.2.7zM302.5 121.7c-.5.3-1 .7-1.5 1-2.6 1.7-5.2 3.4-7.9 5.1-.2.1-.4.3-.6.4.3.4.6.7.9 1 2.8 3.1 5.8 5.8 9.1 8 3.3-2.2 6.3-5 9.1-8 .3-.3.6-.7.9-1-.2-.1-.4-.3-.6-.4-2.7-1.7-5.3-3.4-7.9-5.1-.5-.3-1-.6-1.5-1zM284.6 112.1c-1.2-.5-2.4-.9-3.6-1.3l2.4 4.5c.2.4.5.9.7 1.3.4-.2.7-.5 1.1-.7 1.1-.7 2.1-1.4 3.2-2.1-1.2-.6-2.5-1.2-3.8-1.7zM334.3 139.6c-1.7-.5-3.4-1.2-5-1.9-.8-.4-1.6-.7-2.4-1.1l-1.2-.6c-.2-.1-.5-.2-.7-.4-.9 1.1-1.8 2.2-2.8 3.2-1.2 1.3-2.4 2.5-3.6 3.7-.5.5-1 .9-1.5 1.4.2.1.4.1.6.2.7.2 1.3.4 2 .5.3.1.7.2 1 .2l1 .2.5.1.5.1 1 .2 1 .1.5.1h.5c.3 0 .7.1 1 .1l1 .1h3l1-.1c.3 0 .6-.1.9-.1h.5c.2 0 .3 0 .5-.1l.5-.1c.2 0 .3 0 .5-.1l.9-.2c.6-.1 1.2-.3 1.8-.4 2.3-.7 4.5-1.6 6.4-3 .1-.1.2-.1.3-.2-1.4-.2-2.8-.5-4.2-.8-2.1-.1-3.8-.6-5.5-1.1zM265.3 110.7c-.6.2-1.2.5-1.8.8l-.4.2c-.1.1-.3.1-.4.2-.2.2-.5.3-.7.5l-.7.5-.2.1-.2.1-.4.3c-.9.7-1.9 1.6-2.7 2.5l-.3.3-.3.3-.3.3-.2.3c-.1.1-.2.2-.2.3l-.2.3c-.1.1-.2.2-.2.3l-.2.3c-1.1 1.8-1.9 3.8-2.2 6-.2 1.2-.2 2.4-.1 3.6h.8c2.7-.1 5.4-.5 8-1 1.3-.3 2.6-.7 3.9-1.1 1.3-.4 2.6-.9 3.8-1.4.6-.3 1.2-.5 1.8-.8l-.9-1.5c-2.1-3.6-4-7.5-5.7-11.4zM338.7 126c1.3.4 2.6.8 3.9 1.1 2.6.6 5.3 1 8 1h.8c.1-1.2 0-2.4-.1-3.6-.3-2.1-1.1-4.2-2.2-6l-.2-.3c-.1-.1-.2-.2-.2-.3l-.2-.3c-.1-.1-.2-.2-.2-.3l-.2-.3-.3-.3-.3-.3-.5-.4c-.9-.9-1.8-1.8-2.7-2.5l-.4-.3-.2-.1-.2-.1-.7-.5c-.2-.2-.5-.3-.7-.5-.1-.1-.2-.1-.4-.2l-.4-.2c-.6-.3-1.2-.6-1.8-.8-1.7 3.9-3.6 7.8-5.7 11.6l-.9 1.5c.6.3 1.2.5 1.8.8 1.4.4 2.7.9 4 1.3zM268 144.9c.6.2 1.2.3 1.8.4l.9.2c.1 0 .3 0 .5.1l.5.1c.2 0 .3.1.5.1h.5c.3 0 .6.1.9.1l1 .1h3l1-.1c.3 0 .7-.1 1-.1h.5l.5-.1 1-.1 1-.2.5-.1.5-.1 1-.2c.3-.1.7-.2 1-.2.7-.1 1.3-.3 2-.5.2-.1.4-.1.6-.2-.5-.5-1-.9-1.5-1.4-1.3-1.2-2.5-2.5-3.6-3.7-1-1.1-1.9-2.1-2.8-3.2-.2.1-.5.2-.7.4l-1.2.6c-.8.4-1.6.7-2.4 1.1-1.6.7-3.3 1.3-5 1.9-1.7.5-3.4 1-5.2 1.4-1.4.3-2.8.6-4.2.8.1.1.2.1.3.2 1.6 1.1 3.8 2.1 6.1 2.7z"/>
    <path class="st1" d="m357.1 113.4-.4-.5c-.1-.2-.2-.4-.4-.5l-.4-.5c-.1-.2-.3-.3-.4-.5l-.4-.5-.4-.5-.4-.5-.4-.4c-1.1-1.2-2.4-2.3-3.7-3.4l-.5-.4-.2-.2-.3-.2c-.3-.2-.7-.5-1-.7l-1.1-.7-.6-.3-.6-.3c-.9-.5-1.9-1-2.8-1.4l-.9 2.4c-.3.7-.5 1.3-.8 2 .8.3 1.5.7 2.2 1.1l.5.3c.2.1.3.2.5.3l.9.6.9.6.2.2.2.2.4.3c1.1.9 2.2 1.9 3.2 2.9l.4.4.3.4.3.4.3.4c.1.1.2.3.3.4l.3.4c.1.1.2.3.3.4l.3.4c1.5 2.4 2.5 5 2.9 7.8.2 1.4.3 2.9.2 4.3-.1 1.4-.3 2.7-.6 4.1-.1.2-.1.5-.2.7-.3 1.1-.7 2.3-1.2 3.3-.2.5-.5 1-.7 1.4-.4.8-.9 1.5-1.4 2.3-.6.9-1.3 1.7-2 2.5-1.2 1.3-2.6 2.5-4.1 3.5-2.3 1.6-5 2.8-7.8 3.6-.7.2-1.4.4-2.1.5l-1.1.2c-.2 0-.4.1-.5.1l-.5.1c-.2 0-.4.1-.5.1l-.5.1c-.4 0-.7.1-1.1.1l-1.1.1H327.3l-1.1-.1c-.4 0-.7-.1-1.1-.1l-.6-.1-.6-.1-1.1-.1-1.1-.2-.6-.1-.5-.1-1.1-.2c-.4-.1-.7-.2-1.1-.3-.7-.2-1.5-.4-2.2-.6-.4-.1-.7-.2-1.1-.3l-1.1-.3-1.1-.4-.4-.2-.2.1-1.1.8-.3.2-.3.2-.6.4c-.8.5-1.6 1.1-2.4 1.6l.3.1c.4.2.8.3 1.1.4l1.1.4c.2.1.4.1.6.2l.6.2 1.2.4 1.2.4 1.2.3 2.4.6 1.2.3 1.2.2.6.1.6.1 1.2.2 1.2.2.6.1.6.1c.4 0 .8.1 1.2.1l1.2.1H330.5l1.2-.1c.4 0 .8-.1 1.2-.1l.6-.1c.2 0 .4-.1.6-.1l.6-.1c.2 0 .4-.1.6-.1l1.2-.2 2.4-.6c3.2-.9 6.4-2.3 9.2-4.3 2.8-1.9 5.3-4.4 7.2-7.2.1-.1.1-.2.2-.2.9-1.3 1.7-2.7 2.4-4.2.1-.2.2-.4.2-.6.4-.8.7-1.7 1-2.6.2-.6.3-1.2.5-1.7 0-.2.1-.3.1-.5.4-1.6.6-3.2.7-4.8.1-1.7 0-3.4-.2-5 0-3.2-1.2-6.5-3.1-9.5zM278.6 125.6l2.7 3.9c.9 1.3 1.9 2.6 3 3.8.7.8 1.3 1.6 2.1 2.4 1.1 1.2 2.2 2.4 3.4 3.5 1.1 1 2.2 2 3.4 3 0 0 .1 0 .1-.1l1-.4.5-.2.5-.2 1-.4.2-.1c.1 0 .2-.1.2-.1l.4-.2c.3-.1.6-.3.9-.4l-.8-.6c-.2-.1-.3-.2-.4-.3l-.4-.4c-1.2-.9-2.3-1.9-3.4-3-1.1-1-2.1-2.1-3.2-3.2-.5-.5-1-1.1-1.5-1.7-1-1.2-2-2.5-3-3.8l-2.7-3.9c-.9-1.3-1.7-2.7-2.5-4l-.9-1.5c-1.5-2.6-2.9-5.4-4.1-8.1-.6-.1-1.2-.1-1.8-.2-1.2-.1-2.3 0-3.4.1 1.6 3.6 3.3 7.1 5.2 10.5.3.5.6 1.1.9 1.6.9 1.3 1.7 2.7 2.6 4zM251.1 9.6c.2 6.3.6 12.6 1.1 18.9.5 6.3 1.2 12.6 2 18.8.8 6.3 1.8 12.5 3 18.7 1.2 6.2 2.6 12.4 4.2 18.5.8 3.1 1.7 6.1 2.7 9.1.2.8.5 1.5.8 2.3 1.1-.3 2.2-.5 3.3-.6.5-.1 1-.1 1.5-.2-.3-1-.7-2-1-3-.9-2.9-1.8-5.9-2.6-8.9-1.6-6-3-12-4.1-18.1-1.2-6.1-2.1-12.2-2.9-18.4-.8-6.2-1.4-12.4-1.9-18.6s-.9-12.4-1.1-18.7c-.1-3.1-.2-6.2-.2-9.3V0h-4.8v.2c-.2 3.1-.1 6.3 0 9.4z"/>
    <path class="st2" d="M315.1 132.5zM365.7 128.1c.1-1.9 0-3.8-.3-5.7-.6-4.1-2-8-4.3-11.5l-.4-.7c-.1-.2-.3-.4-.4-.6l-.5-.6c-.2-.2-.3-.4-.5-.6l-.5-.6-.5-.6-.5-.6-.5-.5c-1.3-1.3-2.7-2.6-4.2-3.8-2.5-2-5.4-3.7-8.5-4.9.3-.8.5-1.5.8-2.3 1-3.1 1.9-6.2 2.7-9.3 1.7-6.2 3.1-12.5 4.3-18.8 1.2-6.3 2.2-12.6 3-19 .8-6.3 1.5-12.7 2-19 .5-6.4.9-12.7 1.1-19.1.1-3.2.2-6.4.2-9.6V.1H354v.2c0 3.2-.1 6.3-.2 9.4-.2 6.3-.6 12.6-1.1 18.9-.5 6.3-1.2 12.6-2 18.8-.8 6.3-1.8 12.5-3 18.7-1.2 6.2-2.6 12.4-4.2 18.5-.8 3.1-1.7 6.1-2.7 9.1-.2.8-.5 1.5-.8 2.3-.5 1.5-1 3-1.6 4.5-.3.7-.5 1.4-.8 2.2-.3.8-.6 1.6-.9 2.3-.6 1.5-1.2 3-1.9 4.5-1.6 3.6-3.3 7.1-5.2 10.5-.3.5-.6 1.1-.9 1.6l-1.5-.9c-.9-.5-1.7-1-2.6-1.6l.9-1.5c1.5-2.6 2.9-5.4 4.1-8.1.7-1.6 1.5-3.3 2.1-4.9.5-1.2 1-2.4 1.5-3.7.1-.4.3-.7.4-1.1.6-1.5 1.1-3.1 1.7-4.7.3-1 .7-2 1-3 .9-2.9 1.8-5.9 2.6-8.9 1.6-6 3-12 4.1-18.1 1.2-6.1 2.1-12.2 2.9-18.4.8-6.2 1.4-12.4 1.9-18.6.5-6.2.9-12.4 1.1-18.7.1-3.1.2-6.2.2-9.3V0h-4.8v.1c0 3.1-.1 6.1-.2 9.2-.2 6.2-.6 12.3-1.1 18.4-.5 6.1-1.1 12.3-1.9 18.3-.8 6.1-1.7 12.1-2.9 18.1-1.1 6-2.5 11.9-4 17.8-.8 2.9-1.6 5.8-2.5 8.7-.5 1.5-1 2.9-1.5 4.4-1.7.1-3.4.3-5.1.6-1.8.3-3.6.8-5.3 1.3-1.7.5-3.4 1.1-5 1.8-1.6.6-3.2 1.3-4.7 2.1-1.5.7-3 1.5-4.5 2.3l-3.3 1.8-3.3-1.8c-1.5-.8-3-1.6-4.5-2.3-1.5-.7-3.1-1.4-4.7-2.1-1.6-.6-3.3-1.2-5-1.8-1.7-.5-3.5-1-5.3-1.3-1.7-.3-3.3-.5-5.1-.6-.5-1.5-1-2.9-1.5-4.4-.9-2.9-1.8-5.8-2.5-8.7-1.6-5.9-2.9-11.8-4-17.8S264.3 52 263.5 46c-.8-6.1-1.4-12.2-1.9-18.3-.5-6.1-.8-12.3-1.1-18.4-.1-3.1-.2-6.2-.2-9.2V0h-4.8v.1c0 3.1.1 6.2.2 9.3.2 6.2.6 12.4 1.1 18.7s1.1 12.4 1.9 18.6c.8 6.2 1.8 12.3 2.9 18.4 1.2 6.1 2.5 12.2 4.1 18.1.8 3 1.7 6 2.6 8.9.3 1 .7 2 1 3-.5 0-1 .1-1.5.2-1.1.1-2.2.3-3.3.6-.3-.8-.5-1.5-.8-2.3-1-3-1.9-6.1-2.7-9.1-1.6-6.1-3-12.3-4.2-18.5-1.2-6.2-2.2-12.4-3-18.7-.8-6.3-1.5-12.5-2-18.8-.5-6.3-.9-12.6-1.1-18.9-.1-3.1-.2-6.3-.2-9.4V0h-4.8v.2c0 3.2.1 6.4.2 9.6.2 6.4.6 12.7 1.1 19.1.5 6.4 1.2 12.7 2 19 .8 6.3 1.8 12.7 3 19 1.2 6.3 2.6 12.6 4.3 18.8.8 3.1 1.7 6.2 2.7 9.3.2.8.5 1.5.8 2.3-3.1 1.2-6 3-8.5 4.9-1.5 1.2-2.9 2.5-4.2 3.8l-.5.5-.5.6-.5.6-.5.6c-.2.2-.3.4-.5.6l-.5.6c-.1.2-.3.4-.4.6l-.4.7c-2.2 3.5-3.7 7.5-4.3 11.5-.3 1.9-.4 3.8-.3 5.7H0v4.8H254.5c3-.1 6-.5 8.9-1.2 1.5-.3 2.9-.7 4.3-1.2s2.8-1 4.2-1.6c.8-.3 1.6-.7 2.4-1.1.6 1 1.3 2 2 3 .2.3.5.6.7 1-1.1.5-2.1 1-3.3 1.5-1.5.6-3 1.2-4.6 1.7-1.6.5-3.1.9-4.7 1.3-2.5.5-5 .9-7.5 1.1-.2 0-.5 0-.7.1-.5 0-1 .1-1.6.1H0v4.8h243.2c.6 1 1.2 2 1.9 3 2.3 3.3 5.2 6.1 8.4 8.4 3.3 2.3 6.9 3.9 10.6 4.9.9.3 1.9.5 2.8.7l1.4.3c.2 0 .5.1.7.1l.7.1c.2 0 .5.1.7.1l.7.1c.5 0 .9.1 1.4.1.5 0 .9.1 1.4.1H278.1l1.4-.1c.5 0 .9-.1 1.4-.1l.7-.1.7-.1 1.3-.2 1.3-.2.7-.1.7-.1 1.3-.3c.4-.1.9-.2 1.3-.3.9-.2 1.7-.4 2.5-.7.4-.1.8-.2 1.3-.4l1.2-.4 1.2-.4.6-.2c.2-.1.4-.1.6-.2l1.2-.5c.4-.2.8-.3 1.2-.5l1.2-.5.6-.2.6-.3 1.2-.5.3-.1h.2l.3.1 1.2.5.6.3.6.2 1.2.5c.4.2.8.3 1.2.5l1.2.5c.2.1.4.1.6.2l.6.2 1.2.4 1.2.4c.4.1.8.3 1.3.4.8.2 1.7.5 2.5.7.4.1.9.2 1.3.3l1.3.3.7.1.7.1 1.3.2 1.3.2.7.1.7.1c.5 0 .9.1 1.4.1l1.4.1H331.5c.5 0 .9-.1 1.4-.1.5 0 .9-.1 1.4-.1l.7-.1c.2 0 .5-.1.7-.1l.7-.1c.2 0 .5-.1.7-.1l1.4-.3c.9-.2 1.9-.4 2.8-.7 3.7-1.1 7.3-2.7 10.6-4.9s6.1-5.1 8.4-8.4c.7-1 1.3-1.9 1.9-3h243.2v-4.8H363.8c.4-1 .7-2.1 1-3.1.1-.5.3-1.1.4-1.6H605V128H365.7zm-31.8-5.8c2.1-3.8 4-7.7 5.7-11.6.6.2 1.2.5 1.8.8l.4.2c.1.1.3.1.4.2.2.2.5.3.7.5l.7.5.2.1.2.1.4.3c.9.7 1.9 1.6 2.7 2.5l.3.3.3.3.3.3.2.3c.1.1.2.2.2.3l.2.3c.1.1.2.2.2.3l.2.3c1.1 1.8 1.9 3.8 2.2 6 .2 1.2.2 2.4.1 3.6h-.8c-2.7-.1-5.4-.5-8-1-1.3-.3-2.6-.7-3.9-1.1-1.3-.4-2.6-.9-3.8-1.4-.6-.3-1.2-.5-1.8-.8.4-.3.6-.8.9-1.3zm-9 2.5c.5.3 1 .6 1.4.8 1.4.8 2.8 1.5 4.2 2.2.8.4 1.6.8 2.4 1.1 1.4.6 2.8 1.1 4.2 1.6 1.4.5 2.9.9 4.3 1.2 2.9.7 5.9 1.1 8.9 1.2-.2.5-.4.9-.6 1.4-.5 1-1 2-1.7 2.9-.1.1-.1.2-.2.3-2.5-.2-5-.6-7.5-1.1-1.6-.4-3.2-.8-4.7-1.3-1.6-.5-3.1-1.1-4.6-1.7l-3.3-1.5-1.2-.6c-1-.5-2.1-1.1-3.1-1.7-.4-.2-.8-.4-1.1-.7l-3-1.8c-1.4-.8-2.7-1.7-4-2.6-.4-.2-.7-.5-1.1-.7-2.5-1.6-5-3.3-7.5-4.9.6-.3 1.1-.7 1.7-1 1-.6 1.9-1.1 2.9-1.7 1.8 1.2 3.7 2.4 5.5 3.6.4.3.8.5 1.2.8 1.3.9 2.7 1.7 4 2.5 1.1.6 2 1.2 2.9 1.7zm18.7 17c-.1.1-.2.1-.3.2-1.9 1.3-4.1 2.3-6.4 3-.6.2-1.2.3-1.8.4l-.9.2c-.1 0-.3 0-.5.1l-.5.1c-.2 0-.3.1-.5.1h-.5c-.3 0-.6.1-.9.1l-1 .1h-3l-1-.1c-.3 0-.7-.1-1-.1h-.5l-.5-.1-1-.1-1-.2-.5-.1-.5-.1-1-.2c-.3-.1-.7-.2-1-.2-.7-.1-1.3-.3-2-.5-.2-.1-.4-.1-.6-.2.5-.5 1-.9 1.5-1.4 1.3-1.2 2.5-2.5 3.6-3.7 1-1.1 1.9-2.1 2.8-3.2.2.1.5.2.7.4l1.2.6c.8.4 1.6.7 2.4 1.1 1.6.7 3.3 1.3 5 1.9 1.7.5 3.4 1 5.2 1.4 1.7 0 3.1.3 4.5.5zm-31.1-13.5c-.3.4-.6.7-.9 1-2.8 3.1-5.8 5.8-9.1 8-3.3-2.2-6.3-5-9.1-8-.3-.3-.6-.7-.9-1 .2-.1.4-.3.6-.4 2.7-1.7 5.3-3.4 7.9-5.1.5-.3 1-.7 1.5-1 .5.3 1 .7 1.5 1 2.6 1.7 5.2 3.4 7.9 5.1.2.1.4.2.6.4zm3.9-14.5c1.3-.6 2.6-1.2 3.9-1.7 1.2-.5 2.4-.9 3.6-1.3l-2.4 4.5c-.2.4-.5.9-.7 1.3-.4-.2-.7-.5-1.1-.7l-3.3-2.1zm-18.5-.4c1.5-1 3-1.9 4.6-2.8.5-.3.9-.5 1.4-.8 1.1-.6 2.2-1.3 3.3-1.9.3-.2.6-.3.8-.5 1.4-.8 2.8-1.5 4.3-2.2 1.5-.7 2.9-1.4 4.4-2 1.5-.6 3-1.2 4.6-1.6 2.3-.7 4.7-1.3 7.2-1.6-.7 1.7-1.4 3.5-2.1 5.2-1.2.3-2.5.6-3.7.9-1.4.4-2.8.9-4.2 1.5l-4.2 1.8c-.9.4-1.7.8-2.6 1.3-.5.3-1 .5-1.5.8-1.1.6-2.2 1.2-3.2 1.8-.3.2-.5.3-.8.5-1.3.7-2.5 1.5-3.8 2.3-1.4.9-2.7 1.7-4.1 2.6-.1.1-.2.2-.4.2-2.5 1.6-5 3.3-7.5 4.9-.4.2-.7.5-1.1.7-.9-1.3-1.9-2.6-2.7-3.9.4-.3.8-.5 1.2-.8 1.8-1.2 3.6-2.4 5.5-3.6.8-.5 1.6-1 2.4-1.6.8-.3 1.5-.8 2.2-1.2zm-12.6 2.5c-.4.2-.7.5-1.1.7-.2-.4-.5-.8-.7-1.3l-2.4-4.5c1.2.4 2.4.8 3.6 1.3 1.3.5 2.6 1.1 3.9 1.7-1.2.7-2.2 1.4-3.3 2.1zm-31.9-2-.3.4c-.1.1-.2.3-.3.4l-.3.4c-.1.1-.2.3-.3.4l-.3.4c-1.5 2.4-2.5 5-2.9 7.8-.2 1.4-.3 2.9-.2 4.3H244c-.1-1.7 0-3.4.2-5 .5-3.4 1.7-6.7 3.6-9.7l.4-.5c.1-.2.2-.4.4-.5l.4-.5c.1-.2.3-.3.4-.5l.4-.5.4-.5.4-.5.4-.4c1.1-1.2 2.4-2.3 3.7-3.4l.5-.4.2-.2.3-.2c.3-.2.7-.5 1-.7l1.1-.7.6-.3.6-.3c.9-.5 1.9-1 2.8-1.4.6-.3 1.2-.5 1.9-.7.9-.3 1.8-.5 2.7-.7.8-.2 1.6-.3 2.3-.4.8-.1 1.7-.2 2.5-.2h2.6c.9 0 1.7.1 2.6.2 2.5.3 4.9.9 7.2 1.6 1.6.5 3.1 1 4.6 1.6 1.5.6 3 1.3 4.4 2 1.5.7 2.9 1.4 4.3 2.2.3.2.6.3.8.5-1.5 1-3.1 1.9-4.6 2.9h-.1c-.8-.4-1.7-.9-2.6-1.3-1.4-.7-2.8-1.3-4.2-1.8-1.4-.6-2.8-1.1-4.2-1.5-1.2-.4-2.5-.7-3.7-.9-1.6-.3-3.3-.6-4.9-.6h-.5c-1.3 0-2.5 0-3.8.2-.4.1-.8.1-1.2.2-1 .2-2 .4-2.9.7-.6.2-1.1.4-1.7.6-.8.3-1.5.7-2.2 1.1l-.5.3c-.2.1-.3.2-.5.3l-.9.6-.9.6-.2.2-.2.2-.4.3c-1.1.9-2.2 1.9-3.2 2.9l-.4.4-.3.4-.2.2zm16.7 10.7c-1.2.5-2.5 1-3.8 1.4-1.3.4-2.6.8-3.9 1.1-2.6.6-5.3 1-8 1h-.8c-.1-1.2 0-2.4.1-3.6.3-2.1 1.1-4.2 2.2-6l.2-.3c.1-.1.2-.2.2-.3l.2-.3c.1-.1.2-.2.2-.3l.2-.3.3-.3.3-.3.3-.3c.9-.9 1.8-1.8 2.7-2.5l.4-.3.2-.1.2-.1.7-.5c.2-.2.5-.3.7-.5.1-.1.2-.1.4-.2l.4-.2c.6-.3 1.2-.6 1.8-.8 1.7 3.9 3.6 7.8 5.7 11.6l.9 1.5c-.6.1-1.2.3-1.8.6zm6-3c-.3-.5-.6-1.1-.9-1.6-1.9-3.4-3.6-6.9-5.2-10.5 1.1-.1 2.2-.2 3.4-.1.6 0 1.2.1 1.8.2 1.3 2.8 2.6 5.5 4.1 8.1l.9 1.5c.8 1.4 1.6 2.7 2.5 4l2.7 3.9c1 1.3 1.9 2.5 3 3.8.5.6 1 1.1 1.5 1.7 1 1.1 2.1 2.2 3.2 3.2s2.2 2 3.4 3l.4.4c.1.1.3.2.4.3l.8.6c-.3.2-.6.3-.9.4l-.4.2c-.1 0-.2.1-.2.1l-.2.1-1 .4-.5.2-.5.2-1 .4s-.1 0-.1.1c-1.2-1-2.3-2-3.4-3-1.2-1.1-2.3-2.3-3.4-3.5l-2.1-2.4c-1-1.2-2-2.5-3-3.8l-2.7-3.9c-1-1.3-1.8-2.7-2.6-4zM265.5 141c1.7-.4 3.5-.9 5.2-1.4 1.7-.5 3.4-1.2 5-1.9.8-.4 1.6-.7 2.4-1.1l1.2-.6c.2-.1.5-.2.7-.4.9 1.1 1.8 2.2 2.8 3.2 1.2 1.3 2.4 2.5 3.6 3.7.5.5 1 .9 1.5 1.4-.2.1-.4.1-.6.2-.7.2-1.3.4-2 .5-.3.1-.7.2-1 .2l-1 .2-.5.1-.5.1-1 .2-1 .1-.5.1h-.5c-.3 0-.7.1-1 .1l-1 .1h-3l-1-.1c-.3 0-.6-.1-.9-.1h-.5c-.2 0-.3 0-.5-.1l-.5-.1c-.2 0-.3 0-.5-.1l-.9-.2c-.6-.1-1.2-.3-1.8-.4-2.3-.7-4.5-1.6-6.4-3-.1-.1-.2-.1-.3-.2 1.7.1 3.1-.2 4.5-.5zm41.9 4.5c-1.3.9-2.6 1.7-4 2.4-.3.2-.6.3-1 .5 0 0-.1 0-.1.1-.4.2-.7.4-1.1.5l-.6.3-.6.3-1 .4-.6.2-.6.2-.8.3-.3.1c-.4.2-.8.3-1.1.4l-1.1.4c-.2.1-.4.1-.6.2l-.6.2-1.1.4-1.2.4-1.2.3-2.4.6-1.2.3-1.2.2-.6.1-.6.1-1.2.2-1.2.2-.6.1-.6.1c-.4 0-.8.1-1.2.1l-1.2.1H274.2l-1.2-.1c-.4 0-.8-.1-1.2-.1l-.6-.1c-.2 0-.4-.1-.6-.1l-.6-.1c-.2 0-.4-.1-.6-.1l-1.2-.2-2.4-.6c-3.2-.9-6.4-2.3-9.2-4.3-2.8-1.9-5.3-4.4-7.2-7.2-.1-.1-.1-.2-.2-.2H255.2c1.2 1.3 2.6 2.5 4.1 3.5 2.3 1.6 5 2.8 7.8 3.6.7.2 1.4.4 2.1.5l1.1.2c.2 0 .4.1.5.1l.5.1c.2 0 .4.1.5.1l.5.1c.4 0 .7.1 1.1.1l1.1.1H277.8l1.1-.1c.4 0 .7-.1 1.1-.1l.6-.1.6-.1 1.1-.1 1.1-.2.6-.1.5-.1 1.1-.2c.4-.1.7-.2 1.1-.3.7-.2 1.5-.4 2.2-.6.4-.1.7-.2 1.1-.3l1.1-.3 1.1-.4.4-.2h.1c.2-.1.4-.1.5-.2l1.1-.4c.4-.1.7-.3 1.1-.4l1.1-.4.5-.2.5-.2c.1-.1.3-.1.4-.2 1.3-.6 2.4-1.1 3.6-1.8.4-.2.9-.5 1.3-.7.9-.5 1.7-1 2.5-1.6l.5-.3.2-.2.2-.2.9-.7.1-.1.8-.6c.1-.1.3-.2.4-.3l.4-.4c1.2-.9 2.3-1.9 3.4-3 1.1-1 2.1-2.1 3.2-3.2.5-.5 1-1.1 1.5-1.7 1.2.7 2.3 1.4 3.5 2.1l.6.3c-.7.8-1.3 1.6-2.1 2.4-1.1 1.2-2.2 2.4-3.4 3.5-1.1 1-2.2 2-3.4 3-.1.1-.2.1-.3.2l-.5.4c-.2.1-.3.3-.5.4l-1 .7-1 .7-.2.2-.3.2-.5.3c-.3.5-.3.5-.4.6zm53.5-17.4c-.1 1.6-.3 3.2-.7 4.8 0 .2-.1.3-.1.5-.1.6-.3 1.2-.5 1.7-.3.9-.6 1.7-1 2.6-.1.2-.2.4-.2.6-.7 1.5-1.5 2.9-2.4 4.2-.1.1-.1.2-.2.2-2 2.8-4.4 5.2-7.2 7.2-2.8 1.9-5.9 3.4-9.2 4.3l-2.4.6-1.2.2c-.2 0-.4.1-.6.1l-.6.1c-.2 0-.4.1-.6.1l-.6.1c-.4 0-.8.1-1.2.1l-1.2.1H327.4l-1.2-.1c-.4 0-.8-.1-1.2-.1l-.6-.1-.6-.1-1.2-.2-1.2-.2-.6-.1-.6-.1-1.2-.2-1.2-.3-2.4-.6-1.2-.3-1.2-.4-1.2-.4-.6-.2c-.2-.1-.4-.1-.6-.2l-1.1-.4c-.4-.1-.8-.3-1.1-.4l-.3-.1c.8-.5 1.6-1 2.4-1.6l.6-.4.3-.2.3-.2 1.1-.8.2-.1.4.2 1.1.4 1.1.3c.4.1.7.2 1.1.3.7.2 1.4.4 2.2.6.4.1.7.2 1.1.3l1.1.2.5.1.6.1 1.1.2 1.1.1.6.1.6.1c.4 0 .7.1 1.1.1l1.1.1H331.1l1.1-.1c.4 0 .7-.1 1.1-.1l.5-.1c.2 0 .4 0 .5-.1l.5-.1c.2 0 .4 0 .5-.1l1.1-.2c.7-.2 1.4-.3 2.1-.5 2.8-.8 5.4-2 7.8-3.6 1.5-1 2.8-2.2 4.1-3.5.7-.8 1.4-1.6 2-2.5.5-.7 1-1.5 1.4-2.3.3-.5.5-.9.7-1.4.5-1.1.9-2.2 1.2-3.3.1-.2.1-.5.2-.7.3-1.3.5-2.7.6-4.1.1-1.4 0-2.9-.2-4.3-.4-2.8-1.4-5.5-2.9-7.8l-.3-.4c-.1-.1-.2-.3-.3-.4l-.3-.4c-.1-.1-.2-.3-.3-.4l-.3-.4-.3-.4-.3-.4-.4-.4c-1-1.1-2.1-2-3.2-2.9l-.4-.3-.2-.2-.2-.2-.9-.6-.9-.6c-.1-.1-.3-.2-.5-.3l-.5-.3c-.7-.4-1.5-.8-2.2-1.1.3-.7.5-1.3.8-2l.9-2.4c1 .4 1.9.9 2.8 1.4l.6.3.6.3 1.1.7c.3.2.7.5 1 .7l.3.2.2.2.5.4c1.3 1 2.6 2.2 3.7 3.4l.4.4.4.5.4.5.4.5c.1.2.3.3.4.5l.4.5c.1.2.3.3.4.5l.4.5c1.9 2.9 3.1 6.3 3.6 9.7-.3 1.5-.2 3.2-.3 4.8zM289.8 132.5z"/>
    <path class="st1" d="M365.1 132.9c-.1.5-.2 1.1-.4 1.6-.3 1.1-.6 2.1-1 3.1h241.1v-4.8l-239.7.1zM322.3 123.2c-1.3-.8-2.7-1.7-4-2.5-.4-.3-.8-.5-1.2-.8-1.8-1.2-3.6-2.4-5.5-3.6-1 .5-1.9 1.1-2.9 1.7-.6.3-1.1.7-1.7 1 2.5 1.6 5 3.3 7.5 4.9.4.2.7.5 1.1.7 1.3.9 2.7 1.7 4 2.6l3 1.8c.4.2.8.4 1.1.7 1 .6 2 1.1 3.1 1.7l1.2.6c1.1.5 2.1 1 3.3 1.5 1.5.6 3 1.2 4.6 1.7 1.6.5 3.1.9 4.7 1.3 2.5.5 5 .9 7.5 1.1.1-.1.1-.2.2-.3.7-.9 1.2-1.9 1.7-2.9.2-.5.4-.9.6-1.4-3-.1-6-.5-8.9-1.2-1.5-.3-2.9-.7-4.3-1.2s-2.8-1-4.2-1.6c-.8-.3-1.6-.7-2.4-1.1-1.4-.7-2.8-1.4-4.2-2.2-.5-.3-1-.5-1.4-.8-1.2-.6-2.1-1.2-2.9-1.7zM293.4 116.3c-1.8 1.2-3.7 2.4-5.5 3.6-.4.3-.8.5-1.2.8l2.7 3.9c.4-.2.7-.5 1.1-.7 2.5-1.6 5-3.3 7.5-4.9.1-.1.2-.2.4-.2 1.4-.9 2.7-1.8 4.1-2.6 1.3-.8 2.5-1.5 3.8-2.3.3-.2.5-.3.8-.5 1.1-.6 2.1-1.2 3.2-1.8.5-.3 1-.5 1.5-.8.8-.4 1.7-.9 2.6-1.3 1.4-.7 2.8-1.3 4.2-1.8 1.4-.6 2.8-1.1 4.2-1.5 1.2-.4 2.5-.7 3.7-.9.7-1.7 1.4-3.4 2.1-5.2-2.5.3-4.9.9-7.2 1.6-1.6.5-3.1 1-4.6 1.6-1.5.6-3 1.3-4.4 2-1.5.7-2.9 1.4-4.3 2.2-.3.2-.6.3-.8.5-1.1.6-2.2 1.2-3.3 1.9-.5.3-.9.5-1.4.8-1.5.9-3.1 1.9-4.6 2.8-.7.4-1.4.9-2.1 1.4-.9.3-1.7.9-2.5 1.4zM245.2 137.7H254.6c.5 0 1 0 1.6-.1.2 0 .5 0 .7-.1 2.5-.2 5-.6 7.5-1.1 1.6-.4 3.2-.8 4.7-1.3 1.6-.5 3.1-1.1 4.6-1.7l3.3-1.5c-.2-.3-.5-.6-.7-1-.7-1-1.4-2-2-3-.8.4-1.6.8-2.4 1.1-1.4.6-2.8 1.1-4.2 1.6-1.4.5-2.9.9-4.3 1.2-2.9.7-5.9 1.1-8.9 1.2H0v4.8h245.2zM254.1 113.1l.4-.4c1-1.1 2.1-2 3.2-2.9l.4-.3.2-.2.2-.2.9-.6.9-.6c.1-.1.3-.2.5-.3l.5-.3c.7-.4 1.5-.8 2.2-1.1.5-.2 1.1-.4 1.7-.6 1-.3 1.9-.6 2.9-.7.4-.1.8-.1 1.2-.2 1.2-.2 2.5-.2 3.8-.2h.5c1.6.1 3.3.3 4.9.6 1.2.3 2.5.6 3.7.9 1.4.4 2.8.9 4.2 1.5l4.2 1.8c.9.4 1.7.8 2.6 1.3h.1c1.5-1 3-1.9 4.6-2.9-.3-.2-.6-.3-.8-.5-1.4-.8-2.8-1.5-4.3-2.2-1.5-.7-2.9-1.4-4.4-2-1.5-.6-3-1.2-4.6-1.6-2.3-.7-4.7-1.3-7.2-1.6-.9-.1-1.7-.2-2.6-.2h-2.6c-.8 0-1.7.1-2.5.2s-1.6.2-2.3.4c-.9.2-1.8.4-2.7.7-.6.2-1.3.4-1.9.7-1 .4-1.9.9-2.8 1.4l-.6.3-.6.3-1.1.7c-.3.2-.7.5-1 .7l-.3.2-.2.2-.5.4c-1.3 1-2.6 2.2-3.7 3.4l-.4.4-.4.5-.4.5-.4.5c-.1.2-.3.3-.4.5l-.4.5c-.1.2-.3.3-.4.5l-.4.5c-1.9 2.9-3.1 6.3-3.6 9.7-.2 1.7-.3 3.3-.2 5h4.8c-.1-1.4 0-2.9.2-4.3.4-2.8 1.4-5.5 2.9-7.8l.3-.4c.1-.1.2-.3.3-.4l.3-.4c.1-.1.2-.3.3-.4l.3-.4.3-.4.2-.2zM308.4 144.8l.2-.2 1-.7 1-.7c.2-.1.3-.2.5-.4l.5-.4c.1-.1.2-.1.3-.2 1.2-1 2.3-2 3.4-3 1.2-1.1 2.3-2.3 3.4-3.5l2.1-2.4-.6-.3c-1.2-.7-2.4-1.4-3.5-2.1-.5.6-1 1.1-1.5 1.7-1 1.1-2.1 2.2-3.2 3.2s-2.2 2-3.4 3l-.4.4c-.1.1-.3.2-.4.3l-.8.6-.1.1-.9.7-.2.2-.2.2-.5.3c-.8.6-1.7 1.1-2.5 1.6-.4.3-.9.5-1.3.7l-3.6 1.8c-.1.1-.3.1-.4.2l-.5.2-.5.2-1.1.4c-.3.1-.7.3-1.1.4l-1.1.4c-.2.1-.4.1-.5.2h-.1l-.4.2-1.1.4-1.1.3c-.4.1-.7.2-1.1.3-.7.2-1.4.4-2.2.6-.4.1-.7.2-1.1.3l-1.1.2-.5.1-.6.1-1.1.2-1.1.1-.6.1-.6.1c-.4 0-.7.1-1.1.1l-1.1.1H274.3l-1.1-.1c-.4 0-.7-.1-1.1-.1l-.5-.1c-.2 0-.4 0-.5-.1l-.5-.1c-.2 0-.4 0-.5-.1l-1.1-.2c-.7-.2-1.4-.3-2.1-.5-2.8-.8-5.4-2-7.8-3.6-1.5-1-2.8-2.2-4.1-3.5H249c.1.1.1.2.2.2 2 2.8 4.4 5.2 7.2 7.2 2.8 1.9 5.9 3.4 9.2 4.3l2.4.6 1.2.2c.2 0 .4.1.6.1l.6.1c.2 0 .4.1.6.1l.6.1c.4 0 .8.1 1.2.1l1.2.1H277.6l1.2-.1c.4 0 .8-.1 1.2-.1l.6-.1.6-.1 1.2-.2 1.2-.2.6-.1.6-.1 1.2-.2 1.2-.3 2.4-.6 1.2-.3 1.2-.4 1.1-.4.6-.2c.2-.1.4-.1.6-.2l1.1-.4c.4-.1.8-.3 1.1-.4l.3-.1.8-.3.6-.2.6-.2 1.1-.5.6-.3.6-.3c.4-.2.7-.4 1.1-.5 0 0 .1 0 .1-.1.3-.2.6-.3 1-.5 1.4-.7 2.7-1.5 4-2.4.1 0 .2-.1.2-.1l.5-.3.4-.6zM349 9.4c-.2 6.2-.6 12.4-1.1 18.7-.5 6.2-1.1 12.4-1.9 18.6-.8 6.2-1.8 12.3-2.9 18.4-1.2 6.1-2.5 12.2-4.1 18.1-.8 3-1.7 6-2.6 8.9-.3 1-.7 2-1 3-.5 1.6-1.1 3.1-1.7 4.7-.1.4-.3.7-.4 1.1-.5 1.2-1 2.5-1.5 3.7-.7 1.7-1.4 3.3-2.1 4.9-1.3 2.8-2.6 5.5-4.1 8.1l-.9 1.5c.9.5 1.7 1.1 2.6 1.6l1.5.9c.3-.5.6-1.1.9-1.6 1.9-3.4 3.6-6.9 5.2-10.5.7-1.5 1.3-3 1.9-4.5.3-.8.6-1.6.9-2.3.3-.7.5-1.4.8-2.2.5-1.5 1.1-3 1.6-4.5.3-.8.5-1.5.8-2.3 1-3 1.9-6.1 2.7-9.1 1.6-6.1 3-12.3 4.2-18.5 1.2-6.2 2.2-12.4 3-18.7.8-6.3 1.5-12.5 2-18.8.5-6.3.9-12.6 1.1-18.9.1-3.1.2-6.3.2-9.4V.1h-4.8v.1c-.1 3-.2 6.1-.3 9.2z"/>
</svg>
