<svg xmlns="http://www.w3.org/2000/svg" width="134.5" height="133.8" style="overflow:visible;enable-background:new 0 0 134.5 133.8" xml:space="preserve">
    <style>
        .st0{fill:none}.st1{fill:#fff}.st2{fill:#d54830}
    </style>
    <path class="st0" d="M68.8 72.3h-2.5c-.9 3-1.8 6.1-2.7 9.1 3.4-.1 6.7-.1 10.1-.2l-4-8.9h-.9zM43.9 39.1c.4 6.2 3.4 12.1 6.1 17.9 1.8-.1 3.6-.1 5.4-.1 1.1-3 2.2-5.9 3.5-8.8-3-5.8-8.6-10-14.9-11.5-.1.8-.1 1.7-.1 2.5zM78.7 24.5c1.7-.8 3.4-1.6 5.2-2.2-9-9.6-24.8-9.5-33.7.2 6.5 2.1 12.5 5.9 17 11 3.1-3.6 7.1-6.8 11.5-9zM83.4 106.5c-.3.8-.8 2.4-1.1 3.2h-.1.1c1.9-4.4 3-9.1 4.5-13.6h-.2c-1 3.5-2.1 6.9-3.2 10.4zM20.6 73.3c3.7-5.2 8.7-9.5 14.4-12.4-3.3-7.2-6.5-15.1-6.3-23.3-14.1 6-17.8 24.1-8.1 35.7zM96.9 79.8l-.3.9c1.6 0 4.3-.1 5.9-.1-1.3-1.8-2.9-3.3-4.6-4.7-.3 1.3-.6 2.6-1 3.9zM90.3 37.2c0-.1-.1-.8-.1-.9-6.4 1.6-11.8 6.1-14.6 12 .3.8 3.5 7.9 4 8.8 2.5 0 5 .1 7.5.2 1.3-5.6 2.6-11.3 3.1-16.9.1-1 .1-2.2.1-3.2zM105.5 40.4c-.5 6.8-2 13.5-3.5 20.1 5.2 2.8 9.7 6.7 13.2 11.5 8.5-11.7 3.2-28.2-9.6-34.2-.1.7-.1 1.8-.1 2.6zM77.7 107.5c1.2-3.7 2.4-7.5 3.6-11.2h-.1c-1.2 3.7-2.3 7.5-3.6 11.2h.1zM84.5 117.6c11.8-.1 22.3-10.3 22.6-22.1-.1 0-.1 0-.2.1v-.1c-1.4.4-5.3.3-6.8.4-2.2.1-5.8.1-8 .2-1.4 4.7-2.9 9.4-4.5 14.1-1.1 2.6-2.5 5.1-4.1 7.4h1zM61.1 98.6c.9 5 3.6 9.7 7.4 13.1 1.9-1.9 3.4-4 4.5-6.4 1-3 2-6 2.9-9l-15.1.3c.1.7.2 1.4.3 2zM28.9 96.2c.3 13.1 12.1 23.5 25.1 22.3-4.9-6.1-7.9-13.7-8.4-21.5-5.6.1-11.2.5-16.7-1v.2zM35.3 81.8c1 .1 2.1.2 3.1.2 3.1 0 6.2-.1 9.3-.2.9-3.2 1.7-6.3 2.7-9.5-6.6.3-12.9 3.9-16.9 9.2l1.8.3z"/>
    <path class="st1" d="M40.4 18.3c-3.4 4.5-5.7 10-6.4 15.6-1.4 8.8 2 17.4 5.6 25.1 1.7-.6 3.4-1 5.1-1.4-3-6.6-6.3-13.6-5.7-21.1.6-10.6 7.7-20.4 17.6-24.3 11.3-4.7 25.2-1 32.7 8.7 2-.4 4-.6 6-.6-8.5-13.4-26-19-40.6-13l.1.2-.1-.2C49 9.6 44 13.5 40.4 18.3z"/>
    <path class="st2" d="m54.7 7.6-.1-.2.1.2z"/>
    <path class="st1" d="M95.3 39.8c-.4 6-1.8 11.9-3.1 17.7 1.6.1 3.2.2 4.7.7.1 0 .4.1.5.2 1-4.2 1.9-8.5 2.5-12.8h-.2.2c.5-3.1.8-6.3.6-9.5-1.7-.4-3.5-.5-5.3-.5.1 1.3.1 2.8.1 4.2zM91.8 72.8c-1.2-.1-2.3-.1-3.5-.2-.2.8-.5 1.6-.7 2.5l.2.3 2.5 5.4h1.2c.7-2.5 1.4-5 2.1-7.6-.3-.1-.6-.3-.9-.4h-.9zM30.9 86c-.7 1.6-1.2 3.3-1.6 5 5.3 1.6 10.8 1.2 16.2 1.1.1-1.4.2-2.8.5-4.1 0-.2.2-1 .3-1.1-5.1-.1-10.4.6-15.4-.9zM10.2 59.8c-.9-12.1 7.3-24.1 19-27.7.3-1.9.8-3.9 1.4-5.8C15.3 29.4 3.7 44.6 5 60.2h.2H5c.5 8.7 4.5 16.9 10.7 22.9.6-1.8 1.3-3.6 2.2-5.2-4.5-5-7.3-11.4-7.7-18.1z"/>
    <path class="st2" d="M19.5 101.7h-.2.2zM24.2 100.8l.2-.1-.2.1zM92.6 72.8zM74.8 67.3h-.1.1z"/>
    <path class="st1" d="M90.9 62.5c-3.1-.2-6.1-.2-9.2-.3.1.2 2.3 5 2.4 5.3 2.9.1 5.8.1 8.7.4.4 0 .9.1 1.3.2 5.4 2.1 10.1 5.9 13.3 10.8 1.5-.9 2.9-1.9 4.2-3.1-3.7-5.6-9.3-10.1-15.6-12.6-1.5-.6-3.3-.6-5.1-.7zM116.9 90.9c-1.5 1-3.2 1.9-4.8 2.7.7 17.3-15.4 31.5-32.5 28.6-1.5 1.6-3.2 3-4.9 4.3 22.6 6.7 45.2-12.3 42.5-35.7-.1 0-.2.1-.3.1zM86.9 96l-5.7.1v.1c-1 3.1-2.2 7.1-3.6 11.1h-.1l-.1.1c-5.4 11.1-16.7 17.2-28.8 15.7-12.1-1.5-21.5-10.3-24-22.4-2-10.1 2.1-21.1 10.2-27.4 4-3.2 8.8-5.2 13.9-5.8 2.8-.2 5.7-.2 8.5-.2h10.5l-.4-1c-.6-1.4-1.6-3.5-2-4.5v-.1h-4.6c-4.1 0-8.3 0-12.5.2-4.8.6-9.4 2.2-13.4 4.7-11.8 7-18.2 21.4-15.5 34.9v.1c2.5 12.6 11.4 22.3 23.6 25.8 3.2.9 6.4 1.4 9.6 1.4 9 0 17.6-3.7 24.2-10.5 2.4-2.5 4.3-5.4 5.8-8.5l.1-.2.1-.2c1.5-4.5 3-9.1 4.3-13.4h-.1zm-62.7 4.8z"/>
    <path class="st1" d="M56.2 89.7c1.5-5.9 3.1-11.7 4.9-17.5h-5.5c-1.7 5.6-3.3 11.3-4.7 17-1.7 10.1 1.6 20.8 8.7 28.2 1.7-.6 3.4-1.4 5-2.4-6.6-6.1-9.9-15.6-8.6-24.5.1-.3.1-.6.2-.8zM75.1 59.4c-1.8-4-3.8-8.5-5.6-12.5-2.5-6.7-7.3-12.4-13.4-16.1-2.8-1.7-5.9-3.1-9.1-3.9-.9 1.5-1.6 3.2-2.1 4.9 8.7 2 16.4 8.4 19.6 16.8.6 1.5 2.1 4.6 2.7 6.1 3.8 8.4 8.1 18 11.9 26.4 1.9 0 3.8-.1 5.7-.1-3.1-6.9-6.6-14.7-9.7-21.6zm-.3 7.9h-.1.1z"/>
    <path class="st2" d="M134 52.9c-2.6-16.3-16.5-29.8-32.8-32.2C86.6-7 47.3-6.9 32.9 20.9-.8 25.5-11.4 67.1 14.3 88.5c-5.4 31.1 26.4 55.1 54.8 41.3 28.1 11.8 58.2-12.6 52.6-42.5 9.6-8.4 14.5-21.8 12.3-34.4zM54.6 7.4c14.7-6 32.2-.4 40.6 13-2 0-4 .2-6 .6-7.5-9.7-21.3-13.4-32.7-8.7-9.9 3.9-17 13.7-17.6 24.3-.5 7.4 2.8 14.4 5.8 21-1.7.4-3.4.8-5.1 1.4-3.2-6.9-6.4-14.4-5.9-22.3.5-12.8 9-24.7 20.9-29.3zm40.7 30.5c0-.7-.1-1.7-.1-2.3 1.8-.1 3.5.1 5.3.5.2 3.1-.1 6.4-.6 9.5h-.2.2c-.7 4.4-1.6 8.6-2.5 12.8-.1 0-.4-.1-.5-.2-1.5-.5-3.1-.5-4.7-.7 1.4-6.4 3-13 3.1-19.6zm-2.2 24.7c1.3.1 2.5.3 3.7.9 6 2.5 11.3 6.8 14.9 12.3-1.3 1.2-2.7 2.2-4.2 3.1-3.2-4.9-7.9-8.7-13.3-10.8-.4-.2-.9-.2-1.3-.2-2.9-.2-5.8-.3-8.7-.4-.1-.2-2.3-5-2.4-5.3 3.8.1 7.5.1 11.3.4zm12.4-24.8c12.8 6 18.1 22.4 9.6 34.2-3.4-4.8-8-8.7-13.2-11.5 1.7-7.5 3.6-15 3.6-22.7zm-2.9 42.8c-1.6 0-4.3.1-5.9.1.5-1.6.9-3.2 1.4-4.8 1.6 1.3 3.2 2.9 4.5 4.7zm-10-7.8c.3.1.6.3.9.4-.7 2.5-1.4 5.1-2.1 7.6h-1.2l-2.5-5.4-.2-.3c.2-.8.5-1.6.7-2.5 1.5.1 3 .1 4.4.2zm-2.3-34c-.3 6.2-1.8 12.4-3.2 18.5-2.5-.1-5-.1-7.5-.2-.4-1-3.6-8-4-8.8 2.9-5.9 8.3-10.4 14.6-12 .1.8.1 1.7.1 2.5zm-14 23.3c2.7 5.9 5.8 13 8.5 18.9-1.9 0-3.8.1-5.7.1-3.8-8.4-8.1-18-11.9-26.4-.7-1.5-2.1-4.6-2.7-6.1-3.2-8.4-10.8-14.8-19.6-16.8.5-1.7 1.2-3.3 2.1-4.9 3.2.9 6.3 2.2 9.1 3.9 6.5 3.9 11.2 10.1 13.8 17.2 2 4.5 4.3 9.5 6.4 14.1zm-2.6 19.1c-3.4.1-6.7.1-10.1.2.9-3.1 1.8-6.1 2.7-9.1h3.4l4 8.9zM62.8 57h-2.1c.3-.9.6-1.7 1-2.6.3.8.8 1.9 1.1 2.6zM43.9 37.6c0-.3 0-.7.1-1 6.3 1.6 11.9 5.7 14.9 11.5-1.3 2.9-2.4 5.8-3.5 8.8-1.8 0-3.6 0-5.4.1-2.9-6.2-6.2-12.6-6.1-19.4zm23.3-4c-4.6-5.1-10.5-8.9-17-11 8.9-9.7 24.7-9.8 33.7-.2-6.5 2.1-12.4 6-16.7 11.2zM17.8 78.1c-.8 1.6-1.5 3.3-2.1 5C9.5 77.1 5.5 68.8 5 60.2h.2H5C3.7 44.6 15.3 29.4 30.6 26.4c-.6 1.8-1.1 3.9-1.4 5.8-11.6 3.5-19.9 15.5-19 27.7.4 6.6 3.2 13.1 7.7 18l-.1.2zm-2.6-18.6c-.7-9.2 5-18.3 13.5-21.9-.2 8.2 3 16 6.3 23.3-5.7 2.8-10.7 7.1-14.4 12.4-3.1-3.9-5.1-8.8-5.4-13.8zm58.5 61.4c-9.6 8.2-23.7 10.2-35.2 5-22.9-10.3-26.8-41.3-7-56.8 4.8-3.7 10.6-6.2 16.6-6.9 5.6-.3 11.3-.2 16.9-.2.6 1.2 1.8 4 2.4 5.2h-7.2v.1-.1c-3.8 0-7.6 0-11.4.2-.7.1-1.5.2-2.2.3-11.7 2.2-21.2 12.4-22.5 24.2-2.6 19.7 16.3 36 35.4 30.6 7.8-2.1 14.6-7.8 18.1-15.1 1.3-3.7 2.5-7.5 3.6-11.2 1.9 0 3.7-.1 5.6-.1-1.5 4.5-2.6 9.2-4.5 13.6-2 4.3-5 8.1-8.6 11.2zM56 90.4c-1.4 8.9 1.9 18.4 8.6 24.5-1.6 1-3.3 1.8-5 2.4-7.1-7.4-10.4-18.1-8.7-28.2 1.4-5.7 3-11.4 4.7-17h5.5c-1.9 6.1-3.6 12.2-5.1 18.3zm4.8 6.2 15.1-.3c-.9 3-1.9 6-2.9 9-1.1 2.4-2.7 4.6-4.5 6.4-4.3-3.8-7.2-9.3-7.7-15.1zm-27.1-10c4.2.7 8.5.2 12.7.2 0 .2-.2 1-.3 1.1-.2 1.4-.4 2.7-.5 4.1-5.4.1-11 .6-16.2-1.1.3-1.7.9-3.4 1.6-5 .8.3 1.7.5 2.7.7zm-.2-5.1c3.9-5.3 10.3-8.9 16.9-9.2-.9 3.2-1.8 6.3-2.7 9.5-2.7.1-5.6.1-8.3.2-2 0-4-.1-5.9-.5zM32 96.7c4.5.8 9.1.4 13.6.3.5 7.8 3.5 15.4 8.4 21.5-13.1 1.2-24.8-9.3-25.1-22.5 1 .3 2.1.5 3.1.7zm54.9 15c2.1-5.1 3.5-10.5 5.2-15.7 2.1 0 5.8-.1 8-.2 1.5-.1 5.4 0 6.8-.4v.1c.1 0 .1 0 .2-.1-.4 12.2-11.4 22.5-23.6 22.1 1.3-1.8 2.4-3.8 3.4-5.8zm30.4-15.2c-1.1 21-22.5 36-42.6 30 1.8-1.3 3.4-2.7 4.9-4.3 17.1 2.9 33.2-11.3 32.5-28.6 1.8-.8 3.4-1.8 5-2.8.3 1.9.3 3.8.2 5.7zm11.9-33.1c-.4 3.2-1.4 6.3-2.7 9.3l-.2-.1.2.1c-3.9 8.5-11.6 15.2-20.5 18-15.4.6-30.8.7-46.2 1.1 0-1.1-.1-4.1-.1-5.2 14.1-.3 28.2-.5 42.4-.9 2.5 0 3.1 0 5.5-1.1 6.2-2.8 11.4-7.8 14.3-14l.2.1-.2-.1c10.3-21.8-12.1-46.3-34.7-38.4-5.7 1.9-10.7 5.7-14 10.6-.8-1.7-1.7-3.4-2.8-5 3.9-4.9 9.2-8.6 15.1-10.6l.1.2-.1-.2c22.6-8.2 47.3 12.5 43.7 36.2z"/>
    <path class="st1" d="M126.1 44.5c-7-14.7-25.2-23.1-40.7-17.4l.1.2-.1-.2c-5.9 2-11.2 5.7-15.1 10.6 1.1 1.6 2 3.3 2.8 5 3.3-5 8.3-8.7 14-10.6 22.6-7.9 45 16.7 34.7 38.4l.2.1-.2-.1c-2.8 6.2-8 11.2-14.3 14-2.4 1.1-2.9 1.1-5.5 1.1l-42.4.9c0 1.1.1 4.1.1 5.2 15.4-.4 30.8-.4 46.2-1.1 9-2.7 16.6-9.5 20.5-18l-.2-.1.2.1c4.2-8.7 4.1-19.4-.3-28.1z"/>
</svg>
