<svg xmlns="http://www.w3.org/2000/svg" width="142.7" height="32.2" style="overflow:visible;enable-background:new 0 0 142.7 32.2" xml:space="preserve">
    <style>
        .st0{fill:#fff}
    </style>
    <path class="st0" d="M10.4 11c-.2 5.3-1.3 14.2-7.1 20-.5.4-1 .7-1.5.7-1 0-1.9-.8-1.9-1.7 0-.4.1-.8.5-1.2 5.5-5.3 6.1-13.1 6.4-17.9v-.3c-1.2 0-2.4.1-3.6.1-1 0-1.5-.8-1.5-1.6s.5-1.6 1.6-1.6c1.3 0 2.5 0 3.7-.1V2C7 1 7.9.5 8.8.5s1.8.5 1.9 1.6V3c0 1.4 0 2.8-.1 4.3h2.6c3.8.1 3.8 3.6 3.8 5 0 3.4-.2 8.9-.7 12.3-.7 4.2-2.9 6-5.9 6-.8 0-1.7-.1-2.6-.4-.9-.3-1.3-1-1.3-1.8s.5-1.6 1.4-1.6c.2 0 .4 0 .7.1.4.1.8.2 1.3.2 2 0 3.6-1.1 3.6-13.3 0-2.3 0-3.2-1.4-3.2h-1.7v.4zm17.4 19.5c-.8 0-1.5.1-2.2.1-2.9 0-6.1-.1-6.2-3.9-.1-2.7-.1-5.6-.1-8.5s0-5.8.1-8.5c.1-2 1.6-3.6 4-3.8.8 0 1.5-.1 2.3-.1.7 0 1.5 0 2.2.1 2 .1 4 1.6 4.1 3.9.1 2.6.1 5.4.1 8.4s0 5.8-.1 8.5c-.1 2-1.9 3.6-4.2 3.8zm.8-12.6c0-2.7 0-5.4-.1-7.5 0-1.3-.7-1.5-1.7-1.6-.4 0-.8-.1-1.2-.1s-.8 0-1.2.1c-1 .1-1.6.5-1.6 1.6-.1 2.1-.1 4.6-.1 7.2 0 2.8 0 5.7.1 8 0 1.2.3 1.6 2.8 1.6 2 0 2.8-.2 2.8-1.7.2-2.2.2-4.9.2-7.6zM55.8 7c1.1 7.3 5.9 16.2 13.2 20.2.8.4 1.1 1.1 1.1 1.7 0 1.1-1.1 2.3-2.4 2.3-.4 0-.9-.1-1.3-.4-5.7-3.6-9.9-9.9-12.2-16.3-2.2 6.8-6.3 13.1-13.4 16.9-.4.2-.8.3-1.2.3-1.2 0-2.1-1-2.1-2 0-.7.4-1.3 1.2-1.8 8.9-4.6 12.7-13.2 13.5-21 0-1.4-.1-1.9-1.1-1.9H51l-5.2.3h-.1c-1.1 0-1.7-.9-1.7-1.8s.5-1.8 1.7-1.8c1.5 0 3.1-.1 4.7-.1h1.2c2.2 0 3.9 1.2 4 3.2 0 .7.1 1.3.2 2V7zM84.6 7.4c2.2 0 3.2 1.3 3.2 3.4 0 2.7-.6 6.6-2.2 10.5 3.5 1.9 3.7 3 3.7 3.6 0 1.1-.8 2-1.7 2-.4 0-.8-.1-1.2-.5-.8-.8-1.6-1.5-2.4-2.1-3.1 5.4-7.1 7.4-8.2 7.4-1.1 0-1.8-.9-1.8-1.7 0-.6.3-1.1.9-1.4 2.9-1.3 5-3.4 6.3-5.7-.8-.3-1.6-.5-2.6-.7-.3 1.1-1.2 1.5-1.9 1.5s-1.5-.5-1.5-1.5c0-.3 0-.5.1-.8 1.2-3.4 2-7.1 2.7-10.7-.8 0-1.5 0-2.2.1h-.1c-1 0-1.5-.8-1.5-1.5 0-.8.5-1.6 1.5-1.6h2.7c.3-2 .4-4 .6-5.9.1-1 .8-1.5 1.6-1.5.9 0 1.8.6 1.8 1.6s-.5 4.9-.7 5.7h2.9zm-3 3.1c-.5 2.9-1.2 5.9-1.9 8.8 1 .1 2.1.4 3.1.7 1.5-3.9 1.7-7.8 1.7-8.9 0-.5-.5-.7-.8-.7h-2.1zm19.3 7.2V19c0 1.8-.2 3.7-.5 5.9-.7 4.1-3.7 6.7-7.7 6.7-2.3 0-4.1-.5-4.1-2.3 0-.9.6-1.7 1.6-1.7.1 0 .4 0 .5.1.7.2 1.4.3 2 .3 2 0 3.7-1.1 4.2-3.8.4-1.7.5-3.4.5-5 0-.5 0-1.1-.1-1.6h-8.2c-1.1 0-1.6-.8-1.6-1.6s.5-1.6 1.6-1.6h7.6c-.6-1.8-1.5-3.1-2.8-3.9-.5-.3-.7-.7-.7-1.1 0-.8.8-1.6 1.9-1.6.1 0 .8 0 1.5.5 1-.9 2.7-2.8 2.7-3.1 0-.3-.4-.3-2.1-.3-1.8 0-4.4.1-6.8.2h-.1c-1 0-1.6-.8-1.6-1.5 0-.8.5-1.6 1.6-1.6H95c2.1 0 4 0 5.5.1 2 0 3 1.1 3 2.4 0 .7-.3 1.5-.9 2.3-.7.9-2.8 3-3.8 3.9.7 1 1.2 2.3 1.6 3.9h5c1.1 0 1.7.8 1.7 1.6s-.5 1.5-1.7 1.5h-4.5zM125.4 9.1c-.2 1.2-.5 2.3-.8 3.5 2.6 0 6.8-.1 8.5-.1 2 0 3.2 1.1 3.2 2.7 0 2.2-3 6.6-4.8 8.7 2.8 2.1 6.2 3.6 9.6 4.2 1.1.2 1.6.9 1.6 1.7 0 1-.8 2.1-2.3 2.1-1.3 0-6.2-1.2-11.3-5.6-5 4.6-10.2 5.9-11 5.9-1.2 0-2-.9-2-1.8 0-.7.4-1.3 1.5-1.6 3.7-.9 6.7-2.6 9.1-4.7-1.7-1.9-3.1-3.9-4-5.9-2.1 5.1-5 9.6-8.6 12.3-.5.4-.9.5-1.4.5-1 0-1.9-.8-1.9-1.7 0-.5.3-1 .9-1.5 5.8-4.2 8.9-11.5 10.1-18.6h-8.3c-1.2 0-1.8-.8-1.8-1.6 0-.9.6-1.8 1.8-1.8h8.8c.1-1.4.2-2.8.2-4.1 0-1.1.9-1.6 1.9-1.6 1 0 2.1.6 2.1 1.6 0 1.1-.3 3.4-.4 4.1h14.4c1.1 0 1.7.9 1.7 1.7 0 .8-.5 1.6-1.7 1.6h-15.1zm6.9 6.9c0-.3-.1-.5-.6-.5h-6.9c.9 2.2 2.3 4.3 4.2 6.1 1.9-2.4 3.3-5 3.3-5.6z"/>
</svg>
