<!-- Generator: Adobe Illustrator 25.0.0, SVG Export Plug-In  -->
<svg
  version="1.1"
  xmlns="http://www.w3.org/2000/svg"
  xmlns:xlink="http://www.w3.org/1999/xlink"
  x="0px"
  y="0px"
  width="287.5px"
  height="149.4px"
  viewBox="0 0 287.5 149.4"
  style="overflow: visible; enable-background: new 0 0 287.5 149.4"
  xml:space="preserve"
>
  <style type="text/css">
    .st0 {
      fill: #080502;
    }
  </style>
  <defs></defs>
  <g>
    <g>
      <path
        class="st0"
        d="M60.8,53.4c-0.2,0.2-0.6,0.4-1.1,0.7c-0.4,0.2-1.3,0.7-2.5,1.5c-1.3,0.8-2.2,1.3-2.7,1.5
			c-0.6,0.2-1,0.4-1.3,0.7c-0.3,0.2-0.5,0.5-0.7,1c-0.6,1.2-1.1,1.6-1.5,1.2c-0.1-0.1-0.1-0.2-0.2-0.3c-0.1-0.3-0.2-0.4-0.3-0.4
			c-0.1,0-0.3,0.1-0.7,0.2c-0.4,0.2-0.9,0.5-1.7,0.7c-0.8,0.3-1.9,0.6-3.2,1c-1.3,0.4-2.1,0.6-2.2,0.6c-0.7,0.2-1.2,0.3-1.3,0.2
			c-0.2,0-0.3-0.3-0.3-0.7c0-0.5,0.2-0.9,0.5-1.1c0.3-0.2,0.9-0.4,1.8-0.6c1.2-0.2,2.6-0.6,4.3-1.2c1.7-0.6,2.9-1.1,3.6-1.6
			c0,0,0.1-0.3,0.2-1c0.1-0.6,0.2-1.4,0.3-2.1c0.1-0.8,0.2-1.3,0.3-1.6c0.1-0.2,0.2-0.4,0.2-0.8c0-0.4,0.2-0.6,0.4-0.8
			c0.5-0.4,0.9-0.5,1.3-0.2c0.4,0.3,0.4,0.8,0,1.5c-0.1,0.3-0.3,1-0.5,2c-0.2,1-0.3,1.6-0.3,1.7c0.1,0.2,0.6,0,1.5-0.4
			c1.9-0.9,2.9-1.6,3.2-2.1c0.2-0.4,0.9-0.8,1.9-1c0.6-0.1,1-0.2,1.2-0.1c0.2,0.1,0.3,0.3,0.3,0.7C61,53,60.9,53.2,60.8,53.4z
			 M57.1,75.1c0.3,0.2,0.4,0.4,0.3,0.7c0,0.3-0.2,0.7-0.5,1.2c-0.3,0.5-0.8,1.2-1.3,1.9c-0.5,0.7-0.9,1.3-1.2,1.6
			c-0.4,0.6-1,1.5-1.9,2.7c-0.8,1.2-1.4,2-1.7,2.5c-0.3,0.4-0.8,1.1-1.5,1.9c-0.7,0.8-1.3,1.6-2.1,2.4c-0.7,0.8-1.6,1.6-2.6,2.6
			c-0.7,0.7-1.2,1.2-1.5,1.3c-0.3,0.1-0.6,0.1-0.9-0.1C42,93.6,42,93,42.5,92.1c0.3-0.5,0.5-0.8,0.6-0.9c0.2-0.1,0.4-0.2,0.7-0.2
			c0.1,0.1,0.4-0.1,1-0.7c0.6-0.6,1.2-1.3,1.8-2c0.6-0.7,0.9-1,0.9-1c0.5-0.6,1.3-1.6,2.3-3c1-1.4,1.6-2.1,1.7-2.3
			c0.8-1.1,1.2-1.7,1.2-2c0-0.2-0.5,0.1-1.6,0.8c-0.1,0.1-0.1,0.1-0.2,0.1c-1.2,0.9-2.5,1.6-3.9,2.3c-1.5,0.7-2.6,1-3.3,1.1
			c-0.4,0-0.6-0.1-0.8-0.2c-0.2-0.2-0.3-0.4-0.2-0.6c0.1-0.5,1-1.2,2.8-1.9c1.2-0.5,2-0.9,2.4-1.1c0.4-0.2,1-0.7,1.8-1.3
			c0.3-0.3,0.7-0.6,1.2-1c0.5-0.4,1-0.8,1.2-1.1c0.2-0.2,0.4-0.5,0.8-0.8c0.4-0.3,0.6-0.6,0.8-0.7c0.1-0.2,0.3-0.4,0.6-0.6
			c0.3-0.2,0.5-0.4,0.6-0.6l0.2-0.4c-0.2,0.1-0.8,0.5-1.7,1.1c-0.9,0.6-1.7,1.1-2.5,1.5c-0.8,0.4-1.3,0.7-1.4,0.6
			c-0.2,0.1-0.5,0.5-0.7,1.3c-0.3,0.8-0.6,1.2-1,1.2c-0.4,0-0.6-0.2-0.8-0.5c-0.1-0.3-0.1-0.6,0-1c0.7-4.4,1.1-7.5,1.2-9.5
			c0.1-2.8,0.4-4.2,1-4.2c0.2,0,0.3,0.1,0.4,0.2c0.1,0.1,0.2,0.4,0.4,0.7c0,0.1,0.1,0.1,0.1,0.2c0.2,0.3,0.3,0.5,0.3,0.5
			c0.1,0.1,0.1,0.1,0.2,0c0.1-0.1,0.2-0.3,0.4-0.6c0.2-0.6,0.9-1.3,2-2.1c1.1-0.8,2-1.3,2.7-1.4c0.8-0.1,1.5,0.4,1.9,1.4
			c0.4,1,0.6,2.2,0.6,3.5c0,1.3-0.1,2.5-0.2,3.6c-0.1,0.5-0.2,0.9-0.3,1.4c-0.1,0.4-0.2,0.8-0.3,1.1c-0.1,0.3-0.3,0.6-0.4,1.1
			c-0.2,0.4-0.3,0.8-0.4,1C56.7,74.8,56.8,74.9,57.1,75.1z M56.6,69c-0.1,0-0.1,0-0.2,0.2c-0.2,0.2-0.6,0.6-1.4,1.2
			c-0.8,0.6-1.2,0.9-1.2,1c-1.1,0.9-2.1,1.5-3.1,1.7c-0.5,0.1-0.8,0.2-0.9,0.4c-0.1,0.1-0.1,0.4-0.1,0.7c0,0.2,0.1,0.2,0.4,0
			c0.2-0.1,0.8-0.4,1.7-1.1c2.2-1.4,3.6-2.2,4.2-2.3c0.1,0,0.2,0,0.3,0c0.1-0.1,0.1-0.2,0.2-0.3c0-0.2,0.1-0.3,0.1-0.4
			c0-0.1,0.1-0.3,0.1-0.5c0-0.2,0-0.3,0-0.3C56.6,69.1,56.6,69,56.6,69z M51.5,70.4c0.4-0.3,0.6-0.5,0.8-0.6
			c0.4-0.2,0.7-0.4,0.8-0.6c0.1-0.2,0.6-0.5,1.4-1c0.8-0.5,1.3-0.8,1.5-0.8c0.3,0,0.5-0.1,0.7-0.3c0.2-0.2,0.2-0.4,0.2-0.7
			c0-0.2-0.3-0.1-0.7,0.2c-0.2,0.1-0.7,0.4-1.6,0.9c-0.9,0.5-1.4,0.8-1.7,1.1c-0.1,0.2-0.4,0.3-0.9,0.5c-0.5,0.2-0.9,0.4-1.3,0.6
			c-0.4,0.2-0.6,0.4-0.5,0.7c0,0.3,0,0.4,0.2,0.4C50.8,70.9,51.2,70.8,51.5,70.4z M54.1,64.4c-0.2,0.2-0.4,0.4-0.6,0.7
			c-0.2,0.3-0.4,0.5-0.5,0.6c-0.4,0.3-0.7,0.7-1,1.2c-0.1,0.1-0.1,0.2,0,0.1c0.1-0.1,0.7-0.5,1.7-1.2c1.1-0.8,1.7-1.2,1.9-1.3
			c0.4-0.2,0.6-0.3,0.7-0.4c0,0,0-0.2-0.1-0.4c-0.1-0.2-0.3-0.3-0.4-0.3c-0.2,0-0.4,0.1-0.9,0.3C54.6,64,54.3,64.2,54.1,64.4z
			 M58.4,83c0.5,0,0.9,0.3,1.4,0.7c0.2,0.2,0.4,0.4,0.6,0.4c1.4,0.7,3.6,2,6.5,4.1c2.9,2,4.9,3.3,5.7,3.8c0.4,0.1,0.6,0.3,0.6,0.6
			c0,0.3-0.1,0.7-0.4,1c-0.3,0.4-0.5,0.5-0.8,0.4c-0.3-0.1-0.9-0.5-1.9-1.2c-5-3.6-8.5-5.9-10.5-6.9c-0.6-0.3-1.1-0.6-1.6-1.1
			c-0.5-0.4-0.7-0.8-0.7-1C57.6,83.2,57.9,83,58.4,83z"
      />
      <path
        class="st0"
        d="M88.3,70.4c0.2,0,0.3,0,0.5,0c0.2,0,0.3,0.1,0.4,0.3c0.3,0.2,0.4,0.5,0.5,0.8c0.1,0.3,0.2,1,0.3,2
			c0.2,1.7,0.3,2.5,0.5,2.5c0.1,0,0.4-0.6,0.7-1.8c0.6-1.2,1.4-1.7,2.2-1.6c0.3-0.1,0.8,0.2,1.5,0.8c0.7,0.6,1,1,1.1,1.4
			c0.1,0.2,0.2,0.5,0.4,0.8c0.2,0.4,0.3,0.7,0.4,1c0.1,0.3,0.2,0.6,0.2,1c0.1,0.6,0.3,1,0.4,1c0.1,0,0.4-0.2,0.7-0.6
			c0.6-0.9,1.1-1.2,1.3-0.8c0.2,0.2,0.2,0.5,0,1c-0.1,0.1-0.3,0.5-0.7,1.2c-0.4,0.7-0.7,1.1-0.8,1.2c-0.4,0.5-0.7,1.3-0.7,2.4
			c0,0.5-0.1,1.3-0.3,2.2c-0.2,0.9-0.3,1.5-0.5,1.9c-0.2,0.4-0.5,0.6-0.8,0.7c-0.4,0.1-0.7,0.1-0.9-0.2c-0.2-0.3-0.2-0.5-0.2-0.6
			c0-0.1,0.1-0.3,0.3-0.6c0.2-0.3,0.3-0.4,0.3-0.6c0.1-0.3,0.1-0.6,0.1-1c0-0.4,0-0.6,0-0.6c0,0-0.4,0.3-1.2,1.1
			c-1.1,1.1-1.8,1.6-2.2,1.6c0,0-0.2-0.1-0.4-0.3c-0.2-0.2-0.4-0.3-0.5-0.3c-0.1,0-0.2,0.3-0.2,0.8c0,0.8-0.3,1.3-1.1,1.5
			c-0.3,0-0.5-0.2-0.6-0.5c-0.1-0.3-0.1-1.2-0.1-2.7c0-2.9-0.1-4.8-0.1-5.7c0-0.9-0.2-2.1-0.5-3.7c-0.2-1.2-0.4-2.1-0.5-2.5
			c-0.1-0.4-0.3-0.6-0.5-0.6c-0.2,0-0.5,0.3-1,0.8c-0.5,0.5-1,1-1.3,1.4c-0.6,0.9-1,1.5-1.2,1.8c-0.2,0.2-0.4,0.4-0.6,0.4
			c-0.4,0-0.6-0.3-0.6-0.8c0-0.2,0.2-0.6,0.5-1.2c0.3-0.6,0.7-1.1,1-1.5c0.2-0.2,0.6-0.9,1.1-2.1c0.6-1.2,1.1-2.4,1.6-3.6
			c0.5-1.2,0.9-1.8,1.1-1.8c0.1,0,0.2-0.1,0.3-0.3c0.2-0.1,0.3-0.2,0.4-0.3c0.1-0.1,0.2-0.1,0.4-0.2c0.2,0,0.4,0,0.6,0.2
			c0.2,0.1,0.2,0.4,0.1,0.8c0,0.3-0.2,0.8-0.6,1.4c-0.4,0.6-0.7,1.2-1.1,1.7c-0.4,0.5-0.5,0.8-0.5,0.9C88,70.4,88.1,70.4,88.3,70.4z
			 M95.5,80.2c0-0.4-0.1-0.6-0.3-0.6c-0.3,0.1-0.7,0.3-1.3,0.8c-0.6,0.5-0.9,0.7-1,0.8c-1.3,1.1-2,2-2,2.6c0,0.9,0.1,1.4,0.3,1.4
			c0.2,0,0.9-0.6,2.2-1.8c1.2-1.2,1.9-1.9,2-2.2S95.5,80.6,95.5,80.2z M92.5,75.3c-0.2,0.2-0.3,0.4-0.4,0.5
			c-0.1,0.2-0.2,0.3-0.3,0.5c-0.1,0.2-0.2,0.3-0.2,0.5c0,0.1-0.1,0.3-0.2,0.5c-0.1,0.2-0.1,0.4-0.1,0.5c0,0.1-0.1,0.3-0.1,0.6
			c0,0.3-0.1,0.4-0.1,0.5c0,0.1,0,0.3-0.1,0.6s-0.1,0.6-0.1,0.6c0.3,0,0.7-0.2,1.4-0.8c0.7-0.5,1.2-0.9,1.5-1
			c0.7-0.4,1.1-0.6,1.2-0.8c0.1-0.1,0.1-0.4,0-0.7c-0.3-0.9-0.6-1.6-0.9-1.9C93.4,74.6,92.9,74.7,92.5,75.3z M117.8,75.2
			c0.4,0.3,0.6,0.4,0.8,0.4c0-0.1,0.4,0.1,1.1,0.4c0.7,0.3,1.5,0.7,2.4,1.1c0.8,0.4,1.4,0.7,1.6,0.7c0.4,0.1,0.7,0.3,0.7,0.7
			c0.1,0.4,0,0.7-0.4,1.1c-0.5,0.6-1.1,0.6-1.8,0c-0.4-0.4-1.2-0.9-2.4-1.4c-1.2-0.6-1.9-0.8-2.1-0.7c0,0-0.1,0-0.1,0
			c0,0,0,0.1,0,0.2c0,0.1,0,0.2-0.1,0.3c0,0.1-0.1,0.2-0.1,0.5c0,0.2-0.1,0.4-0.1,0.6c0,0.2-0.1,0.5-0.2,0.9
			c-0.1,0.4-0.2,0.7-0.2,1.1c-0.8,3.2-1.7,5.1-2.5,5.7c-0.3,0.3-0.7,0.4-1,0.3c-0.9-0.1-1.6-0.7-2.3-1.8c-0.5-0.8-0.7-1.4-0.4-1.7
			c0.2-0.2,0.5-0.1,0.8,0.4c0.5,0.9,1,1.3,1.5,1.3c0.5,0,1-0.5,1.2-1.5c0.6-1.6,1.1-3.5,1.4-5.6c0.1-0.7,0.1-1.1,0-1.2
			c0-0.1-0.3-0.2-1-0.4c-0.7-0.2-1.5-0.5-2.6-0.8c-1-0.3-1.6-0.5-1.8-0.5c-0.2-0.1-0.3-0.2-0.4-0.5c-0.1-0.3-0.1-0.5,0-0.7
			c0.3-0.3,0.8-0.5,1.3-0.4c0.6,0,1.1,0.1,1.5,0.3c0.4,0.2,0.9,0.4,1.5,0.6c0.6,0.2,1,0.4,1.3,0.4c0.2,0,0.3,0,0.4,0
			c0,0,0.1-0.1,0.1-0.3c0.2-0.7,0.3-1.9,0.4-3.7c0.1-1.7,0.1-2.9-0.1-3.5c-0.1-0.2-0.2-0.3-0.5-0.3c-0.2,0-0.6,0.2-1.3,0.6
			c-0.1,0-0.3,0.1-0.7,0.3c-0.4,0.2-0.6,0.3-0.6,0.3c-0.1,0-0.3,0.1-0.6,0.2c-0.3,0.1-0.5,0.2-0.6,0.2c-0.1,0-0.2,0-0.5,0.1
			c-0.2,0-0.4,0.1-0.5,0c-0.1,0-0.2-0.1-0.4-0.1c-0.2,0-0.3-0.1-0.5-0.2c-0.1-0.1-0.2-0.2-0.4-0.3c-0.2-0.1-0.3-0.3-0.5-0.5
			c-0.4-0.4-0.6-1.2-0.7-2.2c-0.1-1.1,0-1.9,0.3-2.4c0.2-0.3,0.5-0.4,0.8-0.4c0.4,0,0.7,0.2,0.9,0.5c0.3,0.3,0.3,0.6,0,0.9
			c-0.1,0.3-0.2,0.6-0.1,1.1c0,0.4,0.1,0.9,0.3,1.3c0.2,0.4,0.4,0.6,0.5,0.5c0.6,0,1.4-0.4,2.5-1c1.1-0.6,2-0.9,2.6-0.9
			c0.4,0,0.7,0.2,0.9,0.4c0.2,0.2,0.3,0.7,0.5,1.4c0.1,0.4,0.2,0.9,0.2,1.5c0,0.6,0,1.2,0,1.6c0,0.5-0.1,1.1-0.2,1.9
			c-0.1,0.8-0.1,1.4-0.1,1.6L117.8,75.2z"
      />
      <path
        class="st0"
        d="M137.6,65c0.1-0.4,0.2-0.6,0.4-0.8c0.2-0.2,0.7-0.2,1.5-0.2c1.4-0.1,2.5-0.2,3.2-0.2c0.7,0,1.4-0.1,2.2-0.2
			c0.8-0.1,1.5-0.2,1.9-0.3c1-0.1,2.1-0.4,3.2-0.9c1.2-0.4,2.3-1,3.4-1.5c1.1-0.6,1.9-0.9,2.3-1c0.2-0.1,0.5-0.2,1.1-0.4
			c0.5-0.2,0.9-0.3,1.2-0.4c0.3-0.1,0.6,0,1.1,0c0.4,0.2,0.5,0.6,0.4,1.2c-0.1,0.6-0.3,1.1-0.8,1.5c-0.5,0.5-0.9,0.5-1.2,0
			c-0.2-0.2-0.3-0.2-0.4-0.3c-0.1,0-0.3,0-0.6,0.1c-0.4,0.1-1.5,0.5-3,1.3c-1.4,0.8-2.8,1.4-4,1.7c-1.2,0.3-2.9,0.6-5,0.8
			s-3.7,0.4-4.7,0.6c-0.2,0-0.5,0.1-0.8,0.1c-0.3,0-0.6,0.1-0.7,0.1c-0.1,0-0.3,0-0.5-0.1c-0.2-0.1-0.4-0.2-0.5-0.3
			C137.3,65.7,137.5,65.4,137.6,65z M141.6,85.1c-0.1-0.1-0.2-0.1-0.2-0.1c0,0-0.1-0.1-0.2-0.1c-0.1-0.1-0.1-0.2-0.1-0.2
			c0-0.1,0-0.2,0-0.3c0-0.2-0.1-0.3,0-0.5c0-0.2,0-0.4,0-0.7c0-0.9,0-1.7-0.2-2.5c-0.2-0.8-0.3-1.4-0.4-1.8c-0.1-0.4-0.4-1-0.7-1.8
			c0-0.4,0-0.7,0.2-1.2c0.2-0.4,0.4-0.7,0.7-0.7c0.4,0.2,0.7,0.5,1,0.9c0.3,0.4,0.5,0.9,0.6,1.3l0.9-0.9c0.5-0.7,1.2-1.1,1.9-1.2
			c0.7-0.2,1.4,0,2,0.6c0.4,0.4,0.6,1,0.7,1.7c0,0.7-0.1,1.4-0.4,2.1c-0.3,0.7-0.6,1.3-0.9,1.9c-0.3,0.5-0.6,1.1-1,1.5
			c-0.7,1.5-1.9,2.3-3.4,2.4C141.8,85.2,141.7,85.2,141.6,85.1z M144.1,77.6c-0.6,0.3-1,0.6-1.1,0.8c-0.1,0.2-0.1,0.9-0.1,1.9
			c0,1.2,0.1,1.8,0.2,1.9c0.1,0.1,0.2,0.2,0.2,0.1c0,0,0.2-0.1,0.4-0.3c0.5-0.5,1-1.3,1.4-2.3c0.4-1,0.6-1.8,0.6-2.5
			C145.5,77,145,77.1,144.1,77.6z M146.7,91.5c-0.2,0-0.3-0.1-0.5-0.3c-0.2-0.2-0.3-0.4-0.3-0.5c0.1-0.2,0.2-0.4,0.4-0.5
			c0.1-0.1,0.2-0.2,0.4-0.2c0.2,0,0.3,0,0.4,0c0.1,0,0.3,0.1,0.6,0.2c0.3,0.1,0.6,0.1,0.8,0.2c0.9,0.2,1.7,0.4,2.6,0.8
			c1.6,0.6,2.5,0.9,2.8,1c0.2,0.1,0.4,0,0.6,0c0.1-0.1,0.2-0.7,0.3-1.7c0.1-1,0.2-1.6,0.2-1.7c0.1-0.6,0.2-1.3,0.3-2.1
			c0.1-0.8,0.2-1.8,0.2-3c0-1.1,0.1-2.1,0.1-2.9c0-0.8,0-1.9,0-3.2c0-1.3,0-2.2,0.1-2.7c0-2,0-3.3-0.1-3.8c-0.3-0.7-0.2-1.3,0.2-1.9
			c0.4-0.6,1-0.6,1.6-0.3c0.3,0.3,0.4,1.4,0.4,3.1c0,0.7-0.1,2.3-0.1,4.7c-0.1,2.5-0.1,4.7-0.2,6.6s-0.1,2.9-0.2,2.8
			c-0.1,0.2-0.2,1.5-0.3,4c-0.1,2.5-0.3,3.9-0.7,4.3c-0.3,0.4-0.5,0.6-0.8,0.6c-0.3,0-0.8-0.2-1.5-0.5
			C152.7,93.9,150.3,92.9,146.7,91.5z"
      />
      <path
        class="st0"
        d="M182.6,76.9c-0.5,0.8-0.9,1.4-1.2,1.8c-0.3,0.4-0.6,0.9-1.1,1.4c-0.4,0.6-0.9,1.1-1.4,1.5
			c-0.5,0.4-1,0.8-1.5,1.2c-0.2,0.1-0.4,0.2-0.6,0.4c-0.2,0.1-0.4,0.3-0.5,0.3c-0.1,0.1-0.3,0.2-0.5,0.3c-0.2,0.1-0.3,0.2-0.4,0.2
			c-0.1,0-0.2,0-0.4,0c-0.1,0-0.2,0-0.3-0.1c-0.1-0.1-0.2-0.2-0.3-0.4c-0.2-0.4-0.2-0.7,0-0.9c0.2-0.3,0.5-0.5,0.8-0.7
			c0.4-0.2,0.6-0.4,0.7-0.5c0.2-0.3,0.3-1.2,0.3-2.6c0.1-1.5,0.1-4.6,0.2-9.3c0-2,0.1-3.1,0.2-3.2c0.1-0.2,0.2-0.3,0.3-0.3
			c0.1,0,0.3,0.1,0.5,0.2c0.2,0.1,0.3,0.2,0.4,0.3c0.1,0.1,0.2,0.2,0.3,0.3v3.8c0,3.9-0.1,6.9-0.2,9c0,0.1,0.1,0.1,0.2,0
			c0.1,0,0.2-0.1,0.3-0.2c0.1-0.1,0.3-0.2,0.4-0.3c1.6-1.8,2.8-3.2,3.7-4.2c0.4-0.5,0.7-0.7,1.2-0.7c0.4,0,0.4,0.3,0,0.9
			c0,0.1-0.1,0.1-0.1,0.2C183.5,75.5,183.1,76.1,182.6,76.9z M187.6,69c0.1-0.4,0.3-0.7,0.5-0.9c0.3-0.2,0.6-0.1,1,0
			c0.2,0.1,0.5,0.5,0.8,1c0.3,0.5,0.5,1,0.6,1.4c0.2,1,0.3,1.6,0.3,2c0,0.4-0.2,0.6-0.6,0.6c-0.3,0-0.6,0-0.7-0.2
			c-0.2-0.1-0.3-0.4-0.5-0.8c-0.4-1.1-0.8-1.8-1.2-2.2C187.5,69.7,187.5,69.4,187.6,69z M196.1,70.9c0.7-1.4,1.2-2.6,1.6-3.6
			c0.4-1.1,0.7-2.2,0.9-3.5c0.1-0.5,0.2-0.9,0.3-1.1c0.1-0.2,0.2-0.5,0.3-0.7c0.1-0.3,0.3-0.4,0.5-0.3c0.2,0,0.4,0.2,0.7,0.6
			c0.2,0.3,0.3,0.7,0.3,1.1c-0.2,1-0.5,2.4-1.1,4.3c-0.6,1.9-1.1,3.2-1.6,3.9c-0.4,0.7-0.7,1.3-0.8,1.7c-0.1,0.4-0.1,0.7,0,0.8
			c0.1,0.1,0.4,0.3,0.7,0.5c0.4,0.2,0.7,0.4,0.9,0.6c0.3,0.2,1.2,0.7,2.8,1.6c1.6,0.9,2.6,1.5,2.9,1.8c0.4,0.3,1.4,0.9,2.9,1.9
			c1.6,1,2.7,1.8,3.4,2.4c0.1,0,0.4,0.1,0.8,0.3c0.4,0.2,0.7,0.3,0.9,0.4c0.2,0.1,0.4,0.3,0.6,0.5c0.2,0.2,0.3,0.5,0.2,0.8
			c-0.3,0.4-0.5,0.7-0.8,0.8c-0.3,0.1-0.7,0.1-1.1-0.1c-0.4-0.2-0.7-0.3-1-0.5c-0.3-0.2-0.7-0.4-1.2-0.8c-0.2-0.1-0.3-0.2-0.3-0.2
			c-0.3-0.4-1.2-0.9-2.6-1.8c-1.5-0.8-2.4-1.4-2.8-1.7c-0.4-0.4-0.7-0.6-0.9-0.7c-0.2-0.1-0.5-0.3-0.7-0.4c-0.3-0.1-0.5-0.3-0.8-0.4
			c0-0.1-0.4-0.3-1.1-0.6c-0.7-0.3-1.5-0.7-2.3-1.1c-0.8-0.4-1.3-0.8-1.6-1c-0.1,0-0.5,0.4-1.1,1.2c-0.6,0.8-1.2,1.8-2,2.9
			c-0.7,1.1-1.3,1.8-1.6,2.2c-0.1,0.1-0.2,0.3-0.4,0.5c-0.2,0.2-0.3,0.4-0.5,0.5c-0.1,0.1-0.3,0.2-0.4,0.3c-0.2,0.1-0.4,0.1-0.6,0
			c-0.2-0.1-0.4-0.2-0.6-0.4l-0.3-0.3c0.3-0.5,0.8-1.2,1.6-2.1c0.8-0.9,1.4-1.7,1.9-2.6c0.1-0.3,0.6-1,1.3-2.1
			c0.8-1.2,1.2-1.9,1.3-2.4C195,73.3,195.4,72.3,196.1,70.9z"
      />
      <path
        class="st0"
        d="M47.2,119.1c0.6-0.5,0.9-0.8,1.1-1c0.1-0.3,0.4-0.5,1-0.6c0.6-0.1,0.9,0,1,0.4c0.2,0.1,0,0.4-0.5,1
			c-0.5,0.6-1.1,1.2-1.8,1.8c-0.6,0.6-1,0.9-1.2,0.9c-0.5,0.3-0.8,0.6-1,1c-0.1,0.4-0.1,1.1,0,2.2c0.1,0.3,0.1,0.6,0.1,1
			c0,0.4,0.1,0.6,0.1,0.6c0.1,0,0.2,0,0.5-0.1c0.4-0.3,0.8-0.5,1.5-0.8c0.6-0.3,1-0.4,1.1-0.4c0.4,0.2,0.3,0.5-0.2,1
			c-0.2,0.2-0.4,0.3-0.7,0.4c-0.4,0.2-0.8,0.6-1.3,1.1c-0.5,0.5-0.8,1-1,1.3c-0.2,0.3-0.3,1-0.3,2c-0.3,4.9-0.6,7.8-1.1,8.5
			c-0.1,0.2-0.2,0.3-0.4,0.4c-0.2,0.1-0.4,0.2-0.5,0.2c-0.4-0.2-0.9-0.5-1.4-1.1c-0.5-0.6-0.8-1.1-0.9-1.7c-0.2-0.4-0.3-0.7-0.3-0.9
			c-0.1-0.2-0.1-0.4-0.1-0.6c0-0.2,0-0.3,0.1-0.3c0-0.1,0.1-0.1,0.3-0.1c0.2,0,0.4,0.4,0.8,1.2c0.5,1.2,0.8,1.4,0.9,0.7
			c0.2-0.7,0.3-1.9,0.5-3.7c0.1-1.8,0.2-2.9,0.1-3.2c-0.1-0.1-0.4,0-0.9,0.4c-0.3,0.2-0.9,0.6-1.8,1.1c-1,0.5-1.5,0.8-1.5,0.8
			c-0.5,0.4-1,0.4-1.4,0.1c-0.4-0.3-0.5-0.7-0.3-1.2c0.2-0.2,0.6-0.5,1.3-0.9c0.7-0.4,1.5-0.8,2.4-1.2c0.9-0.4,1.4-0.7,1.7-0.9
			c0.3-0.2,0.5-0.3,0.6-0.6c0.1-0.2,0.2-0.6,0.2-1.2c0.1-0.5,0-1.1,0-1.9c-0.1-0.8-0.2-1.2-0.3-1.3c-0.4,0-0.9,0.1-1.8,0.3
			c-0.8,0.2-1.4,0.3-1.7,0.3c-0.4,0.1-0.8,0.1-0.9-0.1c-0.2-0.2-0.3-0.5-0.3-0.9c0-0.4,0.2-0.7,0.6-0.9c0.4-0.2,0.9-0.3,1.5-0.3
			c0.6,0,1.1-0.1,1.4-0.3c0.6-0.2,1-0.4,1.2-0.6c0.1-0.2,0.2-0.5,0.2-1.1c-0.1-0.7,0-1.5,0.3-2.2c0.3-0.8,0.6-1.3,0.9-1.5
			c0.2-0.1,0.4-0.1,0.8-0.1c0.3,0,0.5,0,0.5,0.1c0,0.1,0,0.2-0.1,0.6c0,0.3-0.1,0.6-0.1,0.9c0,0.3-0.1,0.6-0.1,0.9
			c0,0.3,0,0.6,0,0.8c0,0.2,0.1,0.3,0.2,0.3C46.2,119.8,46.6,119.5,47.2,119.1z M75.8,132.8c0,0.6,0.1,1,0.2,1.2
			c0.4,0.6,0.4,1.1,0.1,1.6c-0.2,0.4-1.1,0.8-2.7,1c-6.4,1.4-11.3,1.5-14.8,0.4c-0.6-0.1-1.3-0.5-2-1.1c-0.8-0.6-1.4-1.2-1.7-1.8
			c-0.2-0.2-0.3-0.7-0.3-1.5c0-0.8,0-1.6,0-2.4c0.1-0.8,0.1-1.4,0.2-1.8c0.2-1.3,0.4-3.1,0.6-5.3c0-0.2,0.1-0.4,0.1-0.6
			c0-0.2,0.1-0.4,0.1-0.5c0-0.1,0-0.2,0.1-0.3c0-0.1,0.1-0.2,0.2-0.2c0.1,0,0.3,0,0.5,0c0.3,0,0.6,0.1,0.7,0.4
			c0.2,0.1,0.3,1,0.1,2.8c-0.1,1.8-0.2,2.8-0.3,3c-0.1,0.9-0.2,1.5-0.2,1.6c0,0.1-0.1,0.4-0.1,0.9c-0.1,0.4-0.1,0.8-0.1,1
			c0,0.2,0,0.5,0,0.8c0,0.3,0,0.6,0.1,0.8c0.1,0.2,0.2,0.4,0.3,0.5c0.3,0.5,0.5,0.9,0.7,1c0.2,0.1,0.8,0.4,1.8,0.8
			c0.7,0.3,1.6,0.5,2.6,0.6c1,0.1,1.8,0.1,2.4,0c0.6,0,1.5-0.1,2.7-0.3c0.8,0,1.9-0.1,3.3-0.3c1.4-0.2,2.4-0.5,3.2-0.7
			c0.5-0.2,0.8-0.3,0.9-0.6c0.1-0.2,0.2-0.6,0.1-1.2c-0.1-0.9,0.1-1.3,0.4-1.2c0.1,0,0.3,0.1,0.5,0.3
			C75.7,131.8,75.8,132.2,75.8,132.8z M60,121.4c-0.1-0.5,0.3-0.7,1.2-0.6c0.6,0.1,1.1,0.3,1.4,0.6c0.4,0.4,0.5,0.8,0.5,1.4
			c0,0.5,0,0.8,0.2,0.8c0.1,0,0.3-0.2,0.6-0.6c0.3-0.5,0.7-0.8,1.2-0.8c0.3,0,0.6-0.4,0.7-1.3c0.2-1.2,0.1-2.1-0.3-2.8
			c-0.1-0.2-0.3-0.3-0.6-0.2c-1,0.2-2.6,0.9-4.8,2c-0.3,0.2-0.7,0.5-1.3,0.7c-0.6,0.3-1.1,0.4-1.4,0.4c-0.4,0-0.6-0.1-0.8-0.2
			c-0.1-0.1-0.2-0.4-0.2-0.7c-0.1-0.3,0-0.6,0.3-0.7c0.3-0.2,0.6-0.3,1-0.4c0.4-0.1,0.7-0.2,0.8-0.4c0.4-0.3,1-0.6,2-1
			c1-0.4,1.6-0.6,1.7-0.7c1.6-0.9,3-1.1,4.1-0.6c0.6,0.3,0.9,0.7,1.1,1c0.1,0.4,0.2,1,0.3,2.1l0,1.6l-0.5,0.9
			c-1.1,2.2-2.3,3.4-3.6,3.7c-0.3,0.1-0.6,0.3-1,0.7c-0.4,0.4-0.7,0.8-1,1.3c-0.3,0.4-0.7,0.8-1.1,1c-0.4,0.2-0.9,0.2-1.3,0
			c-0.2-0.1-0.3-0.3-0.3-0.5c0-0.2,0.1-0.5,0.3-0.8c0.2-0.3,0.4-0.7,0.6-1c0.2-0.3,0.4-0.6,0.6-0.9c0.2-0.3,0.3-0.5,0.3-0.6
			c0-0.1,0.1-0.3,0.2-0.5c0.1-0.2,0.2-0.4,0.2-0.6c0-0.1,0.1-0.3,0.1-0.5c0-0.2,0-0.3-0.1-0.4c-0.1-0.1-0.2-0.2-0.4-0.3
			C60.4,122.3,60.1,121.9,60,121.4z"
      />
      <path
        class="st0"
        d="M86.8,130c1.6-0.3,2.5-0.5,2.9-0.6c0.1-0.1,0.6-0.2,1.4-0.5c0.9-0.3,1.3-0.5,1.4-0.6c0-0.1,0.1-1.1,0.1-3
			c0.1-1.9,0.1-2.9,0.2-3c0.1-0.3,0.2-0.6,0.5-1c0.3-0.3,0.5-0.5,0.7-0.5c0.2,0,0.4,0.1,0.7,0.3c0.3,0.2,0.5,0.3,0.6,0.4
			c-0.1,0.2-0.2,0.5-0.4,0.7c-0.2,0.3-0.3,0.5-0.4,0.9c-0.1,0.3-0.1,0.7-0.1,1.2c-0.2,2-0.1,3,0.1,3.1c0.1,0,0.3-0.1,0.5-0.2
			c0.6-0.3,2.1-1.1,4.7-2.3c2.5-1.2,4.2-2,5-2.5c0-0.2-0.2-0.5-0.4-1.1c-0.2-0.6-0.4-1-0.5-1.4c-0.1-0.4-0.1-0.7,0-1
			c0.1-0.2,0.3-0.2,0.6-0.2c0.3,0,0.6,0,0.7,0.2c0.2,0.2,0.4,0.5,0.5,0.9c0.2,0.4,0.3,0.7,0.3,0.7c0.1,0.4,0.3,0.5,0.8,0.4
			c0.4-0.1,0.8,0,1,0.2c0.4,0.3,0.5,0.6,0.1,1.2c-0.4,0.5-0.4,1-0.1,1.3c0.1,0.4,0.5,1.2,1.2,2.3c0.7,1.1,1.1,1.8,1.1,2
			c0,0.1,0.1,0.4,0.4,1.1c0.5,1,0.9,1.5,1.2,1.4c0.2-0.2,0.4-0.9,0.6-2c0.3-1.1,0.5-1.8,0.7-2.2c0.1-0.2,0.3-0.5,0.4-1
			c0.1-0.4,0.3-0.8,0.5-1c0.2-0.2,0.5-0.3,0.8-0.2c0.2,0.1,0.5,0.2,0.7,0.5c0.3,0.2,0.4,0.4,0.4,0.6c-0.1,0.2-0.3,0.4-0.5,0.7
			c-0.2,0.3-0.4,0.6-0.6,0.9c-0.2,0.3-0.3,0.8-0.4,1.3c-0.8,2.3-1.2,3.6-1.2,3.8c-0.2,0.3-0.2,0.6-0.1,0.8c0.1,0.2,0.4,0.7,1.1,1.3
			c0.3,0.4,0.8,0.9,1.6,1.6c0.7,0.7,1.2,1.2,1.5,1.6c0.2,0.3,0.5,0.6,1,0.9c0.5,0.4,0.9,0.5,1.1,0.5c0.3,0,0.4-0.2,0.5-0.5
			c0.1-0.3,0-1,0-2c-0.2-1.6-0.1-2.4,0.3-2.4c0.4,0,0.6,0.6,0.8,1.7c0.4,2,0.5,3.3,0.3,3.9c-0.1,0.4-0.3,0.7-0.5,1
			c-0.2,0.3-0.4,0.4-0.6,0.4c-1.3-0.3-2.2-0.6-2.6-0.9c-0.4-0.3-1.4-1.1-2.7-2.5c-1.5-1.5-2.4-2.3-2.5-2.3c-0.2,0-0.5,0.5-1,1.3
			c-1.2,2.2-2.1,3.7-2.8,4.5c-0.5,0.6-1.1,0.6-1.7,0c-0.3-0.4-0.4-0.7-0.4-1.1c0-0.3,0.1-0.5,0.2-0.7c0.1-0.1,0.3-0.2,0.6-0.1
			c0.2,0.1,0.4,0,0.6-0.2c0.2-0.3,0.4-0.6,0.6-1c0.2-0.4,0.4-0.6,0.5-0.7c0.3-0.3,0.6-0.8,1-1.5c0.4-0.7,0.7-1.3,0.8-1.8
			c0.1-0.3,0.1-0.5,0.1-0.7s0-0.4-0.1-0.6s-0.1-0.3-0.3-0.6s-0.2-0.4-0.3-0.5c-0.2-0.3-0.4-0.8-0.8-1.6c-0.4-0.8-0.7-1.5-1-2.1
			c-0.3-0.6-0.5-1-0.6-1.1c-0.1-0.1-0.4-0.5-0.8-1.4c-0.6-1.1-0.9-1.6-1-1.6c-0.2-0.1-0.6,0-1.1,0.3c-0.5,0.3-0.8,0.4-1,0.4
			c-0.6,0.4-1.9,1-3.9,2c-2,1-3.4,1.7-4.1,2.2c-0.1,0.1-0.3,0.2-0.7,0.5c-0.4,0.2-0.6,0.5-0.7,0.7c0,0.2-0.1,0.8-0.2,1.8
			c-0.1,1.1-0.2,1.8-0.2,2.1c0,0.1,0,0.1,0.1,0.1s0.2,0,0.3,0c0.1,0,0.2-0.1,0.3-0.2c0.3-0.2,1-0.6,2.2-1.2c1.2-0.6,1.9-0.9,2-0.9
			c0.2,0,0.3,0.1,0.4,0.3c0.1,0.2,0.1,0.4,0,0.6c-0.1,0.2-0.4,0.4-0.8,0.6s-0.7,0.4-0.9,0.5c-0.1,0.1-0.5,0.4-1.3,0.8
			c-0.8,0.5-1.4,0.9-1.8,1.2c-0.4,0.3-0.7,0.5-0.7,0.7c-0.1,0-0.2,0.4-0.3,1.2c-0.1,0.8-0.2,1.9-0.4,3.1c-0.1,1.2-0.2,2.1-0.3,2.6
			c-0.1,0.4-0.3,1.5-0.4,3.3c-0.1,1.1-0.4,1.8-0.9,2.2c-0.4,0.3-0.8,0.2-1.2-0.2c-0.1-0.2-0.2-0.7-0.4-1.6c-0.2-0.9-0.2-1.6-0.2-2
			v-0.6h0.5c0.3,0,0.5-0.1,0.6-0.3c0.1-0.4,0.3-1.5,0.5-3.3c0.2-1.8,0.2-2.8,0.1-2.9c-0.3,0.1-0.7,0.2-1.3,0.4
			c-0.5,0.2-1.1,0.4-1.7,0.7c-0.6,0.3-1,0.4-1.2,0.5c-0.4,0.3-0.9,0.3-1.4,0c-0.5-0.3-0.7-0.7-0.5-1.1c0.1-0.2,0.4-0.5,1-0.8
			c0.6-0.3,1.2-0.5,1.7-0.5c0.3,0,1-0.3,1.9-0.7c1-0.4,1.5-0.7,1.7-0.9c0.3-0.7,0.5-2.1,0.7-4.3c0-0.3,0-0.4,0-0.3c0,0,0,0.1,0,0.1
			c-0.2-0.1-0.4-0.1-0.6-0.1c-0.3,0-0.5,0.1-0.6,0.1c-0.1,0-0.3,0.1-0.6,0.2c-0.3,0.1-0.5,0.2-0.6,0.3c-0.3,0.1-0.7,0.2-1.2,0.5
			c-0.5,0.2-1,0.4-1.5,0.5c-0.5,0.1-1,0.2-1.6,0.2c-1,0.1-1.6,0.1-1.7,0c-0.1-0.1-0.2-0.3-0.3-0.6c-0.1-0.3-0.1-0.6,0-0.7
			C84.2,130.6,85.2,130.3,86.8,130z M97.9,115.8c-0.5,0.1-1,0.2-1.3,0.3c-0.8,0.2-1.9,0.3-3.3,0.4l-2,0c-0.3-0.4-0.4-0.7-0.4-1.1
			c0-0.2,0-0.4,0.1-0.4c0,0,0.2-0.1,0.6-0.1c0,0,0.7,0,2.1-0.1c1.4-0.1,2.3-0.2,2.8-0.4c0.6-0.2,1.1-0.3,1.6-0.4
			c0.6-0.1,1.1,0.1,1.3,0.4c0.3,0.3,0.2,0.6-0.2,1C98.8,115.6,98.4,115.8,97.9,115.8z M120,116c-0.3,0.1-0.6-0.1-1.1-0.5
			c-0.5-0.5-1-0.9-1.6-1.4c-0.6-0.4-1.3-0.9-2-1.4c-0.8-0.5-1.3-0.9-1.7-1.2c-0.2-0.2-0.5-0.4-1-0.6c-0.4-0.2-0.7-0.3-0.8-0.4
			c-0.3-0.3-0.4-0.7-0.3-1.2c0-0.5,0.4-0.7,1-0.5c0.4,0.1,0.7,0.2,1,0.3c0.3,0.1,0.6,0.3,0.9,0.6s0.6,0.4,0.8,0.6
			c0.2,0.1,0.7,0.4,1.4,1c0.8,0.6,1.4,1,1.9,1.3c0.4,0.3,0.8,0.5,1,0.6c0.2,0.2,0.4,0.4,0.6,0.7c0.2,0.3,0.3,0.7,0.3,1.1
			C120.4,115.6,120.3,115.9,120,116z"
      />
      <path
        class="st0"
        d="M155,107.2c-0.2-0.3-0.4-0.6-0.4-0.6c0-0.4,0.3-0.6,0.8-0.7c0.7-0.1,1.1-0.1,1.3,0.1c0.2,0.2,0.4,0.7,0.6,1.3
			l0,0.6h0.7c0.2,0,0.3,0,0.4,0c0.1,0,0.2,0,0.3,0.1c0.1,0.1,0.2,0.1,0.2,0.1c0,0,0.1,0.1,0.2,0.2c0.1,0.1,0.2,0.2,0.2,0.2L159,109
			c-0.2,0.4-0.4,0.6-0.7,0.7c-0.4,0.1-0.7,0.2-1,0.5c-0.3,0.3-0.5,0.6-0.6,1c-0.1,0.4-0.2,0.8-0.2,1.2c0,0.4,0.1,0.7,0.2,0.8
			c0.3,0.3,0.8,0.1,1.8-0.6c0.9-0.7,1.5-0.9,1.7-0.7c0.2,0.1,0.4,0.2,0.5,0.5c0.1,0.2,0.1,0.5,0,0.7c0,0.1-0.2,0.3-0.4,0.5
			c-0.3,0.2-0.6,0.5-1.1,0.8c-0.5,0.3-0.8,0.5-0.8,0.6c-0.3,0.4-1,0.5-1.9,0.5c-0.9,0-1.5-0.2-1.8-0.6c-0.1-0.3-0.2-0.8-0.3-1.4
			s-0.1-1.2,0-1.6c0.2-0.4,0.2-0.7,0-0.7c-0.1,0-0.4,0.1-0.8,0.3c-0.2,0.1-0.4,0.2-0.9,0.3c-0.4,0.1-0.8,0.3-1.1,0.4
			c-0.3,0.1-0.5,0.3-0.6,0.4c-0.1,0.1-0.2,0.6-0.4,1.4c-0.2,0.8-0.3,1.3-0.4,1.4c-0.2,0.3-0.4,0.6-0.8,1.1c-0.4,0.5-0.6,0.7-0.7,0.7
			c-0.1,0-0.4,0.2-0.9,0.6c-0.8,0.6-1.4,0.8-1.8,0.7c-0.3-0.1-0.5-0.3-0.5-0.6c0-0.4,0-0.8,0.2-1.3c0.1-0.5,0.2-0.9,0.1-1.1
			c0-0.3,0-0.5,0-0.6c0-0.1-0.1-0.2-0.3-0.2c-0.1,0-0.3,0-0.4,0.1s-0.3,0.1-0.5,0.2c-0.2,0.1-0.3,0.1-0.5,0.1
			c-0.4,0.1-0.8,0.2-1.3,0.4c-0.5,0.2-0.8,0.3-0.9,0.4c-0.1,0.2-0.2,0.4-0.3,0.8c-0.1,0.4-0.2,0.9-0.2,1.4c-0.1,0.5-0.1,0.9-0.2,1.1
			c-0.4,1.1-0.6,2.1-0.5,2.8c0.1,0.4,0,0.7-0.2,0.8c-0.2,0.1-0.5,0.2-0.8,0c-0.3-0.1-0.5-0.3-0.6-0.6c-0.1-0.3-0.1-0.6,0-1.2
			c0.3-1.8,0.5-2.9,0.5-3.6c0-0.6-0.1-0.9-0.4-0.9c-0.2,0-1,0.2-2.4,0.7c-1.4,0.5-2.2,0.6-2.5,0.3c-0.2-0.2-0.3-0.3-0.3-0.5
			c0-0.1,0.2-0.4,0.5-0.6c0.5-0.5,1.4-0.9,2.6-1.3c1.5-0.5,2.4-0.8,2.6-1.1c0.1-0.1,0.2-0.6,0.3-1.4c0.2-2,0.4-3.1,0.8-3.2
			c0.5-0.1,0.9-0.1,1,0.2c0.1,0.3,0.2,0.9,0.2,1.8c0,0.1,0,0.2,0,0.3c0,0.2,0,0.4,0,0.6c0,0.2,0,0.4,0,0.5c0,0.1,0,0.2,0,0.3
			c0,0.1,0,0.2,0,0.2c0,0,0.1,0.1,0.1,0.1c0.1,0,0.2,0,0.3,0c0.1,0,0.3-0.1,0.5-0.1c1.2-0.4,2.1-0.8,2.5-0.9l0.5-0.2v-2.3l0.5-0.1
			c0.2-0.1,0.3-0.1,0.4-0.1s0.2,0,0.2,0.1c0.1,0,0.1,0.1,0.1,0.1c0,0,0,0.1,0.1,0.3s0.1,0.3,0.2,0.4c0.1,0.5,0.3,0.8,0.4,0.9
			c0.4-0.1,0.8-0.3,1.2-0.6c0.4-0.4,0.6-0.8,0.6-1.3c0.1-0.5,0.2-0.9,0.5-1.1c0.3-0.2,0.6-0.1,1,0.2c0.2,0,0.3,0.3,0.3,0.7
			c0,0.4,0.1,0.7,0.1,0.7c0.2,0,0.7-0.1,1.4-0.4c0.7-0.3,1.1-0.4,1.3-0.5c0.5-0.2,0.8-0.3,1-0.5c0.1-0.1,0.2-0.3,0.2-0.7
			C155.3,107.8,155.2,107.5,155,107.2z M158.7,123.5c-0.5,0.1-0.9,0.2-1,0.3c-0.2,0.1-0.6,0.1-1.2,0.2c-0.6,0.1-1,0.2-1.2,0.3
			c-4.2,1.1-7.4,2.3-9.6,3.7c-0.2,0.2-0.7,0.5-1.6,0.9c-0.9,0.4-1.4,0.7-1.5,0.8c-0.1,0.1-0.4,0.3-0.9,0.6c-0.5,0.3-0.9,0.6-1.3,0.9
			c-0.3,0.3-0.6,0.5-0.8,0.8c0,0-0.2,0.2-0.4,0.4c-0.2,0.2-0.4,0.5-0.6,0.6c-0.2,0.2-0.4,0.4-0.6,0.5c-0.2,0.1-0.4,0.2-0.6,0.1
			c-0.4,0-0.7-0.1-0.9-0.3c-0.5-0.5-0.1-1.2,1-2.3c0.6-0.5,1.2-1.3,2-2.5c0.8-1.1,1.3-1.9,1.6-2.3c0.1-0.2,0.3-0.3,0.6-0.3
			c0.3,0,0.6,0,0.9,0.2c0.3,0.1,0.4,0.3,0.4,0.4c0,0.2-0.1,0.3-0.3,0.5c-0.3,0.3-0.4,0.4-0.2,0.4c0.2,0,0.7-0.2,1.3-0.6
			c2.1-1.2,4.1-2.2,5.8-2.8c1.7-0.6,4.2-1.4,7.3-2.2c0.1,0,0.4-0.1,0.8-0.2c0.4-0.1,0.8-0.2,1.1-0.3c0.3-0.1,0.7-0.1,1.1-0.2
			c0.4,0,0.8-0.1,1.2,0c0.5,0,0.9,0.2,1.1,0.5c0.2,0.3,0.2,0.7-0.1,1.3c-0.1,0.4-0.4,0.7-0.8,1c-0.4,0.3-0.6,0.5-0.7,0.6
			c-0.3,0.3-0.7,0.7-1.4,1.2c-0.7,0.6-1.1,0.9-1.2,0.9c-0.4,0.4-0.7,0.5-1,0.5c-0.4-0.1-0.4-0.4,0.1-1.1c0.2-0.3,0.5-0.6,1-1.1
			c1-1,1.4-1.6,1.4-1.7C159.5,123.4,159.2,123.4,158.7,123.5z M151.7,137.4c-0.1,0.2-0.1,0.8-0.1,1.8c0,0.8,0,1.7-0.1,2.8
			c-0.1,1-0.1,2.2-0.1,3.4c0,1.4,0,2.3,0,2.7c0,0.3-0.1,0.6-0.2,0.8c-0.4,0.5-0.9,0.7-1.4,0.5c-0.3-0.1-0.6-0.2-0.9-0.5
			c-0.3-0.3-0.5-0.5-0.5-0.7c0-0.2,0.1-0.4,0.5-0.5c0.4-0.1,0.6-0.2,0.7-0.3c0-0.2,0.1-2,0.1-5.4c0-2.4,0-3.9,0-4.4
			c0-0.5-0.1-0.8-0.2-0.8c-0.1,0-0.6,0.4-1.6,1.3c-0.9,0.9-1.4,1.4-1.4,1.6c-0.1,0.4-0.4,0.6-0.8,0.8c-0.4,0.2-0.8,0.1-1.2-0.3
			c-0.2-0.1-0.3-0.4-0.4-1c0-0.6,0-1.2,0-1.8c0-0.6,0-1.1,0-1.5c-0.1-0.7,0-1.1,0.3-1.3c0.3-0.2,0.7-0.3,1.2-0.1
			c0.2,0.1,0.3,0.3,0.4,0.4c0,0.1,0.1,0.4,0.1,0.9c0,0.6,0.1,1,0.2,1c0.1,0.1,0.4-0.1,0.9-0.5c0,0,0.3-0.2,0.7-0.6
			c0.4-0.4,0.8-0.7,1.1-1c0.3-0.3,0.4-0.5,0.6-0.7c0.1-0.1,0.1-0.7,0.2-1.8c0.1-1.1,0.2-1.6,0.4-1.7c0.3-0.3,0.7-0.3,1.2-0.1
			c0.5,0.2,0.7,0.6,0.7,1c0,0.3,0.1,0.5,0.2,0.6c0.1,0,0.3,0,0.8-0.2c0.4-0.2,0.8-0.4,1.1-0.6c1.1-0.8,1.9-0.9,2.5-0.3
			c0.3,0.4,0.4,0.7,0.5,1.1c0.1,0.4,0,0.7-0.1,1.2c-0.1,0.4-0.3,0.7-0.4,1c-0.1,0.2-0.4,0.6-0.7,1c-0.3,0.4-0.5,0.7-0.5,0.8
			c-0.9,1.1-1.7,1.6-2.5,1.5C152.1,137.2,151.8,137.2,151.7,137.4z M148.4,113.6c-0.3,0-0.4,0.1-0.6,0.2c-0.1,0.2-0.2,0.4-0.2,0.9
			c-0.1,0.6-0.1,0.8,0.1,0.8c0.2,0,0.5-0.5,0.9-1.3c0.1-0.2,0.1-0.3,0.1-0.4C148.7,113.6,148.6,113.6,148.4,113.6z M153.8,132.9
			c-0.9,0.6-1.5,1-1.8,1.4s-0.4,0.7-0.2,1c0.1,0.3,0.4,0.4,0.8,0.3c0.4-0.1,0.8-0.4,1.2-0.9c0.2-0.3,0.5-0.7,0.7-1.1
			c0.2-0.4,0.4-0.8,0.4-0.9C154.8,132.4,154.4,132.5,153.8,132.9z"
      />
      <path
        class="st0"
        d="M194.7,140.1c-3.3,0.6-5.6,1-7,1.4c-0.1,0-1.8,0.3-5,0.8c-0.3,0.1-0.6,0.1-0.7-0.2c-0.2-0.3-0.2-0.6-0.2-0.9
			c0-0.4,0.1-0.6,0.3-0.8c0.2-0.2,0.4-0.3,0.6-0.3c0.2-0.1,0.9-0.2,1.9-0.3c1.1-0.2,2.8-0.5,5.2-0.9c2.4-0.4,4.5-0.8,6.2-1.1
			c1.8-0.3,3.6-0.5,5.4-0.7c2-0.1,3-0.3,3-0.4c0-0.1,0.1-1.3,0.3-3.6c0.2-2.3,0.3-3.7,0.5-4.1c0.1,0,0.1-0.4,0.2-1.2
			c0-0.9,0.1-1.8,0.1-2.7c0-0.9,0.1-1.4,0.1-1.5c0.1-0.1,0.2-0.9,0.2-2.3c0-1.4,0-2.4-0.1-2.9c-0.1-0.8-0.2-1.3-0.4-1.7
			c-0.2-0.4-0.5-0.8-0.9-1.3c-0.5-0.5-0.9-0.8-1.3-0.8c-0.3,0-0.5,0-0.8,0c-0.3,0-0.7,0.1-1.3,0.2c-0.6,0.1-1.2,0.2-1.6,0.3
			c-0.4,0.1-0.9,0.2-1.5,0.3c-0.6,0.1-1,0.2-1.1,0.2c-0.9,0.3-1.7,0.5-2.4,0.8c-0.7,0.3-1.4,0.6-2.1,0.9c-0.8,0.4-1.5,0.7-2.3,1
			c-1.2,0.4-2.3,1-3.3,1.7c-0.4,0.3-1,0.8-1.7,1.5c-0.8,0.8-1.2,1.3-1.4,1.5c0,0.1,0,0.1-0.1,0.2c0,0-0.1,0.1-0.2,0.1
			c-0.1,0-0.2,0-0.2,0c-0.1,0-0.2,0-0.3,0c-0.1,0-0.2,0-0.2,0l-0.2,2.6c0,0.9-0.1,1.8-0.2,2.9c-0.1,1-0.1,2-0.2,2.8
			c0,0.8-0.1,1.8-0.1,3c0,1.5,0,2.4-0.1,2.8c-0.1,0.4-0.2,0.6-0.5,0.8c-0.4,0.2-0.8,0.2-1.2,0c-0.2-0.2-0.3-1.1-0.4-2.8
			c0-1.6,0-2.7,0.1-3.2c0-0.4,0.1-1.3,0.2-2.8c0.1-1.5,0.2-2.5,0.2-3.1c0-0.5,0-1.4,0-2.6c0-1.2-0.1-2.3-0.2-3.4l-0.1-1.4l0.4-0.8
			c0.1-0.2,0.2-0.5,0.4-0.9c0.2-0.4,0.4-0.7,0.6-0.8c0.4-0.1,0.7,0,0.8,0.3c0.1,0.3,0.2,1.1,0.2,2.4c0,2.2,0,3.3,0.1,3.3
			c0.1,0,0.1-0.1,0.1-0.3c0-0.6,0.4-1.3,1.2-2.1c0.5-0.5,1.3-1.1,2.4-1.7c1.1-0.6,2-1.1,2.9-1.5c0.9-0.4,2.1-0.9,3.6-1.5
			c0.7-0.3,1.4-0.6,2.2-0.8c0.8-0.2,1.4-0.4,1.9-0.5c0.4-0.1,1.2-0.3,2.3-0.5c1.1-0.2,1.8-0.4,2.2-0.5c1.9-0.2,3.4,0.2,4.6,1.2
			c0.8,0.6,1.3,1.4,1.6,2.2c0.2,0.8,0.3,2.2,0.3,4.1c0,1.4-0.1,2.4-0.2,3c-0.1,0.6-0.2,1.3-0.2,2c0,0.8-0.1,1.8-0.2,3.1
			c-0.1,1.3-0.2,2.1-0.3,2.5c-0.1,0.3-0.2,1.2-0.2,2.7c0,1.5,0,2.6,0.1,3.2c0.1,0.5,0,1.1-0.2,1.8c-0.2,0.7-0.3,1.2-0.3,1.6
			c-0.1,1-0.4,1.7-0.8,2.1c-0.3,0.3-0.6,0.4-0.8,0.4c-0.2,0-0.6-0.2-1.1-0.6c-1-0.7-1.7-1.4-1.9-2.2c-0.1-0.4-0.3-0.6-0.5-0.7
			c-0.3-0.1-0.8,0-1.6,0.1C199.7,139.2,198,139.5,194.7,140.1z M191.5,124.6c0.1-0.1,0.5-0.1,1.1,0.2c0.4,0.2,0.7,0.2,0.9,0.2
			c0.2,0,0.4-0.1,0.7-0.2c0.3-0.1,0.7-0.2,1-0.2c0.9,0,1.6,0.1,2.1,0.4c0.5,0.3,0.7,0.8,0.7,1.5c0,0.5-0.1,0.9-0.3,1.3
			c-0.2,0.4-0.6,0.9-1.2,1.7c-1.2,1.4-2,2.4-2.5,2.9c-0.5,0.5-0.9,0.7-1.2,0.6c-0.4,0-0.6,0-0.7-0.2c-0.1-0.2-0.2-0.4-0.2-0.8
			c0-0.4,0-0.6-0.1-0.8c-0.1-0.1-0.2-0.5-0.2-1.3s-0.1-1.7-0.1-2.6c0-0.9-0.1-1.4-0.1-1.6C191.3,125.1,191.3,124.7,191.5,124.6z
			 M194.9,126.6c-0.4,0-0.8,0.1-1,0.3c-0.2,0.2-0.3,0.3-0.3,0.4c0,0.1,0,0.4,0,0.9c0,0.2,0,0.4,0,0.6c0,0.2,0,0.3,0,0.4
			c0,0.1,0,0.2,0,0.2c0,0,0.1,0.1,0.1,0.1c0.1,0,0.1,0,0.2,0c0,0,0.1-0.1,0.2-0.2c0.1-0.1,0.2-0.2,0.2-0.2c0.1-0.1,0.2-0.2,0.3-0.3
			c0.1-0.1,0.3-0.2,0.4-0.3c0.7-0.8,0.9-1.3,0.7-1.6C195.6,126.6,195.3,126.6,194.9,126.6z M202.9,139.1c-0.1,0.1,0,0.3,0.2,0.6
			c0.2,0.3,0.4,0.5,0.6,0.6c0.2,0.1,0.4,0.1,0.5-0.1c0.1-0.2,0.1-0.4,0.1-0.6c0-0.3-0.1-0.4-0.2-0.5
			C203.5,138.9,203.1,138.9,202.9,139.1z"
      />
      <path
        class="st0"
        d="M241,113.8c-0.4,0.1-1.7,0.7-3.9,2c-0.4,0.2-0.7,0.4-0.8,0.4c-0.8,0.4-2,1.1-3.7,2.2
			c-1.7,1.1-3.2,1.9-4.3,2.4c-0.3,0.1-0.6,0.3-1,0.5c-0.4,0.2-0.7,0.4-1,0.5c-0.3,0.1-0.8,0.2-1.4,0.2c-0.3,0-0.5,0-0.6,0
			c-0.1,0-0.2-0.1-0.4-0.3c-0.3-0.2-0.4-0.5-0.4-0.7c0-0.2,0.1-0.7,0.3-1.4c0.4-1.3,0.7-2.5,1.1-3.5c0.2-0.8,0.5-1.3,0.8-1.7
			c0.2-0.2,0.4-0.4,0.5-0.4c0.1,0,0.3-0.1,0.6-0.1c0.6,0,1,0.2,1.1,0.5c0.1,0.4,0,0.8-0.5,1.2c-0.3,0.2-0.5,0.5-0.6,0.8
			c-0.1,0.3-0.3,0.7-0.4,1.1c-0.1,0.4-0.2,0.8-0.3,1.1c-0.2,0.6-0.3,0.9-0.2,1.1c0.1,0.1,0.4,0.1,0.8-0.1c0.9-0.4,1.7-0.8,2.4-1.1
			c0.7-0.3,1.1-0.6,1.4-0.7c0.3-0.1,0.8-0.5,1.7-1c0.8-0.5,1.5-0.9,2-1.2c3-1.7,4.7-2.7,4.9-2.9c0.3-0.3,0.7-0.5,1.1-0.7
			c0.4-0.2,0.9-0.3,1.4-0.5c0.5-0.1,1,0,1.4,0.2c0.5,0.3,0.7,0.8,0.6,1.4c0,0.3-0.2,0.7-0.5,1c-0.3,0.4-0.9,1-1.8,1.9l-1.2,1.2
			c-0.6,0.6-1,0.7-1.2,0.2c-0.1-0.1-0.1-0.3,0.1-0.6c0.2-0.3,0.5-0.6,0.8-0.8c0.3-0.3,0.5-0.5,0.6-0.6c0.1-0.2,0.3-0.5,0.6-0.9
			C241.4,114,241.4,113.7,241,113.8z M237.5,133c0,0.4,0.1,0.7,0.2,0.9c0.1,0.5,0.2,1,0.2,1.5c0,0.5,0,1-0.1,1.4
			c-0.1,0.4-0.2,0.9-0.3,1.4c-0.1,0.5-0.3,0.9-0.4,1.3c-0.1,0.4-0.3,0.8-0.5,1.3c-0.2,0.5-0.3,0.9-0.4,1.2c0,0.2-0.2,0.6-0.7,1.2
			c-0.4,0.5-0.7,0.9-0.7,1c-0.1,0.2-0.4,0.4-0.8,0.6c-0.4,0.2-0.7,0.3-0.8,0.4c-1.2,0.7-2.3,0.7-3.3-0.2c-0.2-0.3-0.5-0.3-0.7-0.2
			c-0.2,0.1-0.4,0.3-0.6,0.5c-0.1,0.2-0.3,0.4-0.5,0.7c-0.2,0.3-0.4,0.5-0.5,0.6c-0.1,0-0.2,0.1-0.4,0.3c-0.2,0.2-0.4,0.3-0.6,0.4
			c-0.2,0.1-0.4,0.2-0.6,0.4c-0.2,0.1-0.4,0.2-0.6,0.1c-0.2,0-0.4-0.1-0.5-0.3c-0.3-0.2-0.3-0.8,0-1.7c0.1-0.2,0.2-0.3,0.3-0.3
			c0.1,0,0.2,0,0.5,0c0.3,0,0.4,0,0.6-0.1c0.1-0.1,0.3-0.3,0.7-0.7c2.7-3.3,4.4-6.1,5.1-8.4c0.4-1.2,1-2.3,1.8-3.3
			c0.4-0.5,0.5-0.8,0.5-0.9c-0.1-0.2-0.3-0.3-0.7-0.4c-0.4-0.1-0.6-0.1-0.9-0.1c-0.2,0-0.5,0.2-0.8,0.5c-0.3,0.3-0.5,0.6-0.6,0.9
			c-0.1,0.4-0.6,1.3-1.4,2.8c-0.3,0.4-0.6,0.9-1.1,1.4c-0.5,0.5-0.8,0.8-1.1,0.8c-0.5,0.1-0.7-0.1-0.8-0.4c0-0.4,0.1-0.7,0.5-1
			c1.2-1.7,1.9-3,2.2-4.1c0-0.2,0-0.4-0.1-0.4c-0.1,0-0.4,0-0.9,0.1c-0.4,0.1-0.8,0-1-0.2c-0.3-0.3-0.4-0.6-0.5-0.9
			c0-0.2,0.1-0.4,0.4-0.7c0.3-0.3,0.6-0.5,0.8-0.6c0.4-0.2,1.1-0.8,2-1.8c0.9-1,1.6-1.8,2.1-2.5c0.3-0.4,0.4-0.6,0.4-0.6
			c-0.1-0.1-0.4,0-0.8,0.1c-0.7,0.3-1.2,0.3-1.6,0.1c-0.2,0-0.3-0.2-0.3-0.4c0-0.2,0-0.4,0-0.6c0.1-0.2,0.1-0.4,0.2-0.5
			c0.2-0.1,0.5-0.2,0.9-0.4c0.4-0.2,0.9-0.3,1.4-0.5c0.5-0.2,0.9-0.3,1-0.3c0.7-0.4,1.4-0.4,2-0.2c0.6,0.2,0.9,0.6,0.8,1.3
			c-0.1,0.4-1.1,1.6-3,3.7c-0.4,0.5-0.7,0.8-0.7,1c0,0.2,0.1,0.4,0.3,0.6c0.2,0.1,0.3,0.4,0.5,0.7c0.2,0.4,0.4,0.6,0.7,0.7
			c0.5,0.2,0.9,0.4,1.4,0.7c0.4,0.3,0.7,0.6,0.8,0.8c0.1,0.3,0.3,0.6,0.5,0.9C237.4,132.4,237.5,132.7,237.5,133z M231.1,141.6
			c-0.1,0.2-0.2,0.4-0.3,0.6c-0.5,0.5-0.7,1-0.5,1.3c0.1,0.3,0.4,0.4,0.9,0.4c0.4,0,0.9-0.1,1.2-0.3c0.2-0.1,0.5-0.3,0.9-0.7
			c0.4-0.4,0.7-0.7,0.9-1c0-0.1,0.1-0.3,0.3-0.7c0.2-0.4,0.3-0.7,0.4-0.9c0.1-0.2,0.2-0.6,0.4-1c0.2-0.4,0.3-0.8,0.4-1.2
			c0.1-0.4,0.2-0.8,0.2-1.2c0.1-0.4,0.1-0.8,0.1-1.2c0-0.4-0.1-0.8-0.2-1.1c-0.2-0.6-0.5-0.5-0.8,0.3c-0.2,0.3-0.4,0.7-0.7,1.2
			c-0.3,0.5-0.6,1-0.8,1.4c-0.1,0.3-0.4,0.8-0.7,1.4c-0.3,0.6-0.6,1.1-0.6,1.3c-0.1,0.3-0.3,0.5-0.6,0.8
			C231.4,141.2,231.2,141.4,231.1,141.6z M232.3,108.2c0.1-0.3,0.2-0.4,0.3-0.6c0.1-0.1,0.3-0.1,0.6,0c0.2,0.1,0.4,0.2,0.4,0.4
			c0,0.2,0.1,0.5,0.1,1.1c0,0.4,0,0.7,0,1.1c0,0.4,0,0.7,0,0.9c0,0.2,0,0.4-0.1,0.7c-0.1,0.3-0.2,0.5-0.5,0.8
			c-0.4,0.6-0.7,1-0.9,1.2c-0.2,0.2-0.5,0.2-0.8,0.2c-0.6-0.1-0.7-0.4-0.2-1c0.5-0.6,0.8-1.6,0.7-2.8c-0.1-0.5-0.1-0.9,0-1
			c0-0.1,0.1-0.3,0.3-0.5C232.2,108.6,232.2,108.4,232.3,108.2z M245.5,125.5c1,0.4,0.7,1.4-1,3c-0.3,0.3-0.5,0.6-0.7,1
			c-0.2,0.4-0.5,0.8-0.7,1.1c-0.4,0.4-0.6,0.8-0.7,1.2c-0.1,0.5-0.1,0.8,0.2,0.8c0.2,0.1,1,0.1,2.3,0.1c6.3-0.4,10.4-0.5,12.2-0.2
			c0.5,0.1,0.8,0.1,1.1-0.1c0.3-0.4,0.7-0.4,1.2,0c0.5,0.4,0.7,0.8,0.6,1.2c-0.1,0.6-0.3,1-0.6,1.1c-0.3,0.1-0.8,0.1-1.4-0.2
			c-0.4-0.1-1.5-0.2-3.3-0.4c-1.7-0.1-2.8-0.1-3.2,0c-0.4,0-1.3,0.1-2.5,0.2c-1.3,0.1-2.3,0.2-3.1,0.2c-0.8,0-1.7,0-2.7,0
			c-1-0.1-1.8-0.2-2.3-0.4c-0.5-0.3-0.8-0.6-1-1.1c-0.2-0.5-0.1-0.9,0.2-1.3c0.4-0.6,0.7-1.1,0.9-1.4c0.2-0.3,0.4-0.5,0.6-0.7
			c0.2-0.2,0.4-0.4,0.6-0.7c0.1-0.2,0.4-0.7,1.1-1.5c0.6-0.8,0.9-1.3,1-1.4C244.4,125.5,244.8,125.3,245.5,125.5z"
      />
      <path
        class="st0"
        d="M285.7,138.7c-0.2,0.3-0.5,0.4-0.7,0.3c-0.1,0.1-0.4,0-0.8-0.3c-0.4-0.3-0.8-0.6-1.1-1
			c-0.3-0.4-0.4-0.7-0.2-0.8c0.1-0.5,0.4-0.8,0.8-1c0.4-0.1,0.9,0,1.4,0.4c0.3,0.2,0.5,0.5,0.8,0.9c0.2,0.4,0.3,0.6,0.3,0.9
			C286,138.2,285.9,138.5,285.7,138.7z M283.6,128.7c-0.2-0.4-0.3-0.8-0.3-1.3c0-0.5,0-1.1,0.1-1.6c0.1-0.5,0.1-1,0.2-1.5
			c0.4-2.9,0.7-4.9,0.9-6c0.2-1.1,0.5-1.7,0.8-1.9c0.6-0.4,1.1-0.3,1.6,0.3c0.4,0.6,0.6,1.2,0.5,2c-0.1,0.5-0.2,1-0.2,1.7
			c0,0.6-0.1,1.2-0.2,1.8c-0.1,0.5-0.3,1.1-0.5,1.8c-0.5,1.5-0.8,2.6-0.9,3.4c-0.2,1.3-0.5,2-1.2,2
			C284.1,129.2,283.8,129.1,283.6,128.7z"
      />
    </g>
    <path
      class="st0"
      d="M46.9,14.4c-0.1,0-0.1,0-0.2-0.1L19.3,0.9C19,0.8,18.9,0.5,19,0.3c0.1-0.2,0.4-0.4,0.7-0.2l27.4,13.4
		c0.2,0.1,0.4,0.4,0.2,0.7C47.2,14.3,47,14.4,46.9,14.4z"
    />
    <path
      class="st0"
      d="M0.5,46.7C0.5,46.7,0.5,46.7,0.5,46.7c-0.3,0-0.5-0.2-0.5-0.5l1.2-29.3c0-0.3,0.2-0.5,0.5-0.5
		c0.3,0,0.5,0.2,0.5,0.5L1,46.2C1,46.5,0.8,46.7,0.5,46.7z"
    />
  </g>
</svg>
