<svg xmlns="http://www.w3.org/2000/svg" width="234.9" height="42.9" style="overflow:visible;enable-background:new 0 0 234.9 42.9" xml:space="preserve">
    <path d="M7.4 18.7c-2.7 3.6-3.9 4.5-5.2 4.5-1.3 0-2.3-1-2.3-2.1 0-.5.2-1.1.7-1.6C5.1 14.9 9 8.8 11.1 2.1 11.4.9 12.4.5 13.3.5c1.3 0 2.7.9 2.7 2.4s-2.9 6.9-3.8 8.4l-.6 29.4c0 1.4-1.3 2.2-2.5 2.2s-2.4-.7-2.4-2.1v-.1l.7-22zm23 10.2.1 11.7c0 1.4-1.2 2-2.4 2s-2.4-.7-2.4-2l.1-11.7H15.7c-1.4 0-2.2-1.1-2.2-2.1 0-1.1.8-2.1 2.2-2.1h10.1v-4.8h-8.2c-1.5 0-2.2-1-2.2-2.1 0-1 .7-2.1 2.2-2.1h8.2l-.1-13.2c0-1.4 1.2-2.1 2.4-2.1s2.5.7 2.5 2.1L30.5 16h8.9c1.5 0 2.3 1.1 2.3 2.1 0 1.1-.8 2.1-2.3 2.1h-8.9V25h11.1c1.5 0 2.3 1.1 2.3 2.1 0 1.1-.8 2.1-2.3 2.1l-11.2-.3zM19.9 12.5c-1-2-2.4-3.6-3.4-4.3-.6-.4-.8-.9-.8-1.4 0-1.1 1.1-2.1 2.4-2.1 2 0 6.2 4.6 6.2 6.6 0 1.4-1.3 2.6-2.5 2.6-.8-.1-1.5-.5-1.9-1.4zm14.2 1.3c-1.1 0-2.1-.8-2.1-1.9 0-.5.2-1 .6-1.4 1.5-1.7 2.9-3.7 3.8-5.4.4-.8 1.1-1.1 1.8-1.1 1.3 0 2.7 1.1 2.7 2.4 0 .4-.1.8-.4 1.2-4 5.8-5.4 6.2-6.4 6.2zM55.6 17.3c-2.8 3.2-4 4-5.1 4-1.3 0-2.3-1-2.3-2.1 0-.6.3-1.2.9-1.7 4.7-4.2 8.2-8.9 10.7-15.5C60.2.9 61.1.5 61.9.5c1.3 0 2.7 1 2.7 2.4s-2.7 5.8-4.3 8.2L59.7 40c0 1.4-1.3 2.2-2.5 2.2s-2.3-.7-2.3-2.1V40l.7-22.7zm22.1 5.9c2.5 0 4.9 0 6.9.1 2.9.1 5.4 1.8 5.5 4.4.1 2.1.2 4.3.2 6.3 0 2.8 0 6.4-5.6 6.8-1.8.1-4.1.2-6.5.2-12.1 0-13.7 0-13.7-7.5 0-2 .1-3.8.1-5.6.1-4.7 4.8-4.7 8.4-4.7.3-1 .6-2.5.9-4-6.3-.3-8.2-.3-8.2-7.5 0-1.5 0-3 .1-4.4.2-2.8 2-4.5 5-4.7 1.6 0 3.6-.1 5.7-.1 2.5 0 5 0 6.7.1 2.7.1 5 1.8 5.2 4.4.1 1.7.2 3.4.2 5.1 0 2.9 0 6.5-5.4 6.9-1.2.1-2.8.1-4.4.1-.2 1.5-.8 3.2-1.1 4.1zm5.7 3.9c-1.7 0-4-.1-6.2-.1s-4.4 0-5.9.1c-2.1 0-2.3.9-2.3 6.1 0 4 0 4 8.5 4 8.1 0 8.1 0 8.1-3.9 0-5.1 0-6.1-2.2-6.2zM82 6.6c-1.2 0-3.1-.1-4.9-.1-1.9 0-3.7 0-4.8.1-2 0-2.1 1.2-2.1 5.2 0 3.5 0 3.6 7 3.6 6.7 0 6.9 0 6.9-3.5-.1-4.3-.2-5.3-2.1-5.3zM120.9 1.7C121.1.5 122.1 0 123 0c1.2 0 2.5.8 2.5 2.2 0 .5-.8 3.1-1.9 5.9 2.1 0 5-.1 7.2-.1 2.4 0 7.2 0 7.5 5.7.1 1.7.2 4 .2 6.4 0 11.8-2.1 22-12.2 22-1.4 0-3-.2-4.7-.6-1.3-.3-1.9-1.4-1.9-2.5 0-1.2.7-2.3 2.2-2.3.2 0 .5 0 .8.1 1.4.3 2.6.5 3.7.5 3.2 0 7.5-1.6 7.5-17.3 0-6.2-.1-7.8-2.4-7.8h-9.6c-2.6 5.3-3.9 6.2-5.1 6.2-.6 0-1.2-.2-1.6-.6v4.3c0 3.9 0 7.8-.1 10.7-.1 4.3-4.3 4.5-7.9 4.5-1.1 0-2.2 0-3.3-.1-2.4-.2-4.2-2-4.2-4.4V12.4c0-2.4 1.6-4 4.5-4.2h.6c.6-1.9 1.2-4.2 1.4-5.9.2-1.3 1.2-1.9 2.2-1.9 1.3 0 2.6.9 2.6 2.2 0 .7-.9 3.2-1.8 5.6 5 0 5.8 2.5 5.8 4V15c2.7-3.5 5-9.2 5.9-13.3zm-10.4 18.5c0-7.5 0-8.1-1.4-8.1h-4c-.8 0-1.4.7-1.4 1.4v6.8h6.8zm-6.8 3.8v7.8c0 1.1.6 1.4 3.2 1.4 2.1 0 3.3 0 3.4-1.5.1-2.2.2-4.9.2-7.8h-6.8zm21.1 2.8c-1.3-1.7-3.5-3.3-5.5-4.3-.9-.4-1.2-1.1-1.2-1.7 0-1.1.9-2.1 2.3-2.1 1.6 0 8.6 3.6 8.6 6.5 0 1.4-1.2 2.6-2.5 2.6-.6-.2-1.2-.4-1.7-1zM146.9 40.5c0-.7.4-1.4 1.4-2 1.3-.8 3.4-2.7 3.9-4.6.3-1.2 1.2-1.6 2.1-1.6 1.2 0 2.4.8 2.4 2 0 2-3.7 8.4-7.2 8.4-1.5 0-2.6-1-2.6-2.2zm8.6-11.4c-.9 0-1.8 0-2.7-.1-2.3-.2-3.9-1.9-3.9-4.3V5.9c.1-4.1 3.6-4.2 6.4-4.2h2.9c2.5.1 4.2 1.7 4.3 3.9 0 2.6.1 5.7.1 8.7 0 3.7 0 7.4-.1 10.3-.1 4.3-3.8 4.5-7 4.5zm2.9-16c0-2.3-.1-4.5-.1-6.4-.1-1.2-.8-1.4-2.6-1.4-1.4 0-2.7 0-2.7 1.4 0 1.7-.1 3.9-.1 6.3h5.5zm-5.4 3.7c0 2.7 0 5.3.1 7.2 0 1.3.7 1.4 2.6 1.4h1.3c1.4-.1 1.4-.1 1.4-8.5H153zm10.1 25.6c-1.1 0-2.1-.7-2.1-2.2v-.7c0-1.9-.2-3.6-.8-5-.1-.2-.1-.5-.1-.7 0-1 1-1.5 2.1-1.5.8 0 1.6.3 2 .9 1.1 1.6 1.6 4.3 1.6 6.6-.1 1.7-1.5 2.6-2.7 2.6zm12.6-36.7c-1.1 8.8-8.8 11.5-9.8 11.5-1.3 0-2.1-1.1-2.1-2.2 0-.7.3-1.3 1-1.6 4.3-1.9 6.1-4.3 6.7-7.6h-5.3c-1.4 0-2-1-2-1.9s.7-1.9 2-1.9h15.9c3.1 0 4.3 1.6 4.3 4.5 0 9.6-5.6 9.7-7 9.7-1.1 0-2.4-.2-3.8-.6-1-.3-1.4-1.1-1.4-1.9 0-1.1.7-2.2 1.9-2.2.3 0 .6 0 .9.2.8.3 1.4.5 2 .5 2.1 0 2.9-2.8 2.9-5 0-1.1-.5-1.4-1.5-1.4h-4.7zm-10 18.9v-2.8c0-1.7 1.4-3.6 3.8-3.7 1.1 0 3-.1 5.1-.1 2.5 0 5.1 0 6.5.1 2.2.1 4.1 1.3 4.2 3.4 0 1 .1 1.9.1 2.8 0 .9 0 1.7-.1 2.8-.1 2.2-1.8 3.8-4.3 3.9-1.3 0-3.5.1-5.7.1s-4.3 0-5.7-.1c-2.3-.1-3.8-1.6-3.9-3.8v-2.6zm7.9 17.7c-1 0-2-.6-2.2-1.9-.5-2.5-1.2-4.1-2.2-5.6-.2-.3-.3-.6-.3-.9 0-1 1.1-1.7 2.2-1.7 3 0 5.1 6.3 5.1 7.5 0 1.7-1.4 2.6-2.6 2.6zm5.9-20.7h-8.1c-1.3 0-1.4.7-1.4 2.9V26c0 1.2.6 1.3 5.9 1.3 5.2 0 5.2-.1 5.2-2.7 0-2.1 0-2.9-1.6-3zM185 42c-.8 0-1.5-.4-2-1.4-1.1-2.2-2.6-3.9-4.3-5.3-.4-.4-.6-.8-.6-1.2 0-1 1.2-1.9 2.5-1.9 2 0 7.2 4.6 7.2 7.2 0 1.5-1.4 2.6-2.8 2.6zM205.5 15.7V21h12c3.6 0 5.7 1.6 5.8 5.8 0 1.7.1 5.6.1 9v4.8c0 1.5-1.4 2.2-2.6 2.2-1.2 0-2.4-.7-2.4-2.1v-.1c0-1.4.1-5.1.1-8.2v-4.7c0-1.7-.6-2.4-2.4-2.5s-4.6 0-7.5 0h-3.4c-1.2 9.8-5.8 16.5-8.9 16.5-1.4 0-2.7-1.1-2.7-2.4 0-.6.2-1.2.9-1.7 5.5-4.9 6.5-10.4 6.5-19.3v-.7c0-4.1-.1-11.1-.2-14.7v-.1c0-1.4 1.2-2.2 2.5-2.2s2.5.8 2.5 2.3v8.5h10.4V2.8c0-1.7 1.2-2.6 2.5-2.6 1.2 0 2.4.9 2.4 2.6v8.6h11.8c1.5 0 2.3 1.1 2.3 2.2s-.8 2.1-2.3 2.1h-27.4z"/>
</svg>
