<!-- Generator: Adobe Illustrator 25.0.0, SVG Export Plug-In  -->
<svg version="1.1" xmlns="http://www.w3.org/2000/svg" xmlns:xlink="http://www.w3.org/1999/xlink" x="0px" y="0px" width="580.6px"
	 height="101.7px" viewBox="0 0 580.6 101.7" style="overflow:visible;enable-background:new 0 0 580.6 101.7;"
	 xml:space="preserve">
<defs>
</defs>
<g>
	<path d="M99.7,35.6c-0.7,0-1.1-0.6-1.1-1.1c0-0.5,0.4-1.1,1.1-1.1H115l0-31.4c0-0.8,0.6-1.2,1.2-1.2c0.7,0,1.3,0.4,1.3,1.2v12.7
		l13.4,0c0.7,0,1.1,0.6,1.1,1.1c0,0.6-0.4,1.1-1.1,1.1h-13.4v16.5h17.2c0.7,0,1,0.6,1,1.1c0,0.6-0.4,1.1-1,1.1H99.7z"/>
	<path d="M146.9,36.8l0.6-23.2c-3.8,5.9-4.9,6.1-5.3,6.1c-0.6,0-1.1-0.4-1.1-1c0-0.3,0.1-0.5,0.4-0.8c4.3-4.8,7.4-10.2,9.6-16.6
		c0.2-0.6,0.6-0.8,1.1-0.8c0.6,0,1.3,0.5,1.3,1.2c0,0.4-1.4,3.9-3.7,8l-0.5,27.2c0,0.7-0.6,1.1-1.2,1.1
		C147.5,37.9,146.9,37.5,146.9,36.8L146.9,36.8z M172.9,29v1.4l0.1,2.9v0.1c0,1.8-0.7,4.4-4.8,4.4c-2.1,0-3.6-0.3-3.6-1.4
		c0-0.6,0.4-1.1,1-1.1c0.1,0,0.2,0,0.3,0c0.9,0.2,1.7,0.4,2.4,0.4c1.5,0,2.5-0.7,2.5-2.7l0-4l-18,0c-0.7,0-1-0.4-1-0.9
		c0-0.5,0.4-1,1-1h18l0-2.4c0-0.6,0.5-0.9,1.1-0.9c0.5,0,1.1,0.3,1.1,0.9v2.4h6.2c0.7,0,1,0.5,1,0.9c0,0.5-0.3,1-1,1H172.9z
		 M164.8,19.2c-2.1,0-4,0-5.4,0c-4,0-4.1-2-4.1-5.1c0-0.9,0-1.8,0-2.5c0.1-1.7,1.1-2.9,4-3c1.5,0,3.5-0.1,5.5-0.1V5.8l-9.9,0
		c-0.7,0-1-0.5-1-0.9c0-0.5,0.4-1,1-1l9.9,0V1.2c0-0.7,0.6-1.1,1.1-1.1c0.6,0,1.1,0.4,1.1,1.1V4l10.9,0c0.7,0,1,0.5,1,1
		c0,0.4-0.3,0.9-0.9,0.9l-10.9,0v2.5c2.2,0,4.3,0,6,0.1c3.7,0.1,3.8,2,3.8,5.1c0,3.6-0.1,5.4-4,5.5c-1.7,0-3.7,0-5.8,0v2.7
		c2.5-0.2,4.9-0.4,7.1-0.6c-0.3-0.2-0.5-0.4-0.8-0.6c-0.3-0.2-0.4-0.4-0.4-0.6c0-0.5,0.5-0.9,1-0.9c0.8,0,5.1,3.4,5.1,4.7
		c0,0.6-0.5,1.1-1.1,1.1c-0.3,0-0.6-0.1-0.8-0.5c-0.5-0.7-0.9-1.3-1.4-1.8c-5.8,0.7-14.8,1.4-21.4,1.4c-0.9,0-1.7,0-1.7-1
		c0-0.5,0.3-0.9,0.9-0.9h0c1.1,0,2.3,0,3.5,0c2.5,0,5.3-0.1,7.9-0.2V19.2z M164.8,9.9c-6.4,0-7.2,0-7.3,1.8c0,0.4,0,0.8,0,1.2h7.4
		V9.9z M164.8,14.5h-7.4c0,0.5,0,1,0,1.4c0,1.3,0.7,1.6,2.2,1.7c1.3,0,3.2,0,5.1,0V14.5z M162.8,34.4c-1.1-1.5-2.9-2.3-4.5-3.1
		c-0.4-0.2-0.5-0.4-0.5-0.7c0-0.5,0.6-1.1,1.2-1.1c0.9,0,5.6,2.4,5.6,3.9c0,0.7-0.6,1.3-1.2,1.3C163.3,34.8,163,34.7,162.8,34.4z
		 M174.4,13c0-0.5,0-0.9,0-1.3c-0.1-1.7-0.9-1.7-7.5-1.7v3H174.4z M166.9,14.5v3.1c2,0,4,0,5.4,0c1.3,0,2-0.6,2-1.7
		c0-0.4,0-0.8,0-1.3H166.9z"/>
	<path d="M239.1,19.1c-2,3.4-4.9,6.9-7.1,9c-0.3,0.3-0.7,0.4-1,0.4c-0.7,0-1.3-0.6-1.3-1.2c0-0.3,0.1-0.6,0.5-0.9
		c2.7-2.2,6.7-6.6,8.9-11.1v-1.2l-7.2,0c-0.7,0-1.1-0.5-1.1-1.1c0-0.5,0.4-1,1.1-1l7.2,0l-0.1-6.7c-0.8,0.2-4.8,1-6,1
		c-0.7,0-1.1-0.5-1.1-1c0-0.5,0.4-1,1-1.1c4.5-0.4,8.7-1.4,12.8-3c0.1,0,0.2-0.1,0.4-0.1c0.6,0,1.1,0.5,1.1,1.1
		c0,0.9-1.5,1.4-5.7,2.5c0,0.5-0.1,3.7-0.1,7.3l6.1,0c0.7,0,1.1,0.5,1.1,1c0,0.5-0.4,1.1-1.1,1.1l-6.1,0c0,1.5,0,3,0,4.4
		c0,6.6,0.2,18.3,0.2,18.3c0,0.7-0.6,1-1.2,1c-0.6,0-1.2-0.4-1.2-1L239.1,19.1z M246.3,23.3c-1.2-1.5-3.6-3.2-4.5-3.8
		c-0.3-0.2-0.4-0.4-0.4-0.6c0-0.5,0.5-1,1.1-1c1,0,4.5,2.8,5.4,3.7c0.3,0.3,0.4,0.6,0.4,0.9c0,0.6-0.5,1.2-1.1,1.2
		C246.8,23.7,246.5,23.6,246.3,23.3z M261.7,35.4c-0.9,0-2.2,0.1-3.5,0.1c-1.3,0-2.5,0-3.6-0.1c-2.7-0.1-4.3-1.6-4.4-4
		c-0.1-3.4-0.1-7.2-0.1-10.9c0-3.8,0-7.6,0.1-10.9c0-2,1.5-3.5,4.4-3.6c0.9,0,2-0.1,3.1-0.1c1.4,0,2.9,0,4,0.1
		c2.4,0.1,4.1,1.6,4.2,4c0.1,3.1,0.2,6.8,0.2,10.6c0,3.7-0.1,7.6-0.2,10.9C265.9,33.8,264.2,35.3,261.7,35.4z M263.7,20.4
		c0-3.7,0-7.3-0.1-9.9c0-1.7-1.3-2.5-2.7-2.6c-0.6,0-2,0-3.3,0c-2.9,0-4.9,0.1-5,2.6c-0.1,2.5-0.1,5.9-0.1,9.3c0,3.9,0,7.9,0.1,10.9
		c0,2.5,2,2.6,5.8,2.6c3.9,0,5.1-0.4,5.2-2.7C263.7,27.8,263.7,24.1,263.7,20.4z"/>
	<path d="M279.8,36.9l0.7-23.8c-1.7,2.5-3.5,4.8-5,6.3c-0.4,0.4-0.8,0.5-1.1,0.5c-0.7,0-1.1-0.5-1.1-1.1c0-0.3,0.1-0.6,0.4-0.9
		c4.2-4.2,8.3-10.4,10.4-16.7c0.2-0.6,0.7-0.8,1.1-0.8c0.7,0,1.4,0.5,1.4,1.2c0,1-3.6,7.5-3.7,7.8l-0.5,27.5c0,0.7-0.7,1.1-1.3,1.1
		C280.4,38,279.8,37.7,279.8,36.9L279.8,36.9z M299.5,25.3l0,11.5c0,0.7-0.6,1-1.2,1c-0.6,0-1.2-0.3-1.2-1V25.3l-10.8,0
		c-0.7,0-1.1-0.5-1.1-1.1c0-0.5,0.4-1,1.1-1l10.9,0v-6.5l-9.1,0c-0.7,0-1.1-0.5-1.1-1.1c0-0.5,0.4-1.1,1.1-1.1l9.1,0l0-13.5
		c0-0.7,0.6-1.1,1.2-1.1c0.6,0,1.2,0.4,1.2,1.1l0,13.5l9.5,0c0.7,0,1.1,0.5,1.1,1c0,0.6-0.4,1.1-1.1,1.1l-9.5,0v6.5l11.3,0
		c0.7,0,1.1,0.5,1.1,1c0,0.5-0.4,1.1-1.1,1.1L299.5,25.3z M292,11c-1.1-2.2-3-4.3-4.1-5.1c-0.2-0.2-0.3-0.4-0.3-0.6
		c0-0.5,0.5-1.1,1.2-1.1c1.6,0,5.4,5,5.4,6.1c0,0.7-0.6,1.3-1.2,1.3C292.6,11.6,292.2,11.4,292,11z M302.4,10.9
		c0-0.2,0.1-0.4,0.3-0.6c1.4-1.6,3.4-4.5,4.2-6.1c0.2-0.4,0.5-0.5,0.8-0.5c0.7,0,1.4,0.6,1.4,1.3c0,0.2,0,0.4-0.2,0.5
		c-4,6-4.9,6.3-5.4,6.3C302.9,11.8,302.4,11.4,302.4,10.9z"/>
	<path d="M323.4,36.8l0.7-24.3c-3.2,4.4-5.4,6.5-6.3,6.5c-0.7,0-1.1-0.5-1.1-1.1c0-0.3,0.1-0.7,0.4-0.9c4.4-4,8.6-9.8,10.9-16
		c0.2-0.5,0.6-0.7,1.1-0.7c0.7,0,1.4,0.5,1.4,1.3s-2,4.4-4.1,7.6l-0.5,27.6c0,0.7-0.7,1.1-1.3,1.1C324,37.8,323.4,37.5,323.4,36.8
		L323.4,36.8z M342.2,21.4c2.5,0,5.1,0,7.2,0.1c2.5,0.1,4.4,1.6,4.5,3.6c0.1,2,0.2,3.8,0.2,5.6c0,0.6,0,1.1,0,1.7
		c-0.1,2.2-1.5,4-4.6,4.1c-2,0.1-4.4,0.1-6.7,0.1c-9.8,0-10.5-0.2-10.5-6.4c0-1.7,0.1-3.2,0.1-5c0.2-3.9,4-3.9,7.7-3.9
		c0.4-1.3,0.8-3.2,1.1-4.9c-6.9,0-7.8-0.5-7.8-5.7c0-1.7,0.1-3.5,0.1-4.7c0.1-2.1,1.4-3.6,3.8-3.6c1.7,0,3.7-0.1,5.8-0.1
		c2,0,4,0,5.6,0.1c2.4,0.1,3.8,1.4,3.9,3.5c0,1.4,0.1,3.2,0.1,4.9v1.8c0,2.2-1.4,3.6-4,3.8c-1.4,0.1-3.1,0.1-4.8,0.1
		C343.3,17.8,342.6,20.2,342.2,21.4z M351.7,30.1c0-1.5-0.1-3.1-0.1-4.4c0-1.3-0.7-2.4-2.6-2.4c-1.8,0-3.9-0.1-6-0.1
		c-2.1,0-4.1,0-5.8,0.1c-2.8,0-2.8,1.5-2.8,6.9c0,4.3,0.1,4.4,8.2,4.4c2.2,0,4.4,0,6.2-0.1C351.6,34.3,351.7,32.4,351.7,30.1z
		 M350.2,9.7c0-4.2,0-5.3-2.5-5.4c-1.2,0-2.6,0-4.1,0c-2,0-4.1,0-5.7,0c-1.8,0-2.3,0.9-2.4,2.2c0,0.7,0,1.8,0,2.8s0,2,0,2.8
		c0,2.3,0.9,2.4,7.2,2.4c6.2,0,7.3,0,7.4-2.6C350.1,11.3,350.2,10.5,350.2,9.7z"/>
	<path d="M368.4,7.4c0.7-1.9,1.4-4.4,1.8-6.2c0.1-0.7,0.6-1,1.1-1c0.7,0,1.3,0.4,1.3,1.1c0,0.5-1.1,3.7-2.1,6.2c2.5,0,5.7,0,5.8,3.4
		c0,2.5,0.1,5.4,0.1,8.3c0,3.6,0,7.1-0.1,10C376.3,33,373,33,370,33c-2.9,0-6.2-0.1-6.2-3.9c0-2.3,0-5.1,0-7.8c0-3.8,0-7.6,0-10.4
		c0-1.9,1.3-3.4,4-3.5L368.4,7.4z M374.2,18.5c0-2.7,0-5.3-0.1-7.2c0-1.2-0.9-1.9-2.1-2h-3.6c-1.3,0-2.3,0.6-2.3,2
		c0,1.8,0,4.4,0,7.2H374.2z M366,20.5c0,3.1,0,6.2,0,8.3c0,1.8,1.3,2.2,4,2.2c2.4,0,4-0.1,4-2.2c0-2.3,0.1-5.3,0.1-8.3H366z
		 M382.9,9.4c-2.9,6.2-4,6.5-4.5,6.5c-0.6,0-1.1-0.4-1.1-1c0-0.2,0.1-0.5,0.3-0.7c2.9-3.6,5.3-9.4,6.1-13.4c0.1-0.6,0.6-0.8,1.1-0.8
		c0.6,0,1.3,0.4,1.3,1.1c0,0.4-0.7,3-2.2,6.4c2.4,0,6.4-0.1,8.6-0.1c3.2,0,5.1,1.9,5.2,4.6c0.1,1.5,0.2,3.6,0.2,5.8
		c0,16.3-4.3,19.6-10.2,19.6c-1.3,0-2.8-0.2-4.3-0.5c-0.6-0.1-0.9-0.7-0.9-1.2c0-0.6,0.4-1.2,1.1-1.2c0.1,0,0.2,0,0.4,0
		c1.3,0.3,2.5,0.5,3.6,0.5c4.7,0,8-3.2,8-17.4c0-5.6,0-8-3.5-8H382.9z M387.4,23.6c-1.5-1.9-4-3.6-6.3-4.7c-0.4-0.2-0.5-0.4-0.5-0.7
		c0-0.6,0.5-1.1,1.2-1.1c1.1,0,7.6,3.7,7.6,5.7c0,0.7-0.6,1.4-1.3,1.4C387.9,24,387.6,23.9,387.4,23.6z"/>
	<path d="M406.8,36.9c0-0.3,0.2-0.6,0.6-0.9c1.7-1.1,3.8-3.5,4.4-5.9c0.1-0.6,0.6-0.9,1.1-0.9c0.6,0,1.2,0.4,1.2,1.1
		c0,2.3-3.8,7.7-5.9,7.7C407.4,38.1,406.8,37.5,406.8,36.9z M414.1,25.6c-0.7,0-1.4,0-2.1,0c-2-0.1-3.3-1.6-3.3-3.6
		c0-2.6,0-5.7,0-8.7s0-5.9,0-8.3c0.1-3.4,3.3-3.5,5.6-3.5c0.7,0,1.4,0,2,0.1c2.2,0.1,3.5,1.5,3.6,3.2c0.1,2.5,0.1,5.3,0.1,8
		c0,3.3,0,6.5-0.1,9.2C419.8,25.2,417.5,25.6,414.1,25.6z M417.8,12.1c0-2.4,0-4.8-0.1-6.7c-0.1-1.8-1.3-2-3.4-2c-1.9,0-3.3,0-3.4,2
		c0,1.7,0,4.2,0,6.7H417.8z M410.8,14c0,2.8,0,5.6,0,7.6c0,1.8,1,2,3.4,2c2.2,0,3.4-0.1,3.5-2.1c0.1-2.2,0.1-4.9,0.1-7.6H410.8z
		 M421,37.9c-0.6,0-1.1-0.4-1.1-1.1c0-2.3-0.5-4.8-1.2-6.5c0-0.1,0-0.2,0-0.3c0-0.5,0.5-0.8,1-0.8c2.2,0,2.6,6.9,2.6,7.3
		C422.4,37.4,421.7,37.9,421,37.9z M423.5,3.8c-0.7,0-1-0.5-1-1c0-0.5,0.4-1,1-1c2.5,0,5.4,0,8.2,0c2.1,0,4.1,0,5.9,0
		c2.5,0,3.9,1.1,3.9,3.5c0,7.9-4.3,8.3-5.8,8.3c-1,0-2.1-0.2-3.3-0.6c-0.5-0.1-0.7-0.5-0.7-1c0-0.6,0.4-1.3,1.1-1.3
		c0.1,0,0.3,0,0.4,0.1c0.9,0.4,1.7,0.5,2.4,0.5c0.6,0,3.5,0,3.5-5.8c0-1.4-0.6-1.8-2.1-1.9c-1.5,0-3.3,0-5.3,0
		c-0.7,8.2-7.7,11-8.6,11c-0.7,0-1.1-0.6-1.1-1.1c0-0.4,0.2-0.7,0.5-0.9c4.8-2,6.5-5.3,6.9-9C427.5,3.7,425.4,3.7,423.5,3.8
		L423.5,3.8z M432.2,27.3c-1.7,0-3.4,0-4.5,0c-2.5-0.1-3.6-1.3-3.7-2.9c0-0.8,0-1.6,0-2.4c0-0.8,0-1.7,0-2.6
		c0.1-1.5,1.3-2.9,3.4-2.9c1.1,0,2.9-0.1,4.7-0.1c1.8,0,3.6,0,4.6,0.1c2.4,0.1,3.7,1.3,3.8,2.7c0,1.1,0.1,2.2,0.1,3.2
		C440.6,26.9,440,27.3,432.2,27.3z M432.1,18.1c-1.5,0-3,0-3.7,0c-2.2,0.1-2.2,1.4-2.2,3.7c0,3.6,0,3.6,6,3.6c6.2,0,6.2,0,6.2-3.6
		c0-2.6-0.1-3.6-2.4-3.7C435.2,18.1,433.6,18.1,432.1,18.1z M430.9,37.7c-0.5,0-1-0.3-1.1-0.9c-0.6-2.7-1.8-4.8-2.9-6.3
		c-0.1-0.1-0.1-0.3-0.1-0.4c0-0.4,0.5-0.9,1.1-0.9c2,0,4.4,6.4,4.4,7.3C432.2,37.2,431.5,37.7,430.9,37.7z M441.8,37.4
		c-0.4,0-0.8-0.2-1.1-0.7c-1.2-2.3-3.5-4.6-5.4-6c-0.2-0.1-0.3-0.3-0.3-0.5c0-0.5,0.5-1,1.2-1c1.5,0,6.9,5.1,6.9,6.9
		C443.2,36.9,442.5,37.4,441.8,37.4z"/>
	<path d="M458.6,12.8v3c0,1.3,0,2.5,0,3.7c2.3,0,5.8,0,8.5,0h2.9c2.7,0,4.7,1.6,4.8,4.4c0,2.3,0,5.9,0,9.1v3.6
		c0,0.8-0.6,1.2-1.2,1.2c-0.7,0-1.3-0.4-1.3-1.2c0-1.8,0-4.2,0-6.5c0-2.3,0-4.5,0-5.9c0-1.6-1.1-2.6-2.9-2.6c-1.3,0-3.3,0-5.4,0
		c-2,0-4.1,0-5.6,0c-0.6,6.4-2.5,11.5-6.3,14.9c-0.4,0.3-0.7,0.4-1.1,0.4c-0.7,0-1.4-0.6-1.4-1.2c0-0.3,0.1-0.6,0.4-0.9
		c5.1-4.6,6.2-10.1,6.2-18.1c0-9.9-0.1-14.1-0.2-14.7v0c0-0.8,0.6-1.2,1.3-1.2s1.3,0.4,1.3,1.3c0,2,0,5.3,0,8.6l11.4,0l0-9.1
		c0-0.8,0.6-1.2,1.2-1.2c0.6,0,1.2,0.4,1.2,1.2l0,9.1l12.3,0c0.7,0,1.1,0.5,1.1,1.1c0,0.6-0.4,1.1-1.1,1.1H458.6z"/>
	<path d="M11.7,67.6c-0.1,1.8-0.1,3.6-0.1,5.3c0.6,0,1.1,0,1.6,0c1.9,0,3.2,1.3,3.3,3.1c0,2.5,0,5.4,0,8.3c0,4,0,8.2,0,12.3
		c0,3.7-2.9,3.7-8.4,3.7c-1.3,0-2.5,0-3.4,0c-1.9-0.1-3.5-1.1-3.5-3.5C1,94.4,1,91.6,1,88.8c0-4.4,0-8.9,0.1-12.6
		c0-2.9,2.7-3.3,4.7-3.3c0-1.6-0.1-3.7-0.1-5.2l-4.6,0c-0.7,0-1.1-0.5-1.1-1c0-0.5,0.4-1,1.1-1h15.8c0.7,0,1,0.5,1,1
		c0,0.5-0.3,1-1,1L11.7,67.6z M4.8,74.6c-1.1,0-1.8,0.8-1.8,2c-0.1,2.6-0.1,5.8-0.1,9.1c2.5-1.8,2.9-6,2.9-10.4v-0.7
		C5.4,74.6,5.1,74.6,4.8,74.6z M14.3,85.4c-0.3,0-0.9,0.1-1.5,0.1c-2.5,0-3.2-0.6-3.2-3.5c0-2.2,0-4.7,0-7.5H7.5
		c0,6.7-0.8,11.2-4.6,13.1v3.1h11.5c0-1.8,0-3.6,0-5.4L14.3,85.4z M3,92.6l0.1,3.8c0,1.3,1,2,2,2c1.1,0,2.6,0.1,4,0.1
		c3.8,0,5.2,0,5.3-2.2c0-1.2,0-2.5,0-3.7H3z M9.8,72.9c0-1.7,0-3.4,0-5.2H7.6c0,1.6,0,3.4,0,5.2H9.8z M14.5,83.6
		c0-1.8,0-5.1-0.1-7.1c-0.1-1.3-0.7-1.8-1.8-1.9c-0.4,0-0.8,0-1.3,0c0,1.1,0,2.2,0,3.3c0,5.8,0,5.8,1.5,5.8c0.5,0,1.3,0,1.5-0.1
		L14.5,83.6z M30.2,78.6c2.7,0,2.7-1.8,2.7-5.3c0-3.7,0-5.4-2.7-5.5h-2.5c-2.2,0-4.4,0-6.7,0c-0.7,0-1-0.5-1-1.1
		c0-0.6,0.4-1.1,1.1-1.1c1.6,0,3.2,0,4.8,0c1.6,0,3.2,0,4.9,0c2.9,0,4.3,1.7,4.4,4.1c0,1.1,0,2.6,0,4c0,4.7-0.2,6.9-5.5,6.9
		c-1.5,0-3.1,0-4.4,0c-2,0-2.7,1-2.8,2.5c-0.1,2.1-0.1,5-0.1,7.7c0,1.4,0,2.9,0,4.2c0.1,2.9,2.2,3.1,5.9,3.1c4,0,6.5-0.7,6.5-5.5
		c0-0.8,0.5-1.1,1.1-1.1c0.6,0,1.3,0.4,1.3,1.1v0.2c0,7-4.6,7.5-8.8,7.5c-4.8,0-8.1-0.5-8.2-4.8c0-1.3,0-2.8,0-4.3
		c0-2.9,0-6,0.1-8.5c0.1-2.2,1.4-4,4.4-4H30.2z"/>
	<path d="M54.7,91.4v4.7c3-0.7,5.8-1.4,7.7-2.1c0.1,0,0.3,0,0.4,0c0.6,0,1,0.5,1,1c0,0.4-0.3,0.8-0.8,1c-6.8,2.2-17.1,4-18.3,4
		c-0.7,0-1.1-0.5-1.1-1.1c0-0.5,0.4-1,1.1-1.1c2.5-0.3,5.2-0.7,7.9-1.2v-5.2l-6.4,0c-0.7,0-1.1-0.4-1.1-0.9c0-0.4,0.4-0.9,1.1-0.9
		l6.4,0v-4.2l-7.6,0c-0.7,0-1.1-0.5-1.1-1s0.4-1,1.1-1l8.8,0h1.2c0.8-1.6,2-4.3,2.5-6.2c0.1-0.5,0.5-0.7,1-0.7
		c0.7,0,1.4,0.5,1.4,1.1c0,0.3-1.2,3.2-2.6,5.7h4.8c0.7,0,1.1,0.5,1.1,1s-0.4,1-1.1,1l-7.2,0l0,4.2l6.2,0c0.7,0,1,0.4,1,0.9
		c0,0.4-0.4,0.9-1,0.9L54.7,91.4z M46.3,70.9c-0.7-1.4-1.5-2.3-2.5-3.5c-0.1-0.1-0.1-0.3-0.1-0.4c0-0.5,0.6-0.9,1.1-0.9
		c1.1,0,3.4,3.4,3.4,4.2c0,0.7-0.6,1.1-1.1,1.1C46.8,71.5,46.5,71.3,46.3,70.9z M44.9,75.2c-0.7,0-1.1-0.5-1.1-1c0-0.5,0.4-1,1.1-1
		l5.4,0v-8.4c0-0.7,0.5-1,1-1c0.5,0,1,0.4,1,1v8.4h2.9v-8.4c0-0.7,0.5-1,1-1c0.5,0,1,0.4,1,1l0,8.4l5.8,0c0.7,0,1.1,0.5,1.1,1
		c0,0.5-0.4,1-1.1,1H44.9z M50,82.1c-0.6-1.5-1.8-3.2-2.5-4c-0.1-0.1-0.2-0.3-0.2-0.4c0-0.5,0.7-0.9,1.2-0.9c1.1,0,3.6,4.3,3.6,4.9
		c0,0.7-0.6,1.2-1.2,1.2C50.6,82.8,50.2,82.6,50,82.1z M59.9,71.9c-0.5,0-1-0.4-1-0.9c0-0.2,0.1-0.4,0.3-0.6
		c0.8-0.8,2.4-3.1,2.9-4.2c0.2-0.3,0.4-0.4,0.7-0.4c0.6,0,1.2,0.5,1.2,1.1c0,0.6-2.7,4.1-3.4,4.7C60.4,71.8,60.1,71.9,59.9,71.9z
		 M69.9,89c-0.4,0-0.7-0.1-0.9-0.5c-1-1.9-3-4.1-4.6-5.4c-0.3-0.3-0.4-0.5-0.4-0.7c0-0.5,0.6-0.9,1.2-0.9c1.4,0,6.1,5.1,6.1,6.3
		C71.2,88.5,70.5,89,69.9,89z M74.1,76.6h-8.8c-0.7,0-1.1-0.5-1.1-1.1s0.4-1.1,1.1-1.1h8.8v-9.4c0-0.8,0.6-1.2,1.2-1.2
		c0.6,0,1.1,0.4,1.1,1.2v9.4h4.2c0.7,0,1.1,0.5,1.1,1.1s-0.4,1.1-1.1,1.1h-4.2v14.1l0.1,5.1v0.1c0,2.5-1.3,5.1-6,5.1
		c-1.1,0-2.4-0.2-3.9-0.5c-0.8-0.2-1.1-0.7-1.1-1.3c0-0.6,0.4-1.1,1.1-1.1c0.1,0,0.2,0,0.3,0c1.4,0.3,2.6,0.5,3.7,0.5
		c2.2,0,3.5-0.9,3.5-3.2V76.6z"/>
	<path d="M96.3,82.8c-2,3.4-4.9,6.9-7.1,9c-0.3,0.3-0.7,0.4-1,0.4c-0.7,0-1.3-0.6-1.3-1.2c0-0.3,0.1-0.6,0.5-0.9
		c2.7-2.2,6.7-6.6,8.9-11.1V78L89,78C88.3,78,88,77.5,88,77c0-0.5,0.4-1,1.1-1l7.2,0l-0.1-6.7c-0.8,0.2-4.8,1-6,1
		c-0.7,0-1.1-0.5-1.1-1c0-0.5,0.4-1,1-1.1c4.5-0.4,8.7-1.4,12.8-3c0.1,0,0.2-0.1,0.4-0.1c0.6,0,1.1,0.5,1.1,1.1
		c0,0.9-1.5,1.4-5.7,2.5c0,0.5-0.1,3.7-0.1,7.3l6.1,0c0.7,0,1.1,0.5,1.1,1c0,0.5-0.4,1.1-1.1,1.1l-6.1,0c0,1.5,0,3,0,4.4
		c0,6.6,0.2,18.3,0.2,18.3c0,0.7-0.6,1-1.2,1c-0.6,0-1.2-0.4-1.2-1L96.3,82.8z M103.5,87.1c-1.2-1.5-3.6-3.2-4.5-3.8
		c-0.3-0.2-0.4-0.4-0.4-0.6c0-0.5,0.5-1,1.1-1c1,0,4.5,2.8,5.4,3.7c0.3,0.3,0.4,0.6,0.4,0.9c0,0.6-0.5,1.2-1.1,1.2
		C104,87.5,103.7,87.4,103.5,87.1z M118.9,99.2c-0.9,0-2.2,0.1-3.5,0.1c-1.3,0-2.5,0-3.6-0.1c-2.7-0.1-4.3-1.6-4.4-4
		c-0.1-3.4-0.1-7.2-0.1-10.9c0-3.8,0-7.6,0.1-10.9c0-2,1.5-3.5,4.4-3.6c0.9,0,2-0.1,3.1-0.1c1.4,0,2.9,0,4,0.1
		c2.4,0.1,4.1,1.6,4.2,4c0.1,3.1,0.2,6.8,0.2,10.6c0,3.7-0.1,7.6-0.2,10.9C123.1,97.6,121.4,99.1,118.9,99.2z M121,84.2
		c0-3.7,0-7.3-0.1-9.9c0-1.7-1.3-2.5-2.7-2.6c-0.6,0-2,0-3.3,0c-2.9,0-4.9,0.1-5,2.6c-0.1,2.5-0.1,5.9-0.1,9.3c0,3.9,0,7.9,0.1,10.9
		c0,2.5,2,2.6,5.8,2.6c3.9,0,5.1-0.4,5.2-2.7C120.9,91.6,121,87.9,121,84.2z"/>
	<path d="M179.4,100.6l0.5-22.8c-3.4,5.6-4.3,5.9-4.8,5.9c-0.6,0-1.1-0.4-1.1-1c0-0.3,0.1-0.5,0.3-0.8c4-5,7.1-10.6,8.9-17.2
		c0.2-0.6,0.6-0.9,1.1-0.9c0.7,0,1.3,0.5,1.3,1.2c0,0.5-1.4,4.3-3.4,8.3l-0.5,27.1c0,0.7-0.7,1.1-1.2,1.1
		C180,101.6,179.4,101.3,179.4,100.6L179.4,100.6z M186.9,100.6c0.3-8.2,0.2-22.3,0.3-31.8c0-2.1,0.7-3.5,3.4-3.6h4
		c2,0,2.9,1.2,2.9,2.8c0,1.8,0.1,4,0.1,6c0,1.3,0,2.5,0,3.7c-0.1,3.2-1.8,3.4-5.2,3.4c-1,0-1.9,0-3-0.1c0,1.9,0,3.8,0,5.8
		c0,4,0,8.2-0.2,13.7c0,0.7-0.6,1.1-1.1,1.1C187.4,101.7,186.9,101.3,186.9,100.6L186.9,100.6z M195.7,72.3c0-1.3,0-2.5-0.1-3.5
		c0-1.5-0.4-1.8-3-1.8c-2.4,0-3.2,0.2-3.3,2.2c0,0.9,0,1.9,0,3.1H195.7z M189.3,74v5.4c0.9,0.1,1.9,0.1,2.8,0.1
		c3.6,0,3.6-0.1,3.6-5.4H189.3z M206.1,81.2c-5.3,0-5.7-0.4-5.7-6.9c0-2.2,0.1-4.3,0.1-6.2c0.1-2.7,1.7-2.9,5-2.9
		c4,0,5.5,0.2,5.6,3.5c0,2.9,0.1,5.9,0.1,22c0,2.1,0,4,0,5.5c0,2.7-1,5.1-5.5,5.1c-2.3,0-3.7-0.2-3.7-1.4c0-0.6,0.4-1.1,1-1.1h0.2
		c1.1,0.2,1.9,0.3,2.7,0.3c2,0,3.1-0.7,3.2-3.2c0-1.4,0-2.8,0-4.1c0-2.8,0-5.5,0-8.8v-1.9C208,81.2,207,81.2,206.1,81.2z M209,72.3
		c0-5.2,0-5.3-3.3-5.3c-0.6,0-1.2,0-1.6,0c-1.7,0.1-1.8,0.4-1.8,5.2H209z M202.4,74c0,5.4,0,5.4,3.7,5.4c1,0,2.1,0,3-0.1
		c0-1.7,0-3.6,0-5.4H202.4z"/>
	<path d="M220.2,99c-0.7,0-1.1-0.6-1.1-1.1c0-0.6,0.4-1.1,1.1-1.1l10,0c1.1-4.2,2.4-9.7,3.6-14.9c-3.1,0-6.2,0-8.9,0.1
		c-0.7,0-1.1-0.5-1.1-1.1c0-0.5,0.4-1.1,1.1-1.1c2.8,0,6,0,9.4,0c0.8-3.6,1.5-7,2.1-9.8l-13.4,0c-0.7,0-1.1-0.5-1.1-1.1
		c0-0.5,0.4-1.1,1.1-1.1h29.7c0.7,0,1.1,0.5,1.1,1.1c0,0.5-0.4,1.1-1.1,1.1l-13.8,0c-0.5,2.8-1.2,6.2-2,9.8h7.6
		c2.9,0,4.6,1.6,4.6,4.1c0,2.5-0.2,11.2-0.3,12.9l6.9,0c0.7,0,1.1,0.6,1.1,1.1c0,0.6-0.4,1.1-1.1,1.1H220.2z M246.2,96.8
		c0.1-3.8,0.3-8,0.3-11.3v-1.1c0-1.6-1-2.5-2.4-2.5h-7.7c-1.2,5.4-2.5,10.8-3.6,14.9H246.2z"/>
	<path d="M296.3,73c0-1.7-0.7-2.5-2.9-2.5c-3.3,0-7.5,0-11.7,0c-4.2,0-8.3,0-11.4,0c-2.2,0-2.9,0.8-3,2.5v3.7c0,0.7-0.6,1.1-1.2,1.1
		c-1.2,0-1.3-0.7-1.3-3c0-0.7,0-1.5,0-2.2c0-2.1,1.3-4,4.6-4c3.8,0,7.5,0,11.2,0l0-4.2c0-0.7,0.6-1.1,1.3-1.1c0.6,0,1.2,0.4,1.2,1.1
		v4.2c3.7,0,7.3,0,11.1,0c2.9,0,4.5,1.8,4.5,4c0,0.5,0,1.3,0,2.1c0,2.4,0,3.2-1.3,3.2c-0.6,0-1.2-0.4-1.2-1.1V73z M273.3,89.6
		c2.3,0,4.7,0,7.2,0c3.5,0,6.9,0,9.8,0.1c4,0,4,2.4,4,5.3c0,3-0.1,5.4-4.2,5.5c-2.5,0-5.1,0.1-7.7,0.1c-2.5,0-5,0-7.2-0.1
		c-2.5,0-4-1.4-4.1-3.5c0-2.5,0-6.1,0-9.5c0-3.4,0-6.8,0-9c0-1.8,1.3-3.2,4-3.3c2.4,0,4.7-0.1,6.9-0.1c2.2,0,4.3,0,6.5,0.1
		c3.8,0,4,1.9,4,5c0,3.2-0.5,4.7-4,4.8c-2.9,0.1-6.3,0.1-9.6,0.1c-2,0-3.9,0-5.6,0V89.6z M277.1,83.2c4,0,8.1,0,11.1-0.1
		c1.8,0,2-1,2-2.7c0-2.2,0-3.2-2.1-3.3c-1.7,0-3.6,0-5.4,0c-2.5,0-4.9,0-7,0c-1.7,0-2.3,0.9-2.3,2c0,0.9-0.1,2.4-0.1,4.1H277.1z
		 M273.4,96.4c0,1.2,0.7,1.9,2.4,2c1.7,0,3.8,0.1,6,0.1c2.7,0,5.5,0,8.1-0.1c1.7,0,2.2-0.7,2.2-3.3c0-2.4-0.2-3.4-2-3.4
		c-2.9-0.1-6.6-0.1-10.4-0.1c-2.2,0-4.4,0-6.3,0C273.3,93.6,273.3,95.3,273.4,96.4z"/>
	<path d="M315,80.5c-1.8,3.7-4.4,7.6-6.8,10.1c-0.3,0.4-0.7,0.5-1.1,0.5c-0.7,0-1.2-0.5-1.2-1.1c0-0.3,0.1-0.6,0.4-0.8
		c2.8-2.7,6.6-8,8.7-12.9v-1l-6.6,0.1c-0.7,0-1.1-0.5-1.1-1.1c0-0.5,0.4-1,1.1-1l6.6,0l-0.1-8.7c0-0.7,0.6-1.1,1.2-1.1
		c0.6,0,1.2,0.4,1.2,1.1c0,0-0.1,4.2-0.1,8.7l5.1,0c0.7,0,1.1,0.5,1.1,1.1c0,0.5-0.4,1.1-1.1,1.1l-5.1-0.1c0,1.7,0,3.3,0,4.7
		c0,6.6,0.2,20.7,0.2,20.7c0,0.7-0.6,1-1.2,1c-0.6,0-1.2-0.4-1.2-1L315,80.5z M322,85.5c-1.2-1.5-3.5-3.3-4.4-3.9
		c-0.2-0.2-0.3-0.4-0.3-0.6c0-0.5,0.5-1,1.1-1c1.3,0,5.2,3.8,5.3,3.9c0.2,0.3,0.3,0.5,0.3,0.8c0,0.7-0.6,1.2-1.2,1.2
		C322.5,85.9,322.3,85.8,322,85.5z M335.4,100.4c-5.3,0-8.9,0-8.9-4.8c0-2.7-0.1-6.7-0.1-10.9c0-5.1,0-10.4,0.1-14
		c0-4.7,3.2-4.7,8.4-4.7c4.7,0,7.9,0.2,8,4.5c0.1,2.5,0.1,6.4,0.1,10.4c0,5.5,0,11.3-0.1,14.7C342.8,100.3,339.1,100.4,335.4,100.4z
		 M340.8,78.7h-12.2c0,2.6,0,5.5,0,8.2h12.2V78.7z M340.8,76.6c0-2.2,0-4-0.1-5.4c0-3-1.2-3.2-5.9-3.2c-4.6,0-5.9,0.1-6.1,3.2
		c0,1.4-0.1,3.3-0.1,5.4H340.8z M328.6,88.9c0,2.5,0,4.6,0.1,6.1c0,3.3,1.6,3.3,6.6,3.3c4.2,0,5.4-0.6,5.4-3.4c0-1.5,0.1-3.6,0.1-6
		H328.6z"/>
	<path d="M356.2,100.2l0.6-24.6c-4.4,5.6-5.5,5.8-5.9,5.8c-0.6,0-1.1-0.4-1.1-1c0-0.3,0.1-0.6,0.4-0.8c4.7-4.3,7.8-8.5,10.6-14.5
		c0.2-0.5,0.6-0.7,1-0.7c0.6,0,1.3,0.6,1.3,1.2c0,0.6-2.1,4.2-4,6.9l-0.5,27.7c0,0.7-0.6,1.1-1.2,1.1
		C356.8,101.3,356.2,100.9,356.2,100.2L356.2,100.2z M366.2,67.4c0-0.7,0.6-1.1,1.1-1.1s1.1,0.4,1.1,1.1l0,22.4
		c2.6-1.3,5.1-2.6,6.6-3.6c0.2-0.1,0.3-0.1,0.5-0.1c0.5,0,1,0.5,1,1c0,0.4-0.2,0.7-0.6,0.9c-0.4,0.2-12.2,6.9-13.8,6.9
		c-0.7,0-1.1-0.6-1.1-1.1c0-0.4,0.2-0.9,0.7-1.1c1.3-0.5,2.8-1.1,4.4-1.9L366.2,67.4z M381.8,66.7c0-0.7,0.6-1,1.1-1
		c0.7,0,1.3,0.4,1.3,1.1c0,1,0,1.9,0,2.9c0,7.1-0.7,13.8-3.5,19.5c4.3,3.3,8,8.1,8,9.3c0,0.8-0.7,1.5-1.4,1.5c-0.4,0-0.8-0.2-1-0.8
		c-1.2-2.7-4.4-6.3-6.5-8.2c-4.4,7.2-11.9,9.8-12.5,9.8c-0.7,0-1.2-0.6-1.2-1.1c0-0.4,0.3-0.8,0.8-1.1c12.9-5.2,14.9-15.7,14.9-27.3
		C381.9,69.6,381.9,68.2,381.8,66.7L381.8,66.7z M376.8,78.5c-1.3-1.7-3.7-3.7-5.5-4.7c-0.4-0.2-0.5-0.5-0.5-0.7c0-0.5,0.6-1,1.2-1
		c1,0,7,4,7,5.6c0,0.7-0.7,1.3-1.3,1.3C377.3,78.9,377,78.8,376.8,78.5z"/>
	<path d="M401.4,71.2c0.7-1.9,1.4-4.4,1.8-6.2c0.1-0.7,0.6-1,1.1-1c0.7,0,1.3,0.4,1.3,1.1c0,0.5-1.1,3.7-2.1,6.2
		c2.5,0,5.7,0,5.8,3.4c0,2.5,0.1,5.4,0.1,8.3c0,3.6,0,7.1-0.1,10c-0.1,3.8-3.3,3.9-6.3,3.9c-2.9,0-6.2-0.1-6.2-3.9
		c0-2.3,0-5.1,0-7.8c0-3.8,0-7.6,0-10.4c0-1.9,1.3-3.4,4-3.5L401.4,71.2z M407.1,82.3c0-2.7,0-5.3-0.1-7.2c0-1.2-0.9-1.9-2.1-2h-3.6
		c-1.3,0-2.3,0.6-2.3,2c0,1.8,0,4.4,0,7.2H407.1z M398.9,84.2c0,3.1,0,6.2,0,8.3c0,1.8,1.3,2.2,4,2.2c2.4,0,4-0.1,4-2.2
		c0-2.3,0.1-5.3,0.1-8.3H398.9z M415.9,73.2c-2.9,6.2-4,6.5-4.5,6.5c-0.6,0-1.1-0.4-1.1-1c0-0.2,0.1-0.5,0.3-0.7
		c2.9-3.6,5.3-9.4,6.1-13.4c0.1-0.6,0.6-0.8,1.1-0.8c0.6,0,1.3,0.4,1.3,1.1c0,0.4-0.7,3-2.2,6.4c2.4,0,6.4-0.1,8.6-0.1
		c3.2,0,5.1,1.9,5.2,4.6c0.1,1.5,0.2,3.6,0.2,5.8c0,16.3-4.3,19.6-10.2,19.6c-1.3,0-2.8-0.2-4.3-0.5c-0.6-0.1-0.9-0.7-0.9-1.2
		c0-0.6,0.4-1.2,1.1-1.2c0.1,0,0.2,0,0.4,0c1.3,0.3,2.5,0.5,3.6,0.5c4.7,0,8-3.2,8-17.4c0-5.6,0-8-3.5-8H415.9z M420.3,87.4
		c-1.5-1.9-4-3.6-6.3-4.7c-0.4-0.2-0.5-0.4-0.5-0.7c0-0.6,0.5-1.1,1.2-1.1c1.1,0,7.6,3.7,7.6,5.7c0,0.7-0.6,1.4-1.3,1.4
		C420.9,87.8,420.6,87.7,420.3,87.4z"/>
	<path d="M457.2,88.4c0,2.7,0,5,0,6.6c0,3.4,2.6,3.6,6.7,3.6c7.6,0,9-1,9.1-6c0-0.8,0.6-1.2,1.1-1.2c0.7,0,1.3,0.5,1.3,1.3
		c-0.1,7.9-5.2,8.1-11.2,8.1c-4.6,0-9.4,0-9.4-5.4v-6.7L441,90.4h-0.2c-0.7,0-1.1-0.5-1.1-1.1c0-0.5,0.3-1,1-1.1l14.1-1.7l0.1-7.1
		l-11.6,1.5h-0.2c-0.7,0-1.1-0.5-1.1-1.1c0-0.5,0.4-1,1-1.1l11.9-1.4l0.1-7c-1,0.1-7.6,1.1-10.9,1.1c-0.8,0-1.2-0.6-1.2-1.1
		c0-0.5,0.4-1,1.1-1c7.6-0.3,15.7-1.4,23.1-3.6c0.2,0,0.4-0.1,0.5-0.1c0.7,0,1.1,0.6,1.1,1.1c0,0.4-0.2,0.8-0.6,1
		c-2.7,0.8-6.6,1.6-10.6,2.3c0,1.9-0.1,4.4-0.2,7.1l13.3-1.7h0.2c0.7,0,1.1,0.6,1.1,1.1c0,0.5-0.3,1-1,1.1l-13.5,1.6l-0.1,7.2
		l17.3-2.2h0.2c0.7,0,1.1,0.6,1.1,1.1c0,0.5-0.3,1-1,1.1L457.2,88.4z"/>
	<path d="M484.3,90.4c-0.7,0-1.3-0.6-1.3-1.2c0-0.4,0.1-0.7,0.4-1c3.3-3,6-7.4,7.4-11.7c0.2-0.5,0.6-0.7,1.1-0.7
		c0.7,0,1.4,0.5,1.4,1.2c0,1.1-3.2,8.3-7.9,13C485,90.3,484.6,90.4,484.3,90.4z M500.7,66.5c0-0.9,0.6-1.3,1.3-1.3
		c0.6,0,1.2,0.4,1.2,1.3v23.6l0.1,4.9v0.1c0,2.7-1.6,5.5-6.9,5.5c-1.2,0-2.6-0.2-4.2-0.5c-0.8-0.2-1.1-0.7-1.1-1.2
		c0-0.7,0.5-1.3,1.2-1.3c0.1,0,0.2,0,0.3,0c1.5,0.3,2.8,0.5,4,0.5c2.5,0,4.1-0.9,4.1-3.4V66.5z M517.8,87.9
		c-1.8-3.6-5.2-7.8-8.2-10.5c-0.3-0.2-0.4-0.5-0.4-0.7c0-0.6,0.5-1.1,1.2-1.1c1.9,0,10,10.1,10,11.8c0,0.8-0.7,1.4-1.4,1.4
		C518.6,88.8,518.1,88.5,517.8,87.9z"/>
	<path d="M528.2,68.1c-0.6,0-1-0.5-1-1c0-0.5,0.4-1,1-1h1.5c2.4,0,5.9,0,7.2,0c2,0,2.9,1.1,2.9,2.2c0,0.6-0.2,1.1-0.5,1.6
		c-0.6,0.9-3.4,4.3-4.6,5.4c0.8,1.4,1.4,3.2,1.8,5.2c1.1-0.5,2.1-1.1,3.1-1.6c0.1-0.1,0.3-0.1,0.4-0.1c0.5,0,1.1,0.5,1.1,1.1
		c0,0.7-0.7,1.2-4.2,2.8c0.2,1.3,0.3,2.7,0.3,4.2c0,10.5-2.8,13.9-6.7,13.9c-2,0-2.9-0.6-2.9-1.6c0-0.6,0.4-1.2,1.1-1.2
		c0.1,0,0.3,0,0.4,0.1c0.5,0.2,1,0.3,1.5,0.3c4.1,0,4.3-8.6,4.3-11.5c0-1.1,0-2.2-0.1-3.2c-2.5,1.1-6.3,2.6-6.9,2.6
		c-0.7,0-1.2-0.5-1.2-1.1c0-0.4,0.3-0.8,0.8-1.1c2.3-0.8,4.7-1.7,6.9-2.6c-0.6-3.3-1.8-6.2-3.9-7.7c-0.2-0.2-0.4-0.4-0.4-0.7
		c0-0.5,0.5-1.1,1.2-1.1c0.8,0,1.9,1.4,2.2,1.8c0.3-0.4,3.7-4,3.7-5.1c0-0.5-0.4-0.7-1.1-0.7L528.2,68.1z M539.5,101.1
		c-0.8,0-1.2-0.6-1.2-1.2c0-0.5,0.3-0.9,0.8-1.1c10.5-2.4,17.8-10.6,21-17.3c0.2-0.5,0.6-0.7,1-0.7c0.6,0,1.2,0.5,1.2,1.1
		c0,0.8-2.7,5.9-7.4,10.5c2.2,2.2,5.5,4.6,9.2,5.9c0.5,0.2,0.7,0.6,0.7,1c0,0.7-0.5,1.3-1.3,1.3c-0.4,0-5.4-1.7-10.1-6.9
		C546.6,99.8,540.1,101.1,539.5,101.1z M542.7,79.5c-0.4-0.2-0.5-0.5-0.5-0.8c0-0.5,0.5-1.1,1.1-1.1c0.7,0,2.3,1.1,2.4,1.2
		c1.4-1.5,3.1-3.9,4-5.9c0.1-0.3,0.4-0.5,0.7-0.6h-9.1c-0.7,0-1.1-0.5-1.1-1c0-0.5,0.4-1.1,1.1-1.1h9.6l0-5.6c0-0.7,0.6-1.1,1.2-1.1
		c0.6,0,1.2,0.4,1.2,1.1l0,5.6h10.3c0.7,0,1,0.5,1,1c0,0.5-0.3,1.1-1,1.1H551c0.5,0.1,1,0.6,1,1.1c0,0.9-2.9,4.7-4.7,6.6
		c1.4,1.1,2.9,2.4,4,3.6c2.1-2.2,3.6-4.7,4.9-7.3c0.2-0.4,0.5-0.6,0.9-0.6c0.6,0,1.2,0.5,1.2,1.1c0,0.2,0,0.4-0.1,0.5
		c-3.5,6.6-8.5,12.3-17.3,15.6c-0.2,0-0.3,0.1-0.4,0.1c-0.7,0-1.1-0.6-1.1-1.1c0-0.4,0.2-0.8,0.7-1c4-1.4,7.2-3.4,9.8-5.8
		C547.8,83,544.9,80.7,542.7,79.5z"/>
	<path d="M578.4,99.8c-1.1,0-2.1-1-2.1-2c0-1.3,1-2.2,2.1-2.2c1.1,0,2.2,0.7,2.2,2.1C580.6,99.2,579.3,99.8,578.4,99.8z M578.4,90.7
		c-0.6,0-1.1-0.4-1.1-1.1v-1.6c0-4.7-0.3-15-0.4-20.7v-0.1c0-1,0.7-1.5,1.5-1.5c0.8,0,1.6,0.6,1.6,1.7c0,5.2-0.4,16.7-0.4,21.2v1
		C579.6,90.3,579,90.7,578.4,90.7z"/>
	<g>
		<path d="M221,29.9c-0.9-3.6-2.7-7.6-4.7-10.6c-0.1-0.2-0.2-0.4-0.2-0.5c0-0.6,0.5-1,1.1-1c0.4,0,0.7,0.2,1,0.5
			c2,2.5,5.3,9.5,5.3,11.2c0,0.9-0.7,1.4-1.4,1.4C221.6,31,221.1,30.7,221,29.9z"/>
		<g>
			<path d="M200.6,31.7c-0.6,0-1.2-0.4-1.2-1.1c0-0.3,0.1-0.6,0.4-0.9c2.3-2.9,4.3-7.6,5.1-11.1c0.1-0.5,0.6-0.7,1-0.7
				c0.6,0,1.2,0.4,1.2,1.1c0,1.4-2.6,8.5-5.3,12.1C201.5,31.5,201,31.7,200.6,31.7z"/>
			<path d="M210.8,11.2h-5.9c-2.8,5.4-3.8,5.6-4.2,5.6c-0.6,0-1.1-0.4-1.1-1c0-0.2,0.1-0.5,0.3-0.7c2.8-3.3,5.1-8.7,6-12.6
				c0.1-0.6,0.6-0.8,1.1-0.8c0.6,0,1.2,0.4,1.2,1.1c0,0.5-0.9,3.3-2.3,6.3h6.1l9.6,0c0.7,0,1.1,0.5,1.1,1.1c0,0.6-0.4,1.1-1.1,1.1
				h-8.6v17.9l0.1,3.4v0.4c0,2.2-0.7,4.9-5.2,4.9c-4,0-4.2-1-4.2-1.5c0-0.7,0.4-1.3,1.1-1.3c0.1,0,0.2,0,0.3,0
				c1.2,0.2,2.2,0.4,2.9,0.4c2,0,2.8-0.9,2.8-3.3V11.2z"/>
			<path d="M192.5,37.5l0.6-23.9c-1.2,1.7-4.9,6.7-6.4,6.7c-0.7,0-1.1-0.5-1.1-1.1c0-0.3,0.1-0.6,0.4-0.9
				c4.4-4.1,8.7-10.1,11.1-16.4c0.2-0.5,0.6-0.7,1-0.7c0.7,0,1.4,0.6,1.4,1.3c0,0.7-1.9,4.2-4.1,7.7l-0.5,27.4
				c0,0.7-0.7,1.1-1.3,1.1C193.1,38.6,192.5,38.3,192.5,37.5L192.5,37.5z"/>
		</g>
	</g>
	<g>
		<path d="M165.2,92.8c-0.9-3.6-2.7-7.6-4.7-10.6c-0.1-0.2-0.2-0.4-0.2-0.5c0-0.6,0.5-1,1.1-1c0.4,0,0.7,0.2,1,0.5
			c2,2.5,5.3,9.5,5.3,11.2c0,0.9-0.7,1.4-1.4,1.4C165.8,93.8,165.3,93.5,165.2,92.8z"/>
		<g>
			<path d="M144.8,94.5c-0.6,0-1.2-0.4-1.2-1.1c0-0.3,0.1-0.6,0.4-0.9c2.3-2.9,4.3-7.6,5.1-11.1c0.1-0.5,0.6-0.7,1-0.7
				c0.6,0,1.2,0.4,1.2,1.1c0,1.4-2.6,8.5-5.3,12.1C145.7,94.4,145.2,94.5,144.8,94.5z"/>
			<path d="M155,74.1h-5.9c-2.8,5.4-3.8,5.6-4.2,5.6c-0.6,0-1.1-0.4-1.1-1c0-0.2,0.1-0.5,0.3-0.7c2.8-3.3,5.1-8.7,6-12.6
				c0.1-0.6,0.6-0.8,1.1-0.8c0.6,0,1.2,0.4,1.2,1.1c0,0.5-0.9,3.3-2.3,6.3h6.1l9.6,0c0.7,0,1.1,0.5,1.1,1.1c0,0.6-0.4,1.1-1.1,1.1
				h-8.6V92l0.1,3.4v0.4c0,2.2-0.7,4.9-5.2,4.9c-4,0-4.2-1-4.2-1.5c0-0.7,0.4-1.3,1.1-1.3c0.1,0,0.2,0,0.3,0
				c1.2,0.2,2.2,0.4,2.9,0.4c2,0,2.8-0.9,2.8-3.3V74.1z"/>
			<path d="M136.7,100.4l0.6-23.9c-1.2,1.7-4.9,6.7-6.4,6.7c-0.7,0-1.1-0.5-1.1-1.1c0-0.3,0.1-0.6,0.4-0.9
				c4.4-4.1,8.7-10.1,11.1-16.4c0.2-0.5,0.6-0.7,1-0.7c0.7,0,1.4,0.6,1.4,1.3c0,0.7-1.9,4.2-4.1,7.7l-0.5,27.4
				c0,0.7-0.7,1.1-1.3,1.1C137.3,101.5,136.7,101.2,136.7,100.4L136.7,100.4z"/>
		</g>
	</g>
</g>
</svg>
