<svg xmlns="http://www.w3.org/2000/svg" width="388.3" height="101" style="overflow:visible;enable-background:new 0 0 388.3 101" xml:space="preserve">
    <path d="M50.5 33.7c0-.4.2-.7.6-1 1.4-1.1 3.4-3.8 3.9-6.1.1-.6.6-.9 1.1-.9.6 0 1.1.4 1.1 1.1 0 2.2-3.3 8-5.4 8-.7 0-1.3-.5-1.3-1.1zm19.6-17.2v4.6h11.2c2.8 0 4.1 1.5 4.1 3.7 0 .6-.8 11.8-10.1 11.8-1.7 0-3.6-.4-5.8-1.1-.5-.2-.7-.6-.7-1.1 0-.6.4-1.2 1.1-1.2.1 0 .3 0 .5.1 1.9.7 3.6 1.1 5.2 1.1 6.8 0 7.4-9.1 7.4-9.2 0-1.5-.8-2.2-2.2-2.2H59.7c-2.8 0-4.3-1.2-4.3-3.3 0-1.8-.1-5.6-.1-9V4.8c0-1.7 1.3-3.4 3.9-3.4h23.3c.7 0 1 .5 1 1s-.3 1-.9 1H70.1v4.7h10.7c.6 0 .8.4.8.9 0 .4-.3.9-.8.9H70.1v4.6h10.7c.6 0 .8.4.8.9 0 .4-.3.9-.8.9H70.1zM67.9 10H57.5v4.6h10.4V10zm0 6.5H57.5c0 3.8 0 4.6 2.6 4.6h7.7v-4.6zm0-13.1h-8.3c-1.3 0-2 1-2 2v2.7h10.3V3.4zm-6 28.7c0-1.7-.8-4.1-1.3-5.4v-.3c0-.5.5-.8 1.1-.8.3 0 .7.1.9.4.8 1.1 1.7 4.9 1.7 5.7 0 .9-.7 1.3-1.3 1.3-.7.1-1.1-.2-1.1-.9zm8.4-1.1c-.4 0-.7-.2-.8-.7-.6-1.8-1.4-3-2.2-3.9-.2-.1-.3-.3-.3-.4 0-.5.6-.9 1.2-.9 1.3 0 3.3 4.1 3.3 4.6.1.7-.6 1.3-1.2 1.3zm7.5-1.4c-.3 0-.6-.2-.8-.5-.6-1.3-1.7-2.4-2.7-3.2-.2-.1-.2-.3-.2-.4 0-.4.5-.9 1.1-.9.7 0 3.8 2.5 3.8 3.9 0 .6-.7 1.1-1.2 1.1zM94.9 34.9c-.7 0-1.1-.6-1.1-1.1 0-.5.4-1.1 1.1-1.1h15.2V1.3c0-.8.6-1.2 1.2-1.2.7 0 1.3.4 1.3 1.2V14H126c.7 0 1.1.6 1.1 1.1 0 .6-.4 1.1-1.1 1.1h-13.4v16.5h17.2c.7 0 1 .6 1 1.1 0 .6-.4 1.1-1 1.1H94.9zM150.4 8.3c2.9 0 4.4 1.7 4.4 4.4V15c0 15.6-1.8 19.8-7.2 19.8-1.1 0-2.2-.2-3.5-.5-.6-.1-.8-.7-.8-1.1 0-.6.4-1.2 1.1-1.2.1 0 .3 0 .4.1.9.3 1.8.5 2.6.5 2.2 0 5-.7 5-17v-2.5c0-1.7-1-2.7-2.6-2.7h-2.9v1.3c-.5 8.3-2.2 17.7-8.8 24.2-.3.3-.7.4-1 .4-.7 0-1.3-.5-1.3-1.1 0-.3.1-.6.4-.8 6.3-6.1 7.9-14.6 8.3-22.4l.1-1.5c-1.9 0-3.9.1-5.7.1-.6 0-.9-.5-.9-1s.4-1.1 1-1.1l5.8-.1V.9c0-.7.6-1 1.1-1 .7 0 1.3.4 1.3 1 0 2.4 0 4.8-.1 7.3h3.3zm22.5 2.1c.1 3.1.2 6.6.2 10.1 0 3.6-.1 7.1-.2 10.4-.1 2.5-2 3.9-4.4 4-.9 0-1.7.1-2.5.1-.7 0-1.5 0-2.5-.1-2.6-.1-4.3-1.6-4.3-4-.1-3.3-.1-6.8-.1-10.2s0-6.9.1-10.2c.1-4.2 3.9-4.2 6.8-4.2.9 0 1.8 0 2.7.1 2.6 0 4.1 1.7 4.2 4zm-2.1 9.9c0-3.5 0-6.9-.1-9.5-.1-2.6-1.8-2.6-4.9-2.6-2.2 0-4.1.1-4.2 2.5-.1 2.5-.1 5.7-.1 9 0 3.7 0 7.5.1 10.5 0 2.3 1.7 2.6 4.5 2.6 4 0 4.6-.7 4.6-2.6 0-2.9.1-6.4.1-9.9zM190.1 3.9c-.7 0-1.1-.6-1.1-1.1 0-.6.4-1.2 1.1-1.2 1.9 0 5.3-.1 7.1-.1h.1c2.4 0 4.1 1.3 4.1 3.4.1 10.6 6.7 22.7 16.6 28 .6.3.8.7.8 1.2 0 .8-.7 1.5-1.5 1.5-1.5 0-13.1-7.9-17-22.9-3.9 17.9-16.9 23.4-17.7 23.4-.8 0-1.4-.7-1.4-1.4 0-.4.2-.9.8-1.1 11.7-5.6 16.7-17.9 17.2-28.4-.2-.9-.8-1.4-2.4-1.4h-.2l-6.5.1zM224.7 31.5h1.7c.4 0 .8-.4.8-.9 0-4.3.1-12.2.1-18.7V5.6c0-.6-.4-.8-.8-.8h-1.8c-.3 0-1.4 0-1.4-1.3 0-.6.4-1.2 1.3-1.2h.1c1 0 2.2.1 3.5.1 1.5 0 3 0 4.4-.1 1.3 0 1.4 1.1 1.4 1.3 0 .6-.4 1.2-1.3 1.2H230.8c-.5 0-.8.3-.8.8 0 3.2-.1 8-.1 12.8v12.1c0 1 .5 1 2.7 1h7.5c1.8 0 2.7-.7 3.3-1.8.4-.8 1-2.1 1.2-2.9.2-.7.7-1 1.3-1 .7 0 1.4.5 1.4 1.3 0 .2 0 .4-.1.6-1.1 3.4-2.1 6.2-6.8 6.2h-.2c-3.2 0-6.7-.1-9.7-.1-2.2 0-4.4 0-5.8.1-.4 0-1.4 0-1.4-1.3.1-.5.5-1.1 1.4-1.1zM254.6 31.5h1.9c.6 0 .9-.3.9-.8.1-4.4.1-9 .1-13.5 0-4 0-7.8-.1-11.4 0-.5-.3-.9-.8-.9h-2c-.3 0-1.4 0-1.4-1.3 0-.6.4-1.2 1.3-1.2h.1c1 0 2.3.1 3.7.1 1.6 0 3.3 0 4.7-.1 1.3 0 1.4 1.1 1.4 1.3 0 .6-.4 1.2-1.3 1.2H261c-.6 0-.8.4-.8.9v24.9c0 .4.2.8.8.8h2c1.1 0 1.4 1 1.4 1.3 0 .6-.4 1.3-1.3 1.3h-.1c-1.2 0-2.5-.1-3.9-.1-1.7 0-3.3 0-4.5.1-.7 0-1.4-.3-1.4-1.3 0-.7.4-1.3 1.4-1.3zM302.2 31.3c0 1.9-1.4 3.2-3 3.2-1.1 0-2.1-.5-2.9-1.7-3.3-5.4-13.1-21.8-15.6-26.2-.4-.6-.6-.8-.7-.8-.3 0-.4.2-.4 10.9 0 4.9 0 10.4.1 14 0 .5.3.9.8.9h1.6c.7 0 1.4.5 1.4 1.3 0 .7-.4 1.3-1.3 1.3h-.1c-1.2 0-2.4-.1-3.6-.1-1.4 0-2.8 0-4 .1-1.3 0-1.4-1-1.4-1.3 0-.7.4-1.3 1.3-1.3H276.1c.4 0 .8-.3.8-.9 0-3.7.1-7.7.1-11.7 0-4.8 0-9.5-.1-13.1 0-.7-.3-1-.7-1h-1.6c-.3 0-1.4 0-1.4-1.3 0-.6.4-1.2 1.3-1.2h4.4c1.4 0 2.8.8 3.6 2.3 2.9 4.8 12.2 20.7 15.4 25.6.3.4.6.7.9.7.7 0 .7-.4.7-4.6 0-5.4 0-15.6-.1-20.6 0-.6-.3-1-.8-1h-1.7c-.3 0-1.4 0-1.4-1.3 0-.6.4-1.2 1.3-1.2h.1c1 0 2.2.1 3.3.1 1.4 0 2.9 0 4.3-.1.3 0 1.4 0 1.4 1.2 0 .7-.4 1.3-1.3 1.3H303c-.6 0-.8.4-.8.9v9.7c-.1 5.8-.1 11.8 0 15.9zM315.7 4.9c-.9 0-1.3-.6-1.3-1.2s.4-1.2 1.3-1.2c1.8.1 3.6.1 5.4.1 3 0 6 0 8.9-.1 2.8 0 4.6.7 5.4 3.1.4 1 .8 2.4.8 2.8 0 .8-.7 1.3-1.4 1.3-.5 0-1.1-.4-1.2-1.1-.1-.7-.4-1.3-.7-2.1-.4-1.1-1.3-1.6-3.1-1.7h-8.1c-.6 0-1 .3-1 1v10.1c0 .4.2.6.7.6h4c3 0 3.7 0 3.7-1v-1.6c0-1 .7-1.3 1.2-1.3.6 0 1.2.4 1.2 1.2v.1c0 1.1-.1 2.2-.1 3.4 0 1.4 0 2.9.1 4.2 0 .7-.4 1.3-1.2 1.3-.6 0-1.2-.4-1.2-1.2V19.7c0-.5-.4-.9-.9-.9h-6.8c-.4 0-.6.1-.6.6v11.3c0 .6.4.9 1 1h4.7c5.7 0 6.7 0 7.4-1.8.2-.5.7-1.4.8-2.2.2-.7.7-1 1.2-1 .7 0 1.3.5 1.3 1.3 0 .1 0 .4-.1.5-1.1 3.5-1.8 5.6-6.3 5.6h-.2c-3.4 0-7.2-.1-10.3-.1-1.9 0-3.6 0-4.9.1-1.1 0-1.4-1-1.4-1.3 0-.6.4-1.3 1.3-1.3H317.2c.4 0 .8-.3.8-.8.1-5.8.1-18.5.1-25 0-.6-.4-.9-.9-.9s-.9.1-1.5.1zM1.1 99C.4 99 0 98.4 0 97.9s.4-1.1 1.1-1.1h16.4V87H7.7c-.7 0-1-.5-1-1.1 0-.5.4-1.1 1-1.1h9.8v-8.7H7.9c-1.5 2.8-3.2 5.4-5.2 7.8-.4.5-.8.7-1.2.7-.7 0-1.2-.5-1.2-1.1 0-.3.1-.6.4-.8 2.9-3.3 6.5-8.9 8.3-15.2.2-.6.7-.9 1.2-.9.7 0 1.4.4 1.4 1.1 0 .5-1.4 4-2.5 6.3h8.5v-9c0-.8.6-1.2 1.2-1.2s1.2.4 1.2 1.2v9.2h13.4c.7 0 1.1.5 1.1 1.1 0 .5-.4 1.1-1.1 1.1H20V85h10.3c.7 0 1.1.5 1.1 1.1 0 .6-.4 1.1-1.1 1.1H20V97h16.2c.7 0 1.1.5 1.1 1.1 0 .5-.4 1.1-1.1 1.1H1.1zM66.7 72.4c.3 5.2 1 10.8 2.6 15.7 2-3 3.6-6.4 4.7-10 .2-.5.6-.7 1-.7.7 0 1.4.5 1.4 1.2 0 .2-1.9 6.4-6.1 12 1.3 3 3.9 7 5.8 7 1.2 0 2.2-1.5 3-4.3.2-.6.6-.8 1.1-.8.6 0 1.3.5 1.3 1.2 0 .3-1.3 6.2-5.4 6.2-1.5 0-4.2-.8-7.3-7.5-5.9 6.8-12.7 8.2-12.7 8.2-.7 0-1.1-.6-1.1-1.2 0-.5.2-.9.8-1.1 5.1-1.5 9.1-4.4 12.1-8.2-2-5.3-3-11.4-3.5-17.8H52.9c-2.2 0-2.9 1.1-2.9 2.8v3.5h6.8c3.9.1 4.1 2.7 4.1 5.2 0 4.9-.7 9-6.4 9-2.4 0-3.3-.4-3.3-1.4 0-.6.4-1.1 1-1.1h.3c.6.2 1.4.3 2.2.3 4 0 4-3.4 4-6.9 0-1.5 0-2.9-2.2-3H50c0 6.4-.5 13.1-4.2 18.7-.4.5-.8.7-1.3.7-.7 0-1.3-.4-1.3-1.1 0-.2.1-.4.3-.7 3.6-5 4.2-11.3 4.2-17.4 0-2.2-.1-4.5-.1-6.6v-.1c0-2.3 1.4-4 4.4-4h12.3c-.2-3-.3-5.8-.3-6.4 0-.6.6-1 1.2-1s1.2.4 1.2 1.1c0 1.9 0 4.1.1 6.3h12.2c.7 0 1 .5 1 1.1 0 .5-.3 1.1-.9 1.1H66.7zm7.2-4.1c-1.4-1.3-3.1-2.2-4.4-2.7-.4-.2-.6-.5-.6-.8 0-.5.4-1.1 1.1-1.1 1.1 0 4.7 2.2 5.4 2.8.4.3.5.7.5 1 0 .6-.5 1.2-1.2 1.2-.1 0-.4-.2-.8-.4zM135.8 99.8l.5-22.8c-3.4 5.6-4.3 5.9-4.8 5.9-.6 0-1.1-.4-1.1-1 0-.3.1-.5.3-.8 4-5 7.1-10.6 8.9-17.2.2-.6.6-.9 1.1-.9.7 0 1.3.5 1.3 1.2 0 .5-1.4 4.3-3.4 8.3l-.5 27.1c0 .7-.7 1.1-1.2 1.1s-1.1-.1-1.1-.9zm7.5.1c.3-8.2.2-22.3.3-31.8 0-2.1.7-3.5 3.4-3.6h4c2 0 2.9 1.2 2.9 2.8 0 1.8.1 4 .1 6V77c-.1 3.2-1.8 3.4-5.2 3.4-1 0-1.9 0-3-.1v5.8c0 4 0 8.2-.2 13.7 0 .7-.6 1.1-1.1 1.1-.7.1-1.2-.3-1.2-1zm8.8-28.3c0-1.3 0-2.5-.1-3.5 0-1.5-.4-1.8-3-1.8-2.4 0-3.2.2-3.3 2.2v3.1h6.4zm-6.4 1.7v5.4c.9.1 1.9.1 2.8.1 3.6 0 3.6-.1 3.6-5.4h-6.4zm16.8 7.2c-5.3 0-5.7-.4-5.7-6.9 0-2.2.1-4.4.1-6.2.1-2.7 1.7-2.9 5-2.9 4 0 5.5.2 5.6 3.5 0 2.9.1 5.9.1 22v5.5c0 2.7-1 5.1-5.5 5.1-2.3 0-3.7-.2-3.7-1.4 0-.6.4-1.1 1-1.1h.2c1.1.2 1.9.3 2.7.3 2 0 3.1-.7 3.2-3.2V80.4c-1 .1-2.1.1-3 .1zm2.9-8.9c0-5.2 0-5.3-3.3-5.3h-1.6c-1.7.1-1.8.4-1.8 5.2h6.7zm-6.6 1.7c0 5.4 0 5.4 3.7 5.4 1 0 2.1 0 3-.1v-5.4h-6.7zM200 75.9c.3 2.8 1 5.8 2.1 8.6 2.2-1.3 4.5-2.8 6.5-4.6.2-.2.4-.3.7-.3.6 0 1.3.6 1.3 1.3 0 .3-.2.7-.5.9-2 1.5-4.8 3.2-7.2 4.4 2 4 5 7.5 9 8.8.6.2.9.7.9 1.1 0 .6-.5 1.2-1.3 1.2-.2 0-.4 0-.6-.1-7.2-2.5-12-12.6-12.8-21.4h-2.8c-1.2 1-2.4 1.9-3.6 2.8 4 2.7 6.5 8.9 6.5 13.8 0 3.6-1.2 8.2-7 8.2-2.2 0-3.8-.2-3.8-1.5 0-.6.4-1.1 1.1-1.1h.4c.8.2 1.7.4 2.5.4 3.5 0 4.6-3.1 4.6-6.4 0-1.1-.1-2.3-.4-3.5-7.9 7.5-17.2 9.4-17.6 9.4-.7 0-1.1-.5-1.1-1.1 0-.5.3-.9.8-1.1 6.6-1.4 12.3-4.7 17.2-9.4-.4-1-.8-2-1.3-2.9-7.5 5.6-15.2 7.2-15.4 7.2-.6 0-1-.6-1-1.1 0-.4.2-.8.7-.9 5.7-1.3 10.6-3.7 14.6-6.7-.7-1-1.6-1.8-2.6-2.4-5.4 3.3-10.3 4.3-10.7 4.3-.7 0-1-.5-1-1.1 0-.4.2-.8.7-.9 5.2-1.3 9.6-3.2 13.5-6.1l-8.8.1c-.7 0-1-.5-1-.9 0-.5.4-1 1-1h21.2c.7 0 1 .5 1 1s-.3 1-1 1H200zm8.8-3.9c0-1.5-.7-2.5-2.9-2.5H183c-2.5 0-2.9 1-3 2.4v3.2c0 .7-.6 1-1.2 1-1.1 0-1.2-.5-1.2-2.8v-2c0-1.7 1.1-3.6 4.6-3.7h11.1v-3.9c0-.7.6-1.1 1.3-1.1.6 0 1.2.4 1.2 1.1v3.9h11.1c2.9 0 4.5 1.7 4.5 3.8v1.8c0 2.1 0 2.7-1.3 2.7-.6 0-1.2-.3-1.2-1V72zM226 70.5c.7-1.9 1.5-4.4 1.8-6.2.1-.7.6-1 1.1-1 .7 0 1.3.4 1.3 1.1 0 .5-1.1 3.7-2.1 6.2 2.5 0 5.7 0 5.8 3.4 0 2.5.1 5.4.1 8.3 0 3.6 0 7.1-.1 10-.1 3.8-3.3 3.9-6.3 3.9-2.9 0-6.2-.1-6.2-3.9V74.1c0-1.9 1.3-3.4 4-3.5l.6-.1zm5.7 11.1c0-2.7 0-5.3-.1-7.2 0-1.2-.9-1.9-2.1-2h-3.6c-1.3 0-2.3.6-2.3 2v7.2h8.1zm-8.2 1.9v8.3c0 1.8 1.3 2.2 4 2.2 2.4 0 4-.1 4-2.2 0-2.3.1-5.3.1-8.3h-8.1zm17-11c-2.9 6.2-4 6.5-4.5 6.5-.6 0-1.1-.4-1.1-1 0-.2.1-.5.3-.7 2.9-3.6 5.3-9.4 6.1-13.4.1-.6.6-.8 1.1-.8.6 0 1.3.4 1.3 1.1 0 .4-.7 3-2.2 6.4 2.4 0 6.4-.1 8.6-.1 3.2 0 5.1 1.9 5.2 4.6.1 1.5.2 3.6.2 5.8 0 16.3-4.3 19.6-10.2 19.6-1.3 0-2.8-.2-4.3-.5-.6-.1-.9-.7-.9-1.2 0-.6.4-1.2 1.1-1.2h.4c1.3.3 2.5.5 3.6.5 4.7 0 8-3.2 8-17.4 0-5.6 0-8-3.5-8h-9.2zm4.4 14.2c-1.5-1.9-4-3.6-6.3-4.7-.4-.2-.5-.4-.5-.7 0-.6.5-1.1 1.2-1.1 1.1 0 7.6 3.7 7.6 5.7 0 .7-.6 1.4-1.3 1.4-.1-.2-.4-.3-.7-.6zM298.8 79.7c-1.5 0-9.4-6.2-14.6-12-.7-.8-1.3-1.2-1.9-1.2-.6 0-1.2.4-1.8 1.2-5.5 7-13.4 13.3-15 13.3-.8 0-1.3-.6-1.3-1.2 0-.4.3-.9.8-1.2 5.3-2.7 10.5-8.1 13.9-12.5.9-1.1 2-1.8 3.3-1.8 1.1 0 2.3.6 3.4 1.7 4.4 4.7 8.7 8.5 14 11.2.5.3.7.7.7 1.1 0 .7-.7 1.4-1.5 1.4zM266.3 99c-.7 0-1.1-.5-1.1-1.1s.4-1.1 1.1-1.1h14.8V89h-9.7c-.7 0-1.1-.5-1.1-1.1 0-.5.4-1.1 1.1-1.1h9.7v-6.9h-9.7c-.7 0-1.1-.5-1.1-1.1 0-.5.4-1.1 1.1-1.1h22.1c.7 0 1.1.5 1.1 1.1 0 .5-.4 1.1-1.1 1.1h-9.9v6.9h9.6c.7 0 1.1.5 1.1 1.1 0 .5-.4 1.1-1.1 1.1h-9.6v7.8h14.9c.7 0 1.1.5 1.1 1.1s-.4 1.1-1.1 1.1h-32.2zM331.8 75.9c.3 2.8 1 5.8 2.1 8.6 2.2-1.3 4.5-2.8 6.5-4.6.2-.2.4-.3.7-.3.6 0 1.3.6 1.3 1.3 0 .3-.2.7-.5.9-2 1.5-4.8 3.2-7.2 4.4 2 4 5 7.5 9 8.8.6.2.9.7.9 1.1 0 .6-.5 1.2-1.3 1.2-.2 0-.4 0-.6-.1-7.2-2.5-12-12.6-12.8-21.4h-2.8c-1.2 1-2.4 1.9-3.6 2.8 4 2.7 6.5 8.9 6.5 13.8 0 3.6-1.2 8.2-7 8.2-2.2 0-3.8-.2-3.8-1.5 0-.6.4-1.1 1.1-1.1h.4c.8.2 1.7.4 2.5.4 3.5 0 4.6-3.1 4.6-6.4 0-1.1-.1-2.3-.4-3.5-7.9 7.5-17.2 9.4-17.6 9.4-.7 0-1.1-.5-1.1-1.1 0-.5.3-.9.8-1.1 6.6-1.4 12.3-4.7 17.2-9.4-.4-1-.8-2-1.3-2.9-7.5 5.6-15.2 7.2-15.4 7.2-.6 0-1-.6-1-1.1 0-.4.2-.8.7-.9 5.7-1.3 10.6-3.7 14.6-6.7-.7-1-1.6-1.8-2.6-2.4-5.4 3.3-10.3 4.3-10.7 4.3-.7 0-1-.5-1-1.1 0-.4.2-.8.7-.9 5.2-1.3 9.6-3.2 13.5-6.1l-8.8.1c-.7 0-1-.5-1-.9 0-.5.4-1 1-1h21.2c.7 0 1 .5 1 1s-.3 1-1 1h-4.8zm8.8-3.9c0-1.5-.7-2.5-2.9-2.5h-22.9c-2.5 0-2.9 1-3 2.4v3.2c0 .7-.6 1-1.2 1-1.1 0-1.2-.5-1.2-2.8v-2c0-1.7 1.1-3.6 4.6-3.7h11.1v-3.9c0-.7.6-1.1 1.3-1.1.6 0 1.2.4 1.2 1.1v3.9h11.1c2.9 0 4.5 1.7 4.5 3.8v1.8c0 2.1 0 2.7-1.3 2.7-.6 0-1.2-.3-1.2-1V72zM357.7 83.1c-2.5 2.5-5.3 4.7-6.2 4.7-.7 0-1.1-.6-1.1-1.2 0-.4.2-.7.6-1 7.7-4.7 11-11.6 11-12.8 0-.5-.3-.7-.8-.7-2.3 0-5.6.1-8.1.2-.6 0-1-.5-1-1s.4-1 1-1c1.5 0 3.1-.1 4.6-.1v-5.9c0-.7.6-1.1 1.1-1.1s1.1.4 1.1 1.1v5.8h1.9c1.8 0 2.7.8 2.7 2.2 0 2.4-3.2 6.6-4.3 8 .3.1 5.8 3 5.8 4.7 0 .7-.5 1.2-1.1 1.2-.3 0-.6-.1-.8-.4-1.1-1.4-2.9-2.8-4.4-3.7 0 5.6.1 17.8.1 17.8 0 .7-.5 1-1.1 1-.6 0-1.1-.4-1.1-1l.1-16.8zm9.8-15.3c-.7 0-1.1-.5-1.1-1.1 0-.5.4-1 1.1-1h19.8c.7 0 1 .5 1 1s-.3 1.1-1 1.1h-19.8zM383 99.9c-1.6 0-3.6.1-5.5.1-2 0-4 0-5.5-.1-3.1-.1-4.6-1.7-4.7-4.1v-8.6c0-2 1.3-3.9 4.7-4 1.6 0 3.5-.1 5.4-.1 1.9 0 3.9 0 5.6.1 3.3.1 4.7 1.9 4.8 4 0 1.4.1 3.2.1 4.9 0 1.2 0 2.5-.1 3.6-.2 2.3-1.6 4.1-4.8 4.2zm-5.8-19.5c-7.6 0-8.7-.2-8.7-4 0-5 .1-5.2 9.1-5.2 8.3 0 8.9 0 8.9 4.6 0 4.5-.6 4.6-9.3 4.6zm-.9 4.7h-4c-1.9 0-2.8 1.1-2.9 2.7v2.7h6.9v-5.4zm0 7.1h-6.9v3.2c.1 2.7 1.8 2.7 6.9 2.7v-5.9zM370.7 77c0 1.4.8 1.5 7.3 1.5 6.3 0 6.3 0 6.3-2.7v-1.3c-.1-1.4-.6-1.4-7.2-1.4-5.1 0-6.3 0-6.4 1.4V77zm15 13.5c0-3.8-.2-5.3-3-5.4h-4.2v5.4h7.2zm-7.2 1.7v5.9c1.6 0 3.2 0 4.3-.1 2.7-.1 2.9-1.7 2.9-5.8h-7.2zM123.3 91.8c-.9-3.6-2.7-7.6-4.7-10.6-.1-.2-.2-.4-.2-.5 0-.6.5-1 1.1-1 .4 0 .7.2 1 .5 2 2.5 5.3 9.5 5.3 11.2 0 .9-.7 1.4-1.4 1.4-.5 0-.9-.3-1.1-1zM102.9 93.5c-.6 0-1.2-.4-1.2-1.1 0-.3.1-.6.4-.9 2.3-2.9 4.3-7.6 5.1-11.1.1-.5.6-.7 1-.7.6 0 1.2.4 1.2 1.1 0 1.4-2.6 8.5-5.3 12.1-.3.4-.7.6-1.2.6z"/>
    <path d="M113.2 73.1h-5.9c-2.8 5.4-3.8 5.6-4.2 5.6-.6 0-1.1-.4-1.1-1 0-.2.1-.5.3-.7 2.8-3.3 5.1-8.7 6-12.6.1-.6.6-.8 1.1-.8.6 0 1.2.4 1.2 1.1 0 .5-.9 3.3-2.3 6.3H124c.7 0 1.1.5 1.1 1.1 0 .6-.4 1.1-1.1 1.1h-8.6V91l.1 3.4v.4c0 2.2-.7 4.9-5.2 4.9-4 0-4.2-1-4.2-1.5 0-.7.4-1.3 1.1-1.3h.3c1.2.2 2.2.4 2.9.4 2 0 2.8-.9 2.8-3.3V73.1zM94.9 99.4l.6-23.9c-1.2 1.7-4.9 6.7-6.4 6.7-.7 0-1.1-.5-1.1-1.1 0-.3.1-.6.4-.9 4.4-4.1 8.7-10.1 11.1-16.4.2-.5.6-.7 1-.7.7 0 1.4.6 1.4 1.3 0 .7-1.9 4.2-4.1 7.7l-.5 27.4c0 .7-.7 1.1-1.3 1.1-.6-.1-1.1-.5-1.1-1.2z"/>
</svg>
