<!-- Generator: Adobe Illustrator 25.0.0, SVG Export Plug-In  -->
<svg version="1.1" xmlns="http://www.w3.org/2000/svg" xmlns:xlink="http://www.w3.org/1999/xlink" x="0px" y="0px" width="325.8px"
	 height="42px" viewBox="0 0 325.8 42" style="overflow:visible;enable-background:new 0 0 325.8 42;" xml:space="preserve">
<style type="text/css">
	.st0{fill:#FFFFFF;}
</style>
<defs>
</defs>
<g>
	<g>
		<path class="st0" d="M26.4,42c-0.5,0-1-0.2-1.4-0.6c-0.4-0.4-0.6-0.8-0.6-1.4v-6.2h-8c-0.7,2.2-2,3.9-3.7,5.1
			c-1.8,1.2-4.1,2.1-7.1,2.6c-0.6,0.1-1.1,0.1-1.5-0.2c-0.5-0.2-0.8-0.6-0.8-1.2c-0.1-0.5,0-1,0.4-1.4c0.3-0.4,0.8-0.6,1.4-0.7
			c2-0.3,3.6-0.8,4.9-1.5c1.2-0.7,2.1-1.6,2.7-2.8H1.6c-0.5,0-0.9-0.2-1.2-0.5C0.2,33,0,32.6,0,32.2c0-0.4,0.2-0.8,0.5-1.1
			c0.3-0.3,0.7-0.5,1.2-0.5h11.8c0.1-0.4,0.1-0.8,0.1-1.2c0-0.4,0-0.9,0.1-1.3c-1.8-0.1-3.1-0.4-4.1-0.8c-1-0.5-1.7-1.2-2.1-2.1
			c-0.4-1-0.6-2.2-0.6-3.8v-3.2c0-1.7,0.2-3.1,0.7-4c0.5-1,1.3-1.7,2.5-2.1c1.2-0.4,2.9-0.6,5-0.6h3.5c-0.2-0.3-0.4-0.7-0.4-1.1
			c0-0.4,0.1-0.7,0.4-1c0.6-0.6,1.2-1.5,1.8-2.4c0.6-1,1.2-2,1.8-3c0.6-1,1.1-1.9,1.4-2.7c0.2-0.5,0.6-0.8,1.1-1
			c0.5-0.2,1-0.1,1.4,0.1c0.5,0.2,0.8,0.6,1,1c0.1,0.4,0.1,0.9-0.1,1.3C27,2.8,26.9,3,26.8,3.2c-0.1,0.2-0.2,0.5-0.3,0.7h12
			c0.5,0,0.9,0.2,1.2,0.5C39.9,4.7,40,5.1,40,5.5c0,0.4-0.2,0.8-0.5,1.1c-0.3,0.3-0.7,0.5-1.2,0.5h-6.7c0.1,0.4,0.3,0.7,0.4,1
			c0.1,0.3,0.2,0.6,0.3,0.9c0.2,0.5,0.2,0.9,0,1.4c-0.2,0.5-0.5,0.8-1.1,0.9c-0.5,0.2-1,0.2-1.4,0c-0.5-0.2-0.8-0.5-0.9-1
			c-0.1-0.5-0.3-1-0.5-1.6c-0.2-0.6-0.4-1.1-0.6-1.6h-3.2c-0.5,0.7-0.9,1.5-1.4,2.2c-0.5,0.7-0.9,1.3-1.4,1.9c0,0.1-0.1,0.1-0.2,0.2
			h4.6c2.2,0,3.9,0.2,5,0.6c1.2,0.4,2,1.1,2.5,2.1c0.5,1,0.7,2.3,0.7,4v3.2c0,1.5-0.2,2.7-0.5,3.7c-0.4,0.9-1,1.6-1.9,2.1
			c-0.9,0.5-2.1,0.8-3.7,0.9v2.6h10.9c0.4,0,0.8,0.2,1.1,0.5c0.3,0.3,0.5,0.7,0.5,1.1c0,0.5-0.2,0.9-0.5,1.2
			c-0.3,0.3-0.7,0.5-1.1,0.5H28.3V40c0,0.6-0.2,1-0.6,1.4C27.4,41.8,27,42,26.4,42z M1.2,11.5c-0.4-0.3-0.7-0.7-0.7-1.2
			c0-0.5,0.1-0.9,0.5-1.3c0.6-0.6,1.2-1.4,1.9-2.3c0.7-0.9,1.4-1.9,2.1-2.9c0.7-1,1.2-1.9,1.6-2.6c0.3-0.5,0.6-0.8,1.1-0.9
			C8.2,0,8.7,0,9.1,0.3c0.5,0.2,0.8,0.6,0.9,1c0.1,0.4,0.1,0.9-0.1,1.3C9.8,2.8,9.7,3,9.5,3.2C9.4,3.4,9.3,3.7,9.1,3.9h9.8
			c0.4,0,0.8,0.2,1.1,0.5c0.3,0.3,0.5,0.7,0.5,1.1c0,0.4-0.2,0.8-0.5,1.1c-0.3,0.3-0.7,0.5-1.1,0.5h-5.1C13.9,7.4,14,7.7,14.2,8
			c0.1,0.3,0.2,0.6,0.3,0.8c0.1,0.5,0.1,0.9,0,1.4c-0.2,0.5-0.5,0.8-1.1,0.9c-0.5,0.1-1,0.1-1.4,0c-0.5-0.2-0.8-0.5-0.9-1
			c-0.1-0.4-0.3-0.9-0.5-1.5c-0.2-0.6-0.4-1.1-0.6-1.6H7C6.5,7.8,6,8.5,5.5,9.2c-0.5,0.7-1,1.3-1.5,1.8c-0.4,0.4-0.8,0.6-1.3,0.8
			C2.1,11.9,1.7,11.8,1.2,11.5z M10.8,20.5h19.8v-1.8H10.8V20.5z M15.1,25.1h11.1c1.4,0,2.4-0.1,3-0.4c0.6-0.2,1-0.8,1.1-1.6H10.9
			c0.2,0.8,0.6,1.4,1.2,1.6C12.7,25,13.7,25.1,15.1,25.1z M10.9,16.1h19.5c-0.2-0.8-0.6-1.3-1.2-1.5c-0.6-0.2-1.6-0.4-3-0.4H15.1
			c-1.4,0-2.3,0.1-3,0.4C11.5,14.9,11.1,15.4,10.9,16.1z M17.1,30.5h7.3v-2.5h-7.2C17.3,28.9,17.2,29.7,17.1,30.5z"/>
		<path class="st0" d="M59.1,39.8c-2.4,0-4.3-0.2-5.6-0.7c-1.4-0.5-2.3-1.3-2.9-2.4c-0.6-1.1-0.9-2.8-0.9-4.9v-6.5
			c0-0.6,0.2-1.1,0.6-1.5c0.4-0.4,0.9-0.6,1.5-0.6c0.6,0,1.1,0.2,1.5,0.6c0.4,0.4,0.6,0.9,0.6,1.5v6.3c0,1.2,0.2,2.2,0.5,2.8
			c0.3,0.6,0.9,1,1.6,1.2c0.8,0.2,1.9,0.3,3.3,0.3h6.6V20.8h-5.3c-2.4,0-4.3-0.2-5.6-0.7c-1.4-0.5-2.3-1.3-2.9-2.4s-0.9-2.8-0.9-4.9
			V6.4c0-0.6,0.2-1.1,0.6-1.5c0.4-0.4,0.9-0.6,1.5-0.6c0.6,0,1.1,0.2,1.5,0.6c0.4,0.4,0.6,0.9,0.6,1.5v6.2c0,1.2,0.2,2.2,0.5,2.8
			c0.3,0.6,0.9,1,1.6,1.2c0.8,0.2,1.9,0.3,3.3,0.3h5.1V3c0-0.6,0.2-1.1,0.6-1.5C66.9,1.2,67.4,1,68,1c0.6,0,1.1,0.2,1.5,0.6
			C69.8,1.9,70,2.4,70,3v13.9H75c1.4,0,2.5-0.1,3.3-0.3c0.8-0.2,1.3-0.6,1.6-1.2c0.3-0.6,0.5-1.5,0.5-2.8V6.4c0-0.6,0.2-1.1,0.6-1.5
			c0.4-0.4,0.9-0.6,1.5-0.6c0.6,0,1.1,0.2,1.5,0.6c0.4,0.4,0.6,0.9,0.6,1.5v6.4c0,2.1-0.3,3.7-0.8,4.9c-0.6,1.1-1.5,1.9-2.9,2.4
			c-1.4,0.5-3.2,0.7-5.6,0.7H70v15.1h6.5c1.4,0,2.5-0.1,3.3-0.3c0.8-0.2,1.3-0.6,1.6-1.2c0.3-0.6,0.5-1.5,0.5-2.8v-6.3
			c0-0.6,0.2-1.1,0.6-1.5c0.4-0.4,0.9-0.6,1.5-0.6c0.6,0,1.1,0.2,1.5,0.6c0.4,0.4,0.6,0.9,0.6,1.5v6.5c0,2.1-0.3,3.7-0.8,4.9
			c-0.6,1.1-1.5,1.9-2.9,2.4c-1.4,0.5-3.2,0.7-5.6,0.7H59.1z"/>
		<path class="st0" d="M97.6,17.8c-0.6,0.4-1.2,0.5-1.7,0.4c-0.5-0.1-1-0.4-1.3-0.9c-0.3-0.5-0.4-1-0.2-1.5c0.2-0.5,0.6-1,1.2-1.3
			c1.3-0.8,2.7-1.6,4.2-2.6c1.5-1,3-2,4.5-3.1c1.5-1.1,2.9-2.2,4.2-3.2c1.3-1,2.5-2,3.5-2.9c1.3-1.1,2.5-1.7,3.5-1.7
			c1,0,2.2,0.6,3.5,1.7c1.4,1.1,3,2.4,4.9,3.8c1.9,1.4,3.8,2.8,5.8,4.1c2,1.3,3.9,2.5,5.8,3.5c0.6,0.3,1,0.7,1.2,1.3
			c0.2,0.5,0.1,1.1-0.2,1.6c-0.3,0.6-0.8,0.9-1.4,1.1c-0.6,0.1-1.3,0-1.9-0.3c-1.9-1.1-3.8-2.3-5.8-3.6c-2-1.4-3.9-2.8-5.8-4.2
			c-1.8-1.5-3.5-2.8-4.8-4.1c-0.8-0.8-1.7-0.8-2.5,0c-1.1,1-2.3,2-3.6,3.1c-1.4,1.1-2.8,2.2-4.3,3.3c-1.5,1.1-3,2.2-4.5,3.2
			C100.3,16.2,98.9,17.1,97.6,17.8z M106.4,35.8c-1.6,0-3-0.2-3.9-0.5s-1.7-1-2.1-1.8c-0.4-0.9-0.6-2.1-0.6-3.6v-4.6
			c0-1.6,0.2-2.8,0.6-3.6c0.4-0.9,1.1-1.5,2.1-1.8s2.3-0.5,3.9-0.5c1.7,0,3,0.2,4,0.5s1.7,1,2.1,1.8c0.4,0.9,0.6,2.1,0.6,3.6v4.6
			c0,1.5-0.2,2.7-0.6,3.6c-0.4,0.9-1.1,1.5-2.1,1.8S108.1,35.8,106.4,35.8z M106.4,32.3c1.1,0,1.9-0.2,2.3-0.6
			c0.4-0.4,0.6-1.2,0.6-2.4v-3.6c0-1.2-0.2-2-0.6-2.4c-0.4-0.4-1.1-0.6-2.3-0.6c-1.1,0-1.8,0.2-2.2,0.6c-0.4,0.4-0.6,1.2-0.6,2.4
			v3.6c0,1.2,0.2,2,0.6,2.4C104.6,32.1,105.3,32.3,106.4,32.3z M107.4,16.2c-0.6,0-1-0.2-1.3-0.6c-0.3-0.4-0.5-0.8-0.5-1.3
			c0-0.5,0.2-0.9,0.5-1.3c0.3-0.4,0.8-0.6,1.3-0.6h15.7c0.6,0,1,0.2,1.3,0.6c0.3,0.4,0.5,0.8,0.5,1.3c0,0.5-0.2,0.9-0.5,1.3
			c-0.3,0.4-0.8,0.6-1.3,0.6H107.4z M118.7,41.7c-0.6,0-1-0.2-1.4-0.6c-0.4-0.4-0.6-0.8-0.6-1.4V25.3c0-1.6,0.2-2.8,0.6-3.6
			c0.4-0.9,1.1-1.5,2.1-1.8c1-0.4,2.5-0.5,4.4-0.5c1.9,0,3.4,0.2,4.4,0.5s1.7,1,2.1,1.8c0.4,0.9,0.6,2.1,0.6,3.6v5.3
			c0,2.2-0.5,3.7-1.5,4.5c-1,0.8-2.6,1.3-4.6,1.3c-0.6,0-1.2-0.1-1.5-0.5c-0.4-0.4-0.6-0.9-0.6-1.4c0-0.5,0.1-1,0.5-1.4
			s0.9-0.6,1.5-0.7c1-0.1,1.6-0.4,1.9-0.7c0.3-0.3,0.4-1,0.4-2v-4c0-0.8-0.1-1.4-0.2-1.9c-0.1-0.4-0.4-0.7-0.9-0.9
			c-0.5-0.1-1.1-0.2-2.1-0.2c-0.9,0-1.6,0.1-2.1,0.2c-0.5,0.1-0.8,0.4-0.9,0.9c-0.1,0.4-0.2,1.1-0.2,1.9v13.9c0,0.6-0.2,1.1-0.6,1.4
			C119.7,41.5,119.3,41.7,118.7,41.7z"/>
		<path class="st0" d="M171.7,40.5c-3.4,0-6.3-0.3-8.7-0.9c-2.4-0.6-4.4-1.5-6.1-2.8c-1.6-1.3-3-2.8-4.2-4.7c-0.9,1.4-2,2.8-3.1,4
			c-1.1,1.3-2.2,2.5-3.4,3.6c-0.4,0.4-0.9,0.6-1.5,0.7c-0.6,0.1-1.1-0.1-1.6-0.6c-0.4-0.4-0.7-0.9-0.6-1.4c0-0.5,0.2-1,0.6-1.3
			c2.2-1.9,4.1-4.1,5.8-6.4c1.7-2.4,3-4.8,3.8-7.3c0.2-0.6,0.6-1,1.1-1.3c0.5-0.2,1.1-0.3,1.6,0c0.6,0.2,1,0.6,1.2,1
			c0.2,0.5,0.2,1,0,1.6c-0.2,0.7-0.5,1.3-0.8,2c-0.3,0.7-0.7,1.3-1,2c1.5,2.8,3.6,4.8,6.2,6.1V18.7h-9.5c-0.6,0-1-0.2-1.4-0.6
			c-0.4-0.4-0.5-0.8-0.5-1.3c0-0.5,0.2-1,0.5-1.3c0.4-0.4,0.8-0.6,1.4-0.6h22.9c0.6,0,1.1,0.2,1.4,0.6c0.3,0.4,0.5,0.8,0.5,1.3
			c0,0.5-0.2,0.9-0.5,1.3c-0.3,0.4-0.8,0.6-1.4,0.6h-9.2v5.9h10.4c0.6,0,1.1,0.2,1.4,0.6c0.3,0.4,0.5,0.8,0.5,1.3
			c0,0.5-0.2,1-0.5,1.3c-0.3,0.4-0.8,0.6-1.4,0.6h-10.4v7.7c1.9,0.4,4.1,0.5,6.6,0.5c1.5,0,3,0,4.6-0.1c1.6-0.1,3.1-0.1,4.6-0.2
			c0.7-0.1,1.2,0.1,1.7,0.4c0.5,0.3,0.7,0.8,0.7,1.5c0,0.6-0.2,1.2-0.6,1.5c-0.4,0.4-1,0.6-1.7,0.6c-0.9,0-1.8,0-2.9,0
			c-1.1,0-2.2,0-3.3,0C173.6,40.5,172.6,40.5,171.7,40.5z M145.9,17.3c-0.6,0-1-0.2-1.4-0.5c-0.4-0.4-0.6-0.8-0.6-1.5v-2.2
			c0-2.2,0.5-3.7,1.6-4.7c1.1-0.9,2.9-1.4,5.5-1.4h9.6V2.8c0-0.7,0.2-1.2,0.7-1.5c0.4-0.4,1-0.5,1.5-0.5c0.6,0,1.1,0.2,1.5,0.5
			c0.4,0.4,0.6,0.9,0.6,1.5V7h9.8c2.6,0,4.4,0.5,5.5,1.4c1.1,0.9,1.6,2.5,1.6,4.7v2.2c0,0.6-0.2,1.1-0.6,1.5
			c-0.4,0.4-0.9,0.5-1.4,0.5c-0.6,0-1-0.2-1.4-0.5c-0.4-0.3-0.6-0.8-0.6-1.4v-2.2c0-1-0.3-1.7-0.8-2.1c-0.5-0.4-1.4-0.6-2.7-0.6h-23
			c-1.3,0-2.2,0.2-2.7,0.6c-0.5,0.4-0.8,1.1-0.8,2.1v2.2c0,0.6-0.2,1.1-0.6,1.4C146.9,17.2,146.5,17.3,145.9,17.3z"/>
		<path class="st0" d="M199.5,37.6c-2,0-3.5-0.2-4.6-0.6c-1.1-0.4-1.9-1.1-2.3-2c-0.4-0.9-0.6-2.2-0.6-3.8V15.5
			c0-1.9,0.3-3.3,0.9-4.3c0.6-1,1.8-1.6,3.5-1.8c0.1-0.6,0.3-1.2,0.4-1.9c0.1-0.7,0.3-1.5,0.5-2.2c0.2-0.8,0.3-1.4,0.4-1.9
			c0.1-0.6,0.4-1.1,0.8-1.3c0.4-0.3,0.9-0.4,1.5-0.3c0.6,0.1,1.1,0.4,1.4,0.9c0.3,0.5,0.3,1,0.2,1.6c-0.1,0.6-0.4,1.5-0.6,2.5
			c-0.3,1-0.5,1.9-0.7,2.6c1.8,0,3.2,0.3,4.1,0.7c1,0.4,1.6,1.1,2,2c0.4,0.9,0.6,2.1,0.6,3.7v15.8c0,1.6-0.2,2.8-0.6,3.8
			c-0.4,0.9-1.2,1.6-2.3,2C203,37.4,201.5,37.6,199.5,37.6z M195.9,21.4h7.1v-5.6c0-1.2-0.2-2-0.7-2.4c-0.5-0.4-1.4-0.6-2.8-0.6
			c-1.4,0-2.4,0.2-2.9,0.6c-0.5,0.4-0.7,1.2-0.7,2.4V21.4z M199.5,34c1.4,0,2.4-0.2,2.8-0.6c0.5-0.4,0.7-1.2,0.7-2.4v-6h-7.1v6
			c0,1.2,0.2,2,0.7,2.4C197.1,33.8,198,34,199.5,34z M218,41c-0.6,0-1.1-0.1-1.6-0.4c-0.4-0.3-0.7-0.8-0.8-1.4
			c-0.1-0.6,0.1-1.1,0.5-1.5c0.4-0.4,0.9-0.7,1.6-0.7c1.6-0.1,2.7-0.2,3.5-0.4c0.8-0.2,1.3-0.6,1.6-1.2c0.3-0.6,0.6-1.4,0.8-2.6
			c0.3-2,0.5-4.3,0.7-6.9c0.1-2.6,0.2-5.7,0.2-9.3c0-1.5-0.3-2.5-0.8-3c-0.5-0.5-1.5-0.7-3-0.7h-5.8c-0.5,1-1.1,2-1.7,3
			c-0.6,0.9-1.2,1.8-1.7,2.6c-0.3,0.5-0.7,0.8-1.2,0.9c-0.5,0.1-1,0.1-1.5-0.2c-0.4-0.3-0.7-0.6-0.9-1.1c-0.1-0.5-0.1-1,0.2-1.4
			c1.4-1.8,2.7-3.9,3.8-6.3c1.1-2.4,2-4.9,2.6-7.3c0.1-0.6,0.4-1,0.9-1.3c0.5-0.3,1-0.3,1.5-0.2c0.5,0.1,0.9,0.4,1.2,0.8
			c0.3,0.4,0.4,0.9,0.2,1.5c-0.2,0.9-0.5,1.7-0.8,2.6c-0.3,0.9-0.7,1.8-1,2.7h4.5c1.8,0,3.3,0.2,4.3,0.6c1.1,0.4,1.8,1.1,2.3,2.1
			c0.5,1,0.7,2.6,0.7,4.5c0,3.7-0.1,6.9-0.2,9.6c-0.1,2.7-0.4,5.1-0.7,7.2c-0.3,2.1-0.8,3.6-1.5,4.7c-0.7,1.1-1.7,1.8-3,2.3
			C221.8,40.7,220.1,41,218,41z M219.7,28.7c-0.5,0.3-1,0.4-1.5,0.4c-0.5-0.1-0.9-0.3-1.2-0.8c-0.4-0.6-0.9-1.4-1.4-2.2
			c-0.6-0.8-1.1-1.6-1.7-2.4c-0.6-0.8-1.1-1.4-1.5-1.9c-0.3-0.4-0.4-0.9-0.4-1.4c0.1-0.5,0.3-0.9,0.7-1.2c0.4-0.3,0.9-0.5,1.4-0.4
			c0.5,0,1,0.3,1.3,0.7c0.5,0.6,1,1.2,1.6,2c0.6,0.8,1.2,1.6,1.7,2.4c0.6,0.8,1.1,1.5,1.4,2.2c0.3,0.5,0.4,1,0.4,1.5
			C220.5,28,220.2,28.4,219.7,28.7z"/>
		<path class="st0" d="M263.8,40.3c-2.5,0-4.5-0.2-6-0.7c-1.5-0.4-2.6-1.2-3.2-2.3c-0.6-1.1-1-2.6-1-4.5v-5.4l-14.9,1
			c-0.5,0-0.9-0.1-1.3-0.5c-0.4-0.3-0.6-0.8-0.7-1.3c0-0.5,0.1-0.9,0.5-1.3c0.3-0.4,0.8-0.6,1.3-0.6l15.2-1v-5.6l-11.5,0.7
			c-0.5,0-0.9-0.1-1.3-0.5c-0.4-0.3-0.6-0.8-0.7-1.3c0-0.5,0.1-0.9,0.5-1.3c0.3-0.4,0.8-0.6,1.3-0.6l11.8-0.8V8.8
			c-2,0.3-4,0.6-6,0.8c-2,0.2-4,0.4-5.9,0.6c-1.4,0.1-2.2-0.5-2.3-1.8c-0.1-0.5,0.1-0.9,0.5-1.3c0.4-0.4,0.9-0.6,1.5-0.6
			c2.1-0.1,4.3-0.3,6.8-0.6c2.5-0.3,5-0.6,7.5-1.1c2.5-0.4,4.9-0.9,7.2-1.4c2.3-0.5,4.2-1.1,5.8-1.6c0.6-0.2,1.1-0.2,1.7,0
			c0.5,0.2,0.9,0.5,1.1,1.1c0.2,0.6,0.2,1.1,0,1.5c-0.2,0.5-0.6,0.8-1.2,0.9c-1.8,0.6-3.7,1.1-5.8,1.6c-2.1,0.5-4.3,0.9-6.6,1.3v6
			l13.2-0.8c0.5,0,0.9,0.1,1.3,0.5c0.4,0.3,0.6,0.8,0.6,1.3c0,0.5-0.1,0.9-0.5,1.3c-0.3,0.4-0.8,0.6-1.3,0.7l-13.5,0.8v5.6l17-1.1
			c0.5-0.1,0.9,0.1,1.3,0.4s0.6,0.8,0.6,1.3c0.1,0.5-0.1,0.9-0.4,1.3c-0.4,0.4-0.8,0.6-1.3,0.7l-17.3,1.1v5.5c0,1.4,0.4,2.4,1.3,3
			c0.9,0.5,2.5,0.8,4.9,0.8h3.2c1.6,0,2.8-0.1,3.6-0.4c0.8-0.2,1.5-0.6,1.9-1.2c0.4-0.6,0.7-1.3,0.9-2.3c0.1-0.6,0.4-1,0.9-1.3
			c0.5-0.3,1-0.3,1.6-0.2c0.6,0.1,1,0.4,1.3,0.8c0.3,0.4,0.4,1,0.2,1.5c-0.3,1.7-0.9,3-1.6,4s-1.8,1.7-3.2,2.1
			c-1.4,0.4-3.3,0.6-5.6,0.6H263.8z"/>
		<path class="st0" d="M303,32.6c-0.6,0.3-1.1,0.4-1.6,0.2c-0.5-0.1-0.9-0.5-1.2-1c-0.3-0.5-0.4-1-0.2-1.5c0.2-0.5,0.5-0.9,0.9-1.1
			c2.8-1.4,5.3-2.9,7.5-4.8c-0.7-0.6-1.5-1.3-2.4-2.1s-1.8-1.5-2.7-2.2c-0.9-0.7-1.6-1.3-2.1-1.6c0,0-0.1-0.1-0.1-0.1
			c0.2,0.2,0.3,0.5,0.4,0.8c0.3,1.1-0.1,1.8-1.1,2.1c-0.5,0.2-1.1,0.4-1.7,0.6c-0.6,0.2-1.3,0.4-2,0.7c0.1,0.9,0.2,1.8,0.3,2.7
			c0.1,0.9,0.1,1.9,0.1,2.8c0,3.4-0.3,6-0.9,7.9c-0.6,1.9-1.6,3.2-2.9,4c-1.3,0.8-2.9,1.1-4.9,1.1c-1.3,0-2-0.6-2-1.8
			c0-0.5,0.1-1,0.5-1.4c0.3-0.4,0.8-0.6,1.4-0.6c0.9-0.1,1.7-0.2,2.4-0.5c0.6-0.2,1.2-0.7,1.6-1.3c0.4-0.6,0.7-1.5,0.9-2.7
			c0.2-1.2,0.3-2.8,0.3-4.7c0-0.8,0-1.5-0.1-2.2c0-0.7-0.1-1.4-0.2-2.1c-1.1,0.3-2.1,0.6-3.1,0.9c-1,0.3-2,0.6-2.9,0.8
			c-0.6,0.1-1.1,0.1-1.6-0.1c-0.5-0.2-0.8-0.6-0.9-1.2c-0.1-0.6-0.1-1.1,0.2-1.5c0.3-0.4,0.7-0.7,1.2-0.8c0.9-0.2,2-0.5,3.1-0.8
			c1.1-0.3,2.2-0.6,3.4-0.9c-0.3-1.4-0.7-2.6-1.1-3.9c-0.5-1.2-0.9-2.4-1.5-3.6c-0.2-0.5-0.2-0.9,0-1.4c0.2-0.5,0.5-0.8,1-1
			c0.4-0.1,0.7-0.2,1.1-0.2c0.4,0,0.7,0.2,1,0.4c1-0.8,1.8-1.4,2.3-1.9c0.5-0.5,0.8-0.9,0.7-1.3c-0.1-0.4-0.5-0.6-1.3-0.6h-7.8
			c-0.5,0-0.9-0.2-1.2-0.5c-0.4-0.4-0.5-0.8-0.5-1.3c0-0.5,0.2-0.9,0.5-1.3c0.4-0.3,0.8-0.5,1.2-0.5h8.7c1.4,0,2.5,0.3,3.3,0.8
			s1.3,1.2,1.5,2c0.2,0.8,0.1,1.7-0.3,2.6c-0.4,0.9-1,1.7-2,2.4c-0.5,0.4-1,0.8-1.6,1.3c-0.6,0.5-1.2,0.9-1.8,1.4
			c0.3,0.8,0.6,1.7,0.9,2.5c0.3,0.9,0.5,1.8,0.7,2.7c0.6-0.2,1.2-0.4,1.8-0.5c0.6-0.2,1.1-0.3,1.6-0.5c0.6-0.2,1.2-0.1,1.6,0.3
			c-0.3-0.3-0.4-0.7-0.4-1.2c0-0.5,0.2-0.9,0.5-1.2c0.4-0.4,0.8-0.6,1.3-0.6c0.5,0,1,0.1,1.5,0.4c0.5,0.4,1.1,0.8,1.7,1.3
			c0.7-0.8,1.4-1.7,2.3-2.7c0.8-1,1.6-1.9,2.1-2.7h-8.2c-0.5,0-0.9-0.2-1.3-0.5c-0.4-0.4-0.5-0.8-0.5-1.2c0-0.5,0.2-0.9,0.5-1.3
			c0.4-0.4,0.8-0.5,1.3-0.5h8.9V2.9c0-0.6,0.2-1.1,0.6-1.5c0.4-0.4,0.9-0.6,1.5-0.6c0.6,0,1.1,0.2,1.5,0.6c0.4,0.4,0.6,0.9,0.6,1.5
			v5.2h9.1c0.5,0,0.9,0.2,1.3,0.5c0.4,0.4,0.5,0.8,0.5,1.3c0,0.5-0.2,0.9-0.5,1.2c-0.4,0.4-0.8,0.5-1.3,0.5h-9.8
			c0.1,0.5,0,1-0.3,1.4c-0.4,0.5-0.9,1.2-1.5,1.9s-1.3,1.5-2,2.3c-0.7,0.8-1.3,1.5-1.9,2.1c0.6,0.5,1.1,0.9,1.6,1.3
			c0.5,0.4,0.9,0.8,1.3,1.2c1-1,2-2.1,2.9-3.2c0.9-1.1,1.7-2.3,2.5-3.5c0.3-0.5,0.7-0.8,1.3-0.8c0.5-0.1,1,0,1.4,0.4
			c0.4,0.3,0.7,0.7,0.8,1.2c0.1,0.5,0.1,1-0.3,1.5c-2.2,3.3-4.8,6.2-7.5,8.7C309.7,28.7,306.6,30.8,303,32.6z M302,41
			c-0.6,0.2-1.1,0.2-1.6,0c-0.5-0.2-0.9-0.6-1.1-1.1c-0.2-0.5-0.2-1,0.1-1.5c0.3-0.4,0.7-0.8,1.2-1c2.8-1,5.5-2.3,7.9-3.8
			c2.5-1.6,4.7-3.4,6.7-5.4c2-2,3.7-4.1,5.1-6.3c0.3-0.5,0.8-0.8,1.3-0.9c0.6-0.1,1.1,0.1,1.5,0.4c0.4,0.3,0.7,0.7,0.8,1.2
			c0.1,0.5,0,1-0.3,1.4c-1.8,2.7-3.9,5.1-6.2,7.4c0.8,0.6,1.7,1.3,2.6,2c0.9,0.7,1.7,1.4,2.5,2.1c0.8,0.7,1.5,1.3,2,1.9
			c0.4,0.4,0.6,0.9,0.6,1.4c0,0.5-0.2,1-0.6,1.4c-0.4,0.4-0.9,0.6-1.5,0.7c-0.6,0-1.1-0.1-1.5-0.5c-0.6-0.5-1.3-1.2-2.1-2
			s-1.7-1.6-2.6-2.4c-0.9-0.8-1.7-1.5-2.4-2.1c-1.8,1.5-3.8,2.8-5.9,4C306.6,39.2,304.3,40.2,302,41z"/>
	</g>
</g>
</svg>
