<svg xmlns="http://www.w3.org/2000/svg" width="607.3" height="54.3" style="overflow:visible;enable-background:new 0 0 607.3 54.3" xml:space="preserve">
    <style>
        .st0{fill:#191919}
    </style>
    <path class="st0" d="M12.3 53.8c-.7 0-1.2-.2-1.7-.6-.5-.4-.7-1-.7-1.7V28.8c-1.4.2-2.8.3-4.1.4-1.3.1-2.4.2-3.3.3-.7 0-1.2-.1-1.7-.5s-.8-.9-.8-1.5.1-1.2.5-1.7.9-.8 1.5-.8h1.4c.5 0 1 0 1.5-.1.7-.9 1.4-1.9 2.1-3.1l2.4-3.6c-.7-.5-1.5-1.2-2.5-1.9l-3-2.1c-1-.7-1.8-1.2-2.5-1.7-.5-.3-.8-.8-1-1.4-.1-.6 0-1.1.3-1.6.3-.4.8-.7 1.5-.9.6-.2 1.2-.1 1.7.3.2.1.4.3.7.4.2.2.5.3.8.5.4-.8.9-1.7 1.5-2.6.6-1 1.1-2 1.6-2.9.5-1 .9-1.7 1.2-2.3.3-.6.8-1 1.4-1.2.6-.2 1.2-.2 1.8.1.6.3 1 .7 1.2 1.3.2.6.2 1.1-.1 1.7-.3.7-.8 1.6-1.4 2.6-.6 1-1.2 2-1.8 3.1-.6 1-1.2 2-1.7 2.8.5.4 1.1.8 1.6 1.1.5.4 1 .7 1.4 1 .8-1.3 1.5-2.5 2.2-3.7.7-1.1 1.2-2.1 1.7-3 .3-.6.8-.9 1.4-1.1.6-.2 1.2-.1 1.8.2.6.3.9.7 1.1 1.3.2.6.1 1.2-.2 1.7-.7 1.3-1.6 2.9-2.6 4.6-1 1.7-2.1 3.4-3.3 5.1-1.2 1.7-2.3 3.4-3.4 4.9 1.2-.1 2.4-.2 3.5-.3 1.2-.1 2.2-.2 3.2-.3l-.6-1.2c-.2-.4-.4-.7-.6-1-.2-.5-.2-1.1 0-1.6s.6-.9 1.2-1.2c.5-.2 1.1-.3 1.6-.1.6.2 1 .5 1.2 1.1.4.7.8 1.5 1.4 2.5l1.5 3c.5 1 .9 1.9 1.2 2.6.3.6.3 1.2.1 1.8-.2.6-.6 1-1.2 1.2-.6.2-1.2.3-1.8.1-.6-.2-1-.5-1.2-1.1-.1-.3-.2-.6-.4-1s-.3-.7-.5-1.1c-.6.1-1.2.2-2 .3-.7.1-1.5.2-2.3.3v23.1c0 .7-.2 1.3-.7 1.7-.9.3-1.5.5-2.1.5zM1.8 47c-.5-.2-1-.6-1.2-1.1-.3-.5-.3-1.1-.1-1.6.4-.9.9-2 1.4-3.3.5-1.3.9-2.6 1.3-3.9s.7-2.5 1-3.5c.1-.5.4-1 .9-1.2.5-.3 1-.4 1.6-.3.5.1 1 .4 1.3.9.3.5.4 1 .3 1.5-.2 1.1-.5 2.4-1 3.7-.4 1.4-.8 2.7-1.3 4-.5 1.3-.9 2.5-1.4 3.5-.2.6-.6 1-1.1 1.2-.5.2-1.1.2-1.7.1zm20.5-2.3c-.5.2-1.1.2-1.6 0-.6-.2-1-.7-1.2-1.2-.3-.8-.6-1.8-1-2.9-.4-1.1-.8-2.3-1.2-3.5-.4-1.2-.7-2.2-.9-3-.2-.5-.1-1 .2-1.5.3-.5.7-.8 1.3-1 .5-.2 1.1-.1 1.6.1s.9.6 1 1.2c.3.8.6 1.7 1 2.8l1.2 3.3c.4 1.1.8 2 1.1 2.7.2.6.2 1.2-.1 1.7-.3.7-.8 1-1.4 1.3zm0-21c-.5-.4-.7-.9-.7-1.6 0-.6.2-1.2.6-1.7 1.3-1.4 2.6-3.1 3.9-4.9 1.3-1.9 2.6-3.7 3.9-5.6 1.2-1.9 2.3-3.6 3.2-5.1 1-1.8 2.4-2.7 3.9-2.7 1.6 0 3 .9 4.2 2.7 1.1 1.6 2.3 3.3 3.8 5.2 1.4 1.8 2.9 3.6 4.4 5.3 1.5 1.7 2.8 3.1 4 4.4.5.5.7 1.1.8 1.8s-.1 1.3-.6 1.7c-.5.5-1.1.8-1.9.9-.7.1-1.4-.2-1.9-.7-1.2-1.3-2.5-2.8-3.9-4.6-1.4-1.8-2.8-3.6-4.1-5.4-1.3-1.8-2.4-3.4-3.4-4.8-.3-.5-.7-.8-1.2-.8-.4 0-.8.3-1.1.9-.7 1.3-1.7 2.9-2.9 4.8s-2.4 3.7-3.7 5.6-2.6 3.4-3.8 4.7c-.5.5-1 .8-1.7.8-.7-.2-1.3-.4-1.8-.9zM38 51.6c-2.9 0-5.1-.3-6.7-.9-1.6-.6-2.7-1.6-3.4-3.1-.7-1.5-1-3.5-1-6.1 0-2.6.3-4.7 1-6.2s1.8-2.5 3.4-3.1c1.6-.6 3.8-.9 6.7-.9 2.9 0 5.1.3 6.7.9 1.6.6 2.7 1.6 3.4 3.1.6 1.5 1 3.5 1 6.2 0 2.6-.3 4.7-1 6.1-.6 1.5-1.8 2.5-3.4 3.1-1.6.7-3.8.9-6.7.9zm-7.6-25.7c-.7 0-1.2-.2-1.7-.7-.4-.5-.6-1-.6-1.6 0-.7.2-1.2.6-1.6.4-.4 1-.7 1.7-.7h14.4c.7 0 1.2.2 1.7.7.4.4.6 1 .6 1.6 0 .6-.2 1.2-.6 1.6-.4.5-1 .7-1.7.7H30.4zM38 47c1.7 0 2.9-.1 3.8-.4.9-.3 1.5-.8 1.8-1.6.3-.8.5-1.9.5-3.4s-.2-2.7-.5-3.5c-.3-.8-.9-1.3-1.8-1.6-.9-.3-2.1-.4-3.8-.4-1.6 0-2.9.1-3.7.4-.9.3-1.5.8-1.8 1.6-.4.7-.5 1.9-.5 3.4s.2 2.6.5 3.5c.3.8.9 1.4 1.8 1.6.9.3 2.1.4 3.7.4zM142.4 30c-.8 0-1.4-.3-2-.8-.5-.6-.8-1.2-.8-2s.3-1.4.8-2c.5-.5 1.2-.8 2-.8h45.4c.8 0 1.4.3 2 .8.5.5.8 1.2.8 2s-.3 1.4-.8 2c-.5.6-1.2.8-2 .8h-45.4zM214 53.7c-.8 0-1.5-.2-2-.7-.5-.5-.8-1.1-.9-1.8 0-.7.2-1.3.7-1.8.5-.5 1.3-.8 2.2-.9 1.6-.1 2.8-.2 3.6-.5.8-.2 1.4-.7 1.7-1.3.3-.6.6-1.5.9-2.6.2-1.2.4-2.6.6-4.1.2-1.5.3-3 .3-4.6.1-1.6-.2-2.6-.9-3.2-.7-.5-1.9-.8-3.9-.8-2.4 0-4.2-.5-5.2-1.4-1.1-1-1.5-2.7-1.2-5.4.1-.6.1-1.2.2-1.8 0-.7.1-1.2.1-1.8.2-2.1.8-3.7 1.8-4.6 1-.9 2.7-1.4 5.1-1.4 1.5 0 2.6-.2 3.3-.6.7-.4 1-1.1 1-2.2v-1.8c0-1.1-.3-1.8-.8-2.3-.5-.4-1.4-.7-2.8-.7H211c-.7 0-1.3-.2-1.7-.7-.4-.4-.6-1-.6-1.6 0-.6.2-1.1.6-1.6.4-.4 1-.7 1.7-.7h8.1c2.6 0 4.4.5 5.6 1.4 1.2 1 1.8 2.7 1.8 5.2v3.1c0 2.5-.5 4.2-1.6 5.2s-3 1.4-5.7 1.4c-1.5 0-2.6.1-3.1.4-.6.3-.9.9-.9 1.8 0 .4-.1.8-.1 1.3 0 .4-.1.8-.1 1.1 0 1 .2 1.7.7 2.1.5.4 1.6.6 3.2.6 2.8 0 4.7.5 5.9 1.6 1.2 1.1 1.7 2.8 1.6 5.3 0 2.2-.2 4.3-.3 6.3-.2 2-.4 3.8-.7 5.4-.4 2.1-1 3.8-1.9 5-.9 1.2-2 2.1-3.5 2.6-1.7.8-3.7 1.1-6 1.1zm14.8-1c-.8.2-1.4.1-1.9-.3-.5-.3-.9-.9-1.1-1.6-.2-.7 0-1.2.3-1.8.4-.5 1-.9 1.8-1l5.1-1V31h-4.3c-.6 0-1.1-.2-1.6-.6-.4-.4-.6-.9-.6-1.5s.2-1.1.6-1.6c.4-.4.9-.6 1.6-.6h4.3V11c0-2 .2-3.5.7-4.7.5-1.2 1.4-2 2.7-2.5 1.3-.5 3.1-.8 5.5-.8h14.2c.6 0 1.1.2 1.6.6.4.4.6.9.6 1.6 0 .6-.2 1.1-.6 1.6-.4.4-.9.6-1.6.6H242c-1.7 0-2.8.2-3.3.7-.6.4-.8 1.4-.8 2.9h16c.6 0 1.1.2 1.5.6.4.4.6.9.6 1.5s-.2 1.1-.6 1.5c-.4.4-.9.6-1.5.6h-16v3.5h16c.6 0 1.1.2 1.5.6.4.4.6.9.6 1.5s-.2 1.1-.6 1.5c-.4.4-.9.6-1.5.6h-16v3.9h20.4c.6 0 1.1.2 1.6.6.4.4.6.9.6 1.6 0 .6-.2 1.1-.6 1.5-.4.4-.9.6-1.6.6H245c.4 1.4.9 2.7 1.4 3.9.5 1.2 1.1 2.3 1.8 3.3.9-.8 1.9-1.7 2.9-2.6 1.1-1 2-1.8 2.6-2.5.5-.5 1-.7 1.7-.7s1.2.2 1.7.7c.5.5.7 1 .7 1.6 0 .6-.2 1.2-.7 1.6-.8.8-1.8 1.7-3 2.8-1.2 1.1-2.3 2-3.3 2.8 1.2 1.2 2.5 2.4 3.9 3.4s3 2 4.6 2.9c.6.3 1 .8 1.2 1.5.2.7 0 1.3-.3 1.9-.4.6-.9 1-1.7 1.1-.7.1-1.4 0-2.1-.4-4.1-2.3-7.5-5.1-10.3-8.6-2.8-3.4-4.7-7.7-5.9-12.6h-2.6v15c1.5-.3 2.8-.6 4-.8 1.2-.2 1.9-.4 2-.4.8-.2 1.4-.1 1.9.2.5.3.8.8 1 1.4.3 1.5-.3 2.4-1.9 2.8-.2 0-.9.2-1.9.4-1.1.2-2.3.5-3.8.9-1.5.3-3 .7-4.4 1-1.5.3-2.8.6-3.9.8-.8 0-1.5.2-1.8.2zM315.8 53.9c-.8 0-1.4-.3-1.9-.7-.5-.5-.8-1.1-.8-1.9 0-.7.2-1.3.7-1.8.4-.5 1.1-.8 1.9-.8 1.2-.1 2.1-.2 2.8-.4.6-.2 1-.5 1.2-1 .2-.5.3-1.2.3-2.2v-24h-10.7c-.7 0-1.3-.2-1.8-.7-.4-.5-.6-1-.6-1.6v-.1c-.5.5-1 .7-1.6.7H279c-.6 0-1.1-.2-1.5-.6-.4-.4-.6-.9-.6-1.5s.2-1.1.6-1.5c.4-.4.9-.6 1.5-.6h7V3.4c0-.7.2-1.2.7-1.6.4-.4 1-.6 1.6-.6.6 0 1.1.2 1.6.6.4.4.6.9.6 1.6V15h3.5V3.4c0-.7.2-1.2.7-1.6.4-.4 1-.6 1.6-.6.6 0 1.1.2 1.6.6.4.4.6.9.6 1.6V15h6.9c.7 0 1.2.2 1.5.6.4.4.5.9.5 1.5.2-.2.5-.4.8-.6.3-.2.7-.2 1-.2h10.7V3.4c0-.8.2-1.4.7-1.8.5-.4 1.1-.7 1.8-.7s1.3.2 1.8.7c.5.4.7 1 .7 1.8v12.9h3.7c.7 0 1.3.2 1.7.7.4.5.7 1 .7 1.7 0 .6-.2 1.2-.7 1.6-.4.5-1 .7-1.7.7h-3.7v24.6c0 2.1-.3 3.7-.8 4.9-.6 1.2-1.5 2-2.8 2.5-1.4.6-3.2.9-5.5.9zM280 52.6c-.8.1-1.5 0-2-.4s-.8-1-.9-1.7c-.1-.7.1-1.2.5-1.7s1-.8 1.8-.9c1.5-.2 3.1-.4 4.9-.6 1.8-.2 3.6-.5 5.4-.7v-6.3h-8.6c-.6 0-1.1-.2-1.5-.6-.4-.4-.6-.9-.6-1.5s.2-1.1.6-1.5c.4-.4.9-.6 1.5-.6h8.6v-4.8h-9.8c-.6 0-1.1-.2-1.5-.6-.4-.4-.6-.9-.6-1.5s.2-1.1.6-1.5c.4-.4.9-.6 1.5-.6h6c0-.1-.1-.2-.2-.2-.1-.1-.1-.2-.2-.2-.4-.7-.7-1.3-1-1.8-.3-.5-.7-1.1-1.2-1.9-.3-.5-.4-1-.2-1.6.2-.6.5-1 1-1.2.6-.3 1.2-.4 1.8-.2.6.2 1.1.5 1.4 1 .5.8.9 1.4 1.1 1.8.2.4.6 1 1 1.7.5 1 .3 1.9-.5 2.6h5c.4-.9.9-1.9 1.4-3 .5-1.1.9-2.1 1.2-3 .3-.6.7-1 1.3-1.3.6-.2 1.2-.2 1.8 0 .7.2 1.1.6 1.3 1.2.2.6.2 1.1-.1 1.8-.3.5-.6 1.2-1 2s-.8 1.6-1.2 2.3h5.6c.7 0 1.2.2 1.5.6.4.4.5.9.5 1.5s-.2 1.1-.5 1.5c-.4.4-.9.6-1.5.6h-9.6V36h7.9c.7 0 1.2.2 1.6.6.4.4.6.9.6 1.5s-.2 1.1-.6 1.5c-.4.4-.9.6-1.6.6h-7.9v5.6c1.8-.3 3.6-.6 5.2-.8 1.7-.2 3.2-.5 4.6-.7.7-.1 1.3 0 1.7.3.4.3.7.8.8 1.4.1.6 0 1.2-.3 1.6-.3.5-.8.8-1.5.9-1.6.3-3.5.6-5.6 1-2.1.4-4.3.7-6.6 1.1-2.3.4-4.6.7-6.8 1-2.1.5-4.2.8-6.1 1zm3.7-39.5c-.5.3-1.1.3-1.6.2-.5-.1-.9-.5-1.2-1-.3-.7-.8-1.6-1.4-2.6-.6-1-1.1-1.9-1.5-2.7-.3-.5-.3-1-.2-1.6.2-.5.5-.9 1-1.2.5-.3 1.1-.3 1.7-.2.6.1 1 .4 1.3 1 .5.7 1 1.6 1.5 2.6.6 1 1 1.9 1.4 2.7.3.5.3 1.1.1 1.6-.2.5-.6.9-1.1 1.2zm16.7.2c-.5-.3-.8-.7-1-1.2-.2-.5-.1-1.1.2-1.6.4-.7.9-1.5 1.5-2.6s1-1.9 1.4-2.7c.3-.7.8-1 1.4-1.2.6-.1 1.2 0 1.8.3.5.3.9.7 1.1 1.3s.1 1.2-.2 1.7c-.4.7-.9 1.6-1.5 2.6s-1.1 1.9-1.6 2.5c-.3.5-.8.8-1.4 1-.6.2-1.2.2-1.7-.1zM315 36.9c-.6.3-1.2.3-1.8.1-.6-.2-1-.7-1.3-1.3-.3-.8-.6-1.7-1.1-2.8-.4-1-.9-2.1-1.4-3.1-.5-1-.9-1.9-1.3-2.7-.3-.5-.3-1.1-.1-1.6.2-.6.6-1 1.2-1.2.6-.2 1.2-.3 1.8-.1.6.2 1 .5 1.3 1.1.7 1.3 1.4 2.7 2.1 4.3s1.4 3 1.9 4.3c.3.7.3 1.3 0 1.8-.1.5-.6.9-1.3 1.2zM367.2 54.2c-.8 0-1.5-.2-2-.6-.5-.4-.8-1-.9-1.9 0-.7.2-1.3.7-1.8.5-.5 1.2-.7 2-.7 1.8 0 3.3-.3 4.3-.7 1-.4 1.7-1.2 2.1-2.2.4-1.1.6-2.5.6-4.4v-1c0-.3 0-.7-.1-1-1.9 1.3-4.2 2.7-6.8 4.1-2.6 1.4-5.3 2.7-8.2 3.9-2.8 1.2-5.6 2.1-8.2 2.9-.8.2-1.5.2-2.1 0-.6-.2-1.1-.7-1.3-1.5-.2-.7-.1-1.3.2-1.9.3-.6.8-.9 1.6-1.1 1.8-.5 3.8-1.1 6-1.9 2.1-.8 4.3-1.7 6.5-2.7 2.2-1 4.3-2.1 6.2-3.2 2-1.1 3.7-2.2 5.3-3.3-.3-1.2-.8-2.5-1.5-3.7-1.7 1.3-3.7 2.5-6 3.7-2.3 1.2-4.6 2.2-7.1 3.2s-4.8 1.8-7.1 2.6c-.8.3-1.5.3-2 0-.6-.3-1-.7-1.2-1.4-.2-.6-.1-1.2.1-1.8.3-.6.8-.9 1.5-1.1 2.3-.6 4.7-1.3 7.1-2.2 2.4-.9 4.7-1.9 6.9-3s4-2.2 5.6-3.3c-.3-.4-.7-.9-1.1-1.3-.4-.4-.8-.9-1.2-1.2-2.4 1.3-4.9 2.4-7.6 3.5-2.7 1.1-5.6 2-8.6 2.7-1.7.4-2.8 0-3.2-1.4-.2-.6-.2-1.2.1-1.8.3-.6.8-1 1.6-1.2 3.5-.8 6.9-1.8 10-3.1 3.1-1.3 6-2.7 8.7-4.2H358c-.7 0-1.2-.2-1.6-.7-.4-.4-.6-1-.6-1.6 0-.6.2-1.1.6-1.6.4-.4 1-.6 1.6-.6h28.5c.7 0 1.2.2 1.6.6.4.4.6.9.6 1.6 0 .6-.2 1.1-.6 1.6-.4.4-1 .7-1.6.7h-11.2c-.7.5-1.5 1.1-2.2 1.6-.8.5-1.6 1.1-2.4 1.6 2.7 2.3 4.7 4.9 6 7.9 1.4-.8 2.8-1.7 4.4-2.6 1.5-1 3-1.9 4.4-2.9 1.4-1 2.5-1.9 3.5-2.6.6-.5 1.3-.8 2-.7.7.1 1.2.4 1.6.8.4.6.6 1.2.5 1.9-.1.6-.4 1.2-1 1.6-1.6 1.2-3.5 2.5-5.7 3.8-2.2 1.3-4.3 2.6-6.3 3.7 1.6 1.5 3.4 2.9 5.5 4.3s4.1 2.7 6.3 3.9c2.1 1.2 4.1 2.1 5.8 2.8.7.3 1.2.7 1.4 1.4.3.6.2 1.3-.1 1.9-.4.8-1 1.3-1.7 1.5-.7.2-1.5.1-2.2-.2-1.7-.8-3.6-1.7-5.5-2.9s-3.9-2.4-5.8-3.8-3.6-2.9-5-4.3c.1 1 .2 2.1.2 3.2 0 4.5-.9 7.8-2.8 9.7-1.9 1.4-4.9 2.4-9 2.4zm-16.7-34.5c-.7 0-1.3-.2-1.8-.7-.5-.5-.7-1.1-.7-1.8v-2.5c0-2.8.7-4.8 2-6 1.4-1.2 3.7-1.8 7-1.8h12.8V2.7c0-.8.3-1.4.8-1.9.6-.5 1.2-.7 1.9-.7.8 0 1.4.3 2 .7.5.5.8 1.1.8 1.9v4.2H388c3.3 0 5.6.6 7 1.8 1.3 1.2 2 3.2 2 6v2.5c0 .8-.3 1.4-.7 1.8-.5.5-1.1.7-1.8.7s-1.3-.2-1.8-.6c-.5-.4-.7-1-.7-1.8V15c0-1.3-.3-2.2-1-2.7-.6-.5-1.8-.8-3.5-.8h-29.9c-1.7 0-2.9.3-3.5.8-.6.5-1 1.4-1 2.7v2.4c0 .8-.3 1.4-.7 1.8-.6.3-1.2.5-1.9.5zM427.5 48.7c-2.6 0-4.6-.3-6-.8s-2.4-1.4-3-2.6c-.6-1.2-.8-2.8-.8-4.9V19.9c0-2.5.4-4.4 1.2-5.6.8-1.2 2.3-2 4.6-2.4.2-.7.4-1.6.6-2.5.2-1 .4-1.9.6-2.9.2-1 .4-1.8.5-2.4.2-.8.5-1.4 1.1-1.8.6-.4 1.2-.5 2-.4.8.2 1.4.5 1.8 1.1.4.6.5 1.3.3 2-.2.8-.5 1.9-.8 3.2-.3 1.3-.7 2.4-.9 3.4 2.3 0 4.1.3 5.4.9 1.3.5 2.1 1.4 2.6 2.6.5 1.2.7 2.8.7 4.8v20.6c0 2.1-.3 3.7-.8 4.9-.6 1.2-1.5 2-2.9 2.6-1.6.4-3.6.7-6.2.7zm-4.7-21.1h9.3v-7.3c0-1.6-.3-2.6-.9-3.2-.6-.6-1.8-.8-3.7-.8-1.9 0-3.1.3-3.7.8-.6.6-.9 1.6-.9 3.2v7.3zm4.7 16.4c1.9 0 3.1-.3 3.7-.8.6-.6.9-1.6.9-3.1v-7.8h-9.3V40c0 1.5.3 2.6.9 3.1.6.6 1.9.9 3.8.9zm24.2 9.2c-.8 0-1.5-.2-2.1-.6-.6-.4-.9-1-1-1.8-.1-.8.1-1.4.7-2s1.2-.9 2-.9c2-.1 3.6-.3 4.5-.6 1-.3 1.7-.8 2.1-1.5.4-.7.8-1.9 1-3.4.4-2.6.7-5.7.9-9 .2-3.4.2-7.4.2-12.1 0-2-.3-3.2-1-3.9-.7-.6-2-.9-3.9-.9h-7.5c-.7 1.3-1.4 2.6-2.2 3.9-.7 1.2-1.5 2.3-2.3 3.3-.4.6-.9 1-1.6 1.2-.7.2-1.4.1-2-.2-.6-.3-1-.8-1.2-1.5-.2-.7-.1-1.3.2-1.8 1.8-2.3 3.5-5 5-8.2 1.5-3.2 2.6-6.4 3.5-9.5.2-.8.6-1.3 1.2-1.7.6-.4 1.3-.5 2-.3s1.2.5 1.6 1.1c.4.6.5 1.2.3 2-.3 1.1-.6 2.3-1 3.5-.4 1.2-.9 2.4-1.3 3.6h5.8c2.4 0 4.3.2 5.7.7 1.4.5 2.4 1.4 3 2.8.6 1.4.9 3.3.9 5.9 0 4.9-.1 9.1-.3 12.6-.2 3.5-.5 6.6-.9 9.4-.4 2.7-1 4.7-1.9 6.2-.9 1.4-2.2 2.4-3.9 3-1.6.3-3.8.6-6.5.7zm2.2-16.1c-.6.4-1.3.6-2 .5-.7-.1-1.2-.5-1.6-1.1-.5-.8-1.1-1.8-1.8-2.9-.7-1.1-1.5-2.1-2.2-3.1-.8-1-1.4-1.9-2-2.5-.4-.5-.6-1.1-.5-1.8.1-.7.4-1.2.9-1.6.5-.4 1.2-.6 1.8-.5s1.3.4 1.7.9c.7.7 1.4 1.6 2.1 2.6.8 1 1.5 2 2.3 3.1.7 1.1 1.4 2 1.9 2.9.4.7.6 1.3.5 2-.2.6-.5 1.1-1.1 1.5zM485.2 50.6c-.5-.3-.9-.8-1.1-1.5-.2-.6-.1-1.2.4-1.8.6-.8 1.3-1.7 2.1-2.9.8-1.1 1.5-2.3 2.3-3.5.7-1.2 1.3-2.2 1.7-3 .3-.7.8-1.1 1.5-1.3.7-.2 1.3-.2 1.9.1.6.3 1 .7 1.2 1.4.2.6.2 1.3-.1 2-.5.9-1.1 2-1.8 3.2-.7 1.2-1.5 2.4-2.3 3.6-.8 1.2-1.6 2.2-2.2 3-.5.6-1 .9-1.7 1-.6.2-1.2 0-1.9-.3zm13.5-16.1c-.7 0-1.2-.2-1.7-.7-.5-.4-.7-1-.7-1.8V20.9c-1.2 1.6-2.5 3.1-3.8 4.6-1.3 1.5-2.6 2.8-3.7 3.8-.5.5-1.1.7-1.8.7s-1.3-.2-1.8-.7c-.4-.5-.6-1.1-.6-1.7 0-.6.3-1.1.8-1.5 1.1-1 2.4-2.2 3.7-3.7 1.4-1.5 2.7-3 4.1-4.6 1.3-1.6 2.4-3 3.2-4.2v-.1H488c-.7 0-1.2-.2-1.6-.7-.4-.4-.6-1-.6-1.6 0-.6.2-1.1.6-1.6.4-.4.9-.6 1.6-.6h8.4V3c0-.7.2-1.3.7-1.8.5-.4 1-.7 1.7-.7s1.2.2 1.7.7c.5.4.7 1 .7 1.8v6h7c.7 0 1.2.2 1.6.6.4.4.6.9.6 1.6 0 .6-.2 1.1-.6 1.6-.4.4-.9.7-1.6.7h-7v.6c.7.9 1.6 1.9 2.6 3.1 1 1.1 2 2.2 3.1 3.1 1 1 1.9 1.8 2.6 2.3.5.4.8.9.8 1.6 0 .7-.2 1.3-.6 1.8-.5.5-1.1.8-1.8.8s-1.3-.2-1.8-.6c-.7-.7-1.5-1.5-2.3-2.5-.9-1-1.7-2-2.6-3V32c0 .7-.2 1.3-.7 1.8-.6.5-1.1.7-1.8.7zM512 52.9c-3.3 0-5.8-.3-7.6-.8-1.8-.5-3.1-1.5-3.8-2.8-.7-1.3-1.1-3.1-1.1-5.4v-6.1c0-.8.2-1.4.7-1.8.5-.4 1.1-.7 1.8-.7s1.3.2 1.8.7c.5.4.7 1 .7 1.8v5.7c0 1.3.2 2.2.6 2.9.4.7 1.1 1.1 2.2 1.4 1.1.3 2.7.4 4.9.4 2.1 0 3.7-.1 4.8-.3 1.1-.2 1.9-.7 2.4-1.3.5-.6 1-1.5 1.3-2.5.2-.7.6-1.1 1.3-1.4.7-.3 1.3-.3 2-.1.7.3 1.2.7 1.5 1.2.3.6.3 1.2.1 1.8-.5 1.8-1.2 3.2-2.1 4.2-.9 1-2.3 1.8-4.1 2.2-1.9.7-4.4.9-7.4.9zm4.1-11.7c-.5.5-1.1.7-1.8.7s-1.2-.3-1.7-.8c-.7-.8-1.6-1.7-2.5-2.6-.9-.9-1.8-1.8-2.6-2.5-.5-.4-.7-.9-.6-1.6 0-.6.3-1.1.7-1.6.5-.5 1-.7 1.6-.7.6 0 1.1.2 1.6.6.7.6 1.6 1.4 2.6 2.4 1.1 1 2 1.8 2.6 2.6.5.5.8 1.1.7 1.8.2.6-.1 1.2-.6 1.7zM521 33c-3.1 0-5.3-.6-6.7-1.8-1.3-1.2-2-3.3-2-6.2V10.9c0-2.9.7-5 2-6.2 1.3-1.3 3.6-1.9 6.7-1.9h3.7c3.1 0 5.3.6 6.7 1.8 1.3 1.2 2 3.3 2 6.3V25c0 2.9-.7 5-2 6.2-1.3 1.2-3.6 1.8-6.7 1.8H521zm-3.6-21.4h11V11c0-1.5-.3-2.5-1-3-.6-.6-1.7-.8-3.3-.8h-2.5c-1.6 0-2.7.3-3.3.8-.6.6-1 1.6-1 3v.6zm0 8.4h11v-4.3h-11V20zm4.2 8.6h2.5c1.6 0 2.7-.3 3.3-.8.6-.6 1-1.5 1-3v-.7h-11v.7c0 1.4.3 2.4 1 3 .6.5 1.7.8 3.2.8zM536 48.7c-.5.4-1.1.6-1.8.6s-1.2-.3-1.7-.9c-.6-.8-1.3-1.8-2.2-2.9-.9-1.1-1.8-2.1-2.7-3.2-.9-1.1-1.7-1.9-2.5-2.6-.4-.4-.6-1-.5-1.6.1-.7.3-1.2.8-1.6.5-.4 1.1-.6 1.7-.6.7 0 1.2.3 1.7.8.8.8 1.7 1.7 2.6 2.7l2.7 3c.9 1 1.6 1.9 2.2 2.7.4.6.6 1.2.5 1.9s-.2 1.2-.8 1.7zM563.1 54.3c-.7 0-1.2-.2-1.7-.7-.5-.5-.7-1-.7-1.7V22c-.7 1.2-1.5 2.4-2.2 3.5-.7 1.1-1.4 2.1-2.1 3-.4.5-1 .9-1.7 1-.7.1-1.4 0-1.9-.4s-.9-.9-1-1.6c-.1-.7 0-1.3.5-1.8 1.2-1.5 2.5-3.3 3.7-5.3 1.2-2 2.4-4.1 3.5-6.2 1.1-2.2 2.1-4.3 3-6.4.9-2.1 1.6-3.9 2.1-5.6.2-.7.6-1.2 1.3-1.6.7-.3 1.4-.3 2-.1.7.3 1.2.7 1.5 1.3.3.6.3 1.2 0 1.9-.5 1.4-1.1 2.9-1.8 4.4-.7 1.6-1.4 3.1-2.2 4.8v38.9c0 .7-.2 1.3-.7 1.7-.4.6-1 .8-1.6.8zm19.9-.1c-.7 0-1.2-.2-1.7-.6-.5-.4-.7-1-.8-1.7 0-.7.2-1.2.6-1.7.4-.5 1-.8 1.8-.8 1.5-.1 2.7-.3 3.5-.6.8-.3 1.4-1 1.8-1.9.3-.9.5-2.3.5-4.2v-1c-1.7 1.2-3.6 2.4-5.7 3.5-2.1 1.2-4.2 2.2-6.3 3.2-2.1 1-4.2 1.8-6.2 2.4-.7.2-1.3.2-1.9.1-.6-.2-1-.7-1.3-1.4-.2-.6-.2-1.2.1-1.7.3-.5.8-.9 1.5-1.1 2-.6 4.1-1.4 6.5-2.5 2.3-1 4.6-2.2 6.8-3.4 2.2-1.2 4.2-2.4 5.9-3.6-.2-.5-.3-.9-.5-1.3s-.4-.8-.5-1.2c-2.2 1.5-4.8 3.1-7.8 4.5-3 1.5-6 2.8-8.9 3.8-.6.2-1.2.2-1.8 0-.6-.2-1-.6-1.2-1.3-.2-.6-.2-1.2.1-1.7.3-.5.7-.9 1.4-1.1 2.8-.9 5.5-2 8.4-3.3 2.8-1.3 5.3-2.7 7.5-4.1l-.9-.9c-.3-.3-.6-.6-1-.8-1.8 1.1-3.8 2.1-5.9 3.1-2.1.9-4.2 1.7-6.4 2.4-.7.2-1.3.2-1.8 0-.6-.2-1-.6-1.2-1.2-.2-.6-.2-1.2 0-1.8.2-.6.7-1 1.5-1.2 2.1-.7 4.3-1.4 6.6-2.4 2.2-.9 4.3-1.9 6.2-3h-1.6c-2.1 0-3.8-.2-4.9-.6-1.2-.4-2-1.1-2.5-2.1s-.7-2.3-.7-3.9c0-.5 0-1 .1-1.5 0-.4.1-.9.2-1.2-.3.2-.5.5-.8.7-.2.2-.5.5-.8.7-.5.4-1.1.6-1.8.7-.7 0-1.3-.3-1.8-.8-.4-.5-.6-1-.5-1.7 0-.7.3-1.2.8-1.6 1.5-1.2 2.9-2.5 4.4-4.1 1.5-1.6 2.9-3.2 4.2-4.8 1.3-1.7 2.3-3.2 3.1-4.6.4-.7.9-1 1.6-1.2s1.3 0 2 .4c.6.4.9.9 1 1.5.1.6 0 1.2-.3 1.8-.1.2-.2.4-.4.6-.1.2-.3.4-.4.6h6.7c2.5 0 4.1.7 4.8 2 .7 1.4.5 3-.8 4.8-.2.3-.4.7-.6.9h3c2.1 0 3.8.2 4.9.6 1.2.4 2 1.1 2.5 2 .5 1 .7 2.3.7 4 0 1.7-.2 3-.7 3.9-.5 1-1.3 1.7-2.5 2.1-1.2.4-2.8.6-4.9.6h-7l-1.2.9-1.2.9c1.1.9 2.1 1.8 2.9 2.8.8 1 1.6 2.1 2.2 3.2.9-.6 1.8-1.3 2.9-2 1-.7 2-1.5 2.9-2.2.9-.7 1.7-1.4 2.4-1.9.5-.5 1.2-.7 1.8-.7.7 0 1.2.3 1.7.8.4.5.6 1.1.6 1.8 0 .6-.3 1.2-.8 1.6-1 .8-2.3 1.8-4 2.9-1.7 1.2-3.2 2.2-4.7 3.2 1.2 1 2.4 2 3.9 3.1 1.4 1.1 2.8 2.2 4.3 3.2 1.4 1 2.7 1.8 3.8 2.5.6.4.9.9 1.1 1.6.1.7 0 1.3-.4 1.8-.5.6-1 1-1.7 1-.7.1-1.3-.1-2-.5-1.3-.9-2.9-2.1-4.7-3.5-1.8-1.5-3.4-2.9-5-4.3v1c0 4.1-.8 6.9-2.5 8.6-1.9 2.1-4.6 2.9-8.2 2.9zm-7-41.1c1-.3 2.4-.4 4.2-.4h6.8c.5-.7.9-1.3 1.3-1.9.4-.6.5-1.1.3-1.4-.2-.3-.7-.5-1.4-.5h-7.4c-1.3 1.4-2.5 2.8-3.8 4.2zm4 8.8h5.4v-5.1H580c-1.2 0-2 .2-2.4.5-.4.3-.6 1-.6 2s.2 1.7.6 2c.4.4 1.3.6 2.4.6zm10.5 0h5.2c1.2 0 2-.2 2.4-.5.4-.3.7-1 .7-2s-.2-1.7-.7-2c-.4-.3-1.3-.5-2.4-.5h-5.2v5zM91.3 44.2c-.6-.3-1-.8-1.2-1.4-.2-.7-.1-1.3.2-1.8.8-1.4 1.7-2.9 2.4-4.7.8-1.7 1.5-3.5 2.2-5.2.7-1.8 1.2-3.4 1.6-5 .2-.6.6-1.1 1.1-1.4.6-.3 1.1-.3 1.8-.1.7.2 1.1.5 1.5 1 .3.5.4 1.1.3 1.8-.5 1.8-1 3.6-1.7 5.5s-1.4 3.8-2.2 5.5c-.8 1.8-1.6 3.3-2.4 4.7-.3.6-.9 1-1.6 1.3-.7.2-1.4.2-2-.2z"/>
    <path class="st0" d="M100.9 53.4c-.8 0-1.4-.2-1.9-.7-.5-.4-.8-1-.8-1.8 0-.7.2-1.4.6-1.9.5-.5 1.1-.8 2-.9 1.4-.1 2.3-.4 2.7-.7.4-.4.5-1.1.5-2.3V16.3h-5.9l-1.5 3.3c-.5 1.1-1 2.1-1.6 3.1-.3.6-.8 1-1.4 1.3-.7.2-1.3.2-2-.1-.6-.3-1-.8-1.2-1.4-.2-.6-.1-1.2.2-1.8.9-1.6 1.8-3.4 2.7-5.4.9-2.3 1.7-4.3 2.4-6.5.7-2.1 1.3-4.1 1.7-5.9.2-.7.6-1.2 1.1-1.5.6-.3 1.2-.4 1.8-.2.7.2 1.1.5 1.5 1 .3.5.4 1.1.3 1.8-.3 1.3-.7 2.6-1 3.9-.4 1.3-.8 2.6-1.3 4h20c.7 0 1.2.2 1.6.7.4.4.6 1 .6 1.6 0 .6-.2 1.1-.6 1.6-.4.4-1 .7-1.6.7H109v29.6c0 2.6-.6 4.5-1.8 5.7-1.3 1-3.3 1.6-6.3 1.6z"/>
    <path class="st0" d="M121 44.3c-.7.3-1.4.3-2 0-.6-.3-1-.8-1.3-1.5-.4-1.5-1-3.1-1.6-4.9-.6-1.8-1.3-3.6-2-5.4-.7-1.8-1.4-3.5-2.2-5-.3-.7-.3-1.3 0-1.8.3-.6.7-.9 1.3-1.1.7-.2 1.3-.2 1.8 0 .6.2 1 .6 1.3 1.3.7 1.4 1.4 3 2.2 4.8.8 1.8 1.5 3.7 2.2 5.5.7 1.9 1.3 3.5 1.7 5 .5 1.5 0 2.5-1.4 3.1zM81.9 54.1c-.7 0-1.2-.2-1.7-.7-.5-.5-.7-1.1-.7-1.8V22c-.7 1.2-1.5 2.3-2.2 3.4-.8 1.1-1.5 2.1-2.3 3-.5.6-1 .9-1.7 1-.7.1-1.3 0-1.9-.4-.6-.4-.9-.9-1-1.6-.1-.7.1-1.3.5-1.8 1.2-1.5 2.4-3.2 3.7-5.1 1.3-2 2.5-4 3.7-6.2 1.2-2.1 2.2-4.3 3.1-6.3.9-2.1 1.7-3.9 2.2-5.4.2-.8.7-1.3 1.3-1.6.6-.3 1.3-.3 2-.1.7.2 1.1.6 1.5 1.2.3.6.4 1.2.1 2-.5 1.4-1.1 2.9-1.7 4.4-.7 1.5-1.4 3.1-2.1 4.7v38.5c0 .7-.3 1.3-.7 1.8-.8.3-1.4.6-2.1.6z"/>
</svg>
