<svg xmlns="http://www.w3.org/2000/svg" width="388.3" height="58.9" style="overflow:visible;enable-background:new 0 0 388.3 58.9" xml:space="preserve">
    <style>
        .st0{fill:#e25744}
    </style>
    <path class="st0" d="M7.5 58.9c-.3 0-.6 0-1-.1-4.1-.5-7-4.3-6.5-8.4l4.6-35.9c.8-6 4.5-10.9 10.1-13.2C20.2-1 26.4-.2 31.2 3.4L60 25.3c3.3 2.5 3.9 7.2 1.4 10.5s-7.2 3.9-10.5 1.4L22.1 15.4c-.6-.5-1.2-.4-1.6-.2-.6.2-.9.7-.9 1.2L15 52.3c-.5 3.8-3.7 6.6-7.5 6.6zM380.7 58.9c-3.7 0-7-2.8-7.5-6.6l-4.6-35.9c-.1-.7-.6-1.1-.9-1.2-.4-.2-1-.3-1.6.2l-28.8 21.9c-3.3 2.5-8 1.9-10.5-1.4s-1.9-8 1.4-10.5L357 3.5c4.8-3.6 10.9-4.4 16.5-2.1 5.5 2.3 9.3 7.3 10.1 13.2l4.6 35.9c.5 4.1-2.4 7.9-6.5 8.4h-1zM269.9 34.3c-.6 0-1.2-.1-1.8-.4-47.7-18.9-100.2-18.9-147.9 0-2.6 1-5.5-.2-6.5-2.8-1-2.6.2-5.5 2.8-6.5 50.1-19.8 105.2-19.8 155.3 0 2.6 1 3.8 3.9 2.8 6.5-.8 2-2.7 3.2-4.7 3.2z"/>
</svg>
