<!-- Generator: Adobe Illustrator 25.0.0, SVG Export Plug-In  -->
<svg version="1.1" xmlns="http://www.w3.org/2000/svg" xmlns:xlink="http://www.w3.org/1999/xlink" x="0px" y="0px" width="770.6px"
	 height="351.6px" viewBox="0 0 770.6 351.6" style="overflow:visible;enable-background:new 0 0 770.6 351.6;"
	 xml:space="preserve">
<style type="text/css">
	.st0{fill:#191919;}
</style>
<defs>
</defs>
<g>
	<g>
		<path class="st0" d="M3.9,283.1c6.3-3.2,19.3-2.9,26.6-2.9c5.7,0,23,0.7,23-7c0-3.4-2.8-3.9-5.9-3.9c-10.2,0-20.5,1.3-30.7,1.3
			c-8.3,0-8.9-8.8-8.9-14.3c0-19.5,46-5.2,46-18.1c0-4.3-8.5-4.5-11.8-4.5c-5.1,0-10.4,0.7-15.5,0.7c-9.2,0-11.2-3.8-11.2-11.6
			c0-4.8,0.4-7.9,5.1-10.9c3.5-2.1,116.9-12.5,128.7-12.5c10.6,0,16.3,10.4,16.3,19c0,2.5-2.2,3.9-4.3,5
			c-10.4,4.7-29.7,5.5-41.3,6.3c-7.9,0.4-18.5,0.4-25.8,3.2c-1.4,0.5-2.4,1.3-2.4,2.7c0,3.9,3.5,4.7,7.1,4.7c18.7,0,37.4-2,56.1-2
			c13.8,0,20.1,0.7,20.1,15c0,18.2-83.2,4.7-83.2,17.9c0,4.5,4.9,4.8,8.9,4.8c23,0,45.8-3.6,68.9-3.6c11.6,0,17.9,1.6,17.9,13.6
			c0,22-88.5,8.4-95,20.7c-0.6,1.1-0.8,2.7-0.8,3.9c0,5,0.2,11.8,7.7,11.8c5.3,0,36.8,0.7,41.7-3.2c5.9-4.8,4.5-16.8,10.6-16.8
			s31.9,0.2,31.9,8.2c0,5.2-3,12.5-5.3,17.3c-10.6,21.3-40.5,21.8-62.6,21.8c-8.9,0-17.9,0.5-26.8,0.5c-17.5,0-28.3-2.5-32.9-19.3
			c-1.6-5.7-2-12-2-17.9c0-2.1-0.4-4.5-2.2-5.9c-1.6-1.4-4.3-1.6-6.5-1.6c-8.9,0-17.5,0.4-26.4,0.4C4.1,306,0,303.1,0,289.2
			C0,286.5,1.4,284.4,3.9,283.1z"/>
		<path class="st0" d="M298,235.7v-0.9c0-3-8.3-3-10.6-3c-3.5,0-6.9,0.4-10.2,0.4c-11.2,0-11.4-6.3-11.4-14.5
			c0-9.3,7.9-11.6,16.7-11.6c3.7,0,7.7,0.4,11.4,0.4c22.8,0,0-17,22-17c4.9,0,23-0.2,24.2,5.7c0.2,1.4,0.2,2.7,0.2,4.1
			c0,2.5,0.4,3.8,2.6,5.2c3.7,2.5,15.7,2.9,20.5,2.9c15.1,0,19.7,5.7,19.7,19c0,7-10.2,7.2-15.7,7.2c-4.9,0-9.8-0.7-14.8-0.7
			c-4.5,0-7.9-0.4-12,1.3c-8.1,3-23,20.4-27,27.7c0,1.4,1.6,2.5,3,2.5c9.8,0,25.4-25.6,36.8-25.6c5.3,0,19.7,6.1,19.7,11.8
			c0,3.9-6.5,10.2-9.4,13.1c-9.2,9.1-23,19.7-34.4,26.6c-8.7,5.4-18.7,9.8-28.3,13.8c-7.5,3-21.6,8.6-29.7,8.6
			c-9.2,0-14.8-11.6-14.8-18.8c0-9.1,27.7-7.3,27.7-16.6c0-3.9-8.5-12.9-12.8-12.9c-2.6,0-2.8,3.4-2.8,5c0,2.3,0.4,4.5,0.4,6.8
			c0,16.1-23.8-0.2-23.8,20.2c0,13.2,1.2,26.3,1.2,39.5c0,7-2.6,14.1-11.6,14.1c-21.2,0-34.2-1.4-34.2-24.3c0-2.3,1.8-3.8,4.3-3.8
			c2.4,0,4.7,0.5,7.1,0.9l2.6-0.9V318c0-4.3-0.4-26.3-5.5-27.2c-0.6,0-1-0.2-1.6-0.2c-1.4,0-2.8,0.4-4.3,0.4
			c-7.9,0-6.9-18.4-6.9-22.7c0-1.3,0.4-2.1,1.4-2.9c6.9-5.2,15.7,1.1,15.7-11.8c0-2.1-0.4-4.1-0.4-6.3c0-4.7,2.2-4.7,6.3-5.9
			c1.6-0.5,2-1.3,2.8-2.5c1.8-3,6.1-8.2,6.1-11.4c0-2.5-6.3-2.9-8.3-2.9c-3.5,0-7.3,0.5-10.8,0.5c-6.3,0-9.2-2-9.2-7.9
			c0-5,0.6-11.1,4.5-14.8c5.5-5.4,36-4.8,44.7-4.8c12.2,0,13.4,4.7,13.4,14.5c0,4.7-0.6,9.3-2.6,13.8c-1.8,4.1-3.7,8-5.9,12
			c-3,5-8.7,13.4-8.7,19c0.2,0.2,2.6,0.9,3,0.9c5.5,0,10.4-0.7,15.5-2.5l-3-2.7c1.6-2.9,19.5-15.2,22.8-15.2c4.7,0,4.9,4.1,7.7,4.1
			c1.8,0,4.3-1.8,4.7-3.4L298,235.7z M320.3,333.9c-12.8,4.8-36.6,16.3-49.4,16.3c-8.1,0-14.8-7.9-14.8-14.8
			c0-5.9,16.1-9.5,20.9-11.3c19.7-7.2,38.4-16.3,55.9-27.2c7.3-4.5,13.6-9.5,20.5-14.3c3.5-2.5,11.6-8.6,16.1-8.6
			c4.3,0,14.6,5.4,14.6,9.8c0,7.9-20.3,19-20.3,24.9c0,7.2,18.3,10.6,18.3,16.6c0,6.8-12,20.7-19.7,21.5
			c-10.8-3.8-16.9-15.9-29.5-15.9C328.7,330.9,324,332.5,320.3,333.9z"/>
		<path class="st0" d="M434.4,254c-1.4-0.7-2.8-0.9-4.3-0.9c-2.2,0-4.3,0.4-6.7,0.4c-14.8,0-0.4-10.4-14-10.4
			c-1.8,0-3.7,0.5-5.5,0.5c-6.3,0-7.1-3.2-7.1-8.2c0-7.9,0-16.5,3.3-24c1-2.1,2.4-4.1,4.7-5.4c9.8-5,38-2.9,50.8-4.7
			c4.7-0.7,13.2-2.1,13.2-7.7c0-5.7,8.5-6.1,13-6.1c4.3,0,19.9-0.4,22.2,3.6c1,1.6,0.8,2.3,0.8,3.9c0,3,3.7,4.3,6.5,5
			c4.3,1.1,9.2,1.1,13.8,1.1c9.8,0,34.8,0.4,42.7,4.8c3,1.6,5.5,4.1,6.9,7c3.3,7,3,15.4,3,22.9c0,12.3-14,5-17.9,8.6
			c-3.3,3,3.1,8.8-10.2,8.8c-2.2,0-4.3-0.4-6.5-0.4c-4.1,0-8.1,0.2-8.1,4.8c0,1.8,2.2,9.8,4.7,9.8c6.5,0,7.3-8.2,14-8.2
			c6.5,0,20.9,6.4,20.9,13.2c0,9.1-14.4,14-14.4,23.6c0,10.9,18.3,17.3,18.3,25.2c0,6.6-13.6,21.3-21,21.3c-5.5,0-10.2-3-14-6.4
			c-10.4-9.7-19.1-24.1-25.2-36.5c-6.3-12.5-11.8-25.2-17.5-37.9c-0.8-1.6-3-6.8-4.5-7.9c-2.4-1.6-4.1-1.3-7.1-1.3
			c-1.8,0-5.7-0.2-5.7,2.1c0,2.9,3.1,6.6,5.1,8.8c3.9,4.3,7.5,8.9,11,13.4c4.5,5.7,8.1,12,11.2,18.4c3.5,7.3,4.9,15.2,4.9,23.1
			c0,26.6-8.1,33.1-37,33.1c-4.7,0-19.7-0.4-21.8-4.6c-1.6-3.2-1.2-14.1-6.3-14.1c-8.1,0-21.6,10.4-30.9,10.4
			c-7.1,0-15.7-10-15.7-16.1c0-10.2,67.7-23.6,67.7-35.4h-0.8c-11.8,0-39.7,20-54.9,20c-6.5,0-14.4-8.2-14.4-14
			c0-10.2,49.6-16.1,50.8-24.1l-1.8-2.1c-10.8,1.6-26.2,11.4-35.2,11.4c-6.1,0-14.2-9.7-14.2-14.8c0-4.3,28.7-12,33.4-13.8
			L434.4,254z M457.6,224.6c-3.1,0-23.8,0.7-23.8,4.5c3,0.5,6.1,0.9,9,0.9h82.2c1.6,0,10.6-0.5,10.6-2.3c0-2.9-12.2-3-14.6-3H457.6z
			 M477.1,326.2c1,0,2-0.4,2.8-0.9c0.4-1.1,0.6-2.5,0.6-3.6v-3.6l-1.6-1.4c-2.4,0-11.8,5.4-11.8,7.7c0,1.4,3.7,1.8,4.9,1.8H477.1z"
			/>
		<path class="st0" d="M751.9,343.6c-17.3,0-44.1-29.3-52.5-41.9c-2.8-3.9-4.3-8.4-8.3-11.6c-1.4-1.3-3.1-1.8-5.1-1.8
			c-1.6,0-3.1,0.5-4.5,1.4c-3.7,2.7-11,12-14.4,15.9c-10.4,12.5-22,24.9-36.6,33.4c-3.5,2-8.3,5.7-12.4,5.7
			c-7.5,0-21.8-12.5-21.8-19.3l0.8-2.5c3-2.7,6.5-5,9.6-7.7c7.1-5.4,14-11.1,20.7-16.8c8.1-7,15.3-14.5,21.2-23.1
			c5.9-8.4,9.8-18.1,12.4-27.7c3.3-12.3,4.1-25.2,4.1-37.7c0-3.4,0-10.9,3.3-13.1c3.3-2.1,11-1.8,15-1.8c4.5,0,14.4-0.4,17.1,3.8
			c1.6,2.3,2,8,2.2,10.7c0.4,6.6,1.2,13.1,2,19.7c2.4,17.5,7.3,35.1,17.3,50.3c3.1,4.7,6.5,8.9,10.4,13.1c4.9,5,38.2,28.6,38.2,32.6
			C770.6,331.8,759.4,343.6,751.9,343.6z"/>
	</g>
	<g>
		<path class="st0" d="M368.9,67.6c0.1,4.5-8.5,9.7-8.3,13.1c0.3,7.1,19.4,4.6,19.5,11.9c-0.2,13.3-15.3,35.5-34.1,36.9
			c-15.4,1.3-23.9-8.7-33.1-7.5c-10.9,1.6-16.4,10.3-25.6,12.2c-7,1.4-18.1-5.9-19.4-11c-1.5-5.7,29.5-18,28.5-25.3
			c-1.1-6.5-9-27.5-19-28.6c-4-0.4-8,0.4-12.1,1.3c-5.5,1.2-15.9,3.1-14.5,8.7c0.5,2,1.1,3.7,4.6,2.8c7.2-1.7,13.2-5.3,20.5-6.8
			c6.9-1.4,9.4,9.6,9.9,12.8c1.8,9.4-29.8,10.7-27.4,20.5c1.4,5.7,3.2,11.4,4.6,17.1c2.9,12.1-0.1,17.1-15.9,21.7
			c-19.3,5.7-30.6,9.6-37.1-8c-0.7-1.9,3.9-3.8,5.8-4.4c2.8-1,5.8-1.5,8.6-2.4c0.8-0.3,1.7-0.7,2.3-1.2c0.1-1.1,0-2-0.4-3.1
			c-0.8-2.5-2.1-7.8-5.4-8.9c-2,0.5-3.7,1.1-5.7,1.7c-5,1.7-9.6,4-14.6,5.8c-7.2,2.7-14.4-8-15.9-11.9c4.8-9.9,32.1-11.7,28.6-22.3
			c-1.7-5.2-6.2-5.8-13.6-3.2c-2.9,1-5.7,2.2-8.6,3.2c-10.6,3.9-14.1,2.7-16.9-4.3c-2.7-6.7,1-12.2,11.6-16.1
			c3.6-1.3,7.1-2.4,10.5-3.5c6-2,8.8-4.9,7.5-9c-0.2-0.6-0.6-1.1-0.9-1.4c-0.8-0.2-2.1,0.1-3,0.4c-5.6,1.9-10.5,4.6-16.1,6.6
			c-6.9,2.5-10.2-5-11.4-8.2c-1.1-3,0-5.2,3.5-8.2c5.4-5.8,59.1-31.5,67.9-32.7c8.9-2.1,17.6,5.2,18.6,10
			c2.3,10.8-22.8,5.6-18.4,23.5c0.9,3.7,10.2,1.9,14.3,1c2.2-0.5,4.6-1.1,7-1.7c9.6-2.3,8.4-9.9,7.4-14.7c-0.8-4.2-2.9-8-3.7-12.2
			c-2.2-11.1,3-13.3,19.5-16c4.5-0.7,11.5-1.7,15.7-0.9c5.2,1.1,2.7,6,6.2,5.6c6.3-0.8,13.4-6.9,22.4-7.6c9.5-1,36.3,20.8,36.1,26.5
			c0.1,2.9-13.3,4.9-13.2,7.1c0.1,1.3,12.1,1.1,13.9,1.3c8.3,0.4,8.8,9,8.8,13.1c0,6.9-10.2,7-17.7,7.4c-2.6,0.1-5.2,0.1-7.5,1
			C353.2,62.4,368.8,61.6,368.9,67.6z M312,22.2c-0.8,2.6,0.4,6.8,0.7,9.6c0.9,7.3,6.7,8.9,17.3,7.9c1.8-0.2,5.6-0.3,5.4-2
			c-0.1-3.2-17-17.2-21.7-16.6C312.8,21.2,312.2,21.6,312,22.2z M327.7,60.9c-3.2,0.3-4.3,2.1-4.1,4.1c0.2,1.9,1.3,7.7,5,7.3
			c2.5-0.3,9-7.9,8.9-9.8c-0.2-2.5-3.4-2.2-6.2-2C330.1,60.7,328.9,60.8,327.7,60.9z M350.7,90.8c-3.9,0.2-10,6.6-9.8,9.3
			c0.1,1.5,2.2,2.9,4.2,2.8c4.7-0.3,6.6-8.7,6.4-11.4C351.3,91.3,351,91,350.7,90.8z"/>
		<path class="st0" d="M390.6,53.9c0.1-6.5,0.5-33.5,10.8-36.2c8.2-2.1,13.3,1.7,20.1-3.9c2-1.7,3.7-3.3,4.6-5.3
			c4.7-9.8,10-9.1,25.3-7.5c5.5,0.6,17.1,3.6,16.5,8c-0.4,3.1-3.6,5.3-4,8.4c-0.4,3.1,7.4,4.1,10.6,4.6c2.1,0.3,4.1,0.5,6.2,0.8
			c13.3,2.2,4.1,6.2,9.2,8.9c9.7-0.8,12.3-23.9,31.1-19.8c6.1,1.3,26.2,6.9,24.7,12.4c-0.5,1.8-2.3,2.9-2.8,4.7
			c-1.7,6.1,43,17.1,51.4,25.2c10.4,9.1-0.8,33-3.9,41.1c-3.8,9.6-8.6,18.8-13.7,27.9c-5.4,9.8-14.1,22.6-25,28.5
			c-2.3,1.2-5.1,1.6-8,1.4c-10.5-0.6-20.6-4.3-30.8-7.1c-13.5-3.7-19.2-4.7-16.4-17.1c1.5-6.7,6.4-8.7,15.5-6.4
			c4.4,1.1,8.6,2.9,13,4.2c1.9,0.5,4.3,0.9,6.1,0.4c6.9-1.9,19.9-40.1,22.2-47.3c1.3-4.2,5-12.9,1.3-17.5c-1.4-1.7-4.2-3.1-6.5-4.1
			c-4-1.6-8.3-2.9-12.5-4c-10.5-2.9-22.2-1.1-24.7,6.1c0.1,0.3,0.2,0.5,0.3,0.8c0.5,0.3,1.1,0.5,1.6,0.8c3.4,0.8,6-0.4,9.6,0.5
			c10.8,2.6,17.7,32.8,15.7,38.8c-1.9,6.1-18,5.2-25,3.5c-11.1-2.8-10.7-32.7-18.7-34.3c-3-0.6-2.9,1.4-6.5,0.7
			c-1.7-0.3-3-1.2-4-2.1c-0.5,0.2-1.1,0.4-1.6,0.6c-1.6,1.7-4,14.1-4.5,16.9c-1,5.5-1.6,11.1-2.5,16.6c-2,11.1-3.6,21.8-21.9,19
			c-1.5-0.2-3-0.4-4.6-0.8c-5.5-1.2-11.2-2-16.7-2.5c-9.9-0.9-3.7,6.5-7.8,8c-2,0.7-6.4,0.1-8.3,0c-4.3-0.3-10.7-1.2-14.2-3.4
			c-10.1-6.4-11.3-40.9-11.1-51C390.4,66.5,390.5,60.2,390.6,53.9z M437.8,39c-7.8-0.7-8.7,2.5-9,6.9c-0.2,2-0.3,3.9-0.5,5.9
			c-0.3,3.7,1,6.1,7,6.7c9.9,0.9,10.6-1.4,11.2-7.4c0.2-1.6,0.6-3,0.7-4.7c0.4-3.5-0.6-6.5-6.8-7.1C439.5,39.1,438.6,39.1,437.8,39z
			 M442.6,93.7c0.2-2.1,0-4,0.3-5.9c0.6-5.5-1.4-8.2-9.5-9c-5.4-0.5-7.4,1.4-7.7,5.1c-0.1,1.9-0.3,3.7-0.4,5.6
			c-0.3,4.4,1.6,8.5,8.1,9.1C439.4,99.2,442.1,98.2,442.6,93.7z"/>
	</g>
</g>
</svg>
