<svg xmlns="http://www.w3.org/2000/svg" width="352.7" height="82.3" style="overflow:visible;enable-background:new 0 0 352.7 82.3" xml:space="preserve">
    <style>
        .st0{fill:#e25744}
    </style>
    <path class="st0" d="M86.1 67.9C78.2 82.6 102.9 82 110.9 82c1.5 0 3 0 4.5-.1 8.8-.4 17.3-1.5 25.2-3.6 7.8-2 15.3-4.8 22.2-8.2 1.9-.9 3.8-1.9 5.6-3 .1.2.3.4.5.6.8.8 2 1.3 3.2 1.3h8.2c1.2 0 2.4-.5 3.2-1.3.2-.2.3-.4.5-.6 1.9 1.1 3.7 2.1 5.5 3 6.9 3.5 14.4 6.3 22.3 8.3 8.5 2.2 17.3 3.3 26.1 3.6 6.6.2 13.6 1.1 20.2-.5 3.2-.8 6.2-1.9 8.1-4.7 1.6-2.4 3.2-6.4.6-8.7-2.9-2.7-6.6-1.4-10-.9-4.5.5-8.9.8-13.4.8-8.5 0-17-.9-25.2-2.8-6.9-1.6-13.4-4-19.6-6.9-.3-.1-.6-.3-.9-.4 8.1-2.2 21.3-6.6 32.4-13 .2-.1.3-.2.5-.3 6.9-5.2 11.6-11.5 13.8-18.4 1.4-4.6 1.5-9.2.2-13.5v-.1c-.7-1.9-1.7-4.4-3.8-6.5-1.9-2.1-4.3-3.7-7.1-4.7-4.2-1.4-9-1.6-13.4-.4-3.6.9-7.1 2.5-10.7 4.9-3 2-5.8 4.4-8.5 7.2-.2.3-.5.5-.7.8-.3.4-.7.8-1 1.2l-.1.1c-.5.7-1 1.3-1.6 2.1l-2.8 3.8c-3.2 4.4-7.1 9.5-11.4 14.5l-.3.3c-.8-.9-2-1.5-3.3-1.4h-7c-1.3 0-2.5.5-3.3 1.4l-.4-.4c-4.2-4.9-8.1-10.1-11.4-14.5l-1.1-1.5c-.6-.7-1.1-1.5-1.7-2.2 0 0 0-.1-.1-.1-.5-.7-1-1.3-1.6-2 0 0-.1-.1-.1-.2-.6-.6-1.1-1.2-1.7-1.9-2.6-2.7-5.4-5.1-8.4-7.1-3.5-2.3-7-3.9-10.6-4.9-4.5-1.2-9.2-1.1-13.5.4-2.7 1-5.1 2.6-7 4.6-2.1 2.2-3.2 4.8-3.8 6.7-1.3 4.3-1.2 8.9.2 13.5 2.2 6.8 7 13.2 13.8 18.4.2.1.3.2.5.4 0 0 .1 0 .1.1 13.9 7.4 25.7 11.1 32.3 12.9-.4.2-.7.4-1.1.5-6.1 2.9-12.7 5.2-19.5 6.9-6.9 1.6-14.3 2.6-22 2.8-6.7.2-13.8-.3-21.9-1.6-1.4-.2-2.7.1-3.6.9m108.1-23.3c.2-.3.5-.6.7-.8 4.2-5.2 8.1-10.5 11.3-15.1l2.5-3.6 1.2-1.5c.4-.5.8-1 1.2-1.4 1.7-1.9 3.5-3.5 5.5-4.8 2-1.4 4.1-2.3 6-2.8 1.7-.4 3.2-.4 4.6 0 .4.2.8.5 1.1.8l.1.1c.3.4.6 1.3.8 1.7.4 1.8.3 3.9-.5 5.9-.8 2.3-2.2 4.7-4.1 6.8-2.1 2.3-4.4 4.3-7.1 6-5.3 3.4-12 6.1-19.9 8-1.1.2-2.2.5-3.4.7zM134 35.5c-2.7-1.7-5-3.7-7.1-6-1.9-2.1-3.3-4.5-4.1-6.8-.7-2-.9-4.1-.5-5.9.1-.4.4-1.4.8-1.7l.1-.1c.3-.4.7-.7 1.1-.8 1.4-.4 3-.5 4.6 0 1.9.5 4 1.5 6 2.8 2 1.3 3.9 3 5.5 4.7.4.5.8 1 1.3 1.5.4.5.8 1 1.1 1.5.4.6.9 1.2 1.3 1.8.4.6.8 1.2 1.3 1.8 3.4 4.8 7.1 10 11.2 15.1.3.3.5.6.8.9-1.2-.2-2.3-.5-3.4-.7-8-1.9-14.7-4.6-20-8.1z"/>
    <path class="st0" d="M176.3 57.2c-59.5 0-117.8-11.1-173.2-33-2.6-1-3.8-3.9-2.8-6.5s3.9-3.8 6.5-2.8C61 36.4 118 47.2 176.3 47.2s115.3-10.9 169.5-32.3c2.6-1 5.5.2 6.5 2.8 1 2.6-.2 5.5-2.8 6.5-55.4 21.9-113.6 33-173.2 33z"/>
</svg>
