<svg xmlns="http://www.w3.org/2000/svg" width="407.6" height="52.7" style="overflow:visible;enable-background:new 0 0 407.6 52.7" xml:space="preserve">
    <style>
        .st0{fill:#191919}
    </style>
    <path class="st0" d="M8 40c-1.4 0-2.8.1-4.1-.6C0 37.3 0 24.1 0 20.2 0 16.4.3 7.8 2 4.6 2.6 3.4 3.5 2.4 5 2c1.3-.4 2.7-.5 4-.5 1 0 1.9.1 2.8.5 3.9 1.6 6.9 18.2 10.2 18.2 4 0 7.1-14.5 9.7-17.3 1.5-1.6 4-1.4 6.1-1.4 2.1 0 3.8.7 4.8 2.4 2.4 4.2 2.5 10.8 2.5 15.5 0 1.2.1 2.4.1 3.6 0 4.3-.2 12.3-3.5 15.6-1.4 1.4-3 1.2-5 1.2-2.9 0-3.6-1.2-3.6-3.7 0-4.1.2-8.2.2-12.3 0-.8-.3-1.5-.4-2.3-3 0-1.3 10.8-10.6 10.8-8.3 0-7.8-10.7-10.1-10.7-.7.4-.6 4.5-.6 5.3 0 3 .2 6.1.2 9.1-.1 2.7-.7 4-3.8 4zM61.1 41.3c0-2.1-.5-4.2-1.3-6.2-1.8-4.4-4-8.7-5.9-13.1-.8-1.9-1.3-3.8-1.3-5.8 0-2.9 4.5-3.1 6.8-3.1 7.8 0 4.8 14.7 8.4 14.7.7 0 1-.6 1.3-1.1.4-.8.6-1.8.8-2.7.6-2.3.9-4.8 2-7.1.4-1 1.1-1.9 2-2.7.9-.8 2-1.1 3.2-1.1 2.8 0 5.8.1 5.8 3.4 0 5.1-9.8 28.2-13.2 32.9-.6.8-1.3 1.6-2.1 2.2-1.5 1.2-2.8 1-4.7 1-1.5 0-4.3-.2-4.3-2-.2-3.2 2.5-5.9 2.5-9.3zM132.7 35.7c0 4.8-1.4 4.6-6.1 4.6-5.6 0-5.9-7.8-5.9-11.4 0-3.7-.7-12.6 2.9-15.3.6-.5 1.5-.7 2.3-.7 1.3 0 2.6-.1 3.9-.1 2.2 0 2.7.3 3.1 2.3 1.1 0 4.5-2.9 8.4-2.9 10.6 0 11.4 8 11.4 15.6v5.1c0 5.5-2.7 7.4-8.6 7.4-2.9 0-3.2-2.1-3.2-4.3 0-1.2.2-2.4.2-3.6v-8c0-2.3-.4-4.3-3.5-4.3-4.1 0-5 2.6-5 5.8 0 1.1.1 2.1.1 3.1v6.7zM184.6 29.5c-2.3 0-4.7-.2-7-.2-1.2 0-8.1-.1-8.1 1.3 0 2.8 4.9 3.4 7.2 3.4 2.9 0 5.5-.9 8.4-.9 1.2 0 1.8.7 1.8 1.8 0 1.4-.1 3.3-1.3 4.3-1.6 1.3-8.5 1.8-10.7 1.8-9.7 0-17.7-5.8-17.7-14.9 0-9.3 8.4-14.2 17.9-14.2 6.5 0 11.6 3.8 13.7 9.3.8 2 1 3.9 1 6.1 0 2.2-3.5 2.2-5.2 2.2zm-8.7-5.6c1.2 0 2.6-.2 2.6-1.5 0-2.4-2.2-3.6-4.6-3.6-2.7 0-5 1.4-5 4 0 .9 2.4 1.1 3.1 1.1h3.9zM216.2 26.9c-1.4 3.9-.4 9-3.7 12.2-1.2 1.2-2.9 1.4-4.6 1.4-2 0-3.9 0-5.6-.9-4.3-2.4-7.5-16.7-7.5-21.2 0-4.7 1.8-5.4 6.6-5.4.6 0 1.6.1 2.1.3.6.2 1 .9 1.3 1.4.6 1.4 1.2 8.6 1.5 10.8.1.8.2 1.6.4 2.4.1.1.3 1.2.6 1.1.4-.4.8-1.9.9-2.5.5-2.6 1-5.1 1.5-7.7.2-1.1.4-2.1.9-3.1.4-.9 1.2-1.7 2-2.2 1.5-1 3.7-.8 5.5-.8 1.6 0 3.6.3 4.7 1.4 3.1 3.1 2.1 11.3 4.3 15.2 1.5-.4 2-11.7 2.3-13.5.1-.8.5-1.7 1.3-2.2.8-.4 1.8-.6 2.7-.6 4.1 0 6.2.5 6.2 4.7 0 5-2.8 18.2-7.1 21.4-1.8 1.4-4.3 1.4-6.5 1.4-1.3 0-3.3-.2-4.3-1-1.6-1.2-2.6-9.7-3.2-11.8-.2-.6-.4-2.1-1.2-2.1-.8.1-.9.8-1.1 1.3zM260.6 13.4c0 1.2-.1 2.3-.1 3.5 0 2.7.2 5.4.2 8.1 0 3.5 0 15.3-5.7 15.3-2 0-4.1-.2-5.3-1.9-2-3-1.8-14.8-1.8-18.7 0-2-.1-4.1-.1-6.1 0-3.3.3-8.6 1.9-11.5.4-.7 1-1.3 1.7-1.6 1.3-.6 2.1-.6 3.5-.6 5.7.1 5.7 10.1 5.7 13.5zM277.5 41.3c0-2.1-.5-4.2-1.3-6.2-1.8-4.4-4-8.7-5.9-13.1-.8-1.9-1.3-3.8-1.3-5.8 0-2.9 4.5-3.1 6.8-3.1 7.8 0 4.8 14.7 8.4 14.7.7 0 1-.6 1.3-1.1.4-.8.6-1.8.8-2.7.5-2.3.9-4.8 2-7.1.4-1 1.1-1.9 2-2.7.9-.8 2-1.1 3.2-1.1 2.8 0 5.8.1 5.8 3.4 0 5.1-9.8 28.2-13.2 32.9-.6.8-1.3 1.6-2.1 2.2-1.5 1.2-2.8 1-4.7 1-1.5 0-4.3-.2-4.3-2-.1-3.2 2.5-5.9 2.5-9.3zM318.6 47.8c0 1.6-.1 3.2-1.7 4.1-.9.5-2.4.4-3.5.4-1.2 0-3.4-.4-4.2-1.2-3.1-2.7-2.8-20.2-2.8-24.2 0-3.5.4-10 3.1-12.7.7-.7 1.7-1.1 2.8-1.1 1.3 0 2.6-.2 3.9-.2 1.8 0 1.8.8 2.2 2.2h.1c.5 0 4.9-2.9 8.2-2.9 9.2 0 13.4 8 13.4 15.4 0 7.2-4.6 13.4-13.1 13.4-2.7 0-5.1-1.8-7.5-1.8-1.1 0-1.1 1.2-1.1 1.9v6.7zm-.5-18.1c0 2.3 3 4.1 5.3 4.1 4.5 0 5.3-4.3 5.3-7.5 0-2.7-1.4-6.4-5-6.4-5 0-5.6 3.2-5.6 7v2.8zM370.8 29.5c-2.3 0-4.7-.2-7-.2-1.2 0-8.1-.1-8.1 1.3 0 2.8 4.9 3.4 7.2 3.4 2.9 0 5.5-.9 8.4-.9 1.2 0 1.8.7 1.8 1.8 0 1.4-.1 3.3-1.3 4.3-1.6 1.3-8.5 1.8-10.7 1.8-9.7 0-17.7-5.8-17.7-14.9 0-9.3 8.4-14.2 17.9-14.2 6.5 0 11.6 3.8 13.7 9.3.8 2 1 3.9 1 6.1-.1 2.2-3.6 2.2-5.2 2.2zm-8.7-5.6c1.2 0 2.6-.2 2.6-1.5 0-2.4-2.2-3.6-4.6-3.6-2.7 0-5 1.4-5 4 0 .9 2.4 1.1 3.1 1.1h3.9zM382.1 13.9c.4 0 .8.1 1.2.1 1.3 0 2-.6 2.4-1.7.4-1 .5-2.7.5-3.8 0-4 1.5-5.2 5.8-5.2 2.9 0 5.7.7 5.7 3.9 0 .9-.1 1.8-.1 2.7 0 3.2 2 3.9 5.1 3.9 4.5 0 4.8 1 4.8 4.8 0 2.9-6.7 1.5-8.5 2.6-1.3.8-1.3 3.6-1.3 4.9 0 .9-.1 1.8-.1 2.7 0 1.8.3 4.6 2.9 4.6 1.7 0 3.3-.7 5-.7.9 0 .9 1.2.9 1.8 0 6.3-4.2 6.4-9.9 6.4-9.2 0-10.6-6.5-10.6-13.4 0-.8.2-4.7-.2-5.7-1.4-3-6.2 1.6-6.2-4.5 0-1.9.1-3.4 2.6-3.4z"/>
</svg>
