<!-- Generator: Adobe Illustrator 25.0.0, SVG Export Plug-In  -->
<svg version="1.1" xmlns="http://www.w3.org/2000/svg" xmlns:xlink="http://www.w3.org/1999/xlink" x="0px" y="0px" width="770.6px"
	 height="762.2px" viewBox="0 0 770.6 762.2" style="overflow:visible;enable-background:new 0 0 770.6 762.2;"
	 xml:space="preserve">
<style type="text/css">
	.st0{fill:#191919;}
	.st1{fill:none;stroke:#D44830;stroke-width:10;stroke-linecap:round;stroke-linejoin:round;stroke-miterlimit:10;}
	.st2{fill:#E25744;}
</style>
<defs>
</defs>
<g>
	<g>
		<g>
			<path class="st0" d="M94.2,761.7c-0.7,0-1.2-0.2-1.7-0.6c-0.5-0.4-0.7-1-0.7-1.7v-22.6c-1.4,0.2-2.8,0.3-4.1,0.4
				c-1.3,0.1-2.4,0.2-3.3,0.3c-0.7,0-1.2-0.1-1.7-0.5c-0.5-0.4-0.8-0.9-0.8-1.5c0-0.6,0.1-1.2,0.5-1.7c0.4-0.5,0.9-0.8,1.5-0.8
				c0.4,0,0.9,0,1.4,0c0.5,0,1,0,1.5-0.1c0.7-0.9,1.4-1.9,2.1-3.1c0.8-1.2,1.6-2.4,2.4-3.6c-0.7-0.5-1.5-1.2-2.5-1.9
				c-1-0.7-2-1.4-3-2.1c-1-0.7-1.8-1.2-2.5-1.7c-0.5-0.3-0.8-0.8-1-1.4c-0.1-0.6,0-1.1,0.3-1.6c0.3-0.5,0.8-0.9,1.5-1.1
				c0.6-0.2,1.2-0.1,1.7,0.3c0.2,0.2,0.5,0.3,0.7,0.5c0.2,0.2,0.5,0.3,0.8,0.5c0.4-0.8,0.9-1.7,1.5-2.6c0.6-1,1.1-2,1.6-2.9
				c0.5-1,0.9-1.7,1.2-2.3c0.3-0.6,0.8-1,1.4-1.2c0.6-0.2,1.2-0.2,1.8,0.1c0.6,0.3,1,0.7,1.2,1.3c0.2,0.6,0.2,1.1-0.1,1.7
				c-0.3,0.7-0.8,1.6-1.4,2.6c-0.6,1-1.2,2-1.8,3.1c-0.6,1-1.2,2-1.7,2.8c0.5,0.4,1.1,0.8,1.6,1.1c0.5,0.4,1,0.7,1.4,1
				c0.8-1.3,1.5-2.5,2.2-3.7c0.7-1.1,1.2-2.1,1.7-3c0.3-0.6,0.8-0.9,1.4-1.1c0.6-0.2,1.2-0.1,1.8,0.2c0.6,0.3,0.9,0.7,1.1,1.3
				c0.2,0.6,0.1,1.2-0.2,1.7c-0.7,1.3-1.6,2.9-2.6,4.6c-1,1.7-2.1,3.4-3.3,5.1c-1.2,1.7-2.3,3.4-3.4,4.9c1.2-0.1,2.4-0.2,3.5-0.3
				c1.2-0.1,2.2-0.2,3.2-0.3c-0.2-0.4-0.4-0.8-0.6-1.2c-0.2-0.4-0.4-0.7-0.6-1c-0.2-0.5-0.2-1.1,0-1.6c0.2-0.5,0.6-0.9,1.2-1.2
				c0.5-0.2,1.1-0.3,1.6-0.1c0.6,0.2,1,0.5,1.2,1.1c0.4,0.7,0.8,1.5,1.4,2.5c0.5,1,1,2,1.5,3c0.5,1,0.9,1.9,1.2,2.6
				c0.3,0.6,0.3,1.2,0.1,1.8c-0.2,0.6-0.6,1-1.2,1.2c-0.6,0.2-1.2,0.3-1.8,0.1c-0.6-0.2-1-0.5-1.2-1.1c-0.1-0.3-0.2-0.6-0.4-1
				c-0.2-0.4-0.3-0.7-0.5-1.1c-0.6,0.1-1.2,0.2-2,0.3c-0.7,0.1-1.5,0.2-2.3,0.3v23.1c0,0.7-0.2,1.3-0.7,1.7
				C95.4,761.5,94.8,761.7,94.2,761.7z M83.7,754.9c-0.5-0.2-1-0.6-1.2-1.1c-0.3-0.5-0.3-1.1-0.1-1.6c0.4-0.9,0.9-2,1.4-3.3
				c0.5-1.3,0.9-2.6,1.3-3.9s0.7-2.5,1-3.5c0.1-0.5,0.4-1,0.9-1.2c0.5-0.3,1-0.4,1.6-0.3c0.5,0.1,1,0.4,1.3,0.9
				c0.3,0.5,0.4,1,0.3,1.5c-0.2,1.1-0.5,2.4-1,3.7c-0.4,1.4-0.8,2.7-1.3,4c-0.5,1.3-0.9,2.5-1.4,3.5c-0.2,0.6-0.6,1-1.1,1.2
				C84.9,755,84.3,755.1,83.7,754.9z M104.2,752.6c-0.5,0.2-1.1,0.2-1.6,0c-0.6-0.2-1-0.7-1.2-1.2c-0.3-0.8-0.6-1.8-1-2.9
				c-0.4-1.1-0.8-2.3-1.2-3.5c-0.4-1.2-0.7-2.2-0.9-3c-0.2-0.5-0.1-1,0.2-1.5c0.3-0.5,0.7-0.8,1.3-1c0.5-0.2,1.1-0.1,1.6,0.1
				c0.5,0.2,0.9,0.6,1,1.2c0.3,0.8,0.6,1.7,1,2.8c0.4,1.1,0.8,2.2,1.2,3.3c0.4,1.1,0.8,2,1.1,2.7c0.2,0.6,0.2,1.2-0.1,1.7
				C105.3,752,104.8,752.4,104.2,752.6z M104.2,731.6c-0.5-0.4-0.7-0.9-0.7-1.6c0-0.6,0.2-1.2,0.6-1.7c1.3-1.4,2.6-3.1,3.9-4.9
				c1.3-1.9,2.6-3.7,3.9-5.6c1.2-1.9,2.3-3.6,3.2-5.1c1-1.8,2.4-2.7,3.9-2.7c1.6,0,3,0.9,4.2,2.7c1.1,1.6,2.3,3.3,3.8,5.2
				c1.4,1.8,2.9,3.6,4.4,5.3c1.5,1.7,2.8,3.1,4,4.4c0.5,0.5,0.7,1.1,0.8,1.8s-0.1,1.3-0.6,1.7c-0.5,0.5-1.1,0.8-1.9,0.9
				c-0.7,0.1-1.4-0.2-1.9-0.7c-1.2-1.3-2.5-2.8-3.9-4.6c-1.4-1.8-2.8-3.6-4.1-5.4c-1.3-1.8-2.4-3.4-3.4-4.8
				c-0.3-0.5-0.7-0.8-1.2-0.8c-0.4,0-0.8,0.3-1.1,0.9c-0.7,1.3-1.7,2.9-2.9,4.8c-1.2,1.9-2.4,3.7-3.7,5.6s-2.6,3.4-3.8,4.7
				c-0.5,0.5-1,0.8-1.7,0.8C105.3,732.3,104.7,732.1,104.2,731.6z M119.9,759.6c-2.9,0-5.1-0.3-6.7-0.9c-1.6-0.6-2.7-1.6-3.4-3.1
				c-0.7-1.5-1-3.5-1-6.1c0-2.6,0.3-4.7,1-6.2c0.7-1.5,1.8-2.5,3.4-3.1c1.6-0.6,3.8-0.9,6.7-0.9c2.9,0,5.1,0.3,6.7,0.9
				c1.6,0.6,2.7,1.6,3.4,3.1c0.6,1.5,1,3.5,1,6.2c0,2.6-0.3,4.7-1,6.1c-0.6,1.5-1.8,2.5-3.4,3.1C125,759.3,122.8,759.6,119.9,759.6z
				 M112.3,733.8c-0.7,0-1.2-0.2-1.7-0.7c-0.4-0.5-0.6-1-0.6-1.6c0-0.7,0.2-1.2,0.6-1.6c0.4-0.4,1-0.7,1.7-0.7h14.4
				c0.7,0,1.2,0.2,1.7,0.7c0.4,0.4,0.6,1,0.6,1.6c0,0.6-0.2,1.2-0.6,1.6c-0.4,0.5-1,0.7-1.7,0.7H112.3z M119.9,755
				c1.7,0,2.9-0.1,3.8-0.4c0.9-0.3,1.5-0.8,1.8-1.6c0.3-0.8,0.5-1.9,0.5-3.4c0-1.5-0.2-2.7-0.5-3.5c-0.3-0.8-0.9-1.3-1.8-1.6
				c-0.9-0.3-2.1-0.4-3.8-0.4c-1.6,0-2.9,0.1-3.7,0.4c-0.9,0.3-1.5,0.8-1.8,1.6c-0.3,0.8-0.5,1.9-0.5,3.5c0,1.5,0.2,2.6,0.5,3.5
				c0.3,0.8,0.9,1.4,1.8,1.6C117,754.8,118.3,755,119.9,755z"/>
			<path class="st0" d="M224.3,738c-0.8,0-1.4-0.3-2-0.8c-0.5-0.6-0.8-1.2-0.8-2c0-0.8,0.3-1.4,0.8-2c0.5-0.5,1.2-0.8,2-0.8h45.4
				c0.8,0,1.4,0.3,2,0.8c0.5,0.5,0.8,1.2,0.8,2c0,0.8-0.3,1.4-0.8,2c-0.5,0.6-1.2,0.8-2,0.8H224.3z"/>
			<path class="st0" d="M295.9,761.6c-0.8,0-1.5-0.2-2-0.7c-0.5-0.5-0.8-1.1-0.9-1.8c0-0.7,0.2-1.3,0.7-1.8c0.5-0.5,1.3-0.8,2.2-0.9
				c1.6-0.1,2.8-0.2,3.6-0.5c0.8-0.2,1.4-0.7,1.7-1.3c0.3-0.6,0.6-1.5,0.9-2.6c0.2-1.2,0.4-2.6,0.6-4.1c0.2-1.5,0.3-3,0.3-4.6
				c0.1-1.6-0.2-2.6-0.9-3.2c-0.7-0.5-1.9-0.8-3.9-0.8c-2.4,0-4.2-0.5-5.2-1.4c-1.1-1-1.5-2.7-1.2-5.4c0.1-0.6,0.1-1.2,0.2-1.8
				c0-0.7,0.1-1.2,0.1-1.8c0.2-2.1,0.8-3.7,1.8-4.6c1-0.9,2.7-1.4,5.1-1.4c1.5,0,2.6-0.2,3.3-0.6c0.7-0.4,1-1.1,1-2.2v-1.8
				c0-1.1-0.3-1.8-0.8-2.3c-0.5-0.4-1.4-0.7-2.8-0.7h-6.9c-0.7,0-1.3-0.2-1.7-0.7c-0.4-0.4-0.6-1-0.6-1.6c0-0.6,0.2-1.1,0.6-1.6
				c0.4-0.4,1-0.7,1.7-0.7h8.1c2.6,0,4.4,0.5,5.6,1.4c1.2,1,1.8,2.7,1.8,5.2v3.1c0,2.5-0.5,4.2-1.6,5.2c-1.1,1-3,1.4-5.7,1.4
				c-1.5,0-2.6,0.1-3.1,0.4c-0.6,0.3-0.9,0.9-0.9,1.8c0,0.4-0.1,0.8-0.1,1.3c0,0.4-0.1,0.8-0.1,1.1c0,1,0.2,1.7,0.7,2.1
				c0.5,0.4,1.6,0.6,3.2,0.6c2.8,0,4.7,0.5,5.9,1.6c1.2,1.1,1.7,2.8,1.6,5.3c0,2.2-0.2,4.3-0.3,6.3c-0.2,2-0.4,3.8-0.7,5.4
				c-0.4,2.1-1,3.8-1.9,5c-0.9,1.2-2,2.1-3.5,2.6C300.2,761.3,298.2,761.6,295.9,761.6z M310.7,760.7c-0.8,0.2-1.4,0.1-1.9-0.3
				c-0.5-0.3-0.9-0.9-1.1-1.6c-0.2-0.7,0-1.2,0.3-1.8c0.4-0.5,1-0.9,1.8-1l5.1-1v-16h-4.3c-0.6,0-1.1-0.2-1.6-0.6
				c-0.4-0.4-0.6-0.9-0.6-1.5c0-0.6,0.2-1.1,0.6-1.6c0.4-0.4,0.9-0.6,1.6-0.6h4.3v-15.7c0-2,0.2-3.5,0.7-4.7c0.5-1.2,1.4-2,2.7-2.5
				c1.3-0.5,3.1-0.8,5.5-0.8h14.2c0.6,0,1.1,0.2,1.6,0.6c0.4,0.4,0.6,0.9,0.6,1.6c0,0.6-0.2,1.1-0.6,1.6c-0.4,0.4-0.9,0.6-1.6,0.6
				h-14.2c-1.7,0-2.8,0.2-3.3,0.7c-0.6,0.4-0.8,1.4-0.8,2.9h16c0.6,0,1.1,0.2,1.5,0.6c0.4,0.4,0.6,0.9,0.6,1.5s-0.2,1.1-0.6,1.5
				c-0.4,0.4-0.9,0.6-1.5,0.6h-16v3.5h16c0.6,0,1.1,0.2,1.5,0.6c0.4,0.4,0.6,0.9,0.6,1.5s-0.2,1.1-0.6,1.5c-0.4,0.4-0.9,0.6-1.5,0.6
				h-16v3.9h20.4c0.6,0,1.1,0.2,1.6,0.6c0.4,0.4,0.6,0.9,0.6,1.6c0,0.6-0.2,1.1-0.6,1.5c-0.4,0.4-0.9,0.6-1.6,0.6h-13.3
				c0.4,1.4,0.9,2.7,1.4,3.9c0.5,1.2,1.1,2.3,1.8,3.3c0.9-0.8,1.9-1.7,2.9-2.6c1.1-1,2-1.8,2.6-2.5c0.5-0.5,1-0.7,1.7-0.7
				c0.7,0,1.2,0.2,1.7,0.7c0.5,0.5,0.7,1,0.7,1.6c0,0.6-0.2,1.2-0.7,1.6c-0.8,0.8-1.8,1.7-3,2.8c-1.2,1.1-2.3,2-3.3,2.8
				c1.2,1.2,2.5,2.4,3.9,3.4c1.4,1,3,2,4.6,2.9c0.6,0.3,1,0.8,1.2,1.5c0.2,0.7,0,1.3-0.3,1.9c-0.4,0.6-0.9,1-1.7,1.1
				c-0.7,0.1-1.4,0-2.1-0.4c-4.1-2.3-7.5-5.1-10.3-8.6c-2.8-3.4-4.7-7.7-5.9-12.6h-2.6v15c1.5-0.3,2.8-0.6,4-0.8
				c1.2-0.2,1.9-0.4,2-0.4c0.8-0.2,1.4-0.1,1.9,0.2c0.5,0.3,0.8,0.8,1,1.4c0.3,1.5-0.3,2.4-1.9,2.8c-0.2,0-0.9,0.2-1.9,0.4
				c-1.1,0.2-2.3,0.5-3.8,0.9c-1.5,0.3-3,0.7-4.4,1c-1.5,0.3-2.8,0.6-3.9,0.8C311.7,760.4,311,760.6,310.7,760.7z"/>
			<path class="st0" d="M397.7,761.8c-0.8,0-1.4-0.3-1.9-0.7c-0.5-0.5-0.8-1.1-0.8-1.9c0-0.7,0.2-1.3,0.7-1.8
				c0.4-0.5,1.1-0.8,1.9-0.8c1.2-0.1,2.1-0.2,2.8-0.4c0.6-0.2,1-0.5,1.2-1c0.2-0.5,0.3-1.2,0.3-2.2V729h-10.7
				c-0.7,0-1.3-0.2-1.8-0.7c-0.4-0.5-0.6-1-0.6-1.6v-0.1c-0.5,0.5-1,0.7-1.6,0.7h-26.3c-0.6,0-1.1-0.2-1.5-0.6
				c-0.4-0.4-0.6-0.9-0.6-1.5c0-0.6,0.2-1.1,0.6-1.5c0.4-0.4,0.9-0.6,1.5-0.6h7v-11.6c0-0.7,0.2-1.2,0.7-1.6c0.4-0.4,1-0.6,1.6-0.6
				c0.6,0,1.1,0.2,1.6,0.6c0.4,0.4,0.6,0.9,0.6,1.6V723h3.5v-11.6c0-0.7,0.2-1.2,0.7-1.6c0.4-0.4,1-0.6,1.6-0.6
				c0.6,0,1.1,0.2,1.6,0.6c0.4,0.4,0.6,0.9,0.6,1.6V723h6.9c0.7,0,1.2,0.2,1.5,0.6c0.4,0.4,0.5,0.9,0.5,1.5c0.2-0.2,0.5-0.4,0.8-0.6
				c0.3-0.2,0.7-0.2,1-0.2h10.7v-12.9c0-0.8,0.2-1.4,0.7-1.8c0.5-0.4,1.1-0.7,1.8-0.7s1.3,0.2,1.8,0.7c0.5,0.4,0.7,1,0.7,1.8v12.9
				h3.7c0.7,0,1.3,0.2,1.7,0.7c0.4,0.5,0.7,1,0.7,1.7c0,0.6-0.2,1.2-0.7,1.6c-0.4,0.5-1,0.7-1.7,0.7h-3.7v24.6
				c0,2.1-0.3,3.7-0.8,4.9c-0.6,1.2-1.5,2-2.8,2.5C401.7,761.6,400,761.8,397.7,761.8z M361.9,760.5c-0.8,0.1-1.5,0-2-0.4
				c-0.5-0.4-0.8-1-0.9-1.7c-0.1-0.7,0.1-1.2,0.5-1.7s1-0.8,1.8-0.9c1.5-0.2,3.1-0.4,4.9-0.6c1.8-0.2,3.6-0.5,5.4-0.7v-6.3H363
				c-0.6,0-1.1-0.2-1.5-0.6c-0.4-0.4-0.6-0.9-0.6-1.5s0.2-1.1,0.6-1.5c0.4-0.4,0.9-0.6,1.5-0.6h8.6v-4.8h-9.8
				c-0.6,0-1.1-0.2-1.5-0.6c-0.4-0.4-0.6-0.9-0.6-1.5s0.2-1.1,0.6-1.5c0.4-0.4,0.9-0.6,1.5-0.6h6c0-0.1-0.1-0.2-0.2-0.2
				c-0.1-0.1-0.1-0.2-0.2-0.2c-0.4-0.7-0.7-1.3-1-1.8c-0.3-0.5-0.7-1.1-1.2-1.9c-0.3-0.5-0.4-1-0.2-1.6c0.2-0.6,0.5-1,1-1.2
				c0.6-0.3,1.2-0.4,1.8-0.2c0.6,0.2,1.1,0.5,1.4,1c0.5,0.8,0.9,1.4,1.1,1.8c0.2,0.4,0.6,1,1,1.7c0.5,1,0.3,1.9-0.5,2.6h5
				c0.4-0.9,0.9-1.9,1.4-3c0.5-1.1,0.9-2.1,1.2-3c0.3-0.6,0.7-1,1.3-1.3c0.6-0.2,1.2-0.2,1.8,0c0.7,0.2,1.1,0.6,1.3,1.2
				c0.2,0.6,0.2,1.1-0.1,1.8c-0.3,0.5-0.6,1.2-1,2c-0.4,0.8-0.8,1.6-1.2,2.3h5.6c0.7,0,1.2,0.2,1.5,0.6c0.4,0.4,0.5,0.9,0.5,1.5
				s-0.2,1.1-0.5,1.5c-0.4,0.4-0.9,0.6-1.5,0.6h-9.6v4.8h7.9c0.7,0,1.2,0.2,1.6,0.6c0.4,0.4,0.6,0.9,0.6,1.5s-0.2,1.1-0.6,1.5
				c-0.4,0.4-0.9,0.6-1.6,0.6h-7.9v5.6c1.8-0.3,3.6-0.6,5.2-0.8c1.7-0.2,3.2-0.5,4.6-0.7c0.7-0.1,1.3,0,1.7,0.3
				c0.4,0.3,0.7,0.8,0.8,1.4c0.1,0.6,0,1.2-0.3,1.6c-0.3,0.5-0.8,0.8-1.5,0.9c-1.6,0.3-3.5,0.6-5.6,1c-2.1,0.4-4.3,0.7-6.6,1.1
				c-2.3,0.4-4.6,0.7-6.8,1C365.9,760,363.8,760.3,361.9,760.5z M365.6,721c-0.5,0.3-1.1,0.3-1.6,0.2c-0.5-0.1-0.9-0.5-1.2-1
				c-0.3-0.7-0.8-1.6-1.4-2.6c-0.6-1-1.1-1.9-1.5-2.7c-0.3-0.5-0.3-1-0.2-1.6c0.2-0.5,0.5-0.9,1-1.2c0.5-0.3,1.1-0.3,1.7-0.2
				c0.6,0.1,1,0.4,1.3,1c0.5,0.7,1,1.6,1.5,2.6c0.6,1,1,1.9,1.4,2.7c0.3,0.5,0.3,1.1,0.1,1.6C366.5,720.3,366.1,720.7,365.6,721z
				 M382.3,721.2c-0.5-0.3-0.8-0.7-1-1.2c-0.2-0.5-0.1-1.1,0.2-1.6c0.4-0.7,0.9-1.5,1.5-2.6c0.6-1.1,1-1.9,1.4-2.7
				c0.3-0.7,0.8-1,1.4-1.2c0.6-0.1,1.2,0,1.8,0.3c0.5,0.3,0.9,0.7,1.1,1.3s0.1,1.2-0.2,1.7c-0.4,0.7-0.9,1.6-1.5,2.6
				c-0.6,1-1.1,1.9-1.6,2.5c-0.3,0.5-0.8,0.8-1.4,1C383.3,721.5,382.8,721.5,382.3,721.2z M396.9,744.8c-0.6,0.3-1.2,0.3-1.8,0.1
				c-0.6-0.2-1-0.7-1.3-1.3c-0.3-0.8-0.6-1.7-1.1-2.8c-0.4-1-0.9-2.1-1.4-3.1c-0.5-1-0.9-1.9-1.3-2.7c-0.3-0.5-0.3-1.1-0.1-1.6
				c0.2-0.6,0.6-1,1.2-1.2c0.6-0.2,1.2-0.3,1.8-0.1c0.6,0.2,1,0.5,1.3,1.1c0.7,1.3,1.4,2.7,2.1,4.3s1.4,3,1.9,4.3
				c0.3,0.7,0.3,1.3,0,1.8C398,744.2,397.6,744.6,396.9,744.8z"/>
			<path class="st0" d="M449.1,762.1c-0.8,0-1.5-0.2-2-0.6c-0.5-0.4-0.8-1-0.9-1.9c0-0.7,0.2-1.3,0.7-1.8c0.5-0.5,1.2-0.7,2-0.7
				c1.8,0,3.3-0.3,4.3-0.7c1-0.4,1.7-1.2,2.1-2.2c0.4-1.1,0.6-2.5,0.6-4.4c0-0.3,0-0.7,0-1c0-0.3,0-0.7-0.1-1
				c-1.9,1.3-4.2,2.7-6.8,4.1c-2.6,1.4-5.3,2.7-8.2,3.9c-2.8,1.2-5.6,2.1-8.2,2.9c-0.8,0.2-1.5,0.2-2.1,0c-0.6-0.2-1.1-0.7-1.3-1.5
				c-0.2-0.7-0.1-1.3,0.2-1.9c0.3-0.6,0.8-0.9,1.6-1.1c1.8-0.5,3.8-1.1,6-1.9c2.1-0.8,4.3-1.7,6.5-2.7c2.2-1,4.3-2.1,6.2-3.2
				c2-1.1,3.7-2.2,5.3-3.3c-0.3-1.2-0.8-2.5-1.5-3.7c-1.7,1.3-3.7,2.5-6,3.7c-2.3,1.2-4.6,2.2-7.1,3.2c-2.5,1-4.8,1.8-7.1,2.6
				c-0.8,0.3-1.5,0.3-2,0c-0.6-0.3-1-0.7-1.2-1.4c-0.2-0.6-0.1-1.2,0.1-1.8c0.3-0.6,0.8-0.9,1.5-1.1c2.3-0.6,4.7-1.3,7.1-2.2
				c2.4-0.9,4.7-1.9,6.9-3c2.2-1.1,4-2.2,5.6-3.3c-0.3-0.4-0.7-0.9-1.1-1.3c-0.4-0.4-0.8-0.9-1.2-1.2c-2.4,1.3-4.9,2.4-7.6,3.5
				c-2.7,1.1-5.6,2-8.6,2.7c-1.7,0.4-2.8,0-3.2-1.4c-0.2-0.6-0.2-1.2,0.1-1.8c0.3-0.6,0.8-1,1.6-1.2c3.5-0.8,6.9-1.8,10-3.1
				c3.1-1.3,6-2.7,8.7-4.2h-9.9c-0.7,0-1.2-0.2-1.6-0.7c-0.4-0.4-0.6-1-0.6-1.6c0-0.6,0.2-1.1,0.6-1.6c0.4-0.4,1-0.6,1.6-0.6h28.5
				c0.7,0,1.2,0.2,1.6,0.6c0.4,0.4,0.6,0.9,0.6,1.6c0,0.6-0.2,1.1-0.6,1.6c-0.4,0.4-1,0.7-1.6,0.7h-11.2c-0.7,0.5-1.5,1.1-2.2,1.6
				c-0.8,0.5-1.6,1.1-2.4,1.6c2.7,2.3,4.7,4.9,6,7.9c1.4-0.8,2.8-1.7,4.4-2.6c1.5-1,3-1.9,4.4-2.9c1.4-1,2.5-1.9,3.5-2.6
				c0.6-0.5,1.3-0.8,2-0.7c0.7,0.1,1.2,0.4,1.6,0.8c0.4,0.6,0.6,1.2,0.5,1.9c-0.1,0.6-0.4,1.2-1,1.6c-1.6,1.2-3.5,2.5-5.7,3.8
				c-2.2,1.3-4.3,2.6-6.3,3.7c1.6,1.5,3.4,2.9,5.5,4.3c2.1,1.4,4.1,2.7,6.3,3.9c2.1,1.2,4.1,2.1,5.8,2.8c0.7,0.3,1.2,0.7,1.4,1.4
				c0.3,0.6,0.2,1.3-0.1,1.9c-0.4,0.8-1,1.3-1.7,1.5c-0.7,0.2-1.5,0.1-2.2-0.2c-1.7-0.8-3.6-1.7-5.5-2.9s-3.9-2.4-5.8-3.8
				c-1.9-1.4-3.6-2.9-5-4.3c0.1,1,0.2,2.1,0.2,3.2c0,4.5-0.9,7.8-2.8,9.7C456.2,761.1,453.2,762.1,449.1,762.1z M432.4,727.7
				c-0.7,0-1.3-0.2-1.8-0.7c-0.5-0.5-0.7-1.1-0.7-1.8v-2.5c0-2.8,0.7-4.8,2-6c1.4-1.2,3.7-1.8,7-1.8h12.8v-4.2
				c0-0.8,0.3-1.4,0.8-1.9c0.6-0.5,1.2-0.7,1.9-0.7c0.8,0,1.4,0.3,2,0.7c0.5,0.5,0.8,1.1,0.8,1.9v4.2h12.7c3.3,0,5.6,0.6,7,1.8
				c1.3,1.2,2,3.2,2,6v2.5c0,0.8-0.3,1.4-0.7,1.8c-0.5,0.5-1.1,0.7-1.8,0.7c-0.7,0-1.3-0.2-1.8-0.6c-0.5-0.4-0.7-1-0.7-1.8v-2.4
				c0-1.3-0.3-2.2-1-2.7c-0.6-0.5-1.8-0.8-3.5-0.8h-29.9c-1.7,0-2.9,0.3-3.5,0.8c-0.6,0.5-1,1.4-1,2.7v2.4c0,0.8-0.3,1.4-0.7,1.8
				C433.7,727.4,433.1,727.7,432.4,727.7z"/>
			<path class="st0" d="M509.4,756.6c-2.6,0-4.6-0.3-6-0.8s-2.4-1.4-3-2.6c-0.6-1.2-0.8-2.8-0.8-4.9v-20.6c0-2.5,0.4-4.4,1.2-5.6
				c0.8-1.2,2.3-2,4.6-2.4c0.2-0.7,0.4-1.6,0.6-2.5c0.2-1,0.4-1.9,0.6-2.9c0.2-1,0.4-1.8,0.5-2.4c0.2-0.8,0.5-1.4,1.1-1.8
				c0.6-0.4,1.2-0.5,2-0.4c0.8,0.2,1.4,0.5,1.8,1.1c0.4,0.6,0.5,1.3,0.3,2c-0.2,0.8-0.5,1.9-0.8,3.2c-0.3,1.3-0.7,2.4-0.9,3.4
				c2.3,0,4.1,0.3,5.4,0.9c1.3,0.5,2.1,1.4,2.6,2.6c0.5,1.2,0.7,2.8,0.7,4.8v20.6c0,2.1-0.3,3.7-0.8,4.9c-0.6,1.2-1.5,2-2.9,2.6
				C514,756.4,512,756.6,509.4,756.6z M504.7,735.5h9.3v-7.3c0-1.6-0.3-2.6-0.9-3.2c-0.6-0.6-1.8-0.8-3.7-0.8
				c-1.9,0-3.1,0.3-3.7,0.8c-0.6,0.6-0.9,1.6-0.9,3.2V735.5z M509.4,751.9c1.9,0,3.1-0.3,3.7-0.8c0.6-0.6,0.9-1.6,0.9-3.1v-7.8h-9.3
				v7.8c0,1.5,0.3,2.6,0.9,3.1C506.2,751.6,507.5,751.9,509.4,751.9z M533.6,761.1c-0.8,0-1.5-0.2-2.1-0.6c-0.6-0.4-0.9-1-1-1.8
				c-0.1-0.8,0.1-1.4,0.7-2s1.2-0.9,2-0.9c2-0.1,3.6-0.3,4.5-0.6c1-0.3,1.7-0.8,2.1-1.5c0.4-0.7,0.8-1.9,1-3.4
				c0.4-2.6,0.7-5.7,0.9-9c0.2-3.4,0.2-7.4,0.2-12.1c0-2-0.3-3.2-1-3.9c-0.7-0.6-2-0.9-3.9-0.9h-7.5c-0.7,1.3-1.4,2.6-2.2,3.9
				c-0.7,1.2-1.5,2.3-2.3,3.3c-0.4,0.6-0.9,1-1.6,1.2c-0.7,0.2-1.4,0.1-2-0.2c-0.6-0.3-1-0.8-1.2-1.5c-0.2-0.7-0.1-1.3,0.2-1.8
				c1.8-2.3,3.5-5,5-8.2c1.5-3.2,2.6-6.4,3.5-9.5c0.2-0.8,0.6-1.3,1.2-1.7c0.6-0.4,1.3-0.5,2-0.3c0.7,0.2,1.2,0.5,1.6,1.1
				c0.4,0.6,0.5,1.2,0.3,2c-0.3,1.1-0.6,2.3-1,3.5c-0.4,1.2-0.9,2.4-1.3,3.6h5.8c2.4,0,4.3,0.2,5.7,0.7c1.4,0.5,2.4,1.4,3,2.8
				c0.6,1.4,0.9,3.3,0.9,5.9c0,4.9-0.1,9.1-0.3,12.6c-0.2,3.5-0.5,6.6-0.9,9.4c-0.4,2.7-1,4.7-1.9,6.2c-0.9,1.4-2.2,2.4-3.9,3
				C538.5,760.7,536.3,761,533.6,761.1z M535.8,745.1c-0.6,0.4-1.3,0.6-2,0.5c-0.7-0.1-1.2-0.5-1.6-1.1c-0.5-0.8-1.1-1.8-1.8-2.9
				c-0.7-1.1-1.5-2.1-2.2-3.1c-0.8-1-1.4-1.9-2-2.5c-0.4-0.5-0.6-1.1-0.5-1.8c0.1-0.7,0.4-1.2,0.9-1.6c0.5-0.4,1.2-0.6,1.8-0.5
				s1.3,0.4,1.7,0.9c0.7,0.7,1.4,1.6,2.1,2.6c0.8,1,1.5,2,2.3,3.1c0.7,1.1,1.4,2,1.9,2.9c0.4,0.7,0.6,1.3,0.5,2
				C536.7,744.1,536.4,744.6,535.8,745.1z"/>
			<path class="st0" d="M567.1,758.5c-0.5-0.3-0.9-0.8-1.1-1.5c-0.2-0.6-0.1-1.2,0.4-1.8c0.6-0.8,1.3-1.7,2.1-2.9
				c0.8-1.1,1.5-2.3,2.3-3.5c0.7-1.2,1.3-2.2,1.7-3c0.3-0.7,0.8-1.1,1.5-1.3c0.7-0.2,1.3-0.2,1.9,0.1c0.6,0.3,1,0.7,1.2,1.4
				c0.2,0.6,0.2,1.3-0.1,2c-0.5,0.9-1.1,2-1.8,3.2c-0.7,1.2-1.5,2.4-2.3,3.6c-0.8,1.2-1.6,2.2-2.2,3c-0.5,0.6-1,0.9-1.7,1
				C568.4,759,567.7,758.9,567.1,758.5z M580.6,742.4c-0.7,0-1.2-0.2-1.7-0.7c-0.5-0.4-0.7-1-0.7-1.8v-11.1
				c-1.2,1.6-2.5,3.1-3.8,4.6c-1.3,1.5-2.6,2.8-3.7,3.8c-0.5,0.5-1.1,0.7-1.8,0.7c-0.7,0-1.3-0.2-1.8-0.7c-0.4-0.5-0.6-1.1-0.6-1.7
				c0-0.6,0.3-1.1,0.8-1.5c1.1-1,2.4-2.2,3.7-3.7c1.4-1.5,2.7-3,4.1-4.6c1.3-1.6,2.4-3,3.2-4.2v-0.1h-8.4c-0.7,0-1.2-0.2-1.6-0.7
				c-0.4-0.4-0.6-1-0.6-1.6c0-0.6,0.2-1.1,0.6-1.6c0.4-0.4,0.9-0.6,1.6-0.6h8.4v-6c0-0.7,0.2-1.3,0.7-1.8c0.5-0.4,1-0.7,1.7-0.7
				c0.7,0,1.2,0.2,1.7,0.7c0.5,0.4,0.7,1,0.7,1.8v6h7c0.7,0,1.2,0.2,1.6,0.6c0.4,0.4,0.6,0.9,0.6,1.6c0,0.6-0.2,1.1-0.6,1.6
				c-0.4,0.4-0.9,0.7-1.6,0.7h-7v0.6c0.7,0.9,1.6,1.9,2.6,3.1c1,1.1,2,2.2,3.1,3.1c1,1,1.9,1.8,2.6,2.3c0.5,0.4,0.8,0.9,0.8,1.6
				c0,0.7-0.2,1.3-0.6,1.8c-0.5,0.5-1.1,0.8-1.8,0.8c-0.7,0-1.3-0.2-1.8-0.6c-0.7-0.7-1.5-1.5-2.3-2.5c-0.9-1-1.7-2-2.6-3V740
				c0,0.7-0.2,1.3-0.7,1.8C581.8,742.2,581.3,742.4,580.6,742.4z M593.9,760.8c-3.3,0-5.8-0.3-7.6-0.8c-1.8-0.5-3.1-1.5-3.8-2.8
				c-0.7-1.3-1.1-3.1-1.1-5.4v-6.1c0-0.8,0.2-1.4,0.7-1.8c0.5-0.4,1.1-0.7,1.8-0.7s1.3,0.2,1.8,0.7c0.5,0.4,0.7,1,0.7,1.8v5.7
				c0,1.3,0.2,2.2,0.6,2.9c0.4,0.7,1.1,1.1,2.2,1.4c1.1,0.3,2.7,0.4,4.9,0.4c2.1,0,3.7-0.1,4.8-0.3c1.1-0.2,1.9-0.7,2.4-1.3
				c0.5-0.6,1-1.5,1.3-2.5c0.2-0.7,0.6-1.1,1.3-1.4c0.7-0.3,1.3-0.3,2-0.1c0.7,0.3,1.2,0.7,1.5,1.2c0.3,0.6,0.3,1.2,0.1,1.8
				c-0.5,1.8-1.2,3.2-2.1,4.2c-0.9,1-2.3,1.8-4.1,2.2C599.4,760.6,596.9,760.8,593.9,760.8z M598,749.1c-0.5,0.5-1.1,0.7-1.8,0.7
				c-0.7,0-1.2-0.3-1.7-0.8c-0.7-0.8-1.6-1.7-2.5-2.6c-0.9-0.9-1.8-1.8-2.6-2.5c-0.5-0.4-0.7-0.9-0.6-1.6c0-0.6,0.3-1.1,0.7-1.6
				c0.5-0.5,1-0.7,1.6-0.7c0.6,0,1.1,0.2,1.6,0.6c0.7,0.6,1.6,1.4,2.6,2.4c1.1,1,2,1.8,2.6,2.6c0.5,0.5,0.8,1.1,0.7,1.8
				C598.8,748,598.5,748.6,598,749.1z M602.9,741c-3.1,0-5.3-0.6-6.7-1.8c-1.3-1.2-2-3.3-2-6.2v-14.1c0-2.9,0.7-5,2-6.2
				c1.3-1.3,3.6-1.9,6.7-1.9h3.7c3.1,0,5.3,0.6,6.7,1.8c1.3,1.2,2,3.3,2,6.3v14.1c0,2.9-0.7,5-2,6.2c-1.3,1.2-3.6,1.8-6.7,1.8H602.9
				z M599.3,719.5h11V719c0-1.5-0.3-2.5-1-3c-0.6-0.6-1.7-0.8-3.3-0.8h-2.5c-1.6,0-2.7,0.3-3.3,0.8c-0.6,0.6-1,1.6-1,3V719.5z
				 M599.3,727.9h11v-4.3h-11V727.9z M603.5,736.5h2.5c1.6,0,2.7-0.3,3.3-0.8c0.6-0.6,1-1.5,1-3V732h-11v0.7c0,1.4,0.3,2.4,1,3
				C600.9,736.3,602,736.5,603.5,736.5z M617.9,756.6c-0.5,0.4-1.1,0.6-1.8,0.6c-0.7,0-1.2-0.3-1.7-0.9c-0.6-0.8-1.3-1.8-2.2-2.9
				c-0.9-1.1-1.8-2.1-2.7-3.2c-0.9-1.1-1.7-1.9-2.5-2.6c-0.4-0.4-0.6-1-0.5-1.6c0.1-0.7,0.3-1.2,0.8-1.6c0.5-0.4,1.1-0.6,1.7-0.6
				c0.7,0,1.2,0.3,1.7,0.8c0.8,0.8,1.7,1.7,2.6,2.7c0.9,1,1.8,2,2.7,3c0.9,1,1.6,1.9,2.2,2.7c0.4,0.6,0.6,1.2,0.5,1.9
				S618.4,756.1,617.9,756.6z"/>
			<path class="st0" d="M644.9,762.2c-0.7,0-1.2-0.2-1.7-0.7c-0.5-0.5-0.7-1-0.7-1.7V730c-0.7,1.2-1.5,2.4-2.2,3.5
				c-0.7,1.1-1.4,2.1-2.1,3c-0.4,0.5-1,0.9-1.7,1c-0.7,0.1-1.4,0-1.9-0.4c-0.5-0.4-0.9-0.9-1-1.6c-0.1-0.7,0-1.3,0.5-1.8
				c1.2-1.5,2.5-3.3,3.7-5.3c1.2-2,2.4-4.1,3.5-6.2c1.1-2.2,2.1-4.3,3-6.4c0.9-2.1,1.6-3.9,2.1-5.6c0.2-0.7,0.6-1.2,1.3-1.6
				c0.7-0.3,1.4-0.3,2-0.1c0.7,0.3,1.2,0.7,1.5,1.3c0.3,0.6,0.3,1.2,0,1.9c-0.5,1.4-1.1,2.9-1.8,4.4c-0.7,1.6-1.4,3.1-2.2,4.8v38.9
				c0,0.7-0.2,1.3-0.7,1.7C646.2,762,645.6,762.2,644.9,762.2z M664.9,762.2c-0.7,0-1.2-0.2-1.7-0.6c-0.5-0.4-0.7-1-0.8-1.7
				c0-0.7,0.2-1.2,0.6-1.7c0.4-0.5,1-0.8,1.8-0.8c1.5-0.1,2.7-0.3,3.5-0.6c0.8-0.3,1.4-1,1.8-1.9c0.3-0.9,0.5-2.3,0.5-4.2v-1
				c-1.7,1.2-3.6,2.4-5.7,3.5c-2.1,1.2-4.2,2.2-6.3,3.2c-2.1,1-4.2,1.8-6.2,2.4c-0.7,0.2-1.3,0.2-1.9,0.1c-0.6-0.2-1-0.7-1.3-1.4
				c-0.2-0.6-0.2-1.2,0.1-1.7c0.3-0.5,0.8-0.9,1.5-1.1c2-0.6,4.1-1.4,6.5-2.5c2.3-1,4.6-2.2,6.8-3.4c2.2-1.2,4.2-2.4,5.9-3.6
				c-0.2-0.5-0.3-0.9-0.5-1.3c-0.2-0.4-0.4-0.8-0.5-1.2c-2.2,1.5-4.8,3.1-7.8,4.5c-3,1.5-6,2.8-8.9,3.8c-0.6,0.2-1.2,0.2-1.8,0
				c-0.6-0.2-1-0.6-1.2-1.3c-0.2-0.6-0.2-1.2,0.1-1.7c0.3-0.5,0.7-0.9,1.4-1.1c2.8-0.9,5.5-2,8.4-3.3c2.8-1.3,5.3-2.7,7.5-4.1
				c-0.3-0.3-0.6-0.6-0.9-0.9c-0.3-0.3-0.6-0.6-1-0.8c-1.8,1.1-3.8,2.1-5.9,3.1c-2.1,0.9-4.2,1.7-6.4,2.4c-0.7,0.2-1.3,0.2-1.8,0
				c-0.6-0.2-1-0.6-1.2-1.2c-0.2-0.6-0.2-1.2,0-1.8c0.2-0.6,0.7-1,1.5-1.2c2.1-0.7,4.3-1.4,6.6-2.4c2.2-0.9,4.3-1.9,6.2-3H662
				c-2.1,0-3.8-0.2-4.9-0.6c-1.2-0.4-2-1.1-2.5-2.1c-0.5-1-0.7-2.3-0.7-3.9c0-0.5,0-1,0.1-1.5c0-0.4,0.1-0.9,0.2-1.2
				c-0.3,0.2-0.5,0.5-0.8,0.7c-0.2,0.2-0.5,0.5-0.8,0.7c-0.5,0.4-1.1,0.6-1.8,0.7c-0.7,0-1.3-0.3-1.8-0.8c-0.4-0.5-0.6-1-0.5-1.7
				c0-0.7,0.3-1.2,0.8-1.6c1.5-1.2,2.9-2.5,4.4-4.1c1.5-1.6,2.9-3.2,4.2-4.8c1.3-1.7,2.3-3.2,3.1-4.6c0.4-0.7,0.9-1,1.6-1.2
				s1.3,0,2,0.4c0.6,0.4,0.9,0.9,1,1.5c0.1,0.6,0,1.2-0.3,1.8c-0.1,0.2-0.2,0.4-0.4,0.6c-0.1,0.2-0.3,0.4-0.4,0.6h6.7
				c2.5,0,4.1,0.7,4.8,2c0.7,1.4,0.5,3-0.8,4.8c-0.2,0.3-0.4,0.7-0.6,0.9h3c2.1,0,3.8,0.2,4.9,0.6c1.2,0.4,2,1.1,2.5,2
				c0.5,1,0.7,2.3,0.7,4c0,1.7-0.2,3-0.7,3.9c-0.5,1-1.3,1.7-2.5,2.1c-1.2,0.4-2.8,0.6-4.9,0.6h-7c-0.4,0.3-0.8,0.6-1.2,0.9
				c-0.4,0.3-0.8,0.6-1.2,0.9c1.1,0.9,2.1,1.8,2.9,2.8c0.8,1,1.6,2.1,2.2,3.2c0.9-0.6,1.8-1.3,2.9-2c1-0.7,2-1.5,2.9-2.2
				c0.9-0.7,1.7-1.4,2.4-1.9c0.5-0.5,1.2-0.7,1.8-0.7c0.7,0,1.2,0.3,1.7,0.8c0.4,0.5,0.6,1.1,0.6,1.8c0,0.6-0.3,1.2-0.8,1.6
				c-1,0.8-2.3,1.8-4,2.9c-1.7,1.2-3.2,2.2-4.7,3.2c1.2,1,2.4,2,3.9,3.1c1.4,1.1,2.8,2.2,4.3,3.2c1.4,1,2.7,1.8,3.8,2.5
				c0.6,0.4,0.9,0.9,1.1,1.6c0.1,0.7,0,1.3-0.4,1.8c-0.5,0.6-1,1-1.7,1c-0.7,0.1-1.3-0.1-2-0.5c-1.3-0.9-2.9-2.1-4.7-3.5
				c-1.8-1.5-3.4-2.9-5-4.3c0,0.2,0,0.3,0,0.5c0,0.2,0,0.3,0,0.5c0,4.1-0.8,6.9-2.5,8.6C671.2,761.3,668.5,762.2,664.9,762.2z
				 M657.8,721c1-0.3,2.4-0.4,4.2-0.4h6.8c0.5-0.7,0.9-1.3,1.3-1.9c0.4-0.6,0.5-1.1,0.3-1.4c-0.2-0.3-0.7-0.5-1.4-0.5h-7.4
				C660.4,718.2,659.2,719.6,657.8,721z M661.9,729.8h5.4v-5.1h-5.4c-1.2,0-2,0.2-2.4,0.5c-0.4,0.3-0.6,1-0.6,2c0,1,0.2,1.7,0.6,2
				C659.9,729.6,660.7,729.8,661.9,729.8z M672.4,729.8h5.2c1.2,0,2-0.2,2.4-0.5c0.4-0.3,0.7-1,0.7-2c0-1-0.2-1.7-0.7-2
				c-0.4-0.3-1.3-0.5-2.4-0.5h-5.2V729.8z"/>
		</g>
		<g>
			<path class="st0" d="M173.2,752.1c-0.6-0.3-1-0.8-1.2-1.4c-0.2-0.7-0.1-1.3,0.2-1.8c0.8-1.4,1.7-2.9,2.4-4.7
				c0.8-1.7,1.5-3.5,2.2-5.2c0.7-1.8,1.2-3.4,1.6-5c0.2-0.6,0.6-1.1,1.1-1.4c0.6-0.3,1.1-0.3,1.8-0.1c0.7,0.2,1.1,0.5,1.5,1
				c0.3,0.5,0.4,1.1,0.3,1.8c-0.5,1.8-1,3.6-1.7,5.5c-0.7,1.9-1.4,3.8-2.2,5.5c-0.8,1.8-1.6,3.3-2.4,4.7c-0.3,0.6-0.9,1-1.6,1.3
				C174.5,752.5,173.8,752.5,173.2,752.1z"/>
			<path class="st0" d="M182.8,761.3c-0.8,0-1.4-0.2-1.9-0.7c-0.5-0.4-0.8-1-0.8-1.8c0-0.7,0.2-1.4,0.6-1.9c0.5-0.5,1.1-0.8,2-0.9
				c1.4-0.1,2.3-0.4,2.7-0.7c0.4-0.4,0.5-1.1,0.5-2.3v-28.9H180c-0.5,1.1-1,2.2-1.5,3.3c-0.5,1.1-1,2.1-1.6,3.1
				c-0.3,0.6-0.8,1-1.4,1.3c-0.7,0.2-1.3,0.2-2-0.1c-0.6-0.3-1-0.8-1.2-1.4c-0.2-0.6-0.1-1.2,0.2-1.8c0.9-1.6,1.8-3.4,2.7-5.4
				c0.9-2.1,1.7-4.1,2.4-6.3c0.7-2.1,1.3-4.1,1.7-5.9c0.2-0.7,0.6-1.2,1.1-1.5c0.6-0.3,1.2-0.4,1.8-0.2c0.7,0.2,1.1,0.5,1.5,1
				c0.3,0.5,0.4,1.1,0.3,1.8c-0.3,1.3-0.7,2.6-1,3.9c-0.4,1.3-0.8,2.6-1.3,4h20c0.7,0,1.2,0.2,1.6,0.7c0.4,0.4,0.6,1,0.6,1.6
				c0,0.6-0.2,1.1-0.6,1.6c-0.4,0.4-1,0.7-1.6,0.7h-10.8v29.6c0,2.6-0.6,4.5-1.8,5.7C187.8,760.7,185.8,761.3,182.8,761.3z"/>
			<path class="st0" d="M202.9,752.2c-0.7,0.3-1.4,0.3-2,0c-0.6-0.3-1-0.8-1.3-1.5c-0.4-1.5-1-3.1-1.6-4.9c-0.6-1.8-1.3-3.6-2-5.4
				c-0.7-1.8-1.4-3.5-2.2-5c-0.3-0.7-0.3-1.3,0-1.8c0.3-0.6,0.7-0.9,1.3-1.1c0.7-0.2,1.3-0.2,1.8,0c0.6,0.2,1,0.6,1.3,1.3
				c0.7,1.4,1.4,3,2.2,4.8c0.8,1.8,1.5,3.7,2.2,5.5c0.7,1.9,1.3,3.5,1.7,5C204.7,750.6,204.3,751.7,202.9,752.2z"/>
			<path class="st0" d="M163.8,762c-0.7,0-1.2-0.2-1.7-0.7c-0.5-0.5-0.7-1.1-0.7-1.8V730c-0.7,1.2-1.5,2.3-2.2,3.4
				c-0.8,1.1-1.5,2.1-2.3,3c-0.5,0.6-1,0.9-1.7,1c-0.7,0.1-1.3,0-1.9-0.4c-0.6-0.4-0.9-0.9-1-1.6c-0.1-0.7,0.1-1.3,0.5-1.8
				c1.2-1.5,2.4-3.2,3.7-5.1c1.3-2,2.5-4,3.7-6.2c1.2-2.1,2.2-4.3,3.1-6.3c0.9-2.1,1.7-3.9,2.2-5.4c0.2-0.8,0.7-1.3,1.3-1.6
				c0.6-0.3,1.3-0.3,2-0.1c0.7,0.2,1.1,0.6,1.5,1.2c0.3,0.6,0.4,1.2,0.1,2c-0.5,1.4-1.1,2.9-1.7,4.4c-0.7,1.5-1.4,3.1-2.1,4.7v38.5
				c0,0.7-0.3,1.3-0.7,1.8C165.1,761.8,164.5,762,163.8,762z"/>
		</g>
	</g>
	<g>
		<g>
			<g>
				<path class="st0" d="M3.9,349.2c6.3-3.2,19.3-2.9,26.6-2.9c5.7,0,23,0.7,23-7c0-3.4-2.8-3.9-5.9-3.9c-10.2,0-20.5,1.3-30.7,1.3
					c-8.3,0-8.9-8.8-8.9-14.3c0-19.5,46-5.2,46-18.1c0-4.3-8.5-4.5-11.8-4.5c-5.1,0-10.4,0.7-15.5,0.7c-9.2,0-11.2-3.8-11.2-11.6
					c0-4.8,0.4-7.9,5.1-10.9c3.5-2.1,116.9-12.5,128.7-12.5c10.6,0,16.3,10.4,16.3,19c0,2.5-2.2,3.9-4.3,5
					c-10.4,4.7-29.7,5.5-41.3,6.3c-7.9,0.4-18.5,0.4-25.8,3.2c-1.4,0.5-2.4,1.3-2.4,2.7c0,3.9,3.5,4.7,7.1,4.7c18.7,0,37.4-2,56.1-2
					c13.8,0,20.1,0.7,20.1,15c0,18.2-83.2,4.7-83.2,17.9c0,4.5,4.9,4.8,8.9,4.8c23,0,45.8-3.6,68.9-3.6c11.6,0,17.9,1.6,17.9,13.6
					c0,22-88.5,8.4-95,20.7c-0.6,1.1-0.8,2.7-0.8,3.9c0,5,0.2,11.8,7.7,11.8c5.3,0,36.8,0.7,41.7-3.2c5.9-4.8,4.5-16.8,10.6-16.8
					s31.9,0.2,31.9,8.2c0,5.2-3,12.5-5.3,17.3c-10.6,21.3-40.5,21.8-62.6,21.8c-8.9,0-17.9,0.5-26.8,0.5c-17.5,0-28.3-2.5-32.9-19.3
					c-1.6-5.7-2-12-2-17.9c0-2.1-0.4-4.5-2.2-5.9c-1.6-1.4-4.3-1.6-6.5-1.6c-8.9,0-17.5,0.4-26.4,0.4c-15,0-19.1-2.9-19.1-16.8
					C0,352.6,1.4,350.5,3.9,349.2z"/>
				<path class="st0" d="M298,301.8v-0.9c0-3-8.3-3-10.6-3c-3.5,0-6.9,0.4-10.2,0.4c-11.2,0-11.4-6.3-11.4-14.5
					c0-9.3,7.9-11.6,16.7-11.6c3.7,0,7.7,0.4,11.4,0.4c22.8,0,0-17,22-17c4.9,0,23-0.2,24.2,5.7c0.2,1.4,0.2,2.7,0.2,4.1
					c0,2.5,0.4,3.8,2.6,5.2c3.7,2.5,15.7,2.9,20.5,2.9c15.1,0,19.7,5.7,19.7,19c0,7-10.2,7.2-15.7,7.2c-4.9,0-9.8-0.7-14.8-0.7
					c-4.5,0-7.9-0.4-12,1.3c-8.1,3-23,20.4-27,27.7c0,1.4,1.6,2.5,3,2.5c9.8,0,25.4-25.6,36.8-25.6c5.3,0,19.7,6.1,19.7,11.8
					c0,3.9-6.5,10.2-9.4,13.1c-9.2,9.1-23,19.7-34.4,26.6c-8.7,5.4-18.7,9.8-28.3,13.8c-7.5,3-21.6,8.6-29.7,8.6
					c-9.2,0-14.8-11.6-14.8-18.8c0-9.1,27.7-7.3,27.7-16.6c0-3.9-8.5-12.9-12.8-12.9c-2.6,0-2.8,3.4-2.8,5c0,2.3,0.4,4.5,0.4,6.8
					c0,16.1-23.8-0.2-23.8,20.2c0,13.2,1.2,26.3,1.2,39.5c0,7-2.6,14.1-11.6,14.1c-21.2,0-34.2-1.4-34.2-24.3c0-2.3,1.8-3.8,4.3-3.8
					c2.4,0,4.7,0.5,7.1,0.9l2.6-0.9v-3.8c0-4.3-0.4-26.3-5.5-27.2c-0.6,0-1-0.2-1.6-0.2c-1.4,0-2.8,0.4-4.3,0.4
					c-7.9,0-6.9-18.4-6.9-22.7c0-1.3,0.4-2.1,1.4-2.9c6.9-5.2,15.7,1.1,15.7-11.8c0-2.1-0.4-4.1-0.4-6.3c0-4.7,2.2-4.7,6.3-5.9
					c1.6-0.5,2-1.3,2.8-2.5c1.8-3,6.1-8.2,6.1-11.4c0-2.5-6.3-2.9-8.3-2.9c-3.5,0-7.3,0.5-10.8,0.5c-6.3,0-9.2-2-9.2-7.9
					c0-5,0.6-11.1,4.5-14.8c5.5-5.4,36-4.8,44.7-4.8c12.2,0,13.4,4.7,13.4,14.5c0,4.7-0.6,9.3-2.6,13.8c-1.8,4.1-3.7,8-5.9,12
					c-3,5-8.7,13.4-8.7,19c0.2,0.2,2.6,0.9,3,0.9c5.5,0,10.4-0.7,15.5-2.5l-3-2.7c1.6-2.9,19.5-15.2,22.8-15.2
					c4.7,0,4.9,4.1,7.7,4.1c1.8,0,4.3-1.8,4.7-3.4L298,301.8z M320.3,400c-12.8,4.8-36.6,16.3-49.4,16.3c-8.1,0-14.8-7.9-14.8-14.8
					c0-5.9,16.1-9.5,20.9-11.3c19.7-7.2,38.4-16.3,55.9-27.2c7.3-4.5,13.6-9.5,20.5-14.3c3.5-2.5,11.6-8.6,16.1-8.6
					c4.3,0,14.6,5.4,14.6,9.8c0,7.9-20.3,19-20.3,24.9c0,7.2,18.3,10.6,18.3,16.6c0,6.8-12,20.7-19.7,21.5
					c-10.8-3.8-16.9-15.9-29.5-15.9C328.7,397,324,398.6,320.3,400z"/>
				<path class="st0" d="M434.4,320.1c-1.4-0.7-2.8-0.9-4.3-0.9c-2.2,0-4.3,0.4-6.7,0.4c-14.8,0-0.4-10.4-14-10.4
					c-1.8,0-3.7,0.5-5.5,0.5c-6.3,0-7.1-3.2-7.1-8.2c0-7.9,0-16.5,3.3-24c1-2.1,2.4-4.1,4.7-5.4c9.8-5,38-2.9,50.8-4.7
					c4.7-0.7,13.2-2.1,13.2-7.7c0-5.7,8.5-6.1,13-6.1c4.3,0,19.9-0.4,22.2,3.6c1,1.6,0.8,2.3,0.8,3.9c0,3,3.7,4.3,6.5,5
					c4.3,1.1,9.2,1.1,13.8,1.1c9.8,0,34.8,0.4,42.7,4.8c3,1.6,5.5,4.1,6.9,7c3.3,7,3,15.4,3,22.9c0,12.3-14,5-17.9,8.6
					c-3.3,3,3.1,8.8-10.2,8.8c-2.2,0-4.3-0.4-6.5-0.4c-4.1,0-8.1,0.2-8.1,4.8c0,1.8,2.2,9.8,4.7,9.8c6.5,0,7.3-8.2,14-8.2
					c6.5,0,20.9,6.4,20.9,13.2c0,9.1-14.4,14-14.4,23.6c0,10.9,18.3,17.3,18.3,25.2c0,6.6-13.6,21.3-21,21.3c-5.5,0-10.2-3-14-6.4
					c-10.4-9.7-19.1-24.1-25.2-36.5c-6.3-12.5-11.8-25.2-17.5-37.9c-0.8-1.6-3-6.8-4.5-7.9c-2.4-1.6-4.1-1.3-7.1-1.3
					c-1.8,0-5.7-0.2-5.7,2.1c0,2.9,3.1,6.6,5.1,8.8c3.9,4.3,7.5,8.9,11,13.4c4.5,5.7,8.1,12,11.2,18.4c3.5,7.3,4.9,15.2,4.9,23.1
					c0,26.6-8.1,33.1-37,33.1c-4.7,0-19.7-0.4-21.8-4.7c-1.6-3.2-1.2-14.1-6.3-14.1c-8.1,0-21.6,10.4-30.9,10.4
					c-7.1,0-15.7-10-15.7-16.1c0-10.2,67.7-23.6,67.7-35.4h-0.8c-11.8,0-39.7,20-54.9,20c-6.5,0-14.4-8.2-14.4-14
					c0-10.2,49.6-16.1,50.8-24.1l-1.8-2.1c-10.8,1.6-26.2,11.4-35.2,11.4c-6.1,0-14.2-9.7-14.2-14.8c0-4.3,28.7-12,33.4-13.8
					L434.4,320.1z M457.6,290.8c-3.1,0-23.8,0.7-23.8,4.5c3,0.5,6.1,0.9,9,0.9h82.2c1.6,0,10.6-0.5,10.6-2.3c0-2.9-12.2-3-14.6-3
					H457.6z M477.1,392.3c1,0,2-0.4,2.8-0.9c0.4-1.1,0.6-2.5,0.6-3.6v-3.6l-1.6-1.4c-2.4,0-11.8,5.4-11.8,7.7c0,1.4,3.7,1.8,4.9,1.8
					H477.1z"/>
				<path class="st0" d="M751.9,409.7c-17.3,0-44.1-29.3-52.5-41.9c-2.8-3.9-4.3-8.4-8.3-11.6c-1.4-1.3-3.1-1.8-5.1-1.8
					c-1.6,0-3.1,0.5-4.5,1.4c-3.7,2.7-11,12-14.4,15.9c-10.4,12.5-22,24.9-36.6,33.4c-3.5,2-8.3,5.7-12.4,5.7
					c-7.5,0-21.8-12.5-21.8-19.3l0.8-2.5c3-2.7,6.5-5,9.6-7.7c7.1-5.4,14-11.1,20.7-16.8c8.1-7,15.3-14.5,21.2-23.1
					c5.9-8.4,9.8-18.1,12.4-27.7c3.3-12.3,4.1-25.2,4.1-37.7c0-3.4,0-10.9,3.3-13.1c3.3-2.1,11-1.8,15-1.8c4.5,0,14.4-0.4,17.1,3.8
					c1.6,2.3,2,8,2.2,10.7c0.4,6.6,1.2,13.1,2,19.7c2.4,17.5,7.3,35.1,17.3,50.3c3.1,4.7,6.5,8.9,10.4,13.1
					c4.9,5,38.2,28.6,38.2,32.6C770.6,397.9,759.4,409.7,751.9,409.7z"/>
			</g>
			<g>
				<path class="st0" d="M368.9,133.7c0.1,4.5-8.5,9.7-8.3,13.1c0.3,7.1,19.4,4.6,19.5,11.9c-0.2,13.3-15.3,35.5-34.1,36.9
					c-15.4,1.3-23.9-8.7-33.1-7.5c-10.9,1.6-16.4,10.3-25.6,12.2c-7,1.4-18.1-5.9-19.4-11c-1.5-5.7,29.5-18,28.5-25.3
					c-1.1-6.5-9-27.5-19-28.6c-4-0.4-8,0.4-12.1,1.3c-5.5,1.2-15.9,3.1-14.5,8.7c0.5,2,1.1,3.7,4.6,2.8c7.2-1.7,13.2-5.3,20.5-6.8
					c6.9-1.4,9.4,9.6,9.9,12.8c1.8,9.4-29.8,10.7-27.4,20.5c1.4,5.7,3.2,11.4,4.6,17.1c2.9,12.1-0.1,17.1-15.9,21.7
					c-19.3,5.7-30.6,9.6-37.1-8c-0.7-1.9,3.9-3.8,5.8-4.4c2.8-1,5.8-1.5,8.6-2.4c0.8-0.3,1.7-0.7,2.3-1.2c0.1-1.1,0-2-0.4-3.1
					c-0.8-2.5-2.1-7.8-5.4-8.9c-2,0.5-3.7,1.1-5.7,1.7c-5,1.7-9.6,4-14.6,5.8c-7.2,2.7-14.4-8-15.9-11.9
					c4.8-9.9,32.1-11.7,28.6-22.3c-1.7-5.2-6.2-5.8-13.6-3.2c-2.9,1-5.7,2.2-8.6,3.2c-10.6,3.9-14.1,2.7-16.9-4.3
					c-2.7-6.7,1-12.2,11.6-16.1c3.6-1.3,7.1-2.4,10.5-3.5c6-2,8.8-4.9,7.5-9c-0.2-0.6-0.6-1.1-0.9-1.4c-0.8-0.2-2.1,0.1-3,0.4
					c-5.6,1.9-10.5,4.6-16.1,6.6c-6.9,2.5-10.2-5-11.4-8.2c-1.1-3,0-5.2,3.5-8.2c5.4-5.8,59.1-31.5,67.9-32.7
					c8.9-2.1,17.6,5.2,18.6,10c2.3,10.8-22.8,5.6-18.4,23.5c0.9,3.7,10.2,1.9,14.3,1c2.2-0.5,4.6-1.1,7-1.7
					c9.6-2.3,8.4-9.9,7.4-14.7c-0.8-4.2-2.9-8-3.7-12.2c-2.2-11.1,3-13.3,19.5-16c4.5-0.7,11.5-1.7,15.7-0.9c5.2,1.1,2.7,6,6.2,5.6
					c6.3-0.8,13.4-6.9,22.4-7.6c9.5-1,36.3,20.8,36.1,26.5c0.1,2.9-13.3,4.9-13.2,7.1c0.1,1.3,12.1,1.1,13.9,1.3
					c8.3,0.4,8.8,9,8.8,13.1c0,6.9-10.2,7-17.7,7.4c-2.6,0.1-5.2,0.1-7.5,1C353.2,128.5,368.8,127.8,368.9,133.7z M312,88.3
					c-0.8,2.6,0.4,6.8,0.7,9.6c0.9,7.3,6.7,8.9,17.3,7.9c1.8-0.2,5.6-0.3,5.4-2c-0.1-3.2-17-17.2-21.7-16.6
					C312.8,87.3,312.2,87.7,312,88.3z M327.7,127c-3.2,0.3-4.3,2.1-4.1,4.1c0.2,1.9,1.3,7.7,5,7.3c2.5-0.3,9-7.9,8.9-9.8
					c-0.2-2.5-3.4-2.2-6.2-2C330.1,126.8,328.9,126.9,327.7,127z M350.7,156.9c-3.9,0.2-10,6.6-9.8,9.3c0.1,1.5,2.2,2.9,4.2,2.8
					c4.7-0.3,6.6-8.7,6.4-11.4C351.3,157.4,351,157.2,350.7,156.9z"/>
				<path class="st0" d="M390.6,120c0.1-6.5,0.5-33.5,10.8-36.2c8.2-2.1,13.3,1.7,20.1-3.9c2-1.7,3.7-3.3,4.6-5.3
					c4.7-9.8,10-9.1,25.3-7.5c5.5,0.6,17.1,3.6,16.5,8c-0.4,3.1-3.6,5.3-4,8.4c-0.4,3.1,7.4,4.1,10.6,4.6c2.1,0.3,4.1,0.5,6.2,0.8
					c13.3,2.2,4.1,6.2,9.2,8.9c9.7-0.8,12.3-23.9,31.1-19.8c6.1,1.3,26.2,6.9,24.7,12.4c-0.5,1.8-2.3,2.9-2.8,4.7
					c-1.7,6.1,43,17.1,51.4,25.2c10.4,9.1-0.8,33-3.9,41.1c-3.8,9.6-8.6,18.8-13.7,27.9c-5.4,9.8-14.1,22.6-25,28.5
					c-2.3,1.2-5.1,1.6-8,1.4c-10.5-0.6-20.6-4.3-30.8-7.1c-13.5-3.7-19.2-4.7-16.4-17.1c1.5-6.7,6.4-8.7,15.5-6.4
					c4.4,1.1,8.6,2.9,13,4.2c1.9,0.5,4.3,0.9,6.1,0.4c6.9-1.9,19.9-40.1,22.2-47.3c1.3-4.2,5-12.9,1.3-17.5
					c-1.4-1.7-4.2-3.1-6.5-4.1c-4-1.6-8.3-2.9-12.5-4c-10.5-2.9-22.2-1.1-24.7,6.1c0.1,0.3,0.2,0.5,0.3,0.8c0.5,0.3,1.1,0.5,1.6,0.8
					c3.4,0.8,6-0.4,9.6,0.5c10.8,2.6,17.7,32.8,15.7,38.8c-1.9,6.1-18,5.2-25,3.5c-11.1-2.8-10.7-32.7-18.7-34.3
					c-3-0.6-2.9,1.4-6.5,0.7c-1.7-0.3-3-1.2-4-2.1c-0.5,0.2-1.1,0.4-1.6,0.6c-1.6,1.7-4,14.1-4.5,16.9c-1,5.5-1.6,11.1-2.5,16.6
					c-2,11.1-3.6,21.8-21.9,19c-1.5-0.2-3-0.4-4.6-0.8c-5.5-1.2-11.2-2-16.7-2.5c-9.9-0.9-3.7,6.5-7.8,8c-2,0.7-6.4,0.1-8.3,0
					c-4.3-0.3-10.7-1.2-14.2-3.4c-10.1-6.4-11.3-40.9-11.1-51C390.4,132.6,390.5,126.3,390.6,120z M437.8,105.1
					c-7.8-0.7-8.7,2.5-9,6.9c-0.2,2-0.3,3.9-0.5,5.9c-0.3,3.7,1,6.1,7,6.7c9.9,0.9,10.6-1.4,11.2-7.4c0.2-1.6,0.6-3,0.7-4.7
					c0.4-3.5-0.6-6.5-6.8-7.1C439.5,105.3,438.6,105.2,437.8,105.1z M442.6,159.8c0.2-2.1,0-4,0.3-5.9c0.6-5.5-1.4-8.2-9.5-9
					c-5.4-0.5-7.4,1.4-7.7,5.1c-0.1,1.9-0.3,3.7-0.4,5.6c-0.3,4.4,1.6,8.5,8.1,9.1C439.4,165.4,442.1,164.4,442.6,159.8z"/>
			</g>
		</g>
		<g>
			<path class="st0" d="M189.5,604.6c-1.4,0-2.8,0.1-4.1-0.6c-3.9-2.1-3.9-15.3-3.9-19.1c0-3.8,0.3-12.4,2-15.7
				c0.6-1.2,1.5-2.2,2.9-2.6c1.3-0.4,2.7-0.5,4-0.5c1,0,1.9,0.1,2.8,0.5c3.9,1.6,6.9,18.2,10.2,18.2c4,0,7.1-14.5,9.7-17.3
				c1.5-1.6,4-1.4,6.1-1.4c2.1,0,3.8,0.7,4.8,2.4c2.4,4.2,2.5,10.8,2.5,15.5c0,1.2,0.1,2.4,0.1,3.6c0,4.3-0.2,12.3-3.5,15.6
				c-1.4,1.4-3,1.2-5,1.2c-2.9,0-3.6-1.2-3.6-3.7c0-4.1,0.2-8.2,0.2-12.3c0-0.8-0.3-1.5-0.4-2.3c-3,0-1.3,10.8-10.6,10.8
				c-8.3,0-7.8-10.7-10.1-10.7c-0.7,0.4-0.6,4.5-0.6,5.3c0,3,0.2,6.1,0.2,9.1C193.2,603.3,192.6,604.6,189.5,604.6z"/>
			<path class="st0" d="M242.6,606c0-2.1-0.5-4.2-1.3-6.2c-1.8-4.4-4-8.7-5.9-13.1c-0.8-1.9-1.3-3.8-1.3-5.8c0-2.9,4.5-3.1,6.8-3.1
				c7.8,0,4.8,14.7,8.4,14.7c0.7,0,1-0.6,1.3-1.1c0.4-0.8,0.6-1.8,0.8-2.7c0.6-2.3,0.9-4.8,2-7.1c0.4-1,1.1-1.9,2-2.7
				c0.9-0.8,2-1.1,3.2-1.1c2.8,0,5.8,0.1,5.8,3.4c0,5.1-9.8,28.2-13.2,32.9c-0.6,0.8-1.3,1.6-2.1,2.2c-1.5,1.2-2.8,1-4.7,1
				c-1.5,0-4.3-0.2-4.3-2C239.9,612,242.6,609.3,242.6,606z"/>
			<path class="st0" d="M314.2,600.3c0,4.8-1.4,4.6-6.1,4.6c-5.6,0-5.9-7.8-5.9-11.4c0-3.7-0.7-12.6,2.9-15.3
				c0.6-0.5,1.5-0.7,2.3-0.7c1.3,0,2.6-0.1,3.9-0.1c2.2,0,2.7,0.3,3.1,2.3c1.1,0,4.5-2.9,8.4-2.9c10.6,0,11.4,8,11.4,15.6v5.1
				c0,5.5-2.7,7.4-8.6,7.4c-2.9,0-3.2-2.1-3.2-4.3c0-1.2,0.2-2.4,0.2-3.6v-8c0-2.3-0.4-4.3-3.5-4.3c-4.1,0-5,2.6-5,5.8
				c0,1.1,0.1,2.1,0.1,3.1V600.3z"/>
			<path class="st0" d="M366.1,594.1c-2.3,0-4.7-0.2-7-0.2c-1.2,0-8.1-0.1-8.1,1.3c0,2.8,4.9,3.4,7.2,3.4c2.9,0,5.5-0.9,8.4-0.9
				c1.2,0,1.8,0.7,1.8,1.8c0,1.4-0.1,3.3-1.3,4.3c-1.6,1.3-8.5,1.8-10.7,1.8c-9.7,0-17.7-5.8-17.7-14.9c0-9.3,8.4-14.2,17.9-14.2
				c6.5,0,11.6,3.8,13.7,9.3c0.8,2,1,3.9,1,6.1C371.3,594.1,367.8,594.1,366.1,594.1z M357.4,588.5c1.2,0,2.6-0.2,2.6-1.5
				c0-2.4-2.2-3.6-4.6-3.6c-2.7,0-5,1.4-5,4c0,0.9,2.4,1.1,3.1,1.1H357.4z"/>
			<path class="st0" d="M397.7,591.5c-1.4,3.9-0.4,9-3.7,12.2c-1.2,1.2-2.9,1.4-4.6,1.4c-2,0-3.9,0-5.6-0.9
				c-4.3-2.4-7.5-16.7-7.5-21.2c0-4.7,1.8-5.4,6.6-5.4c0.6,0,1.6,0.1,2.1,0.3c0.6,0.2,1,0.9,1.3,1.4c0.6,1.4,1.2,8.6,1.5,10.8
				c0.1,0.8,0.2,1.6,0.4,2.4c0.1,0.1,0.3,1.2,0.6,1.1c0.4-0.4,0.8-1.9,0.9-2.5c0.5-2.6,1-5.1,1.5-7.7c0.2-1.1,0.4-2.1,0.9-3.1
				c0.4-0.9,1.2-1.7,2-2.2c1.5-1,3.7-0.8,5.5-0.8c1.6,0,3.6,0.3,4.7,1.4c3.1,3.1,2.1,11.3,4.3,15.2c1.5-0.4,2-11.7,2.3-13.5
				c0.1-0.8,0.5-1.7,1.3-2.2c0.8-0.4,1.8-0.6,2.7-0.6c4.1,0,6.2,0.5,6.2,4.7c0,5-2.8,18.2-7.1,21.4c-1.8,1.4-4.3,1.4-6.5,1.4
				c-1.3,0-3.3-0.2-4.3-1c-1.6-1.2-2.6-9.7-3.2-11.8c-0.2-0.6-0.4-2.1-1.2-2.1C398,590.3,397.9,591.1,397.7,591.5z"/>
			<path class="st0" d="M442,578.1c0,1.2-0.1,2.3-0.1,3.5c0,2.7,0.2,5.4,0.2,8.1c0,3.5,0,15.3-5.7,15.3c-2,0-4.1-0.2-5.3-1.9
				c-2-3-1.8-14.8-1.8-18.7c0-2-0.1-4.1-0.1-6.1c0-3.3,0.3-8.6,1.9-11.5c0.4-0.7,1-1.3,1.7-1.6c1.3-0.6,2.1-0.6,3.5-0.6
				C442,564.6,442,574.6,442,578.1z"/>
			<path class="st0" d="M459,606c0-2.1-0.5-4.2-1.3-6.2c-1.8-4.4-4-8.7-5.9-13.1c-0.8-1.9-1.3-3.8-1.3-5.8c0-2.9,4.5-3.1,6.8-3.1
				c7.8,0,4.8,14.7,8.4,14.7c0.7,0,1-0.6,1.3-1.1c0.4-0.8,0.6-1.8,0.8-2.7c0.5-2.3,0.9-4.8,2-7.1c0.4-1,1.1-1.9,2-2.7
				c0.9-0.8,2-1.1,3.2-1.1c2.8,0,5.8,0.1,5.8,3.4c0,5.1-9.8,28.2-13.2,32.9c-0.6,0.8-1.3,1.6-2.1,2.2c-1.5,1.2-2.8,1-4.7,1
				c-1.5,0-4.3-0.2-4.3-2C456.4,612,459,609.3,459,606z"/>
			<path class="st0" d="M500.1,612.4c0,1.6-0.1,3.2-1.7,4.1c-0.9,0.5-2.4,0.4-3.5,0.4c-1.2,0-3.4-0.4-4.2-1.2
				c-3.1-2.7-2.8-20.2-2.8-24.2c0-3.5,0.4-10,3.1-12.7c0.7-0.7,1.7-1.1,2.8-1.1c1.3,0,2.6-0.2,3.9-0.2c1.8,0,1.8,0.8,2.2,2.2h0.1
				c0.5,0,4.9-2.9,8.2-2.9c9.2,0,13.4,8,13.4,15.4c0,7.2-4.6,13.4-13.1,13.4c-2.7,0-5.1-1.8-7.5-1.8c-1.1,0-1.1,1.2-1.1,1.9V612.4z
				 M499.6,594.4c0,2.3,3,4.1,5.3,4.1c4.5,0,5.3-4.3,5.3-7.5c0-2.7-1.4-6.4-5-6.4c-5,0-5.6,3.2-5.6,7V594.4z"/>
			<path class="st0" d="M552.3,594.1c-2.3,0-4.7-0.2-7-0.2c-1.2,0-8.1-0.1-8.1,1.3c0,2.8,4.9,3.4,7.2,3.4c2.9,0,5.5-0.9,8.4-0.9
				c1.2,0,1.8,0.7,1.8,1.8c0,1.4-0.1,3.3-1.3,4.3c-1.6,1.3-8.5,1.8-10.7,1.8c-9.7,0-17.7-5.8-17.7-14.9c0-9.3,8.4-14.2,17.9-14.2
				c6.5,0,11.6,3.8,13.7,9.3c0.8,2,1,3.9,1,6.1C557.4,594.1,553.9,594.1,552.3,594.1z M543.6,588.5c1.2,0,2.6-0.2,2.6-1.5
				c0-2.4-2.2-3.6-4.6-3.6c-2.7,0-5,1.4-5,4c0,0.9,2.4,1.1,3.1,1.1H543.6z"/>
			<path class="st0" d="M563.6,578.6c0.4,0,0.8,0.1,1.2,0.1c1.3,0,2-0.6,2.4-1.7c0.4-1,0.5-2.7,0.5-3.8c0-4,1.5-5.2,5.8-5.2
				c2.9,0,5.7,0.7,5.7,3.9c0,0.9-0.1,1.8-0.1,2.7c0,3.2,2,3.9,5.1,3.9c4.5,0,4.8,1,4.8,4.8c0,2.9-6.7,1.5-8.5,2.6
				c-1.3,0.8-1.3,3.6-1.3,4.9c0,0.9-0.1,1.8-0.1,2.7c0,1.8,0.3,4.6,2.9,4.6c1.7,0,3.3-0.7,5-0.7c0.9,0,0.9,1.2,0.9,1.8
				c0,6.3-4.2,6.4-9.9,6.4c-9.2,0-10.6-6.5-10.6-13.4c0-0.8,0.2-4.7-0.2-5.7c-1.4-3-6.2,1.6-6.2-4.5
				C561,580.1,561.1,578.6,563.6,578.6z"/>
		</g>
		<path class="st1" d="M385.3,61.3"/>
		<path class="st2" d="M295.1,499.7c-7.9,14.7,16.8,14.1,24.8,14.1c1.5,0,3,0,4.5-0.1c8.8-0.4,17.3-1.5,25.2-3.6
			c7.8-2,15.3-4.8,22.2-8.2c1.9-0.9,3.8-1.9,5.6-3c0.1,0.2,0.3,0.4,0.5,0.6c0.8,0.8,2,1.3,3.2,1.3c0.7,0,1.5,0,2.2,0
			c1.3,0,2.5,0,3.8,0c0.7,0,1.5,0,2.2,0c1.2,0,2.4-0.5,3.2-1.3c0.2-0.2,0.3-0.4,0.5-0.6c1.9,1.1,3.7,2.1,5.5,3
			c6.9,3.5,14.4,6.3,22.3,8.3c8.5,2.2,17.3,3.3,26.1,3.6c6.6,0.2,13.6,1.1,20.2-0.5c3.2-0.8,6.2-1.9,8.1-4.7
			c1.6-2.4,3.2-6.4,0.6-8.7c-2.9-2.7-6.6-1.4-10-0.9c-4.5,0.5-8.9,0.8-13.4,0.8c-8.5,0-17-0.9-25.2-2.8c-6.9-1.6-13.4-4-19.6-6.9
			c-0.3-0.1-0.6-0.3-0.9-0.4c8.1-2.2,21.3-6.6,32.4-13c0.2-0.1,0.3-0.2,0.5-0.3c6.9-5.2,11.6-11.5,13.8-18.4
			c1.4-4.6,1.5-9.2,0.2-13.5c0,0,0-0.1,0-0.1c-0.7-1.9-1.7-4.4-3.8-6.5c-1.9-2.1-4.3-3.7-7.1-4.7c-4.2-1.4-9-1.6-13.4-0.4
			c-3.6,0.9-7.1,2.5-10.7,4.9c-3,2-5.8,4.4-8.5,7.2c-0.2,0.3-0.5,0.5-0.7,0.8c-0.3,0.4-0.7,0.8-1,1.2c0,0-0.1,0.1-0.1,0.1
			c-0.5,0.7-1,1.3-1.6,2.1l-2.8,3.8c-3.2,4.4-7.1,9.5-11.4,14.5c-0.1,0.1-0.2,0.2-0.3,0.3c-0.8-0.9-2-1.5-3.3-1.4
			c-0.6,0-1.3,0-1.9,0c-1.1,0-2.2,0-3.2,0c-0.6,0-1.3,0-1.9,0c-1.3,0-2.5,0.5-3.3,1.4c-0.1-0.1-0.3-0.3-0.4-0.4
			c-4.2-4.9-8.1-10.1-11.4-14.5l-1.1-1.5c-0.6-0.7-1.1-1.5-1.7-2.2c0,0,0-0.1-0.1-0.1c-0.5-0.7-1-1.3-1.6-2c0,0-0.1-0.1-0.1-0.2
			c-0.6-0.6-1.1-1.2-1.7-1.9c-2.6-2.7-5.4-5.1-8.4-7.1c-3.5-2.3-7-3.9-10.6-4.9c-4.5-1.2-9.2-1.1-13.5,0.4c-2.7,1-5.1,2.6-7,4.6
			c-2.1,2.2-3.2,4.8-3.8,6.7c-1.3,4.3-1.2,8.9,0.2,13.5c2.2,6.8,7,13.2,13.8,18.4c0.2,0.1,0.3,0.2,0.5,0.4c0,0,0.1,0,0.1,0.1
			c13.9,7.4,25.7,11.1,32.3,12.9c-0.4,0.2-0.7,0.4-1.1,0.5c-6.1,2.9-12.7,5.2-19.5,6.9c-6.9,1.6-14.3,2.6-22,2.8
			c-6.7,0.2-13.8-0.3-21.9-1.6c-1.4-0.2-2.7,0.1-3.6,0.9 M404.1,476.1c0.2-0.3,0.5-0.6,0.7-0.8c4.2-5.2,8.1-10.5,11.3-15.1l2.5-3.6
			c0.4-0.5,0.8-1,1.2-1.5c0.4-0.5,0.8-1,1.2-1.4c1.7-1.9,3.5-3.5,5.5-4.8c2-1.4,4.1-2.3,6-2.8c1.7-0.4,3.2-0.4,4.6,0
			c0.4,0.2,0.8,0.5,1.1,0.8c0,0,0.1,0.1,0.1,0.1c0.3,0.4,0.6,1.3,0.8,1.7c0.4,1.8,0.3,3.9-0.5,5.9c-0.8,2.3-2.2,4.7-4.1,6.8
			c-2.1,2.3-4.4,4.3-7.1,6c-5.3,3.4-12,6.1-19.9,8C406.4,475.7,405.2,475.9,404.1,476.1z M343,467.4c-2.7-1.7-5-3.7-7.1-6
			c-1.9-2.1-3.3-4.5-4.1-6.8c-0.7-2-0.9-4.1-0.5-5.9c0.1-0.4,0.4-1.4,0.8-1.7c0,0,0.1-0.1,0.1-0.1c0.3-0.4,0.7-0.7,1.1-0.8
			c1.4-0.4,3-0.5,4.6,0c1.9,0.5,4,1.5,6,2.8c2,1.3,3.9,3,5.5,4.7c0.4,0.5,0.8,1,1.3,1.5c0.4,0.5,0.8,1,1.1,1.5
			c0.4,0.6,0.9,1.2,1.3,1.8c0.4,0.6,0.8,1.2,1.3,1.8c3.4,4.8,7.1,10,11.2,15.1c0.3,0.3,0.5,0.6,0.8,0.9c-1.2-0.2-2.3-0.5-3.4-0.7
			C355,473.5,348.3,470.8,343,467.4z"/>
		<g>
			<path class="st2" d="M198.7,58.9c-0.3,0-0.6,0-1-0.1c-4.1-0.5-7-4.3-6.5-8.4l4.6-35.9c0.8-6,4.5-10.9,10.1-13.2
				c5.5-2.3,11.7-1.5,16.5,2.1l28.8,21.9c3.3,2.5,3.9,7.2,1.4,10.5c-2.5,3.3-7.2,3.9-10.5,1.4l-28.8-21.9c-0.6-0.5-1.2-0.4-1.6-0.2
				c-0.6,0.2-0.9,0.7-0.9,1.2l-4.6,35.9C205.7,56.1,202.4,58.9,198.7,58.9z"/>
			<path class="st2" d="M571.9,58.9c-3.7,0-7-2.8-7.5-6.6l-4.6-35.9c-0.1-0.7-0.6-1.1-0.9-1.2c-0.4-0.2-1-0.3-1.6,0.2l-28.8,21.9
				c-3.3,2.5-8,1.9-10.5-1.4c-2.5-3.3-1.9-8,1.4-10.5l28.8-21.9c4.8-3.6,10.9-4.4,16.5-2.1c5.5,2.3,9.3,7.3,10.1,13.2l4.6,35.9
				c0.5,4.1-2.4,7.9-6.5,8.4C572.5,58.9,572.2,58.9,571.9,58.9z"/>
		</g>
		<path class="st2" d="M381.7,241.8l-9.2-6.4c-4.7-3.3-6.4-9.8-3.2-14.6c3.2-5,10-6.3,14.8-2.9l1.1,0.8l0.7-0.5
			c4.7-3.3,11.4-2.5,14.8,2.2c3.5,4.8,2.4,11.5-2.5,14.9l-9.6,6.6C386.6,243.2,383.9,243.2,381.7,241.8z"/>
		<path class="st2" d="M385.3,489.1c-59.5,0-117.8-11.1-173.2-33c-2.6-1-3.8-3.9-2.8-6.5c1-2.6,3.9-3.8,6.5-2.8
			c54.2,21.5,111.2,32.3,169.5,32.3s115.3-10.9,169.5-32.3c2.6-1,5.5,0.2,6.5,2.8c1,2.6-0.2,5.5-2.8,6.5
			C503.1,478,444.8,489.1,385.3,489.1z"/>
		<path class="st2" d="M461.1,34.3c-0.6,0-1.2-0.1-1.8-0.4C411.6,15.1,359,15.1,311.3,34c-2.6,1-5.5-0.2-6.5-2.8
			c-1-2.6,0.2-5.5,2.8-6.5c50.1-19.8,105.2-19.8,155.3,0c2.6,1,3.8,3.9,2.8,6.5C465,33.1,463.1,34.3,461.1,34.3z"/>
	</g>
</g>
</svg>
