<svg xmlns="http://www.w3.org/2000/svg" width="4091.5" height="1448.5" style="overflow:visible;enable-background:new 0 0 4091.5 1448.5" xml:space="preserve">
    <style>
        .st0{fill:none}.st1{fill:#fffef8}.st2{fill:#d54830}
    </style>
    <path class="st0" d="M2100.1 610.7c.5-2.3.9-4.6 1.3-6.9 1.5-8 2.8-16.1 3.9-24.2-4.8 3.5-9.6 7.3-14.3 11.4-5 4.3-10 8.9-14.9 13.7 6 1.5 11.9 3.1 17.9 4.6 2 .3 4 .9 6.1 1.4zM2024.8 662.6c-1.8 2.3-3.7 4.6-5.5 6.9-9.2 11.6-18.4 23.5-27.9 35.5-.8 1-1.5 1.9-2.3 2.9 1.9 1.1 3.9 2.3 5.8 3.3 17.4 9.7 35.5 17.3 54 22.4 11.6-15.3 21.3-32.4 29.2-50.7.9-2.1 1.7-4.1 2.6-6.2l-3.6-.9c-14.8-3.7-29.3-7.5-43.7-11.1-2.9-.7-5.8-1.4-8.6-2.1zM1928.6 646.1c-6.2-.3-12.3-.4-18.3-.3 5.8 5.8 11.8 11.4 17.8 16.9 1.8 1.6 3.5 3.1 5.3 4.7 1.3-1.7 2.6-3.3 3.9-5 3.8-4.8 7.6-9.6 11.4-14.5-6.7-.9-13.4-1.5-20.1-1.8zM2197.3 694.5c-8.6.1-17.1-.1-25.7-.8-4.3-.4-8.5-.7-12.7-1.2-2.1-.2-4.2-.5-6.3-.8l-3.9-.6c-2.4 6.4-4.9 12.7-7.6 19-3.3 7.6-6.9 15.2-10.8 22.7-1.5 2.9-3.1 5.8-4.7 8.6 1 0 2.1-.1 3.1-.1 3.3-.2 6.6-.3 9.9-.7 1.6-.2 3.3-.3 4.9-.5l4.9-.6 2.4-.3 2.4-.4 4.8-.8 4.7-.9 2.4-.5 2.3-.6c1.5-.4 3.1-.7 4.6-1.1l4.5-1.3c1.5-.4 3-.9 4.5-1.4 1.5-.5 3-.9 4.4-1.5l4.4-1.6 4.2-1.7c1.4-.5 2.8-1.2 4.2-1.8l2.1-.9c.7-.3 1.3-.7 2-1l2-1c.7-.3 1.4-.7 2-1l3.9-2.2c2.5-1.5 5-3.1 7.4-4.8 9.6-6.6 17.9-14.5 24.5-23.4.3-.5.7-.9 1-1.4-6.7 1.2-13.4 2.2-20.2 2.9-8.4 1.1-17 1.6-25.6 1.7zM1838.3 669.8c-2.3 2.1-4.6 4.3-6.7 6.6l-1.4 1.5c-.5.5-.9 1-1.4 1.6-.9 1.1-1.7 2.2-2.6 3.3l-2.5 3.4-.6.9-.6.9-1.2 1.8c-3.1 4.9-6.1 10.1-8.6 15.7l-1 2.1-.7 1.8-.8 1.8-.6 1.8c-.2.6-.5 1.2-.7 1.8l-.5 1.8c-.2.6-.4 1.2-.5 1.8l-.5 1.9c-2.4 9.9-2.7 20.3-.8 30.5 1 5.7 2.8 11.3 5.1 16.7l1.6-.5 2.3-.9c12.1-4.6 23.8-10.4 34.8-17.2 5.6-3.4 10.9-7.1 16.1-10.9 5.2-3.9 10.3-8 15.1-12.3 2.3-2.1 4.6-4.2 6.9-6.4-2.1-1.8-4.1-3.6-6.2-5.5-15.6-14.1-30.2-28.8-44-44zM2196.3 625.8c6.5-.1 13-.4 19.5-1.2 12.9-1.4 25.7-3.9 38.1-7.6l2.3-.7 1.6-.5c-1.5-5.7-3.5-11.2-6.2-16.3-4.7-9.3-11.3-17.3-19.2-23.7l-1.5-1.2c-.5-.4-1-.7-1.6-1.1l-1.6-1.1c-.5-.4-1.1-.7-1.6-1l-1.6-1-1.7-1-1.7-1-2-1c-5.4-2.9-10.9-5.2-16.4-7.2l-2-.7-1-.4-1-.3-4.1-1.2c-1.4-.3-2.7-.6-4.1-1-.7-.2-1.4-.3-2-.4l-2-.4c-3.1-.5-6.2-.9-9.3-1.1-1.7 20.5-4.2 41.1-8 61.6-.5 2.7-1 5.4-1.6 8.1 3.1.4 6.2.6 9.4.9 6.3.4 12.8.6 19.3.5zM1903.8 821.6c2.9-.1 5.8-.4 8.8-.7l4.4-.6c.7-.1 1.5-.3 2.2-.4l2.2-.4c.7-.1 1.5-.2 2.2-.4l2.2-.5c1.5-.3 3-.6 4.4-1.1l4.4-1.2 4.4-1.4c1.5-.4 2.9-1 4.4-1.5 1.5-.5 2.9-1 4.4-1.6l4.4-1.8c1.5-.6 2.9-1.3 4.3-1.9l2.2-1 2.2-1.1 4.3-2.1 4.3-2.3 2.1-1.2 2.1-1.2 4.2-2.5c1.4-.9 2.8-1.8 4.2-2.6 2.8-1.7 5.5-3.6 8.3-5.5.9-.6 1.7-1.2 2.6-1.8-3-1.3-6-2.6-9-4-7.6-3.6-15.1-7.4-22.4-11.4-6-3.3-11.8-6.8-17.6-10.5-.9.9-1.8 1.9-2.7 2.8-1.5 1.5-2.9 3-4.5 4.5-3 3-6.2 5.9-9.3 8.8-6.4 5.7-13 11.1-19.9 16.2-6.9 5.1-14 10-21.3 14.4-5.8 3.5-11.7 6.9-17.8 10 .6.2 1.1.3 1.7.5 10.6 3 22 4.1 33.6 3.5z"/>
    <path class="st1" d="m2261 540-2.5-1.9c-.8-.6-1.7-1.2-2.5-1.8l-2.5-1.8c-.9-.6-1.7-1.1-2.6-1.7l-2.6-1.7-2.7-1.6-2.7-1.5-2.7-1.4c-7.1-3.7-14.5-6.9-22.1-9.7l-2.9-1-1.4-.5-1.5-.4c-2-.6-3.9-1.2-5.9-1.7l-6-1.5c-1-.3-2-.4-3-.6l-3-.6c-5-.9-10-1.5-15-1.8-.1 4.2-.2 8.3-.4 12.5-.1 3.5-.3 6.9-.4 10.4 4 .3 7.9.7 11.9 1.4l2.5.5c.8.2 1.7.3 2.5.5l5 1.2c1.7.5 3.3 1 5 1.5l1.2.4 1.2.4 2.5.9c6.5 2.3 13 5.1 19.3 8.4l2.4 1.2 2.2 1.3 2.2 1.3 2.1 1.4c.7.5 1.4.9 2.1 1.4l2.1 1.5c.7.5 1.4 1 2 1.5l2 1.6c10.5 8.4 19.2 19.1 25.3 31.1 3.2 6.2 5.7 12.7 7.5 19.4 1.8 6.4 2.9 12.9 3.5 19.5.1 1.1.2 2.3.2 3.4.3 5.7.2 11.4-.4 17.1-.3 2.6-.6 5.1-1.1 7.6-.7 4.2-1.7 8.4-2.9 12.5-1.4 4.9-3.2 9.6-5.2 14.3-3.5 7.9-7.9 15.4-13.1 22.4-8.2 11.1-18.4 20.6-29.9 28.6-2.8 2-5.8 3.8-8.8 5.7l-4.6 2.6c-.8.4-1.6.8-2.3 1.2l-2.3 1.2-2.4 1.2-2.4 1.1c-1.6.7-3.2 1.5-4.8 2.1l-4.9 2-5 1.8c-1.6.6-3.4 1.1-5.1 1.7-1.7.5-3.4 1.1-5.1 1.6l-5.1 1.4c-1.7.4-3.5.8-5.2 1.2l-2.6.6-2.6.5-5.3 1-5.3.9-2.7.4-2.7.3-5.4.7c-1.8.2-3.6.3-5.4.5-3.6.4-7.2.5-10.8.8-1.8.1-3.6.1-5.4.2l-5.4.1h-7.8l-.7 1-3.7 5.2-.9 1.3-1 1.3-1.9 2.6c-2.8 3.7-5.7 7.3-8.7 10.9l1.6.1c1.9.1 3.9.2 5.8.3l5.8.2c1 0 1.9 0 2.9.1h8.8l5.9-.1c2-.1 3.9-.1 5.9-.2 3.9-.2 7.8-.4 11.7-.8 2-.2 3.9-.3 5.9-.6l5.9-.7 2.9-.4 2.9-.5 5.8-.9 5.8-1.2 2.9-.6 2.9-.7c1.9-.5 3.9-.9 5.8-1.4l5.7-1.6c1.9-.5 3.8-1.1 5.7-1.7 1.9-.6 3.8-1.2 5.7-1.9l5.6-2 5.6-2.3c1.9-.7 3.7-1.6 5.5-2.4l2.7-1.3c.9-.4 1.8-.9 2.7-1.3l2.7-1.4c.9-.5 1.8-.9 2.7-1.4l5.3-3c3.5-2.1 6.9-4.2 10.2-6.6 13.3-9.2 25.4-20.5 35.2-33.7 9.8-13.1 17.3-28.1 21.9-43.9.1-.4.2-.9.4-1.3 2.1-7.5 3.6-15.1 4.4-22.9.1-1 .2-1.9.3-2.9.3-4.4.5-8.7.4-13.1-.1-2.9-.2-5.8-.4-8.7-.1-.8-.1-1.5-.2-2.3-.8-7.7-2.2-15.3-4.4-22.7-2.2-7.7-5.2-15.3-8.9-22.5-7.6-15-18.3-28.3-31.4-38.8zM1921.9 717.2c6 4.7 12.2 9.3 18.4 13.7 6.3 4.4 12.7 8.7 19.3 12.7 4.3 2.6 8.6 5.2 13 7.6 6.8 3.8 13.8 7.3 20.9 10.6 6.6 3.1 13.3 5.9 20.2 8.4l.5-.5 3.8-3.4 1.9-1.7 1.9-1.8 3.8-3.5.9-.9.9-.9 1.7-1.7c1.1-1.1 2.3-2.2 3.4-3.4l-4.4-1.5c-.9-.3-1.7-.6-2.6-.9l-2.5-.9c-6.8-2.5-13.5-5.2-20-8.3-6.6-3.1-13-6.4-19.4-9.9-3.1-1.7-6.2-3.5-9.2-5.3-6.6-4-13-8.1-19.4-12.5-6.3-4.3-12.4-8.9-18.5-13.6-6-4.7-11.9-9.6-17.7-14.6-2.1-1.8-4.2-3.6-6.2-5.5-10.9-9.8-21.3-20-31.4-30.7-2.9.6-5.8 1.3-8.6 2.1-5.4 1.6-10.5 3.5-15.3 5.8 12.7 13.8 25.9 27.2 40 39.8 2.2 2 4.4 3.9 6.7 5.9 5.9 5.3 11.8 10.1 17.9 14.9-.1 0-.1 0 0 0zM1617.1 231c10.8 28.3 22.2 56.5 34.2 84.3 12 27.8 24.7 55.4 38.1 82.7 13.4 27.2 27.5 54.2 42.5 80.6 15 26.4 30.8 52.5 47.8 77.8 8.5 12.7 17.2 25.1 26.3 37.4 2.3 3.1 4.7 6.3 7 9.4 4.6-2.9 9.3-5.5 14.1-7.9 2.1-1 4.3-2 6.4-3-3.1-4-6.1-8.1-9.2-12.1-8.8-12-17.4-24.2-25.7-36.6-16.6-24.8-32.1-50.3-46.9-76.3-14.7-26-28.6-52.5-41.8-79.4-13.2-26.9-25.7-54.1-37.6-81.6-11.9-27.5-23.2-55.3-33.8-83.3-5.3-14-10.5-28.1-15.5-42.2-.1-.2-.1-.3-.2-.5l-21.7 7.4c.1.2.2.5.3.7 5.1 14.2 10.3 28.5 15.7 42.6z"/>
    <path class="st2" d="M2099.1 692zM2322.9 593.7c-2.6-8.8-6-17.3-10.2-25.6-8.9-17.6-21.8-33.5-37.4-46l-2.9-2.3c-1-.8-2-1.5-3-2.2l-3-2.2c-1-.7-2.1-1.4-3.1-2l-3.1-2-3.2-1.9-3.2-1.8-3-1.5c-7.9-4.2-16.3-7.8-25-10.9-14.4-5.2-30.2-8.6-46.2-9.4 0-3.9-.1-7.8-.1-11.7-.3-15.6-1-31.2-2-46.8-2-31.1-5.4-61.9-9.7-92.5-4.3-30.6-9.6-61-15.7-91.1-6.1-30.2-12.9-60.1-20.4-89.8-7.5-29.7-15.7-59.3-24.5-88.7-4.4-14.7-9-29.3-13.8-43.9-.1-.3-.2-.7-.3-1l-21.7 7.4c.1.2.2.5.2.7 4.7 14.4 9.3 28.9 13.6 43.4 8.7 29 16.8 58.3 24.3 87.7 7.4 29.4 14.2 59 20.2 88.7 6 29.8 11.2 59.7 15.5 89.8 4.2 30.1 7.5 60.4 9.5 90.8 1 15.2 1.7 30.4 2 45.7.1 3.9.1 7.8.1 11.7 0 7.7 0 15.4-.2 23l-.3 11.1c-.1 4-.3 8.1-.5 12.1-.4 7.8-.9 15.7-1.6 23.5-1.6 18.7-4 37.3-7.4 55.9-.5 2.9-1.1 5.8-1.7 8.7-2.7-.5-5.5-1.1-8.3-1.6-4.7-1-9.4-2-14.1-3.1.5-2.7 1.1-5.4 1.6-8.1 2.7-14.4 4.7-28.9 6.2-43.5.9-8.6 1.6-17.2 2.1-25.8.4-6.3.7-12.6.9-19 .1-1.8.1-3.7.2-5.5.2-7.9.3-15.9.3-23.8 0-5.1-.1-10.1-.1-15.2-.3-14.9-.9-29.8-1.9-44.7-1.9-29.8-5.2-59.5-9.3-89.1-4.2-29.6-9.3-59.1-15.2-88.5-5.9-29.4-12.6-58.6-19.9-87.6-7.3-29.1-15.4-58-24-86.7-4.3-14.4-8.8-28.7-13.5-42.9-.1-.2-.1-.3-.2-.5l-21.7 7.4c0 .1.1.2.1.2 4.6 14 9 28.2 13.3 42.4 8.5 28.4 16.5 57 23.7 85.7 7.3 28.7 13.9 57.6 19.7 86.5 5.8 29 10.9 58 15 87.1 4.1 29.1 7.3 58.3 9.2 87.4 1 14.6 1.6 29.1 1.9 43.6.1 7.5.2 14.9.1 22.3-7.8 3.2-15.2 6.8-22.2 10.8-7.8 4.4-15.2 9.2-22.3 14.2-7 5.1-13.7 10.4-20 15.8-6.4 5.5-12.5 11.1-18.3 16.8-5.8 5.7-11.5 11.5-16.9 17.4-4.1 4.4-8.1 8.9-12.1 13.4-5.9-1.2-11.8-2.3-17.8-3.3-7.9-1.3-15.9-2.5-24-3.5s-16.4-1.7-24.7-2.2c-8.4-.4-16.9-.6-25.5-.3-8.7.3-17.4 1-26.3 2.3-8 1.2-16.1 2.8-24.2 5-4.6-5.9-9.1-11.8-13.5-17.8-8.6-11.7-17-23.6-25.1-35.7-16.2-24.2-31.5-49.3-46-74.9-14.5-25.6-28.2-51.7-41.2-78.2-13-26.5-25.4-53.4-37.1-80.6-11.7-27.2-22.9-54.7-33.4-82.4-5.3-13.9-10.4-27.8-15.3-41.7 0-.1-.1-.2-.1-.2l-21.7 7.4c.1.2.1.3.2.5 5 14.1 10.1 28.2 15.5 42.2 10.6 28 21.9 55.8 33.8 83.3 11.9 27.5 24.4 54.8 37.6 81.6 13.2 26.9 27.1 53.4 41.8 79.4 14.7 26 30.3 51.5 46.9 76.3 8.3 12.4 16.9 24.6 25.7 36.6 3 4.1 6.1 8.1 9.2 12.1-2.2.9-4.3 1.9-6.4 3-4.8 2.4-9.5 5-14.1 7.9-2.4-3.1-4.7-6.2-7-9.4-9.1-12.3-17.8-24.8-26.3-37.4-17-25.3-32.8-51.3-47.8-77.8s-29.1-53.4-42.5-80.6c-13.4-27.2-26.1-54.8-38.1-82.7-12-27.8-23.4-55.9-34.2-84.3-5.4-14.2-10.6-28.4-15.7-42.7-.1-.2-.2-.5-.3-.7l-21.7 7.4c.1.3.2.7.3 1 5.1 14.5 10.4 28.9 15.8 43.2 10.9 28.7 22.4 57.1 34.6 85.2 12.2 28.2 25 56.1 38.5 83.7 13.6 27.6 27.9 54.9 43.1 81.8 15.2 26.9 31.4 53.4 48.7 79.2 8.6 12.9 17.6 25.7 26.9 38.3 2.3 3.1 4.7 6.2 7 9.3-12.2 10.5-22.6 22.7-30.9 35.6-5 7.8-9.5 15.8-13.2 23.9l-1.4 3-1.4 3.4-1.4 3.4-1.3 3.5c-.4 1.2-.8 2.3-1.2 3.5l-1.1 3.6c-.4 1.2-.7 2.4-1 3.6l-.9 3.6c-4.7 19.4-5.2 39.8-1.6 59.2 1.7 9.1 4.2 17.9 7.5 26.5L0 1383.4l7.4 21.7 1749-594.6 22.2-7.5 2.7-.9 19.6-6.7 1.8-.6 10.7-3.6c1.8-.6 3.5-1.2 5.2-1.8l2.5-.9 2.5-.9h.1c13.4-5.1 26.4-11.5 38.6-19 6.1-3.7 12.1-7.8 17.9-12.1 5.8-4.3 11.4-8.8 16.7-13.6 3.2-2.8 6.2-5.8 9.3-8.8 4.5 3.6 9.1 7.1 13.8 10.6 1.5 1.1 3.1 2.2 4.7 3.4-4 4.1-8.2 8.1-12.5 11.9-5.9 5.3-12 10.2-18.3 14.9-6.3 4.7-12.8 9.2-19.6 13.3-10.3 6.3-21.1 11.9-32.2 16.8-1 .5-2.1.9-3.2 1.3-2.3 1-4.7 1.9-7 2.8l-2.8 1.1-2.8 1c-1.9.7-3.7 1.3-5.5 1.9l-3.6 1.2-7.1 2.4-17 5.8-4.4 1.5-18.9 6.4L14.8 1427l7.4 21.7L1787 848.8c4.2 3.8 8.5 7.3 13.1 10.7 15.5 11.4 33.1 19.8 51.4 25 18.3 5.2 37.3 7 55.8 6.1 4.6-.2 9.2-.7 13.8-1.2l6.8-1c1.1-.1 2.2-.4 3.4-.6l3.3-.6c1.1-.2 2.2-.4 3.3-.7l3.3-.8c2.2-.5 4.4-1 6.6-1.6 2.2-.6 4.3-1.2 6.5-1.8l6.4-2c2.1-.6 4.2-1.4 6.3-2.2 2.1-.8 4.2-1.5 6.2-2.3l6.1-2.5 6-2.7 3-1.3 2.9-1.4 5.8-2.9 5.7-3.1 2.8-1.5 2.8-1.6 5.5-3.2c1.8-1.1 3.6-2.3 5.4-3.4 3.6-2.2 7.1-4.6 10.6-7 1.8-1.2 3.4-2.4 5.1-3.7l5.1-3.7 4.9-3.8 2.5-1.9c.8-.6 1.6-1.3 2.4-1.9l4.8-4c1.6-1.3 3.2-2.6 4.7-4l4.6-4.1 2.3-2 2.3-2.1 4.5-4.2 1.1-1c.1-.1.2-.2.3-.2h.4l1.5.1 6.1.6 3.1.3 3.1.2 6.2.4c2.1.2 4.1.2 6.2.3l6.2.2c1 0 2.1.1 3.1.1h9.4l6.3-.2c2.1-.1 4.2-.1 6.3-.2 4.2-.3 8.4-.4 12.7-.9l6.3-.6 6.4-.8 3.2-.4 3.2-.5 6.4-1 6.4-1.3 3.2-.6 3.2-.7c2.1-.5 4.2-1 6.4-1.5l6.3-1.8c2.1-.6 4.2-1.3 6.3-1.9 2.1-.7 4.2-1.3 6.3-2.1l6.3-2.3c2.1-.8 4.2-1.7 6.2-2.5 2.1-.8 4.1-1.8 6.2-2.7l3.1-1.4 3-1.5 3-1.5c1-.5 2-1 3-1.6l6-3.4c3.9-2.4 7.8-4.8 11.6-7.5 15.2-10.5 29.2-23.5 40.5-38.9 11.4-15.3 20.2-32.7 25.5-51.1 1.6-5.4 2.9-10.9 3.9-16.4L4091.5 65.1l-7.4-21.7L2329.2 640c.1-5.3-.1-10.5-.5-15.8-.2-2.6-.5-5.3-.9-7.9l1749-594.6-7.4-21.7-1746.5 593.7zM2169 616.2c3.8-20.5 6.4-41.1 8-61.6 3.1.2 6.2.6 9.3 1.1l2 .4c.7.1 1.4.2 2 .4 1.4.3 2.7.7 4.1 1l4.1 1.2 1 .3 1 .4 2 .7c5.5 2 10.9 4.3 16.4 7.2l2 1 1.7 1 1.7 1 1.6 1c.5.3 1.1.7 1.6 1l1.6 1.1c.5.4 1.1.7 1.6 1.1l1.5 1.2c7.9 6.4 14.5 14.4 19.2 23.7 2.6 5.1 4.7 10.6 6.2 16.3l-1.6.5-2.3.7c-12.4 3.7-25.2 6.2-38.1 7.6a211.662 211.662 0 0 1-39 .6c-3.1-.3-6.2-.5-9.4-.9.8-2.6 1.3-5.3 1.8-8zm-37.2 25.4c2.6.5 5.2 1.1 7.8 1.6 7.6 1.5 15.2 2.7 22.7 3.7 4.2.5 8.5 1 12.7 1.3 7.2.5 14.4.7 21.6.6 7.2-.1 14.4-.5 21.5-1.3 14.3-1.5 28.5-4.3 42.2-8.5h.1c0 2.4-.2 4.8-.4 7.2-.6 5.4-1.6 10.8-3.1 16-.2.6-.3 1.1-.5 1.7-11.8 3-23.7 5.1-35.8 6.4-7.8.9-15.7 1.3-23.6 1.4-7.9.1-15.8-.1-23.6-.7-5.8-.4-11.5-1.1-17.2-1.8-2.1-.3-4.1-.6-6.2-.9-5.6-.9-11.1-1.9-16.6-2.9-2.1-.4-4.1-.8-6.2-1.2-5.5-1.1-10.9-2.3-16.3-3.6-7.5-1.7-14.9-3.5-22.3-5.4-2-.5-3.9-1-5.9-1.5-14-3.5-27.9-7.2-41.8-10.6 2.1-2.5 4.1-4.9 6.2-7.3 3.5-4.1 7.1-8.1 10.7-12 10.2 2.6 20.4 5.2 30.5 7.8 2.2.6 4.4 1.1 6.7 1.7 7.4 1.9 14.9 3.7 22.3 5.4 4.8.8 9.7 1.9 14.5 2.9zm111.4 48.5c-.3.5-.7.9-1 1.4-6.6 8.9-15 16.8-24.5 23.4-2.4 1.7-4.9 3.2-7.4 4.8l-3.9 2.2c-.6.4-1.3.7-2 1l-2 1c-.7.3-1.3.7-2 1l-2.1.9c-1.4.6-2.7 1.3-4.2 1.8l-4.2 1.7-4.4 1.6c-1.4.6-2.9 1-4.4 1.5-1.5.5-3 1-4.5 1.4l-4.5 1.3c-1.5.4-3.1.7-4.6 1.1l-2.3.6-2.4.5-4.7.9-4.8.8-2.4.4-2.4.3-4.9.6c-1.6.2-3.3.3-4.9.5-3.3.4-6.6.5-9.9.7-1 .1-2.1.1-3.1.1 1.6-2.9 3.2-5.7 4.7-8.6 3.9-7.5 7.5-15 10.8-22.7 2.7-6.3 5.2-12.6 7.6-19l3.9.6c2.1.3 4.1.6 6.3.8 4.2.5 8.5.9 12.7 1.2 8.5.6 17.1.9 25.7.8 8.6-.1 17.1-.6 25.7-1.5 6.7-.9 13.4-1.9 20.1-3.1zm-162.5-13.4c-.8 2.1-1.7 4.2-2.6 6.2-7.9 18.3-17.6 35.4-29.2 50.7-18.5-5.1-36.6-12.8-54-22.4-2-1.1-3.9-2.2-5.8-3.3.8-1 1.5-1.9 2.3-2.9 9.5-12 18.7-23.9 27.9-35.5 1.8-2.3 3.7-4.6 5.5-6.9 2.8.7 5.7 1.4 8.6 2.1 14.4 3.6 28.9 7.4 43.7 11.1l3.6.9zm-4.7-72.1c4.9-4.8 9.9-9.4 14.9-13.7 4.7-4 9.5-7.8 14.3-11.4-1.1 8.1-2.4 16.2-3.9 24.2-.4 2.3-.9 4.6-1.3 6.9-2-.5-4.1-1-6.1-1.5-5.9-1.5-11.9-3-17.9-4.5zm-85.1 26.9c5.4-6.7 10.9-13.4 16.5-20 1.7-2 3.3-3.9 5-5.9 4-4.6 8.1-9.2 12.2-13.8 1-1.1 2.1-2.3 3.1-3.4 5.2-5.6 10.6-11.2 16.2-16.6 5.5-5.4 11.3-10.7 17.2-15.8 5.9-5.1 12.1-10 18.5-14.6 9.5-6.8 19.7-13.1 30.5-18.3-.4 9-.9 17.9-1.7 26.8-5.3 3.1-10.4 6.4-15.4 10-5.8 4.2-11.5 8.7-17 13.4-5.5 4.7-10.9 9.7-16.1 14.8-3.3 3.2-6.5 6.5-9.7 9.8l-5.7 6c-4 4.3-8 8.8-11.9 13.2-1 1.1-1.9 2.2-2.9 3.3-4.6 5.4-9.2 10.8-13.7 16.3-5 6-9.9 12.1-14.7 18.3-.4.5-.9 1.1-1.3 1.6-8.9 11.2-17.7 22.6-26.7 33.9-1.3 1.6-2.5 3.2-3.8 4.7-6.3-4.3-12.4-8.8-18.5-13.6 1.4-1.8 2.8-3.6 4.3-5.4 6.5-8.2 12.9-16.5 19.4-24.8 2.8-3.6 5.7-7.2 8.5-10.8 2.7-2.8 5.2-6 7.7-9.1zm-53.5 30.8c-1.3 1.7-2.6 3.3-3.9 5-1.8-1.5-3.5-3.1-5.3-4.7-6.1-5.4-12-11.1-17.8-16.9 6-.1 12.1 0 18.3.3 6.6.4 13.4.9 20.2 1.8-3.9 4.9-7.7 9.7-11.5 14.5zm-148.6 40.5-.9 2.4c-.3.8-.6 1.6-.8 2.4l-.7 2.4c-.2.8-.5 1.6-.7 2.4l-.6 2.4c-3.2 13.1-3.6 26.8-1.1 40.1 1.3 6.8 3.2 13.5 5.9 20l-16 5.4-5.7 1.9c-3-7.5-5.2-15.3-6.7-23.2-3.1-16.3-2.6-33.4 1.3-49.6l.8-3 .9-3 .9-3c.3-1 .7-2 1-2.9l1.1-2.9 1.2-2.9 1.2-2.9 1.3-2.7c3.3-7.3 7.3-14.3 11.7-21.2l1.7-2.5.8-1.3.9-1.2c1.2-1.6 2.4-3.3 3.6-4.9l3.8-4.8c.6-.8 1.3-1.6 2-2.3l2-2.3c3.4-3.7 7-7.3 10.8-10.6 2.4-2.1 4.9-4.1 7.5-6 3.6-2.7 7.3-5.2 11.1-7.5 3.3-2 6.6-3.8 10-5.5 3.6-1.8 7.4-3.4 11.1-4.8 3.9-1.5 7.8-2.8 11.8-4 4-1.2 8.1-2.2 12.2-3 11.7-2.5 23.6-3.7 35.3-4.1 7.9-.2 15.8-.1 23.6.3 7.8.4 15.6 1.1 23.3 2 7.7.9 15.3 2 22.9 3.3 1.5.3 3 .5 4.5.8-5.6 6.7-11 13.5-16.4 20.2-.1.1-.1.2-.2.2-4.5-.7-9.1-1.3-13.6-1.9-7.3-.9-14.5-1.5-21.8-1.9-7.2-.4-14.5-.5-21.6-.3-6.2.2-12.3.7-18.3 1.4-8 1-15.8 2.6-23.4 4.8-.8.2-1.6.5-2.4.7-5.8 1.8-11.5 4-16.9 6.7-1.8.9-3.5 1.8-5.2 2.7-4.2 2.4-8.3 5-12.2 7.9-2.3 1.7-4.5 3.5-6.6 5.4-3 2.6-5.8 5.4-8.5 8.4l-1.7 1.9c-.6.6-1.2 1.3-1.7 1.9l-3.2 4c-1 1.4-2 2.8-3.1 4.2l-.8 1-.7 1.1-1.4 2.2c-3.8 5.8-7.2 12-10.1 18.4l-1.1 2.4-1 2.3-1.1 2.6zm92.7 22.8c-4.9 4.3-9.9 8.5-15.1 12.3-5.2 3.9-10.6 7.6-16.1 10.9-11.1 6.8-22.7 12.6-34.8 17.2l-2.3.9-1.6.5c-2.3-5.4-4-11-5.1-16.7-1.9-10.3-1.6-20.6.8-30.5l.5-1.9c.2-.6.4-1.2.5-1.8l.5-1.8c.2-.6.4-1.2.7-1.8l.6-1.8.8-1.8.7-1.8 1-2.1c2.5-5.6 5.5-10.8 8.6-15.7l1.2-1.8.6-.9.6-.9 2.5-3.4c.9-1.1 1.8-2.2 2.6-3.3.4-.6.9-1 1.4-1.6l1.4-1.5c2.1-2.3 4.4-4.5 6.7-6.6 13.8 15.2 28.4 30 43.9 44 2 1.8 4.1 3.7 6.2 5.5-2.2 2.2-4.5 4.3-6.8 6.4zm22.7-23c-2.2-1.9-4.5-3.9-6.7-5.9-14-12.6-27.3-25.9-40-39.8 4.8-2.3 9.9-4.2 15.3-5.8 2.8-.8 5.6-1.5 8.6-2.1 10.1 10.7 20.5 20.9 31.4 30.7 2.1 1.8 4.1 3.7 6.2 5.5 5.8 5 11.7 9.9 17.7 14.6 6 4.7 12.2 9.3 18.5 13.6 6.3 4.4 12.8 8.6 19.4 12.5 3 1.8 6.1 3.6 9.2 5.3 6.4 3.5 12.8 6.8 19.4 9.9 6.6 3.1 13.3 5.8 20 8.3l2.5.9c.8.3 1.7.6 2.6.9l4.4 1.5c-1.1 1.2-2.2 2.3-3.4 3.4l-1.7 1.7-.9.9-.9.9-3.8 3.5-1.9 1.8-1.9 1.7-3.8 3.4-.5.5c-6.8-2.6-13.6-5.4-20.2-8.4-7.1-3.3-14.1-6.9-20.9-10.6-4.4-2.5-8.7-5-13-7.6-6.6-4-13-8.3-19.3-12.7-6.3-4.4-12.4-9-18.4-13.7-6.3-5.1-12.2-9.9-17.9-14.9zm-18 104.9c7.3-4.5 14.4-9.3 21.3-14.4s13.5-10.5 19.9-16.2c3.2-2.9 6.3-5.8 9.3-8.8l4.5-4.5c.9-.9 1.8-1.9 2.7-2.8 5.8 3.6 11.6 7.1 17.6 10.5 7.3 4 14.8 7.8 22.4 11.4 3 1.4 6 2.7 9 4-.8.6-1.7 1.2-2.6 1.8-2.7 1.9-5.5 3.8-8.3 5.5-1.4.9-2.8 1.8-4.2 2.6l-4.2 2.5-2.1 1.2-2.1 1.2-4.3 2.3-4.3 2.1-2.2 1.1-2.2 1c-1.4.6-2.9 1.3-4.3 1.9l-4.4 1.8c-1.5.6-2.9 1.1-4.4 1.6-1.5.5-2.9 1.1-4.4 1.5l-4.4 1.4-4.4 1.2c-1.5.4-2.9.7-4.4 1.1l-2.2.5c-.7.2-1.5.3-2.2.4l-2.2.4c-.7.1-1.5.3-2.2.4l-4.4.6c-2.9.3-5.9.6-8.8.7-11.6.6-23-.5-33.7-3.6-.6-.2-1.1-.3-1.7-.5 6.1-3 12.1-6.4 17.9-9.9zm197.9-44.4c-4.6 5.9-9.3 11.7-14.4 17.1-1.2 1.3-2.4 2.5-3.6 3.8l-.5.5-4.2 4.2-2.1 2.1c-.7.7-1.4 1.3-2.1 2l-4.3 4-2.1 2-2.2 1.9-3.2 2.8-1.2 1c-1.4 1.3-3 2.5-4.5 3.8l-4.5 3.7c-.7.6-1.5 1.2-2.3 1.8l-2.3 1.8-4.6 3.6-4.7 3.5c-1.6 1.1-3.1 2.3-4.8 3.4-3.2 2.2-6.4 4.5-9.8 6.5-1.7 1-3.3 2.1-5 3.1l-5.1 3-2.5 1.5-2.6 1.4-5.2 2.8-5.3 2.6-2.7 1.3-2.7 1.2-5.4 2.4-5.5 2.2c-1.8.8-3.7 1.4-5.6 2.1-1.9.7-3.7 1.4-5.7 2l-5.7 1.8-5.8 1.6c-1.9.6-3.9 1-5.8 1.4l-2.9.7-3 .6-3 .6c-1 .2-2 .4-3 .5l-6 .9c-4 .4-8 .9-12.1 1-16.2.8-32.7-.8-48.4-5.3-15.8-4.5-30.8-11.7-44.1-21.4-.4-.3-.7-.5-1.1-.8l2.3-.8 2.8-.9 10.7-3.6 1.3-.5 1.4-.5 3-1.1 3-1.1 2.8-1.1c7.6 4.1 15.6 7.4 24 9.7 13.2 3.8 27.2 5.1 41.1 4.4 3.5-.1 7-.5 10.4-.9l5.2-.7c.9-.1 1.7-.3 2.6-.5l2.6-.5c.9-.2 1.7-.3 2.6-.5l2.6-.6c1.7-.4 3.4-.8 5.1-1.3l5.1-1.4 5.1-1.6c1.7-.5 3.4-1.2 5-1.7 1.7-.6 3.4-1.2 5-1.9l5-2c1.6-.7 3.3-1.5 4.9-2.2l2.4-1.1 2.4-1.2 4.8-2.4 4.7-2.6 2.4-1.3 2.3-1.4 4.7-2.7c1.5-.9 3.1-1.9 4.6-2.9 3.1-1.9 6-4 9-6 1.5-1 3-2.1 4.4-3.2l4.4-3.2 4.3-3.3 1.8-1.4.4-.3c.7-.6 1.4-1.1 2.1-1.7l4.2-3.5c1.4-1.2 2.8-2.3 4.2-3.5l4.1-3.6 2.1-1.8 2-1.9c.5-.5 1.1-1 1.6-1.5 4.8-4.5 9.4-9 13.8-13.7l4.8-5.4c3.1-3.6 6.1-7.3 9-11.1l1.6-2.2.8-1.1.8-1.1 3.1-4.4.4-.7 2.6-3.8c.5-.7 1-1.5 1.5-2.3l1.5-2.3c3.8-6.1 7.5-12.4 10.8-18.8 3.3-6.4 6.5-13 9.4-19.6 1.4-3.3 2.8-6.5 4.1-9.8 6.4 1.5 12.8 2.9 19.4 4.3 1.1.2 2.2.4 3.3.7-1.8 4.7-3.7 9.4-5.7 14-3.1 7.2-6.5 14.2-10.1 21.2-3.4 6.5-7 12.8-10.9 19-.3.5-.6.9-.9 1.4l-1.6 2.5c-.5.8-1.1 1.7-1.6 2.5l-3.3 4.9-3.4 4.8-.9 1.2-.9 1.2-1.8 2.4c-.2.6-.5 1-.7 1.3zm217.1-162c2.1 7.4 3.6 15 4.4 22.7.1.8.2 1.5.2 2.3.2 2.9.4 5.8.4 8.7.1 4.4 0 8.8-.4 13.1-.1 1-.2 1.9-.3 2.9-.8 7.7-2.3 15.4-4.4 22.9-.1.4-.2.9-.4 1.3-4.6 15.8-12.1 30.7-21.9 43.9-9.8 13.2-21.9 24.5-35.2 33.7-3.3 2.3-6.8 4.5-10.2 6.6l-5.3 3c-.9.5-1.8.9-2.7 1.4l-2.7 1.4c-.9.4-1.8.9-2.7 1.3l-2.7 1.3c-1.8.8-3.6 1.7-5.5 2.4l-5.6 2.3-5.6 2c-1.9.7-3.8 1.3-5.7 1.9-1.9.6-3.8 1.2-5.7 1.7l-5.7 1.6c-1.9.5-3.9.9-5.8 1.4l-2.9.7-2.9.6-5.8 1.2-5.8.9-2.9.5-2.9.4-5.9.7c-2 .2-3.9.4-5.9.6-3.9.4-7.8.6-11.7.8-2 .1-3.9.2-5.9.2l-5.9.1h-8.8c-1 0-2 0-2.9-.1l-5.8-.2c-1.9-.1-3.9-.1-5.8-.3l-1.6-.1c3-3.6 5.9-7.2 8.7-10.9l1.9-2.6 1-1.3.9-1.3 3.7-5.2.7-1h7.8l5.4-.1c1.8-.1 3.6-.1 5.4-.2 3.6-.2 7.2-.4 10.8-.8 1.8-.2 3.6-.3 5.4-.5l5.4-.7 2.7-.3 2.7-.4 5.3-.9 5.3-1 2.6-.5 2.6-.6c1.7-.4 3.5-.8 5.2-1.2l5.1-1.4c1.7-.4 3.4-1 5.1-1.6 1.7-.6 3.4-1 5.1-1.7l5-1.8 4.9-2c1.6-.6 3.2-1.4 4.8-2.1l2.4-1.1 2.4-1.2 2.3-1.2c.8-.4 1.6-.8 2.3-1.2l4.6-2.6c3-1.8 6-3.6 8.8-5.7 11.4-7.9 21.7-17.5 29.9-28.6 5.2-7 9.6-14.5 13.1-22.4 2.1-4.6 3.8-9.4 5.2-14.3 1.2-4.1 2.2-8.3 2.9-12.5.4-2.5.8-5.1 1.1-7.6.6-5.7.7-11.4.4-17.1-.1-1.1-.1-2.3-.2-3.4-.6-6.6-1.7-13.2-3.5-19.5-1.9-6.7-4.4-13.2-7.5-19.4-6.1-12.1-14.8-22.7-25.3-31.1l-2-1.6c-.7-.5-1.4-1-2-1.5l-2.1-1.5c-.7-.5-1.4-.9-2.1-1.4l-2.1-1.4-2.2-1.3-2.2-1.3-2.4-1.2c-6.3-3.3-12.7-6.1-19.3-8.4l-2.5-.9-1.2-.4-1.2-.4c-1.7-.5-3.3-1-5-1.5l-5-1.2c-.8-.2-1.7-.3-2.5-.5l-2.5-.5c-3.9-.7-7.9-1.2-11.9-1.4.2-3.5.3-6.9.4-10.4.2-4.2.3-8.3.4-12.5 5.1.3 10.1.9 15 1.8l3 .6 3 .6 6 1.5c2 .6 3.9 1.1 5.9 1.7l1.5.4 1.4.5 2.9 1c7.6 2.7 15.1 5.9 22.1 9.7l2.7 1.4 2.7 1.5 2.7 1.6 2.6 1.7c.9.6 1.8 1.1 2.6 1.7l2.5 1.8c.8.6 1.7 1.2 2.5 1.8l2.5 1.9c13 10.5 23.8 23.7 31.3 38.5 3.8 7.5 6.8 15 9 22.8zM1983.8 731.2z"/>
    <path class="st1" d="M2327.8 616.3c.4 2.6.7 5.3.9 7.9.4 5.3.6 10.5.5 15.8l1755-596.6-7.4-21.7-1749 594.6zM2117.2 638.4c-7.4-1.7-14.8-3.5-22.3-5.4-2.2-.6-4.4-1.1-6.7-1.7-10.1-2.6-20.3-5.2-30.5-7.8-3.6 3.9-7.1 8-10.7 12-2.1 2.4-4.2 4.9-6.2 7.3 13.9 3.5 27.8 7.1 41.8 10.6 2 .5 3.9 1 5.9 1.5 7.4 1.8 14.8 3.7 22.3 5.4 5.4 1.2 10.8 2.4 16.3 3.6 2.1.4 4.1.8 6.2 1.2 5.5 1.1 11 2.1 16.6 2.9 2.1.3 4.1.6 6.2.9 5.7.8 11.4 1.4 17.2 1.8 7.9.6 15.7.8 23.6.7 7.9-.1 15.8-.6 23.6-1.4 12-1.3 24-3.4 35.8-6.4.2-.6.3-1.1.5-1.7 1.5-5.2 2.6-10.6 3.1-16 .2-2.4.4-4.8.4-7.2h-.1c-13.8 4.1-27.9 6.9-42.2 8.5-7.1.8-14.3 1.2-21.5 1.3-7.2.1-14.4-.1-21.6-.6-4.2-.3-8.5-.8-12.7-1.3-7.5-1-15.1-2.2-22.7-3.7-2.6-.5-5.2-1-7.8-1.6-4.7-.7-9.6-1.8-14.5-2.9zM1974.8 651.8c-6.5 8.3-13 16.6-19.4 24.8-1.4 1.8-2.8 3.6-4.3 5.4 6.1 4.7 12.2 9.3 18.5 13.6 1.3-1.6 2.5-3.2 3.8-4.7 8.9-11.3 17.8-22.7 26.7-33.9.4-.5.9-1.1 1.3-1.6l14.7-18.3c4.5-5.5 9.1-10.9 13.7-16.3 1-1.1 1.9-2.2 2.9-3.3 3.9-4.5 7.9-8.9 11.9-13.2l5.7-6c3.2-3.3 6.4-6.6 9.7-9.8 5.2-5.1 10.6-10.1 16.1-14.8 5.5-4.7 11.2-9.2 17-13.4 5-3.6 10.2-7 15.4-10 .7-8.9 1.3-17.8 1.7-26.8-10.8 5.2-20.9 11.4-30.5 18.3-6.4 4.6-12.6 9.5-18.5 14.6s-11.7 10.4-17.2 15.8-10.9 11-16.2 16.6c-1 1.1-2.1 2.3-3.1 3.4-4.1 4.5-8.2 9.1-12.2 13.8-1.7 1.9-3.3 3.9-5 5.9-5.6 6.6-11.1 13.3-16.5 20-2.5 3.1-5.1 6.3-7.6 9.4-2.9 3.2-5.7 6.8-8.6 10.5zM1788.7 823.7l4.4-1.5 17-5.8 7.1-2.4 3.6-1.2c1.8-.6 3.6-1.3 5.5-1.9l2.8-1 2.8-1.1c2.4-.9 4.7-1.8 7-2.8 1.1-.4 2.1-.9 3.2-1.3 11.1-4.8 21.9-10.4 32.2-16.8 6.7-4.1 13.3-8.6 19.6-13.3 6.3-4.7 12.4-9.7 18.3-14.9 4.3-3.9 8.5-7.8 12.5-11.9-1.6-1.1-3.1-2.2-4.7-3.4-4.7-3.4-9.3-7-13.8-10.6-3 3-6.1 5.9-9.3 8.8-5.4 4.8-11 9.3-16.7 13.6-5.8 4.3-11.7 8.4-17.9 12.1-12.3 7.5-25.2 13.9-38.6 19h-.1l-2.5.9-2.5.9c-1.7.6-3.4 1.2-5.2 1.8l-10.7 3.6-1.8.6-19.6 6.7-2.7.9-22.2 7.5-1749 594.9 7.4 21.7 1755-596.6 18.9-6.5z"/>
    <path class="st1" d="m1790.8 698.1 1.1-2.4c2.9-6.4 6.4-12.6 10.1-18.4l1.4-2.2.7-1.1.8-1c1-1.4 2-2.8 3.1-4.2l3.2-4c.5-.7 1.1-1.3 1.7-1.9l1.7-1.9c2.7-2.9 5.5-5.7 8.5-8.4 2.1-1.9 4.3-3.7 6.6-5.4 3.9-2.9 7.9-5.5 12.2-7.9 1.7-1 3.5-1.9 5.2-2.7 5.4-2.7 11.1-4.9 16.9-6.7.8-.2 1.6-.5 2.4-.7 7.6-2.2 15.4-3.8 23.4-4.8 6-.8 12.2-1.2 18.3-1.4 7.2-.2 14.4-.1 21.6.3 7.2.4 14.5 1 21.8 1.9 4.5.5 9.1 1.2 13.6 1.9.1-.1.1-.2.2-.2 5.4-6.7 10.8-13.5 16.4-20.2-1.5-.3-3-.5-4.5-.8-7.6-1.3-15.2-2.4-22.9-3.3-7.7-.9-15.5-1.6-23.3-2-7.8-.4-15.7-.6-23.6-.3-11.7.4-23.6 1.6-35.3 4.1-4.1.9-8.1 1.9-12.2 3-4 1.2-7.9 2.5-11.8 4-3.8 1.4-7.5 3.1-11.1 4.8-3.4 1.7-6.7 3.5-10 5.5-3.8 2.3-7.5 4.8-11.1 7.5-2.6 1.9-5 3.9-7.5 6-3.8 3.3-7.4 6.9-10.8 10.6l-2 2.3c-.7.8-1.4 1.5-2 2.3l-3.8 4.8c-1.2 1.6-2.4 3.3-3.6 4.9l-.9 1.2-.8 1.3-1.7 2.5c-4.4 6.8-8.3 13.9-11.7 21.2l-1.3 2.7-1.2 2.9-1.2 2.9-1.1 2.9c-.3 1-.7 2-1 2.9l-.9 3-.9 3-.8 3c-4 16.2-4.4 33.3-1.3 49.6 1.5 8 3.7 15.7 6.7 23.2l5.7-1.9 16-5.4c-2.6-6.5-4.6-13.2-5.9-20-2.5-13.3-2.1-27 1.1-40.1l.6-2.4c.2-.8.5-1.6.7-2.4l.7-2.4c.3-.8.6-1.6.8-2.4l.9-2.4 1-2.3 1.1-2.6zM2087.5 758.5l.9-1.2 3.4-4.8 3.3-4.9c.6-.8 1.1-1.6 1.6-2.5l1.6-2.5c.3-.5.6-.9.9-1.4 3.9-6.2 7.5-12.5 10.9-19 3.6-6.9 7-14 10.1-21.2 2-4.6 3.9-9.3 5.7-14-1.1-.2-2.2-.4-3.3-.7-6.6-1.4-13-2.8-19.4-4.3-1.3 3.3-2.6 6.6-4.1 9.8-2.9 6.7-6 13.2-9.4 19.6-3.3 6.4-7 12.7-10.8 18.8l-1.5 2.3c-.5.8-1 1.5-1.5 2.3l-2.6 3.8-.4.7-3.1 4.4-.8 1.1-.8 1.1-1.6 2.2c-2.9 3.8-5.9 7.5-9 11.1l-4.8 5.4c-4.4 4.7-8.9 9.2-13.8 13.7-.5.5-1.1 1-1.6 1.5l-2 1.9-2.1 1.8-4.1 3.6c-1.4 1.2-2.8 2.4-4.2 3.5l-4.2 3.5c-.7.6-1.4 1.1-2.1 1.7l-.4.3-1.8 1.4-4.3 3.3-4.4 3.2c-1.5 1.1-2.9 2.2-4.4 3.2-3 2-6 4.1-9 6-1.5 1-3 1.9-4.6 2.9l-4.7 2.7-2.3 1.4-2.4 1.3-4.7 2.6-4.8 2.4-2.4 1.2-2.4 1.1c-1.6.7-3.3 1.5-4.9 2.2l-5 2c-1.6.7-3.3 1.3-5 1.9-1.7.6-3.3 1.2-5 1.7l-5.1 1.6-5.1 1.4c-1.7.5-3.4.9-5.1 1.3l-2.6.6c-.9.2-1.7.3-2.6.5l-2.6.5c-.9.2-1.7.3-2.6.5l-5.2.7c-3.5.4-6.9.7-10.4.9-13.9.7-27.8-.7-41.1-4.4-8.3-2.4-16.4-5.6-24-9.7l-2.8 1.1-3 1.1-3 1.1-1.4.5-1.3.5-10.7 3.6-2.8.9-2.3.8c.4.3.7.6 1.1.8 13.3 9.7 28.3 17 44.1 21.4 15.8 4.5 32.3 6.1 48.4 5.3 4.1-.2 8.1-.6 12.1-1l6-.9c1-.1 2-.3 3-.5l3-.6c1-.2 2-.3 3-.6l2.9-.7c2-.5 3.9-.9 5.8-1.4l5.8-1.6 5.7-1.8c1.9-.6 3.8-1.3 5.7-2 1.9-.7 3.8-1.3 5.6-2.1l5.5-2.2 5.4-2.4 2.7-1.2 2.7-1.3 5.3-2.6 5.2-2.8 2.6-1.4 2.5-1.5 5.1-3c1.7-1 3.3-2.1 5-3.1 3.4-2.1 6.6-4.3 9.8-6.5 1.6-1.1 3.2-2.3 4.8-3.4l4.7-3.5 4.6-3.6 2.3-1.8c.8-.6 1.5-1.2 2.3-1.8l4.5-3.7c1.5-1.2 3-2.5 4.5-3.8l1.2-1 3.2-2.8 2.2-1.9 2.1-2 4.3-4c.7-.7 1.4-1.3 2.1-2l2.1-2.1 4.2-4.2.5-.5c1.2-1.3 2.4-2.5 3.6-3.8 5.1-5.5 9.8-11.2 14.4-17.1.3-.3.5-.7.8-1l1.8-2.4.8-1.5zM2063 78.6c8.6 28.7 16.7 57.6 24 86.7 7.3 29.1 14 58.3 19.9 87.6 5.9 29.4 11.1 58.9 15.2 88.5 4.2 29.6 7.4 59.3 9.3 89.1 1 14.9 1.6 29.8 1.9 44.7.1 5.1.1 10.1.1 15.2 0 8-.1 15.9-.3 23.8-.1 1.8-.1 3.7-.2 5.5-.2 6.3-.5 12.7-.9 19-.5 8.6-1.2 17.2-2.1 25.8-1.5 14.6-3.5 29.1-6.2 43.5-.5 2.7-1 5.4-1.6 8.1 4.7 1.1 9.5 2.1 14.1 3.1 2.8.6 5.5 1.1 8.3 1.6.6-2.9 1.2-5.8 1.7-8.7 3.4-18.5 5.8-37.2 7.4-55.9.7-7.8 1.2-15.7 1.6-23.5.2-4 .4-8.1.5-12.1l.3-11.1c.2-7.7.2-15.4.2-23 0-3.9-.1-7.8-.1-11.7-.3-15.3-1-30.5-2-45.7-2-30.4-5.3-60.7-9.5-90.8-4.2-30.1-9.5-60-15.5-89.8-6-29.8-12.8-59.3-20.2-88.7-7.4-29.4-15.5-58.6-24.3-87.7-4.4-14.5-8.9-29-13.6-43.4-.1-.2-.2-.5-.2-.7l-21.7 7.4c.1.2.1.3.2.5 4.9 14 9.4 28.3 13.7 42.7z"/>
</svg>
