<svg xmlns="http://www.w3.org/2000/svg" width="208.3" height="153.2" style="overflow:visible;enable-background:new 0 0 208.3 153.2" xml:space="preserve">
    <path d="M.2 53.9C.3 47.4.8 20.4 11 17.7c8.2-2.1 13.3 1.7 20.1-3.9 2-1.7 3.7-3.3 4.6-5.3C40.4-1.4 45.6-.7 61 1c5.5.6 17.1 3.6 16.5 8-.4 3.1-3.6 5.3-4 8.4-.4 3.1 7.4 4.1 10.6 4.6 2.1.3 4.1.5 6.2.8 13.3 2.2 4.1 6.2 9.2 8.9 9.7-.8 12.3-23.9 31.1-19.8 6.1 1.3 26.2 6.9 24.7 12.4-.5 1.8-2.3 2.9-2.8 4.7-1.7 6.1 43 17.1 51.4 25.2 10.4 9.1-.8 33-3.9 41.1-3.8 9.6-8.6 18.8-13.7 27.9-5.4 9.8-14.1 22.6-25 28.5-2.3 1.2-5.1 1.6-8 1.4-10.5-.6-20.6-4.3-30.8-7.1-13.5-3.7-19.2-4.7-16.4-17.1 1.5-6.7 6.4-8.7 15.5-6.4 4.4 1.1 8.6 2.9 13 4.2 1.9.5 4.3.9 6.1.4 6.9-1.9 19.9-40.1 22.2-47.3 1.3-4.2 5-12.9 1.3-17.5-1.4-1.7-4.2-3.1-6.5-4.1-4-1.6-8.3-2.9-12.5-4-10.5-2.9-22.2-1.1-24.7 6.1.1.3.2.5.3.8.5.3 1.1.5 1.6.8 3.4.8 6-.4 9.6.5 10.8 2.6 17.7 32.8 15.7 38.8-1.9 6.1-18 5.2-25 3.5C111.6 101.9 112 72 104 70.4c-3-.6-2.9 1.4-6.5.7-1.7-.3-3-1.2-4-2.1-.5.2-1.1.4-1.6.6-1.6 1.7-4 14.1-4.5 16.9-1 5.5-1.6 11.1-2.5 16.6-2 11.1-3.6 21.8-21.9 19-1.5-.2-3-.4-4.6-.8-5.5-1.2-11.2-2-16.7-2.5-9.9-.9-3.7 6.5-7.8 8-2 .7-6.4.1-8.3 0-4.3-.3-10.7-1.2-14.2-3.4C1 117.3-.1 82.8 0 72.7c.1-6.2.2-12.5.2-18.8zM47.4 39c-7.8-.7-8.7 2.5-9 6.9-.2 2-.3 3.9-.5 5.9-.3 3.7 1 6.1 7 6.7 9.9.9 10.6-1.4 11.2-7.4.2-1.6.6-3 .7-4.7.4-3.5-.6-6.5-6.8-7.1-.8-.2-1.7-.2-2.6-.3zm4.9 54.7c.2-2.1 0-4 .3-5.9.6-5.5-1.4-8.2-9.5-9-5.4-.5-7.4 1.4-7.7 5.1-.1 1.9-.3 3.7-.4 5.6-.3 4.4 1.6 8.5 8.1 9.1 5.9.6 8.7-.4 9.2-4.9z" style="fill:#191919"/>
</svg>
