<svg xmlns="http://www.w3.org/2000/svg" width="187.5" height="150.9" style="overflow:visible;enable-background:new 0 0 187.5 150.9" xml:space="preserve">
    <path d="M3.9 83.7c6.3-3.2 19.3-2.9 26.6-2.9 5.7 0 23 .7 23-7 0-3.4-2.8-3.9-5.9-3.9-10.2 0-20.5 1.3-30.7 1.3-8.3 0-8.9-8.8-8.9-14.3 0-19.5 46-5.2 46-18.1 0-4.3-8.5-4.5-11.8-4.5-5.1 0-10.4.7-15.5.7-9.2 0-11.2-3.8-11.2-11.6 0-4.8.4-7.9 5.1-10.9C24.2 10.4 137.5 0 149.3 0c10.6 0 16.3 10.4 16.3 19 0 2.5-2.2 3.9-4.3 5-10.4 4.7-29.7 5.5-41.3 6.3-7.9.4-18.5.4-25.8 3.2-1.4.5-2.4 1.3-2.4 2.7 0 3.9 3.5 4.7 7.1 4.7 18.7 0 37.4-2 56.1-2 13.8 0 20.1.7 20.1 15 0 18.2-83.2 4.7-83.2 17.9 0 4.5 4.9 4.8 8.9 4.8 23 0 45.8-3.6 68.9-3.6 11.6 0 17.9 1.6 17.9 13.6 0 22-88.5 8.4-95 20.7-.6 1.1-.8 2.7-.8 3.9 0 5 .2 11.8 7.7 11.8 5.3 0 36.8.7 41.7-3.2 5.9-4.8 4.5-16.8 10.6-16.8s31.9.2 31.9 8.2c0 5.2-3 12.5-5.3 17.3-10.6 21.3-40.5 21.8-62.6 21.8-8.9 0-17.9.5-26.8.5-17.5 0-28.3-2.5-32.9-19.3-1.6-5.7-2-12-2-17.9 0-2.1-.4-4.5-2.2-5.9-1.6-1.4-4.3-1.6-6.5-1.6-8.9 0-17.5.4-26.4.4-15 0-19.1-2.9-19.1-16.8.1-2.6 1.5-4.7 4-6z" style="fill:#191919"/>
</svg>
