<svg xmlns="http://www.w3.org/2000/svg" width="187.9" height="160.8" style="overflow:visible;enable-background:new 0 0 187.9 160.8" xml:space="preserve"><path d="M101.9 46.3v-.9c0-3-8.3-3-10.6-3-3.5 0-6.9.4-10.2.4-11.2 0-11.4-6.3-11.4-14.5 0-9.3 7.9-11.6 16.7-11.6 3.7 0 7.7.4 11.4.4 22.8 0 0-17 22-17 4.9 0 23-.2 24.2 5.7.2 1.4.2 2.7.2 4.1 0 2.5.4 3.8 2.6 5.2 3.7 2.5 15.7 2.9 20.5 2.9 15.1 0 19.7 5.7 19.7 19 0 7-10.2 7.2-15.7 7.2-4.9 0-9.8-.7-14.8-.7-4.5 0-7.9-.4-12 1.3-8.1 3-23 20.4-27 27.7 0 1.4 1.6 2.5 3 2.5 9.8 0 25.4-25.6 36.8-25.6 5.3 0 19.7 6.1 19.7 11.8 0 3.9-6.5 10.2-9.4 13.1-9.2 9.1-23 19.7-34.4 26.6-8.7 5.4-18.7 9.8-28.3 13.8-7.5 3-21.6 8.6-29.7 8.6-9.2 0-14.8-11.6-14.8-18.8 0-9.1 27.7-7.3 27.7-16.6C88.1 84 79.6 75 75.3 75c-2.6 0-2.8 3.4-2.8 5 0 2.3.4 4.5.4 6.8 0 16.1-23.8-.2-23.8 20.2 0 13.2 1.2 26.3 1.2 39.5 0 7-2.6 14.1-11.6 14.1-21.2 0-34.2-1.4-34.2-24.3 0-2.3 1.8-3.8 4.3-3.8 2.4 0 4.7.5 7.1.9l2.6-.9v-3.8c0-4.3-.4-26.3-5.5-27.2-.6 0-1-.2-1.6-.2-1.4 0-2.8.4-4.3.4C-.8 101.7.2 83.3.2 79c0-1.3.4-2.1 1.4-2.9 6.9-5.2 15.7 1.1 15.7-11.8 0-2.1-.4-4.1-.4-6.3 0-4.7 2.2-4.7 6.3-5.9 1.6-.5 2-1.3 2.8-2.5 1.8-3 6.1-8.2 6.1-11.4 0-2.5-6.3-2.9-8.3-2.9-3.5 0-7.3.5-10.8.5-6.3 0-9.2-2-9.2-7.9 0-5 .6-11.1 4.5-14.8 5.5-5.4 36-4.8 44.7-4.8 12.2 0 13.4 4.7 13.4 14.5 0 4.7-.6 9.3-2.6 13.8-1.8 4.1-3.7 8-5.9 12-3 5-8.7 13.4-8.7 19 .2.2 2.6.9 3 .9 5.5 0 10.4-.7 15.5-2.5l-3-2.7c1.6-2.9 19.5-15.2 22.8-15.2 4.7 0 4.9 4.1 7.7 4.1 1.8 0 4.3-1.8 4.7-3.4l2-2.5zm22.3 98.2c-12.8 4.8-36.6 16.3-49.4 16.3-8.1 0-14.8-7.9-14.8-14.8 0-5.9 16.1-9.5 20.9-11.3 19.7-7.2 38.4-16.3 55.9-27.2 7.3-4.5 13.6-9.5 20.5-14.3 3.5-2.5 11.6-8.6 16.1-8.6 4.3 0 14.6 5.4 14.6 9.8 0 7.9-20.3 19-20.3 24.9 0 7.2 18.3 10.6 18.3 16.6 0 6.8-12 20.7-19.7 21.5-10.8-3.8-16.9-15.9-29.5-15.9-4.2 0-8.9 1.6-12.6 3z" style="fill:#191919"/></svg>