<svg xmlns="http://www.w3.org/2000/svg" width="181.6" height="164" style="overflow:visible;enable-background:new 0 0 181.6 164" xml:space="preserve"><path d="M37.6 66.4c-1.4-.7-2.8-.9-4.3-.9-2.2 0-4.3.4-6.7.4-14.8 0-.4-10.4-14-10.4-1.8 0-3.7.5-5.5.5C.8 56 0 52.8 0 47.8c0-7.9 0-16.5 3.3-24 1-2.1 2.4-4.1 4.7-5.4 9.8-5 38-2.9 50.8-4.7 4.7-.6 13.2-2.1 13.2-7.6C72 .4 80.5 0 85 0c4.3 0 19.9-.4 22.2 3.6 1 1.6.8 2.3.8 3.9 0 3 3.7 4.3 6.5 5 4.3 1.1 9.2 1.1 13.8 1.1 9.8 0 34.8.4 42.7 4.8 3 1.6 5.5 4.1 6.9 7 3.3 7 3 15.4 3 22.9 0 12.3-14 5-17.9 8.6-3.3 3 3.1 8.8-10.2 8.8-2.2 0-4.3-.4-6.5-.4-4.1 0-8.1.2-8.1 4.8 0 1.8 2.2 9.8 4.7 9.8 6.5 0 7.3-8.2 14-8.2 6.5 0 20.9 6.4 20.9 13.2 0 9.1-14.4 14-14.4 23.6 0 10.9 18.3 17.3 18.3 25.2 0 6.6-13.6 21.3-21 21.3-5.5 0-10.2-3-14-6.4-10.4-9.7-19.1-24.1-25.2-36.5-6.3-12.5-11.8-25.2-17.5-37.9-.8-1.6-3-6.8-4.5-7.9-2.4-1.6-4.1-1.3-7.1-1.3-1.8 0-5.7-.2-5.7 2.1 0 2.9 3.1 6.6 5.1 8.8 3.9 4.3 7.5 8.9 11 13.4 4.5 5.7 8.1 12 11.2 18.4 3.5 7.3 4.9 15.2 4.9 23.1 0 26.6-8.1 33.1-37 33.1-4.7 0-19.7-.4-21.8-4.7-1.6-3.2-1.2-14.1-6.3-14.1-8.1 0-21.6 10.4-30.9 10.4-7.1 0-15.7-10-15.7-16.1 0-10.2 67.7-23.6 67.7-35.4H74c-11.8 0-39.7 20-54.9 20-6.5 0-14.4-8.2-14.4-14 0-10 49.6-15.9 50.8-24l-1.8-2.1c-10.8 1.6-26.2 11.4-35.2 11.4-6.1 0-14.2-9.7-14.2-14.8 0-4.3 28.7-12 33.4-13.8l-.1-.3zM60.8 37c-3.2 0-23.8.7-23.8 4.5 3 .5 6.1.9 9 .9h82.2c1.6 0 10.6-.5 10.6-2.3 0-2.9-12.2-3-14.6-3H60.8zm19.5 101.6c1 0 2-.4 2.8-.9.4-1.1.6-2.5.6-3.6v-3.6l-1.6-1.4c-2.4 0-11.8 5.4-11.8 7.7 0 1.4 3.7 1.8 4.9 1.8h5.1z" style="fill:#191919"/></svg>