<svg xmlns="http://www.w3.org/2000/svg" width="174.3" height="149.7" style="overflow:visible;enable-background:new 0 0 174.3 149.7" xml:space="preserve">
    <path d="M155.6 148.5c-17.3 0-44.1-29.3-52.5-41.9-2.8-3.9-4.3-8.4-8.3-11.6-1.4-1.3-3.1-1.8-5.1-1.8-1.6 0-3.1.5-4.5 1.4-3.7 2.7-11 12-14.4 15.9-10.4 12.5-22 24.9-36.6 33.4-3.5 2-8.3 5.7-12.4 5.7-7.5 0-21.8-12.5-21.8-19.3l.8-2.5c3-2.7 6.5-5 9.6-7.7 7.1-5.4 14-11.1 20.7-16.8 8.1-7 15.3-14.5 21.2-23.1 5.9-8.4 9.8-18.1 12.4-27.7 3.3-12.3 4.1-25.2 4.1-37.7 0-3.4 0-10.9 3.3-13.1 3.3-2.1 11-1.8 15-1.8 4.5 0 14.4-.4 17.1 3.8 1.6 2.3 2 8 2.2 10.7.4 6.6 1.2 13.1 2 19.7 2.4 17.5 7.3 35.1 17.3 50.3 3.1 4.7 6.5 8.9 10.4 13.1 4.9 5 38.2 28.6 38.2 32.6 0 6.6-11.2 18.4-18.7 18.4z" style="fill:#191919"/>
</svg>
